G04*
G04 #@! TF.GenerationSoftware,Altium Limited,Altium Designer,19.1.6 (110)*
G04*
G04 Layer_Color=65535*
%FSLAX24Y24*%
%MOIN*%
G70*
G01*
G75*
%ADD10C,0.0039*%
%ADD11C,0.0079*%
%ADD12C,0.0118*%
%ADD13C,0.0059*%
D10*
X13981Y24200D02*
G03*
X13981Y24200I-1181J0D01*
G01*
X2481Y29300D02*
G03*
X2481Y29300I-1181J0D01*
G01*
Y1300D02*
G03*
X2481Y1300I-1181J0D01*
G01*
X6981Y15800D02*
G03*
X6981Y15800I-1181J0D01*
G01*
X20981D02*
G03*
X20981Y15800I-1181J0D01*
G01*
X37481Y29300D02*
G03*
X37481Y29300I-1181J0D01*
G01*
X37398Y1261D02*
G03*
X37398Y1261I-1181J0D01*
G01*
D11*
X25689Y22043D02*
Y25980D01*
X25538Y26131D02*
X25689Y25980D01*
X24508Y26176D02*
X25492D01*
X24311Y25980D02*
X24462Y26131D01*
X24311Y22043D02*
Y25980D01*
Y22043D02*
X25689D01*
X24409Y26078D02*
X24508Y26176D01*
X25492D02*
X25591Y26078D01*
X27107Y26146D02*
X27206Y26048D01*
X27153Y26100D02*
X27304Y25949D01*
X26123Y26146D02*
X27107D01*
X27304Y22012D02*
Y25949D01*
X26025Y26048D02*
X26123Y26146D01*
X25926Y25949D02*
X26077Y26100D01*
X25926Y22012D02*
X27304D01*
X25926D02*
Y25949D01*
D12*
X4412Y18124D02*
Y20124D01*
Y18124D02*
X20712D01*
X4412Y20124D02*
Y22124D01*
X20712D01*
Y18124D02*
Y22124D01*
D13*
X29815Y24580D02*
Y26680D01*
X27615D02*
X29815D01*
X27615Y24580D02*
Y26680D01*
Y24580D02*
X29815D01*
X26362Y26708D02*
X26297Y26774D01*
X26166D01*
X26100Y26708D01*
Y26446D01*
X26166Y26380D01*
X26297D01*
X26362Y26446D01*
X26494Y26380D02*
X26625D01*
X26559D01*
Y26774D01*
X26494Y26708D01*
X27084Y26774D02*
X26953Y26708D01*
X26822Y26577D01*
Y26446D01*
X26887Y26380D01*
X27018D01*
X27084Y26446D01*
Y26511D01*
X27018Y26577D01*
X26822D01*
X28400Y19080D02*
Y19474D01*
X28597D01*
X28662Y19408D01*
Y19277D01*
X28597Y19211D01*
X28400D01*
X28531D02*
X28662Y19080D01*
X28990D02*
Y19474D01*
X28794Y19277D01*
X29056D01*
X28400Y24074D02*
Y23680D01*
X28597D01*
X28662Y23746D01*
Y24008D01*
X28597Y24074D01*
X28400D01*
X28794Y24008D02*
X28859Y24074D01*
X28990D01*
X29056Y24008D01*
Y23942D01*
X28990Y23877D01*
X28925D01*
X28990D01*
X29056Y23811D01*
Y23746D01*
X28990Y23680D01*
X28859D01*
X28794Y23746D01*
X25100Y20180D02*
Y20574D01*
X25297D01*
X25362Y20508D01*
Y20377D01*
X25297Y20311D01*
X25100D01*
X25231D02*
X25362Y20180D01*
X25756Y20574D02*
X25494D01*
Y20377D01*
X25625Y20442D01*
X25690D01*
X25756Y20377D01*
Y20246D01*
X25690Y20180D01*
X25559D01*
X25494Y20246D01*
X24300Y16580D02*
Y16974D01*
X24497D01*
X24562Y16908D01*
Y16777D01*
X24497Y16711D01*
X24300D01*
X24431D02*
X24562Y16580D01*
X24694Y16908D02*
X24759Y16974D01*
X24890D01*
X24956Y16908D01*
Y16842D01*
X24890Y16777D01*
X24825D01*
X24890D01*
X24956Y16711D01*
Y16646D01*
X24890Y16580D01*
X24759D01*
X24694Y16646D01*
X27000Y21574D02*
Y21180D01*
X27197D01*
X27262Y21246D01*
Y21508D01*
X27197Y21574D01*
X27000D01*
X27394D02*
Y21180D01*
X27590D01*
X27656Y21246D01*
Y21508D01*
X27590Y21574D01*
X27394D01*
X28050D02*
X27918Y21508D01*
X27787Y21377D01*
Y21246D01*
X27853Y21180D01*
X27984D01*
X28050Y21246D01*
Y21311D01*
X27984Y21377D01*
X27787D01*
X31062Y26008D02*
X30997Y26074D01*
X30866D01*
X30800Y26008D01*
Y25746D01*
X30866Y25680D01*
X30997D01*
X31062Y25746D01*
X31456Y25680D02*
X31194D01*
X31456Y25942D01*
Y26008D01*
X31390Y26074D01*
X31259D01*
X31194Y26008D01*
X31850Y26074D02*
X31587D01*
Y25877D01*
X31718Y25942D01*
X31784D01*
X31850Y25877D01*
Y25746D01*
X31784Y25680D01*
X31653D01*
X31587Y25746D01*
X23362Y27308D02*
X23297Y27374D01*
X23166D01*
X23100Y27308D01*
Y27046D01*
X23166Y26980D01*
X23297D01*
X23362Y27046D01*
X23494Y26980D02*
X23625D01*
X23559D01*
Y27374D01*
X23494Y27308D01*
X23822D02*
X23887Y27374D01*
X24018D01*
X24084Y27308D01*
Y27242D01*
X24018Y27177D01*
X23953D01*
X24018D01*
X24084Y27111D01*
Y27046D01*
X24018Y26980D01*
X23887D01*
X23822Y27046D01*
X24762Y26708D02*
X24697Y26774D01*
X24566D01*
X24500Y26708D01*
Y26446D01*
X24566Y26380D01*
X24697D01*
X24762Y26446D01*
X24894Y26380D02*
X25025D01*
X24959D01*
Y26774D01*
X24894Y26708D01*
X25222D02*
X25287Y26774D01*
X25418D01*
X25484Y26708D01*
Y26446D01*
X25418Y26380D01*
X25287D01*
X25222Y26446D01*
Y26708D01*
M02*
