M48
;Layer_Color=9474304
;FILE_FORMAT=2:3
INCH,LZ
;TYPE=PLATED
T1F00S00C0.028
T2F00S00C0.030
T3F00S00C0.035
T5F00S00C0.067
T6F00S00C0.079
T7F00S00C0.126
%
T01
X00898Y00592
X00925Y00681
X01028Y00803
X00925Y00924
X01325Y00884
X01274Y0104
X01452Y01123
X0146Y01218
X01678Y01137
Y01037
X01693Y00736
X01692Y00634
X01694Y00559
X01338Y00594
X01331Y00682
X01273Y00536
X01316Y01611
X01529Y01462
X01765Y01427
X01819Y01627
X01974Y01358
X02337Y01856
X01Y01436
X0089Y01428
X0047Y01228
X0057Y00708
X00655Y02628
X00653Y02768
X0112Y02028
X01162Y01913
X01009Y01912
X0144Y01914
X01686Y01918
X0158Y02048
X0163Y02108
X013Y02078
X01962Y02026
X01964Y02159
X01867Y02516
X02407Y02645
X0242Y02398
X02362Y02222
X02902Y02267
X02892Y02582
X03114Y02672
X03201Y01945
X0286Y01868
T02
X0063Y00267
X00708
X00787
X00866
X00945
X01023
X01102
X01181
X0126
X01338
X01417
X01496
X01574
X01653
X01732
X01811
Y00346
X01732
X01653
X01574
X01496
X01417
X01338
X0126
X01181
X01102
X01023
X00945
X02165Y00346
X02244
Y00425
Y00503
X02165
Y00425
Y00582
Y00661
X02244
Y00582
Y00739
X02165
Y00818
X02165Y00897
X02244
Y00818
Y00976
X02165
Y01054
X02244
Y01133
X02165
Y01212
X02244
Y01291
X02165
Y01369
X02244
Y01448
X02165
Y01527
X02244
Y01606
X02165
Y01684
X02244
Y01763
X02165
Y01842
X02244
X00354
X00275
Y01763
X00354
Y01684
X00275
Y01606
X00354
Y01527
X00275
Y01448
X00354
Y01369
X00275
Y01291
X00354
Y01212
X00275
Y01133
X00354
Y01054
X00275
Y00976
X00354
Y00897
Y00818
Y00739
Y00661
Y00582
Y00503
Y00425
Y00346
X00275
Y00425
Y00503
Y00582
Y00661
Y00739
Y00818
X00275Y00897
X0063Y00346
X00708
X00787
X00866
X00354Y01921
X00275
Y01999
X00354
Y02078
X00275
Y02157
X00354
Y02236
X00275
Y02314
X00354
Y02393
X00275
X01063Y02629
Y02708
X01141
X0122
X01299
X01378
Y02629
X01299
X0122
X01141
X01456
Y02708
X01535
X01614
X01693
X01771
X0185
X01929
X02008
X02086
X02165
Y02629
X02086
X02008
X01929
X0185
X01771
X01693
X01614
X01535
X02244
Y02708
X02244Y02393
X02165
Y02314
X02244
Y02236
X02165
Y02157
X02244
Y02078
X02165
Y01999
X02244
Y01921
X02165
T03
X0047Y00108
X0057
X02529Y00528
X02629
X02729
X02829
X02929
X03029
X03129
X03229
X03329
X03429
X03529
Y00628
X03429
X03329
X03229
X03129
X03029
X02929
X02829
X02729
X02629
X02529
Y01428
X02629
X02729
X02829
X02929
X03029
X03129
X03229
X03329
X03429
X03529
X03629
Y01528
X03529
X03429
X03329
X03229
X03129
X03029
X02929
X02829
X02729
X02629
X02529
X02723Y01673
X03023Y01773
X03223Y01673
X03628Y00625
Y00525
X02429Y00528
Y00628
Y01428
Y01528
X01761Y01812
X01661
X01561
X01461
X01361
X01261
X01161
X01061
X00961
X00861
X00761
Y02212
X00861
X00847Y02977
X00947
X00961Y02212
X01061
X01161
X01261
X01361
X01461
X01561
X01661
X01761
X02441Y02069
Y01969
X0252Y02724
X0262
T05
X03584Y0207
T06
X03484Y0197
Y0217
X03684
Y0197
T07
X0013Y0013
X03622Y00126
X0198Y0158
X0058
X0013Y0293
X0128Y0242
X0363Y0293
M30
