G04*
G04 #@! TF.GenerationSoftware,Altium Limited,Altium Designer,19.1.6 (110)*
G04*
G04 Layer_Color=32896*
%FSLAX24Y24*%
%MOIN*%
G70*
G01*
G75*
%ADD10C,0.0039*%
%ADD11C,0.0059*%
%ADD13C,0.0079*%
%ADD14C,0.0118*%
%ADD60C,0.0100*%
D10*
X36933Y14150D02*
Y16150D01*
X28933D02*
X36933D01*
X28933Y14150D02*
X36933D01*
X28933D02*
Y16150D01*
D11*
X20850Y3700D02*
Y5800D01*
X18650Y3700D02*
X20850D01*
X18650D02*
Y5800D01*
X20850D01*
X11121Y19487D02*
Y19094D01*
X10925D01*
X10859Y19159D01*
Y19422D01*
X10925Y19487D01*
X11121D01*
X10728D02*
Y19094D01*
X10531D01*
X10465Y19159D01*
Y19422D01*
X10531Y19487D01*
X10728D01*
X10334D02*
X10072D01*
Y19422D01*
X10334Y19159D01*
Y19094D01*
X23930Y24864D02*
X23668Y24470D01*
Y24864D02*
X23930Y24470D01*
X23340D02*
Y24864D01*
X23536Y24667D01*
X23274D01*
X3790Y22834D02*
X3528Y22440D01*
Y22834D02*
X3790Y22440D01*
X3396Y22768D02*
X3331Y22834D01*
X3200D01*
X3134Y22768D01*
Y22702D01*
X3200Y22637D01*
X3265D01*
X3200D01*
X3134Y22571D01*
Y22506D01*
X3200Y22440D01*
X3331D01*
X3396Y22506D01*
X19540Y1224D02*
X19278Y830D01*
Y1224D02*
X19540Y830D01*
X18884Y1224D02*
X19146D01*
Y1027D01*
X19015Y1092D01*
X18950D01*
X18884Y1027D01*
Y896D01*
X18950Y830D01*
X19081D01*
X19146Y896D01*
X22680Y22914D02*
X22418Y22520D01*
Y22914D02*
X22680Y22520D01*
X22024D02*
X22286D01*
X22024Y22782D01*
Y22848D01*
X22090Y22914D01*
X22221D01*
X22286Y22848D01*
X19450Y2566D02*
Y2960D01*
X19647D01*
X19712Y2894D01*
Y2632D01*
X19647Y2566D01*
X19450D01*
X20106Y2960D02*
X19844D01*
X20106Y2698D01*
Y2632D01*
X20040Y2566D01*
X19909D01*
X19844Y2632D01*
X15046Y14942D02*
X15112Y15007D01*
X15243D01*
X15308Y14942D01*
Y14679D01*
X15243Y14614D01*
X15112D01*
X15046Y14679D01*
X14915Y14614D02*
X14784D01*
X14849D01*
Y15007D01*
X14915Y14942D01*
X14587D02*
X14521Y15007D01*
X14390D01*
X14324Y14942D01*
Y14876D01*
X14390Y14811D01*
X14324Y14745D01*
Y14679D01*
X14390Y14614D01*
X14521D01*
X14587Y14679D01*
Y14745D01*
X14521Y14811D01*
X14587Y14876D01*
Y14942D01*
X14521Y14811D02*
X14390D01*
X17983Y2843D02*
X18049Y2909D01*
X18180D01*
X18245Y2843D01*
Y2581D01*
X18180Y2515D01*
X18049D01*
X17983Y2581D01*
X17852Y2515D02*
X17721D01*
X17786D01*
Y2909D01*
X17852Y2843D01*
X17524Y2581D02*
X17458Y2515D01*
X17327D01*
X17261Y2581D01*
Y2843D01*
X17327Y2909D01*
X17458D01*
X17524Y2843D01*
Y2777D01*
X17458Y2712D01*
X17261D01*
X28733Y15060D02*
Y15453D01*
X28536D01*
X28471Y15388D01*
Y15256D01*
X28536Y15191D01*
X28733D01*
X28602D02*
X28471Y15060D01*
X28077Y15453D02*
X28208Y15388D01*
X28340Y15256D01*
Y15125D01*
X28274Y15060D01*
X28143D01*
X28077Y15125D01*
Y15191D01*
X28143Y15256D01*
X28340D01*
X18448Y22873D02*
Y23267D01*
X18252D01*
X18186Y23201D01*
Y23070D01*
X18252Y23004D01*
X18448D01*
X18317D02*
X18186Y22873D01*
X18055Y23201D02*
X17989Y23267D01*
X17858D01*
X17793Y23201D01*
Y23136D01*
X17858Y23070D01*
X17793Y23004D01*
Y22939D01*
X17858Y22873D01*
X17989D01*
X18055Y22939D01*
Y23004D01*
X17989Y23070D01*
X18055Y23136D01*
Y23201D01*
X17989Y23070D02*
X17858D01*
X15699Y23192D02*
Y23586D01*
X15503D01*
X15437Y23520D01*
Y23389D01*
X15503Y23323D01*
X15699D01*
X15568D02*
X15437Y23192D01*
X15306D02*
X15175D01*
X15240D01*
Y23586D01*
X15306Y23520D01*
X14716Y23192D02*
X14978D01*
X14716Y23454D01*
Y23520D01*
X14781Y23586D01*
X14912D01*
X14978Y23520D01*
X12621Y19467D02*
Y19074D01*
X12425D01*
X12359Y19139D01*
Y19402D01*
X12425Y19467D01*
X12621D01*
X12228D02*
Y19074D01*
X12031D01*
X11965Y19139D01*
Y19402D01*
X12031Y19467D01*
X12228D01*
X11834Y19074D02*
X11703D01*
X11769D01*
Y19467D01*
X11834Y19402D01*
X15471Y19477D02*
Y19084D01*
X15275D01*
X15209Y19149D01*
Y19412D01*
X15275Y19477D01*
X15471D01*
X15078D02*
Y19084D01*
X14881D01*
X14815Y19149D01*
Y19412D01*
X14881Y19477D01*
X15078D01*
X14422Y19084D02*
X14684D01*
X14422Y19346D01*
Y19412D01*
X14487Y19477D01*
X14619D01*
X14684Y19412D01*
X17929Y19467D02*
Y19074D01*
X17733D01*
X17667Y19139D01*
Y19402D01*
X17733Y19467D01*
X17929D01*
X17536D02*
Y19074D01*
X17339D01*
X17273Y19139D01*
Y19402D01*
X17339Y19467D01*
X17536D01*
X17142Y19402D02*
X17077Y19467D01*
X16945D01*
X16880Y19402D01*
Y19336D01*
X16945Y19270D01*
X17011D01*
X16945D01*
X16880Y19205D01*
Y19139D01*
X16945Y19074D01*
X17077D01*
X17142Y19139D01*
X14920Y22034D02*
Y21640D01*
X14723D01*
X14658Y21706D01*
Y21968D01*
X14723Y22034D01*
X14920D01*
X14330Y21640D02*
Y22034D01*
X14526Y21837D01*
X14264D01*
X4898Y22432D02*
X4964Y22367D01*
Y22236D01*
X4898Y22170D01*
X4636D01*
X4570Y22236D01*
Y22367D01*
X4636Y22432D01*
X4570Y22564D02*
Y22695D01*
Y22629D01*
X4964D01*
X4898Y22564D01*
X4964Y22892D02*
Y23154D01*
X4898D01*
X4636Y22892D01*
X4570D01*
X20518Y21832D02*
X20584Y21767D01*
Y21636D01*
X20518Y21570D01*
X20256D01*
X20190Y21636D01*
Y21767D01*
X20256Y21832D01*
X20190Y22226D02*
Y21964D01*
X20452Y22226D01*
X20518D01*
X20584Y22160D01*
Y22029D01*
X20518Y21964D01*
X20190Y22357D02*
Y22488D01*
Y22423D01*
X20584D01*
X20518Y22357D01*
X14038Y5158D02*
X14103Y5224D01*
X14234D01*
X14300Y5158D01*
Y4896D01*
X14234Y4830D01*
X14103D01*
X14038Y4896D01*
X13906Y4830D02*
X13775D01*
X13841D01*
Y5224D01*
X13906Y5158D01*
X13316Y5224D02*
X13578D01*
Y5027D01*
X13447Y5092D01*
X13382D01*
X13316Y5027D01*
Y4896D01*
X13382Y4830D01*
X13513D01*
X13578Y4896D01*
X4928Y20932D02*
X4994Y20867D01*
Y20736D01*
X4928Y20670D01*
X4666D01*
X4600Y20736D01*
Y20867D01*
X4666Y20932D01*
X4600Y21064D02*
Y21195D01*
Y21129D01*
X4994D01*
X4928Y21064D01*
X4600Y21654D02*
Y21392D01*
X4862Y21654D01*
X4928D01*
X4994Y21588D01*
Y21457D01*
X4928Y21392D01*
X10358Y21518D02*
X10423Y21584D01*
X10554D01*
X10620Y21518D01*
Y21256D01*
X10554Y21190D01*
X10423D01*
X10358Y21256D01*
X10226D02*
X10161Y21190D01*
X10030D01*
X9964Y21256D01*
Y21518D01*
X10030Y21584D01*
X10161D01*
X10226Y21518D01*
Y21452D01*
X10161Y21387D01*
X9964D01*
D13*
X10435Y23822D02*
X10438Y23819D01*
X10435Y23822D02*
Y25433D01*
X10438Y23819D02*
X23032D01*
X10433Y25433D02*
X23032D01*
Y23823D02*
Y25433D01*
Y24646D02*
Y25197D01*
X21654Y22244D02*
X22205D01*
X21448D02*
X23028D01*
X21448Y990D02*
X21458Y980D01*
X21448Y990D02*
Y22244D01*
X23032Y984D02*
Y22244D01*
X23028Y980D02*
X23032Y984D01*
X21458Y980D02*
X23028D01*
X17076Y3047D02*
Y6984D01*
X17227Y7135D01*
X17273Y7181D02*
X18257D01*
X18303Y7135D02*
X18454Y6984D01*
Y3047D02*
Y6984D01*
X17076Y3047D02*
X18454D01*
X18257Y7181D02*
X18356Y7083D01*
X17175D02*
X17273Y7181D01*
X8963Y5689D02*
X12900D01*
X13051Y5538D01*
X13096Y4508D02*
Y5492D01*
X12900Y4311D02*
X13051Y4462D01*
X8963Y4311D02*
X12900D01*
X8963D02*
Y5689D01*
X12998Y4409D02*
X13096Y4508D01*
X12998Y5591D02*
X13096Y5492D01*
X5163Y21889D02*
X9100D01*
X9251Y21738D01*
X9296Y20708D02*
Y21692D01*
X9100Y20511D02*
X9251Y20662D01*
X5163Y20511D02*
X9100D01*
X5163D02*
Y21889D01*
X9198Y20609D02*
X9296Y20708D01*
X9198Y21791D02*
X9296Y21692D01*
X5132Y22011D02*
Y23389D01*
X9069D01*
X5132Y22011D02*
X9069D01*
Y23389D02*
X9220Y23238D01*
X9168Y23291D02*
X9266Y23192D01*
X9069Y22011D02*
X9220Y22162D01*
X9266Y22208D02*
Y23192D01*
X9168Y22109D02*
X9266Y22208D01*
X16034Y21330D02*
X19971D01*
Y22708D01*
X16034D02*
X19971D01*
X15883Y21480D02*
X16034Y21330D01*
X15837Y21526D02*
X15936Y21428D01*
X15837Y21526D02*
Y22511D01*
X15883Y22557D02*
X16034Y22708D01*
X15837Y22511D02*
X15936Y22609D01*
X6105Y200D02*
X6107Y197D01*
X6105Y200D02*
Y1811D01*
X6107Y197D02*
X18701D01*
X6102Y1811D02*
X18701D01*
Y201D02*
Y1811D01*
Y1024D02*
Y1575D01*
X2756Y22244D02*
X3307D01*
X2550D02*
X4130D01*
X2550Y990D02*
X2560Y980D01*
X2550Y990D02*
Y22244D01*
X4134Y984D02*
Y22244D01*
X4130Y980D02*
X4134Y984D01*
X2560Y980D02*
X4130D01*
D14*
X34630Y17929D02*
Y19307D01*
X37386D01*
X34630Y16551D02*
Y17929D01*
Y16551D02*
X37386D01*
Y19307D01*
X40535D01*
Y16551D02*
Y19307D01*
X37386Y16551D02*
X40535D01*
X23695Y13950D02*
X37765Y13950D01*
X23695Y2450D02*
Y13950D01*
Y2450D02*
X37765Y2450D01*
Y9700D02*
X38545D01*
Y6700D02*
Y9700D01*
X37765Y6700D02*
X38545D01*
X37765Y9700D02*
Y13950D01*
Y2450D02*
Y6700D01*
D60*
X22244Y23833D02*
Y25413D01*
X21438Y21457D02*
X23018D01*
X17913Y211D02*
Y1791D01*
X2540Y21457D02*
X4120D01*
M02*
