M48
;Layer_Color=9474304
;FILE_FORMAT=2:4
INCH,LZ
;TYPE=PLATED
T1F00S00C0.0283
T2F00S00C0.0295
T3F00S00C0.0300
T4F00S00C0.0354
T5F00S00C0.0669
T6F00S00C0.0787
T7F00S00C0.1260
%
T01
X012035Y00313
X012105Y00401
X012165Y00603
X012675Y00759
X010895Y00842
X011175Y01098
X010118Y011811
X01225Y0133
X014145Y012826
X016002Y01135
X01615Y00725
X015135Y00522
X016165Y004
X016435Y00311
X017985Y014425
X007737Y012204
X005905Y0121
X008635Y00856
Y00756
X008485Y00455
X008495Y00353
X008475Y00278
X010297Y016802
X011812Y016834
X014595Y01686
X017065Y01685
X02071Y01725
X019815Y01818
X019835Y01951
X023819Y020571
Y017815
X024265Y024366
X029119Y023738
X031335Y02464
X030513Y018693
X027645Y01838
X028012Y020686
T02
X006496Y000591
X007283
X008071
X008858
X009646
X010433
X01122
X012008
X012795
X013583
X01437
X015157
X015945
X016732
X01752
X018307
Y001378
X01752
X016732
X015945
X015157
X01437
X013583
X012795
X012008
X01122
X010433
X009646
X02185Y00689
X022638
Y007677
X02185
Y008465
X022638
Y009252
X02185
Y010039
X022638
Y010827
X02185
Y011614
X022638
Y012402
X02185
Y013189
X022638
Y013976
X02185
Y014764
X022638
Y015551
X02185
Y016339
X022638
X00374
X002953
Y015551
X00374
Y014764
X002953
Y013976
X00374
Y013189
X002953
Y012402
X00374
Y011614
X002953
Y010827
X00374
Y010039
X002953
Y009252
X00374
Y008465
X002953
Y007677
X00374
Y00689
X002953
X006496Y001378
X007283
X008071
X008858
X00374Y017126
X002953
Y017913
X00374
Y018701
X002953
Y019488
X00374
Y020276
X002953
Y021063
X00374
Y02185
X002953
X010827Y024213
Y025
X011614
X012402
X013189
X013976
Y024213
X013189
X012402
X011614
X014764
Y025
X015551
X016339
X017126
X017913
X018701
X019488
X020276
X021063
X02185
Y024213
X021063
X020276
X019488
X018701
X017913
X017126
X016339
X015551
X022638
Y025
X022638Y02185
X02185
Y021063
X022638
Y020276
X02185
Y019488
X022638
Y018701
X02185
Y017913
X022638
Y017126
X02185
T03
X02185Y001378
X022638
Y002165
Y002953
X02185
Y002165
Y00374
Y004528
X022638
Y00374
Y005315
X02185
Y006102
X022638
X00374
Y005315
Y004528
Y00374
Y002953
Y002165
Y001378
X002953
Y002165
Y002953
Y00374
Y004528
Y005315
Y006102
T04
X025485Y0032
X026485
X027485
X028485
X029485
X030485
X031485
X032485
X033485
X034485
X035485
Y0042
X034485
X033485
X032485
X031485
X030485
X029485
X028485
X027485
X026485
X025485
Y0122
X026485
X027485
X028485
X029485
X030485
X031485
X032485
X033485
X034485
X035485
X036485
Y0132
X035485
X034485
X033485
X032485
X031485
X030485
X029485
X028485
X027485
X026485
X025485
X030433Y01565
X033433Y01465
X035433Y01565
X036481Y004174
Y003174
X024485Y0032
Y0042
Y0122
Y0132
X017812Y016044
X016812
X015812
X014812
X013812
X012812
X011812
X010812
X009812
X01775Y0062
X008812Y016044
X007812
Y020044
X008812
X009812
X010812
X011812
X012812
X013812
X014812
X015812
X016812
X017812
T05
X036008Y017929
T06
X035008Y016929
Y018929
X035039Y020768
Y022428
X032905
Y020768
X037008Y018929
Y016929
T07
X036417Y001181
X020079Y013976
X005512
X001181Y001181
Y024803
X036417
M30
