G04*
G04 #@! TF.GenerationSoftware,Altium Limited,Altium Designer,19.1.6 (110)*
G04*
G04 Layer_Color=32896*
%FSLAX24Y24*%
%MOIN*%
G70*
G01*
G75*
%ADD10C,0.0039*%
%ADD11C,0.0079*%
%ADD12C,0.0118*%
%ADD13C,0.0059*%
%ADD39C,0.0100*%
%ADD82C,0.0083*%
D10*
X25733Y16230D02*
Y18230D01*
X33733Y16230D02*
Y18230D01*
X25733D02*
X33733D01*
X25733Y16230D02*
X33733D01*
D11*
X17589Y12107D02*
G03*
X17839Y12107I125J0D01*
G01*
X24521Y22849D02*
X28458D01*
Y21471D02*
Y22849D01*
X24521Y21471D02*
X28458D01*
X24370Y22698D02*
X24521Y22849D01*
X24324Y22652D02*
X24422Y22751D01*
X24324Y21668D02*
Y22652D01*
X24370Y21622D02*
X24521Y21471D01*
X24324Y21668D02*
X24422Y21569D01*
X25631Y20959D02*
X29568D01*
Y19581D02*
Y20959D01*
X25631Y19581D02*
X29568D01*
X25480Y20808D02*
X25631Y20959D01*
X25434Y20762D02*
X25532Y20861D01*
X25434Y19778D02*
Y20762D01*
X25480Y19732D02*
X25631Y19581D01*
X25434Y19778D02*
X25532Y19679D01*
X17558Y16753D02*
X17656Y16655D01*
X17558Y15572D02*
X17656Y15671D01*
X13523Y15474D02*
Y16852D01*
Y15474D02*
X17460D01*
X17611Y15625D01*
X17656Y15671D02*
Y16655D01*
X17460Y16852D02*
X17611Y16701D01*
X13523Y16852D02*
X17460D01*
X7056Y9581D02*
X7155Y9679D01*
X8139D02*
X8238Y9581D01*
X6958Y5545D02*
X8336D01*
Y9482D01*
X8185Y9633D02*
X8336Y9482D01*
X7155Y9679D02*
X8139D01*
X6958Y9482D02*
X7109Y9633D01*
X6958Y5545D02*
Y9482D01*
X10779Y6093D02*
Y10030D01*
X10930Y10181D01*
X10976Y10227D02*
X11960D01*
X12006Y10181D02*
X12157Y10030D01*
Y6093D02*
Y10030D01*
X10779Y6093D02*
X12157D01*
X11960Y10227D02*
X12059Y10128D01*
X10878D02*
X10976Y10227D01*
X12658Y10963D02*
Y14900D01*
X14036D01*
X12658Y10963D02*
X12809Y10812D01*
X12756Y10865D02*
X12855Y10766D01*
X14036Y10963D02*
Y14900D01*
X12855Y10766D02*
X13839D01*
X13885Y10812D02*
X14036Y10963D01*
X13839Y10766D02*
X13938Y10865D01*
X18989Y5107D02*
Y12107D01*
X16438Y5107D02*
X18989D01*
X16438D02*
Y12107D01*
X17589D01*
X17839D02*
X18989D01*
X24700Y26743D02*
X26700D01*
X24700D02*
Y27743D01*
X26700D01*
Y26743D02*
Y27743D01*
X24910Y19190D02*
Y21190D01*
X23910Y19190D02*
X24910D01*
X23910D02*
Y21190D01*
X24910D01*
X4200Y580D02*
X6200D01*
X4200D02*
Y1580D01*
X6200D01*
Y580D02*
Y1580D01*
X7970Y29270D02*
X9970D01*
X7970D02*
Y30270D01*
X9970D01*
Y29270D02*
Y30270D01*
X10235Y25902D02*
X10238Y25899D01*
X10235Y25902D02*
Y27513D01*
X10238Y25899D02*
X22832D01*
X10233Y27513D02*
X22832D01*
Y25903D02*
Y27513D01*
Y26726D02*
Y27277D01*
X21454Y24324D02*
X22005D01*
X21248D02*
X22828D01*
X21248Y3070D02*
X21258Y3060D01*
X21248Y3070D02*
Y24324D01*
X22832Y3064D02*
Y24324D01*
X22828Y3060D02*
X22832Y3064D01*
X21258Y3060D02*
X22828D01*
X5489Y3611D02*
Y7548D01*
X5338Y3460D02*
X5489Y3611D01*
X4308Y3414D02*
X5292D01*
X4111Y3611D02*
X4262Y3460D01*
X4111Y3611D02*
Y7548D01*
X5489D01*
X4209Y3512D02*
X4308Y3414D01*
X5292D02*
X5391Y3512D01*
X6952Y5409D02*
X10889D01*
X11040Y5258D01*
X11086Y4228D02*
Y5212D01*
X10889Y4031D02*
X11040Y4182D01*
X6952Y4031D02*
X10889D01*
X6952D02*
Y5409D01*
X10988Y4129D02*
X11086Y4228D01*
X10988Y5311D02*
X11086Y5212D01*
X4523Y26919D02*
X8460D01*
X8611Y26768D01*
X8656Y25738D02*
Y26722D01*
X8460Y25541D02*
X8611Y25692D01*
X4523Y25541D02*
X8460D01*
X4523D02*
Y26919D01*
X8558Y25639D02*
X8656Y25738D01*
X8558Y26821D02*
X8656Y26722D01*
X4492Y27041D02*
Y28419D01*
X8429D01*
X4492Y27041D02*
X8429D01*
Y28419D02*
X8580Y28268D01*
X8528Y28321D02*
X8626Y28222D01*
X8429Y27041D02*
X8580Y27192D01*
X8626Y27238D02*
Y28222D01*
X8528Y27139D02*
X8626Y27238D01*
X15834Y23410D02*
X19771D01*
Y24787D01*
X15834D02*
X19771D01*
X15683Y23560D02*
X15834Y23410D01*
X15637Y23606D02*
X15736Y23508D01*
X15637Y23606D02*
Y24591D01*
X15683Y24637D02*
X15834Y24787D01*
X15637Y24591D02*
X15736Y24689D01*
X5905Y2280D02*
X5907Y2277D01*
X5905Y2280D02*
Y3891D01*
X5907Y2277D02*
X18501D01*
X5902Y3891D02*
X18501D01*
Y2281D02*
Y3891D01*
Y3104D02*
Y3655D01*
X2556Y24324D02*
X3107D01*
X2350D02*
X3930D01*
X2350Y3070D02*
X2360Y3060D01*
X2350Y3070D02*
Y24324D01*
X3934Y3064D02*
Y24324D01*
X3930Y3060D02*
X3934Y3064D01*
X2360Y3060D02*
X3930D01*
D12*
X34462Y20700D02*
Y22078D01*
X37218D01*
X34462Y19322D02*
Y20700D01*
Y19322D02*
X37218D01*
Y22078D01*
X40368D01*
Y19322D02*
Y22078D01*
X37218Y19322D02*
X40368D01*
X23495Y16030D02*
X37565Y16030D01*
X23495Y4530D02*
Y16030D01*
Y4530D02*
X37565Y4530D01*
Y11780D02*
X38345D01*
Y8780D02*
Y11780D01*
X37565Y8780D02*
X38345D01*
X37565Y11780D02*
Y16030D01*
Y4530D02*
Y8780D01*
D13*
X10507Y12879D02*
G03*
X10507Y13129I0J125D01*
G01*
X27420Y23170D02*
Y25370D01*
X25320Y23170D02*
X27420D01*
X25320D02*
Y25370D01*
X27420D01*
X10507Y13129D02*
Y13679D01*
Y12329D02*
Y12879D01*
Y12329D02*
X12507D01*
Y13679D01*
X10507D02*
X12507D01*
X6367Y8960D02*
Y11060D01*
X4167Y8960D02*
X6367D01*
X4167D02*
Y11060D01*
X6367D01*
X26900Y28374D02*
Y28111D01*
X26769Y27980D01*
X26638Y28111D01*
Y28374D01*
X26244D02*
X26506D01*
Y28177D01*
X26375Y28242D01*
X26310D01*
X26244Y28177D01*
Y28046D01*
X26310Y27980D01*
X26441D01*
X26506Y28046D01*
X26113Y27914D02*
X25850D01*
X25719Y28374D02*
Y28111D01*
X25588Y27980D01*
X25457Y28111D01*
Y28374D01*
X25326D02*
Y27980D01*
X25129D01*
X25063Y28046D01*
Y28308D01*
X25129Y28374D01*
X25326D01*
X24932D02*
Y27980D01*
X24735D01*
X24670Y28046D01*
Y28308D01*
X24735Y28374D01*
X24932D01*
X23206Y21880D02*
X23469D01*
X23600Y21749D01*
X23469Y21618D01*
X23206D01*
X23272Y21486D02*
X23206Y21421D01*
Y21290D01*
X23272Y21224D01*
X23338D01*
X23403Y21290D01*
Y21355D01*
Y21290D01*
X23469Y21224D01*
X23534D01*
X23600Y21290D01*
Y21421D01*
X23534Y21486D01*
X23206Y21093D02*
X23469D01*
X23600Y20962D01*
X23469Y20830D01*
X23206D01*
X23272Y20699D02*
X23206Y20634D01*
Y20502D01*
X23272Y20437D01*
X23338D01*
X23403Y20502D01*
Y20568D01*
Y20502D01*
X23469Y20437D01*
X23534D01*
X23600Y20502D01*
Y20634D01*
X23534Y20699D01*
X23666Y20306D02*
Y20043D01*
X23206Y19912D02*
X23469D01*
X23600Y19781D01*
X23469Y19650D01*
X23206D01*
Y19519D02*
X23600D01*
Y19322D01*
X23534Y19256D01*
X23272D01*
X23206Y19322D01*
Y19519D01*
Y19125D02*
X23600D01*
Y18928D01*
X23534Y18863D01*
X23272D01*
X23206Y18928D01*
Y19125D01*
X6200Y494D02*
Y231D01*
X6069Y100D01*
X5938Y231D01*
Y494D01*
X5544D02*
X5806D01*
Y297D01*
X5675Y362D01*
X5610D01*
X5544Y297D01*
Y166D01*
X5610Y100D01*
X5741D01*
X5806Y166D01*
X5413Y34D02*
X5150D01*
X5019Y100D02*
Y362D01*
X4888Y494D01*
X4757Y362D01*
Y100D01*
Y297D01*
X5019D01*
X4626Y494D02*
Y100D01*
X4429D01*
X4363Y166D01*
Y428D01*
X4429Y494D01*
X4626D01*
X3970Y428D02*
X4035Y494D01*
X4167D01*
X4232Y428D01*
Y166D01*
X4167Y100D01*
X4035D01*
X3970Y166D01*
X10070Y29064D02*
Y28801D01*
X9939Y28670D01*
X9808Y28801D01*
Y29064D01*
X9676Y28736D02*
X9611Y28670D01*
X9480D01*
X9414Y28736D01*
Y28998D01*
X9480Y29064D01*
X9611D01*
X9676Y28998D01*
Y28932D01*
X9611Y28867D01*
X9414D01*
X9283Y28604D02*
X9020D01*
X8627Y28998D02*
X8692Y29064D01*
X8824D01*
X8889Y28998D01*
Y28736D01*
X8824Y28670D01*
X8692D01*
X8627Y28736D01*
X8233Y28998D02*
X8299Y29064D01*
X8430D01*
X8496Y28998D01*
Y28736D01*
X8430Y28670D01*
X8299D01*
X8233Y28736D01*
X8102Y29064D02*
Y28670D01*
X7905D01*
X7840Y28736D01*
Y28998D01*
X7905Y29064D01*
X8102D01*
X33086Y20574D02*
Y20967D01*
X32889D01*
X32824Y20902D01*
Y20771D01*
X32889Y20705D01*
X33086D01*
X32955D02*
X32824Y20574D01*
X32692Y20639D02*
X32627Y20574D01*
X32496D01*
X32430Y20639D01*
Y20902D01*
X32496Y20967D01*
X32627D01*
X32692Y20902D01*
Y20836D01*
X32627Y20771D01*
X32430D01*
X29738Y19308D02*
X29803Y19374D01*
X29934D01*
X30000Y19308D01*
Y19046D01*
X29934Y18980D01*
X29803D01*
X29738Y19046D01*
X29344Y18980D02*
X29606D01*
X29344Y19242D01*
Y19308D01*
X29410Y19374D01*
X29541D01*
X29606Y19308D01*
X29016Y18980D02*
Y19374D01*
X29213Y19177D01*
X28950D01*
X29772Y20518D02*
X29706Y20583D01*
Y20714D01*
X29772Y20780D01*
X30034D01*
X30100Y20714D01*
Y20583D01*
X30034Y20518D01*
X30100Y20124D02*
Y20386D01*
X29838Y20124D01*
X29772D01*
X29706Y20190D01*
Y20321D01*
X29772Y20386D01*
Y19993D02*
X29706Y19927D01*
Y19796D01*
X29772Y19730D01*
X29838D01*
X29903Y19796D01*
Y19862D01*
Y19796D01*
X29969Y19730D01*
X30034D01*
X30100Y19796D01*
Y19927D01*
X30034Y19993D01*
X32400Y19574D02*
Y19180D01*
X32203D01*
X32138Y19246D01*
Y19508D01*
X32203Y19574D01*
X32400D01*
X31744D02*
X31875Y19508D01*
X32006Y19377D01*
Y19246D01*
X31941Y19180D01*
X31810D01*
X31744Y19246D01*
Y19311D01*
X31810Y19377D01*
X32006D01*
X31038Y25008D02*
X31103Y25074D01*
X31234D01*
X31300Y25008D01*
Y24942D01*
X31234Y24877D01*
X31103D01*
X31038Y24811D01*
Y24746D01*
X31103Y24680D01*
X31234D01*
X31300Y24746D01*
X30906Y25074D02*
Y24680D01*
X30710D01*
X30644Y24746D01*
Y24811D01*
X30710Y24877D01*
X30906D01*
X30710D01*
X30644Y24942D01*
Y25008D01*
X30710Y25074D01*
X30906D01*
X30513Y24680D02*
X30382D01*
X30447D01*
Y25074D01*
X30513Y25008D01*
X31200Y20280D02*
Y20674D01*
X31003D01*
X30938Y20608D01*
Y20477D01*
X31003Y20411D01*
X31200D01*
X31069D02*
X30938Y20280D01*
X30806Y20674D02*
X30544D01*
Y20608D01*
X30806Y20346D01*
Y20280D01*
X26600Y25874D02*
Y25480D01*
X26403D01*
X26338Y25546D01*
Y25808D01*
X26403Y25874D01*
X26600D01*
X25944D02*
X26206D01*
Y25677D01*
X26075Y25742D01*
X26010D01*
X25944Y25677D01*
Y25546D01*
X26010Y25480D01*
X26141D01*
X26206Y25546D01*
X23938Y23008D02*
X24003Y23074D01*
X24134D01*
X24200Y23008D01*
Y22746D01*
X24134Y22680D01*
X24003D01*
X23938Y22746D01*
X23544Y22680D02*
X23806D01*
X23544Y22942D01*
Y23008D01*
X23610Y23074D01*
X23741D01*
X23806Y23008D01*
X23150Y22680D02*
X23413D01*
X23150Y22942D01*
Y23008D01*
X23216Y23074D01*
X23347D01*
X23413Y23008D01*
X10900Y21574D02*
Y21180D01*
X10703D01*
X10638Y21246D01*
Y21508D01*
X10703Y21574D01*
X10900D01*
X10506D02*
Y21180D01*
X10310D01*
X10244Y21246D01*
Y21508D01*
X10310Y21574D01*
X10506D01*
X10113D02*
X9850D01*
Y21508D01*
X10113Y21246D01*
Y21180D01*
X12400Y15074D02*
Y14680D01*
X12203D01*
X12138Y14746D01*
Y15008D01*
X12203Y15074D01*
X12400D01*
X12006Y14746D02*
X11941Y14680D01*
X11810D01*
X11744Y14746D01*
Y15008D01*
X11810Y15074D01*
X11941D01*
X12006Y15008D01*
Y14942D01*
X11941Y14877D01*
X11744D01*
X15338Y13508D02*
X15403Y13574D01*
X15534D01*
X15600Y13508D01*
Y13246D01*
X15534Y13180D01*
X15403D01*
X15338Y13246D01*
X14944Y13180D02*
X15206D01*
X14944Y13442D01*
Y13508D01*
X15010Y13574D01*
X15141D01*
X15206Y13508D01*
X14813D02*
X14747Y13574D01*
X14616D01*
X14550Y13508D01*
Y13246D01*
X14616Y13180D01*
X14747D01*
X14813Y13246D01*
Y13508D01*
X6200Y12174D02*
Y11780D01*
X6003D01*
X5938Y11846D01*
Y12108D01*
X6003Y12174D01*
X6200D01*
X5544Y11780D02*
X5806D01*
X5544Y12042D01*
Y12108D01*
X5610Y12174D01*
X5741D01*
X5806Y12108D01*
X11038Y16108D02*
X11103Y16174D01*
X11234D01*
X11300Y16108D01*
Y15846D01*
X11234Y15780D01*
X11103D01*
X11038Y15846D01*
X10906Y15780D02*
X10775D01*
X10841D01*
Y16174D01*
X10906Y16108D01*
X10578D02*
X10513Y16174D01*
X10382D01*
X10316Y16108D01*
Y16042D01*
X10382Y15977D01*
X10316Y15911D01*
Y15846D01*
X10382Y15780D01*
X10513D01*
X10578Y15846D01*
Y15911D01*
X10513Y15977D01*
X10578Y16042D01*
Y16108D01*
X10513Y15977D02*
X10382D01*
X5078Y8018D02*
X5143Y8084D01*
X5274D01*
X5340Y8018D01*
Y7756D01*
X5274Y7690D01*
X5143D01*
X5078Y7756D01*
X4946Y7690D02*
X4815D01*
X4881D01*
Y8084D01*
X4946Y8018D01*
X4618Y7756D02*
X4553Y7690D01*
X4422D01*
X4356Y7756D01*
Y8018D01*
X4422Y8084D01*
X4553D01*
X4618Y8018D01*
Y7952D01*
X4553Y7887D01*
X4356D01*
X12900Y9380D02*
Y9774D01*
X12703D01*
X12638Y9708D01*
Y9577D01*
X12703Y9511D01*
X12900D01*
X12769D02*
X12638Y9380D01*
X12506D02*
X12375D01*
X12441D01*
Y9774D01*
X12506Y9708D01*
X34600Y16980D02*
Y17374D01*
X34403D01*
X34338Y17308D01*
Y17177D01*
X34403Y17111D01*
X34600D01*
X34469D02*
X34338Y16980D01*
X33944Y17374D02*
X34075Y17308D01*
X34206Y17177D01*
Y17046D01*
X34141Y16980D01*
X34010D01*
X33944Y17046D01*
Y17111D01*
X34010Y17177D01*
X34206D01*
X13100Y10080D02*
Y10474D01*
X12903D01*
X12838Y10408D01*
Y10277D01*
X12903Y10211D01*
X13100D01*
X12969D02*
X12838Y10080D01*
X12444D02*
X12706D01*
X12444Y10342D01*
Y10408D01*
X12510Y10474D01*
X12641D01*
X12706Y10408D01*
X18200Y24980D02*
Y25374D01*
X18003D01*
X17938Y25308D01*
Y25177D01*
X18003Y25111D01*
X18200D01*
X18069D02*
X17938Y24980D01*
X17806Y25308D02*
X17741Y25374D01*
X17610D01*
X17544Y25308D01*
Y25242D01*
X17610Y25177D01*
X17544Y25111D01*
Y25046D01*
X17610Y24980D01*
X17741D01*
X17806Y25046D01*
Y25111D01*
X17741Y25177D01*
X17806Y25242D01*
Y25308D01*
X17741Y25177D02*
X17610D01*
X9064Y23851D02*
X9457D01*
Y24048D01*
X9392Y24114D01*
X9261D01*
X9195Y24048D01*
Y23851D01*
Y23982D02*
X9064Y24114D01*
Y24245D02*
Y24376D01*
Y24310D01*
X9457D01*
X9392Y24245D01*
X9064Y24835D02*
Y24573D01*
X9326Y24835D01*
X9392D01*
X9457Y24770D01*
Y24638D01*
X9392Y24573D01*
X10100Y12174D02*
Y11780D01*
X9903D01*
X9838Y11846D01*
Y12108D01*
X9903Y12174D01*
X10100D01*
X9706D02*
Y11780D01*
X9510D01*
X9444Y11846D01*
Y12108D01*
X9510Y12174D01*
X9706D01*
X9050D02*
X9313D01*
Y11977D01*
X9182Y12042D01*
X9116D01*
X9050Y11977D01*
Y11846D01*
X9116Y11780D01*
X9247D01*
X9313Y11846D01*
X19100Y14654D02*
Y14260D01*
X18903D01*
X18838Y14326D01*
Y14588D01*
X18903Y14654D01*
X19100D01*
X18706D02*
Y14260D01*
X18510D01*
X18444Y14326D01*
Y14588D01*
X18510Y14654D01*
X18706D01*
X18116Y14260D02*
Y14654D01*
X18313Y14457D01*
X18050D01*
X12421Y21547D02*
Y21154D01*
X12225D01*
X12159Y21219D01*
Y21482D01*
X12225Y21547D01*
X12421D01*
X12028D02*
Y21154D01*
X11831D01*
X11765Y21219D01*
Y21482D01*
X11831Y21547D01*
X12028D01*
X11634Y21154D02*
X11503D01*
X11569D01*
Y21547D01*
X11634Y21482D01*
X15300Y21574D02*
Y21180D01*
X15103D01*
X15038Y21246D01*
Y21508D01*
X15103Y21574D01*
X15300D01*
X14906D02*
Y21180D01*
X14710D01*
X14644Y21246D01*
Y21508D01*
X14710Y21574D01*
X14906D01*
X14250Y21180D02*
X14513D01*
X14250Y21442D01*
Y21508D01*
X14316Y21574D01*
X14447D01*
X14513Y21508D01*
X17700Y21574D02*
Y21180D01*
X17503D01*
X17438Y21246D01*
Y21508D01*
X17503Y21574D01*
X17700D01*
X17306D02*
Y21180D01*
X17110D01*
X17044Y21246D01*
Y21508D01*
X17110Y21574D01*
X17306D01*
X16913Y21508D02*
X16847Y21574D01*
X16716D01*
X16650Y21508D01*
Y21442D01*
X16716Y21377D01*
X16782D01*
X16716D01*
X16650Y21311D01*
Y21246D01*
X16716Y21180D01*
X16847D01*
X16913Y21246D01*
X5252Y26038D02*
Y25645D01*
X5055D01*
X4990Y25710D01*
Y25973D01*
X5055Y26038D01*
X5252D01*
X4662Y25645D02*
Y26038D01*
X4858Y25842D01*
X4596D01*
X17870Y12634D02*
Y12240D01*
X17673D01*
X17608Y12306D01*
Y12568D01*
X17673Y12634D01*
X17870D01*
X17476Y12568D02*
X17411Y12634D01*
X17280D01*
X17214Y12568D01*
Y12502D01*
X17280Y12437D01*
X17214Y12371D01*
Y12306D01*
X17280Y12240D01*
X17411D01*
X17476Y12306D01*
Y12371D01*
X17411Y12437D01*
X17476Y12502D01*
Y12568D01*
X17411Y12437D02*
X17280D01*
X3998Y27858D02*
X4063Y27924D01*
X4194D01*
X4260Y27858D01*
Y27596D01*
X4194Y27530D01*
X4063D01*
X3998Y27596D01*
X3866Y27530D02*
X3735D01*
X3801D01*
Y27924D01*
X3866Y27858D01*
X3538Y27924D02*
X3276D01*
Y27858D01*
X3538Y27596D01*
Y27530D01*
X20538Y24308D02*
X20603Y24374D01*
X20734D01*
X20800Y24308D01*
Y24046D01*
X20734Y23980D01*
X20603D01*
X20538Y24046D01*
X20144Y23980D02*
X20406D01*
X20144Y24242D01*
Y24308D01*
X20210Y24374D01*
X20341D01*
X20406Y24308D01*
X20013Y23980D02*
X19882D01*
X19947D01*
Y24374D01*
X20013Y24308D01*
X7738Y10108D02*
X7803Y10174D01*
X7934D01*
X8000Y10108D01*
Y9846D01*
X7934Y9780D01*
X7803D01*
X7738Y9846D01*
X7606Y10108D02*
X7541Y10174D01*
X7410D01*
X7344Y10108D01*
Y10042D01*
X7410Y9977D01*
X7344Y9911D01*
Y9846D01*
X7410Y9780D01*
X7541D01*
X7606Y9846D01*
Y9911D01*
X7541Y9977D01*
X7606Y10042D01*
Y10108D01*
X7541Y9977D02*
X7410D01*
X11372Y4918D02*
X11306Y4983D01*
Y5114D01*
X11372Y5180D01*
X11634D01*
X11700Y5114D01*
Y4983D01*
X11634Y4918D01*
X11700Y4786D02*
Y4655D01*
Y4721D01*
X11306D01*
X11372Y4786D01*
X11306Y4196D02*
Y4458D01*
X11503D01*
X11438Y4327D01*
Y4262D01*
X11503Y4196D01*
X11634D01*
X11700Y4262D01*
Y4393D01*
X11634Y4458D01*
X14915Y4895D02*
X14981Y4830D01*
Y4698D01*
X14915Y4633D01*
X14653D01*
X14587Y4698D01*
Y4830D01*
X14653Y4895D01*
X14587Y5026D02*
Y5158D01*
Y5092D01*
X14981D01*
X14915Y5026D01*
X14587Y5551D02*
X14981D01*
X14784Y5354D01*
Y5617D01*
X15558Y17308D02*
X15623Y17374D01*
X15754D01*
X15820Y17308D01*
Y17046D01*
X15754Y16980D01*
X15623D01*
X15558Y17046D01*
X15426Y16980D02*
X15295D01*
X15361D01*
Y17374D01*
X15426Y17308D01*
X9328Y9242D02*
X9394Y9177D01*
Y9046D01*
X9328Y8980D01*
X9066D01*
X9000Y9046D01*
Y9177D01*
X9066Y9242D01*
X9000Y9374D02*
Y9505D01*
Y9439D01*
X9394D01*
X9328Y9374D01*
X9000Y9702D02*
Y9833D01*
Y9767D01*
X9394D01*
X9328Y9702D01*
X14338Y8408D02*
X14403Y8474D01*
X14534D01*
X14600Y8408D01*
Y8146D01*
X14534Y8080D01*
X14403D01*
X14338Y8146D01*
X14010Y8080D02*
Y8474D01*
X14206Y8277D01*
X13944D01*
X11550Y10681D02*
X11616Y10746D01*
X11747D01*
X11812Y10681D01*
Y10418D01*
X11747Y10353D01*
X11616D01*
X11550Y10418D01*
X11156Y10746D02*
X11419D01*
Y10550D01*
X11288Y10615D01*
X11222D01*
X11156Y10550D01*
Y10418D01*
X11222Y10353D01*
X11353D01*
X11419Y10418D01*
X10238Y10608D02*
X10303Y10674D01*
X10434D01*
X10500Y10608D01*
Y10346D01*
X10434Y10280D01*
X10303D01*
X10238Y10346D01*
X9844Y10674D02*
X9975Y10608D01*
X10106Y10477D01*
Y10346D01*
X10041Y10280D01*
X9910D01*
X9844Y10346D01*
Y10411D01*
X9910Y10477D01*
X10106D01*
X10338Y5928D02*
X10403Y5994D01*
X10534D01*
X10600Y5928D01*
Y5666D01*
X10534Y5600D01*
X10403D01*
X10338Y5666D01*
X9944Y5600D02*
X10206D01*
X9944Y5862D01*
Y5928D01*
X10010Y5994D01*
X10141D01*
X10206Y5928D01*
X12828Y6542D02*
X12894Y6477D01*
Y6346D01*
X12828Y6280D01*
X12566D01*
X12500Y6346D01*
Y6477D01*
X12566Y6542D01*
X12894Y6674D02*
Y6936D01*
X12828D01*
X12566Y6674D01*
X12500D01*
X3998Y26358D02*
X4063Y26424D01*
X4194D01*
X4260Y26358D01*
Y26096D01*
X4194Y26030D01*
X4063D01*
X3998Y26096D01*
X3866Y26030D02*
X3735D01*
X3801D01*
Y26424D01*
X3866Y26358D01*
X3276Y26030D02*
X3538D01*
X3276Y26292D01*
Y26358D01*
X3342Y26424D01*
X3473D01*
X3538Y26358D01*
X6488Y28988D02*
X6553Y29054D01*
X6684D01*
X6750Y28988D01*
Y28726D01*
X6684Y28660D01*
X6553D01*
X6488Y28726D01*
X6356D02*
X6291Y28660D01*
X6160D01*
X6094Y28726D01*
Y28988D01*
X6160Y29054D01*
X6291D01*
X6356Y28988D01*
Y28922D01*
X6291Y28857D01*
X6094D01*
X16408Y15298D02*
X16473Y15364D01*
X16604D01*
X16670Y15298D01*
Y15036D01*
X16604Y14970D01*
X16473D01*
X16408Y15036D01*
X16276Y15298D02*
X16211Y15364D01*
X16080D01*
X16014Y15298D01*
Y15232D01*
X16080Y15167D01*
X16145D01*
X16080D01*
X16014Y15101D01*
Y15036D01*
X16080Y14970D01*
X16211D01*
X16276Y15036D01*
D39*
X30587Y19595D02*
G03*
X30587Y19595I-39J0D01*
G01*
X39953Y23818D02*
Y27952D01*
X34047Y23818D02*
X39953D01*
X34047D02*
Y27952D01*
X39953D01*
X22044Y25913D02*
Y27493D01*
X21238Y23537D02*
X22818D01*
X17713Y2291D02*
Y3871D01*
X2340Y23537D02*
X3920D01*
D82*
X10296Y13685D02*
G03*
X10296Y13685I-39J0D01*
G01*
M02*
