G04*
G04 #@! TF.GenerationSoftware,Altium Limited,Altium Designer,19.1.6 (110)*
G04*
G04 Layer_Physical_Order=2*
G04 Layer_Color=16711680*
%FSLAX23Y23*%
%MOIN*%
G70*
G01*
G75*
%ADD12C,0.012*%
%ADD32R,0.049X0.039*%
%ADD33R,0.098X0.130*%
%ADD35R,0.039X0.049*%
%ADD36R,0.126X0.059*%
%ADD37R,0.039X0.039*%
%ADD38C,0.020*%
%ADD40C,0.028*%
%ADD42C,0.031*%
%ADD43C,0.039*%
%ADD44C,0.024*%
%ADD45C,0.126*%
%ADD46C,0.059*%
%ADD47R,0.059X0.059*%
%ADD48R,0.059X0.059*%
%ADD49R,0.071X0.177*%
%ADD50R,0.177X0.071*%
%ADD51O,0.049X0.059*%
%ADD52O,0.059X0.049*%
%ADD53C,0.118*%
%ADD54O,0.100X0.098*%
%ADD55C,0.050*%
%ADD56R,0.087X0.087*%
%ADD57R,0.059X0.126*%
%ADD58R,0.039X0.039*%
%ADD59R,0.130X0.098*%
%ADD60R,0.016X0.028*%
%ADD61R,0.028X0.039*%
%ADD62R,0.039X0.059*%
%ADD63O,0.098X0.028*%
%ADD64R,0.098X0.028*%
%ADD65R,0.224X0.217*%
%ADD66R,0.085X0.051*%
%ADD67C,0.047*%
%ADD68C,0.014*%
%ADD69C,0.016*%
%ADD70C,0.079*%
D12*
X3155Y1881D02*
Y1903D01*
X3146Y1912D02*
X3155Y1903D01*
X3015Y1912D02*
X3146D01*
X3130Y1840D02*
Y1881D01*
X3071Y1781D02*
X3130Y1840D01*
X3104Y1854D02*
Y1881D01*
X3079Y1829D02*
X3104Y1854D01*
X2988Y1829D02*
X3079D01*
X3145Y2025D02*
X3190D01*
X3092D02*
X3145D01*
X3130Y2010D02*
X3145Y2025D01*
X3130Y1991D02*
Y2010D01*
X3078Y2011D02*
X3092Y2025D01*
X3078Y1991D02*
Y2011D01*
X3062Y2044D02*
Y2103D01*
X2978Y1959D02*
X3062Y2044D01*
X2978Y1959D02*
X3090D01*
X2807D02*
X2978D01*
X3102Y1971D02*
X3104Y1973D01*
X3102Y1971D02*
Y1971D01*
X3093Y1961D02*
X3102Y1971D01*
X3092Y1961D02*
X3093D01*
X3090Y1959D02*
X3092Y1961D01*
X2771Y1924D02*
X2807Y1959D01*
X2249Y1921D02*
X2291Y1878D01*
Y1830D02*
Y1878D01*
Y1830D02*
X2320Y1801D01*
X2864D01*
X3201Y1945D02*
Y2014D01*
X3190Y2025D02*
X3201Y2014D01*
X3031Y1781D02*
X3071D01*
X3023Y1773D02*
X3031Y1781D01*
X2864Y1801D02*
X2998Y1935D01*
X2897Y1738D02*
X2988Y1829D01*
X2788Y1738D02*
X2897D01*
X2723Y1673D02*
X2788Y1738D01*
X2244Y1763D02*
X2866D01*
X3015Y1912D01*
X3104Y1973D02*
Y1991D01*
X3155Y1970D02*
Y1991D01*
X3120Y1935D02*
X3155Y1970D01*
X2998Y1935D02*
X3120D01*
X2244Y1921D02*
X2249D01*
X275Y1527D02*
X280D01*
D32*
X2858Y1924D02*
D03*
X2771D02*
D03*
X3149Y2103D02*
D03*
X3062D02*
D03*
X1679Y1462D02*
D03*
X1592D02*
D03*
X1447Y1029D02*
D03*
X1360D02*
D03*
X1335Y964D02*
D03*
X1422D02*
D03*
X1389Y886D02*
D03*
X1476D02*
D03*
X792Y2886D02*
D03*
X705D02*
D03*
X1126Y1538D02*
D03*
X1039D02*
D03*
X1715Y2515D02*
D03*
X1628D02*
D03*
D33*
X765Y881D02*
D03*
Y633D02*
D03*
X1147Y688D02*
D03*
Y936D02*
D03*
X1335Y1411D02*
D03*
Y1163D02*
D03*
X480Y676D02*
D03*
Y428D02*
D03*
D35*
X3265Y1912D02*
D03*
Y1999D02*
D03*
X1027Y983D02*
D03*
Y896D02*
D03*
X925Y848D02*
D03*
Y761D02*
D03*
X1027Y723D02*
D03*
Y636D02*
D03*
X1265Y745D02*
D03*
Y831D02*
D03*
X1475Y595D02*
D03*
Y681D02*
D03*
X924Y2612D02*
D03*
Y2525D02*
D03*
D36*
X527Y866D02*
D03*
D37*
X617Y1126D02*
D03*
X527D02*
D03*
X437D02*
D03*
D38*
X884Y1422D02*
X896D01*
X1724Y2044D02*
Y2077D01*
Y2044D02*
X1742Y2026D01*
X1962D01*
X1750Y2117D02*
X1761Y2105D01*
Y2077D02*
Y2105D01*
X1665Y2117D02*
X1750D01*
X1662Y2114D02*
X1665Y2117D01*
X1636Y2114D02*
X1662D01*
X1630Y2108D02*
X1636Y2114D01*
X2466Y579D02*
X2517Y528D01*
X2387Y579D02*
X2466D01*
X2305Y661D02*
X2387Y579D01*
X2517Y528D02*
X2529D01*
X2679Y577D02*
X2729Y528D01*
X2510Y577D02*
X2679D01*
X2478Y609D02*
Y666D01*
X2404Y739D02*
X2478Y666D01*
Y609D02*
X2510Y577D01*
X1161Y1905D02*
Y1977D01*
X1439Y1895D02*
Y1975D01*
X1001Y1140D02*
Y1257D01*
X926Y1331D02*
X1000Y1257D01*
X926Y1331D02*
Y1359D01*
X2417Y1907D02*
X2494D01*
X2388Y1936D02*
X2417Y1907D01*
X2388Y1936D02*
Y2016D01*
X2494Y1907D02*
X2614Y2027D01*
X2154Y1437D02*
X2165Y1448D01*
X1873Y1437D02*
X2154D01*
X1858Y1422D02*
X1873Y1437D01*
X1858Y1393D02*
Y1422D01*
X1857Y1392D02*
X1858Y1393D01*
X1895Y1218D02*
Y1290D01*
Y1218D02*
X1927Y1186D01*
X437Y1126D02*
X441Y1122D01*
X925Y924D02*
X926Y925D01*
X470Y1220D02*
Y1228D01*
X437Y1187D02*
X470Y1220D01*
X437Y1126D02*
Y1187D01*
X1508Y2159D02*
X1964D01*
X1476Y2128D02*
X1508Y2159D01*
X1476Y2077D02*
Y2128D01*
X1572Y2048D02*
X1580D01*
X1552Y2068D02*
X1572Y2048D01*
X1517Y2068D02*
X1552D01*
X1514Y2071D02*
X1517Y2068D01*
X1514Y2071D02*
Y2077D01*
X1085Y2063D02*
Y2079D01*
Y2063D02*
X1120Y2028D01*
X1299Y2079D02*
X1300Y2078D01*
X1236Y2079D02*
X1299D01*
X1236Y2079D02*
X1236Y2079D01*
X890Y1428D02*
X1000Y1538D01*
X884Y1422D02*
X890Y1428D01*
X1000Y1538D02*
X1039D01*
X896Y1422D02*
X926D01*
X962Y1386D01*
Y1360D02*
Y1386D01*
X890Y1428D02*
X896Y1422D01*
X1061Y1823D02*
X1085Y1847D01*
X1061Y1812D02*
Y1823D01*
X3046Y346D02*
X3229Y528D01*
X2359Y472D02*
X2773D01*
X2362Y1222D02*
X2535D01*
X2293Y1291D02*
X2362Y1222D01*
X2244Y1291D02*
X2293D01*
X2535Y1222D02*
X3129Y628D01*
X3212D02*
X3229D01*
X2559Y1281D02*
X3212Y628D01*
X2372Y1281D02*
X2559D01*
X2283Y1369D02*
X2372Y1281D01*
X2244Y1369D02*
X2283D01*
X2165Y346D02*
X2170D01*
X2231Y285D01*
X3086D01*
X3329Y528D01*
X2244Y346D02*
X3046D01*
X2890Y389D02*
X3029Y528D01*
X2279Y389D02*
X2890D01*
X2244Y425D02*
X2279Y389D01*
X2244Y976D02*
X2381D01*
X2729Y628D01*
X2244Y897D02*
X2360D01*
X2629Y628D01*
X2249Y503D02*
X2326Y426D01*
X2244Y503D02*
X2249D01*
X2827Y426D02*
X2929Y528D01*
X2326Y426D02*
X2827D01*
X2773Y472D02*
X2829Y528D01*
X2249Y582D02*
X2359Y472D01*
X2244Y582D02*
X2249D01*
X2244Y739D02*
X2404D01*
X2494Y1163D02*
X3029Y628D01*
X2352Y1163D02*
X2494D01*
X2303Y1212D02*
X2352Y1163D01*
X2244Y1212D02*
X2303D01*
X2443Y1114D02*
X2929Y628D01*
X2313Y1114D02*
X2443D01*
X2293Y1133D02*
X2313Y1114D01*
X2244Y1133D02*
X2293D01*
X2303Y1054D02*
X2332Y1025D01*
X2432D01*
X2244Y1054D02*
X2303D01*
X2432Y1025D02*
X2829Y628D01*
X2529D02*
Y668D01*
X2378Y818D02*
X2529Y668D01*
X2244Y818D02*
X2378D01*
X2244Y661D02*
X2305D01*
X2388Y2016D02*
X2441Y2069D01*
X1000Y1436D02*
X1001Y1437D01*
X1000Y1360D02*
Y1436D01*
X926Y925D02*
Y1257D01*
X925Y1257D02*
X926Y1257D01*
X1273Y536D02*
X1273Y536D01*
X1562D01*
X1133Y1109D02*
X1278Y964D01*
X1471Y885D02*
X1561D01*
X1526Y1086D02*
X1562D01*
X1494Y1117D02*
X1526Y1086D01*
X1494Y987D02*
X1560D01*
X1450Y936D02*
X1562D01*
X1269Y836D02*
X1562D01*
X1349Y786D02*
X1562D01*
X1478Y684D02*
X1560D01*
X1001Y1140D02*
X1032Y1109D01*
X1562Y1136D02*
X1676D01*
X1561Y885D02*
X1562Y886D01*
Y736D02*
X1562Y736D01*
X1690D01*
X1000Y1257D02*
X1001D01*
X1032Y1109D02*
X1133D01*
X1458Y1117D02*
X1494D01*
X1452Y1029D02*
X1494Y987D01*
X1334Y964D02*
X1335Y964D01*
X1278Y964D02*
X1334D01*
X1314Y750D02*
X1349Y786D01*
X1475Y681D02*
X1478Y684D01*
X1475Y595D02*
X1482Y587D01*
X1562Y1036D02*
X1676D01*
X1560Y987D02*
X1562Y986D01*
X1560Y684D02*
X1562Y686D01*
X1560Y587D02*
X1562Y586D01*
X1667D01*
X1562Y636D02*
X1690D01*
X1927Y1186D02*
X1981D01*
X1464Y878D02*
X1471Y885D01*
X1676Y1136D02*
X1678Y1137D01*
X1687Y733D02*
X1690Y736D01*
X1693D01*
X1667Y586D02*
X1694Y559D01*
X1265Y831D02*
X1269Y836D01*
X1265Y745D02*
X1271Y750D01*
X1314D01*
X1452Y1123D02*
X1458Y1117D01*
X1447Y1029D02*
X1452D01*
X1422Y964D02*
X1450Y936D01*
X1462Y880D02*
X1464Y878D01*
X1676Y1036D02*
X1678Y1037D01*
X1690Y636D02*
X1692Y634D01*
X2716Y1924D02*
X2771D01*
X2630Y2010D02*
X2716Y1924D01*
X2630Y2010D02*
Y2027D01*
X2614D02*
X2630D01*
X1686Y1918D02*
Y1974D01*
X1687Y1975D01*
X1009Y1912D02*
Y1976D01*
X1010Y1977D01*
X500Y2027D02*
X1032D01*
X448Y2078D02*
X500Y2027D01*
X354Y2078D02*
X448D01*
X364Y2147D02*
X1163D01*
X354Y2157D02*
X364Y2147D01*
X1163D02*
X1198Y2111D01*
Y2079D02*
Y2111D01*
X1047Y2042D02*
Y2079D01*
X1032Y2027D02*
X1047Y2042D01*
X1964Y2159D02*
X1965Y2158D01*
X1161Y1812D02*
X1236Y1887D01*
Y1977D01*
X1085Y1847D02*
Y1977D01*
X1085Y1977D02*
X1085Y1977D01*
X1514Y1865D02*
Y1975D01*
X1514Y1975D02*
X1514Y1975D01*
X1760Y1974D02*
X1761Y1975D01*
X1760Y1814D02*
Y1974D01*
Y1814D02*
X1761Y1812D01*
X1561D02*
Y1818D01*
X1514Y1865D02*
X1561Y1818D01*
D40*
X1765Y1351D02*
X1820Y1296D01*
X1765Y1351D02*
Y1427D01*
X1820Y1290D02*
Y1296D01*
X624Y1912D02*
X1009D01*
X420Y1708D02*
X624Y1912D01*
X420Y1588D02*
Y1708D01*
X359Y1527D02*
X420Y1588D01*
X354Y1527D02*
X359D01*
X2480Y2338D02*
X2511D01*
X2512Y2337D01*
X2420Y2398D02*
X2480Y2338D01*
X2362Y2216D02*
Y2222D01*
X2337Y2191D02*
X2362Y2216D01*
X2337Y1856D02*
Y2191D01*
X1439Y1889D02*
Y1895D01*
Y1889D02*
X1466Y1861D01*
Y1817D02*
Y1861D01*
X1461Y1812D02*
X1466Y1817D01*
D42*
X2512Y2427D02*
X2562Y2377D01*
Y2256D02*
Y2377D01*
X2522Y2216D02*
X2562Y2256D01*
X3205Y2102D02*
X3266Y2163D01*
X3265Y1999D02*
X3266Y1999D01*
Y2163D01*
X3266Y2163D01*
X3150Y2102D02*
X3205D01*
X3149Y2103D02*
X3150Y2102D01*
X1970Y1362D02*
X1974Y1358D01*
X1926Y1362D02*
X1970D01*
X1899Y1388D02*
X1926Y1362D01*
X1897Y1388D02*
X1899D01*
X774Y472D02*
X777D01*
X1817Y1625D02*
X1819Y1627D01*
X1688Y1625D02*
X1817D01*
X466Y112D02*
Y427D01*
Y112D02*
X470Y108D01*
X1141Y678D02*
X1147Y672D01*
X1130Y678D02*
X1141D01*
X1126Y1538D02*
Y1589D01*
X275Y2393D02*
Y2403D01*
X1867Y2441D02*
X1898Y2410D01*
X1867Y2441D02*
Y2516D01*
X1866Y2515D02*
X1867Y2516D01*
X1715Y2515D02*
X1866D01*
X777Y472D02*
X898Y592D01*
X623Y659D02*
Y1030D01*
X472Y508D02*
X623Y659D01*
X472Y433D02*
Y508D01*
X1679Y1616D02*
X1688Y1625D01*
X1126Y1419D02*
Y1538D01*
Y1589D02*
X1267Y1730D01*
X527Y1126D02*
X623Y1030D01*
X466Y427D02*
X472Y433D01*
X925Y849D02*
Y924D01*
X1679Y1462D02*
Y1616D01*
X1176Y1145D02*
X1198Y1122D01*
X1301D01*
X798Y592D02*
X898D01*
X925Y681D02*
Y761D01*
X1274Y1042D02*
X1312Y1080D01*
Y1133D01*
X1176Y1145D02*
Y1182D01*
X1335Y1156D02*
X1360Y1131D01*
X1312Y1140D02*
X1335Y1163D01*
X1312Y1133D02*
Y1140D01*
X1301Y1122D02*
X1312Y1133D01*
X1327Y886D02*
X1389D01*
X765Y626D02*
Y633D01*
Y626D02*
X798Y592D01*
X925Y848D02*
X925Y849D01*
X1027Y723D02*
Y803D01*
X1027Y896D02*
X1027Y896D01*
Y804D02*
X1028Y803D01*
X1027Y804D02*
Y896D01*
Y803D02*
X1028Y803D01*
X1027Y723D02*
X1027Y723D01*
X1113Y983D02*
X1147Y949D01*
X1274Y1040D02*
Y1042D01*
X1126Y1419D02*
X1127Y1420D01*
X1147Y936D02*
Y949D01*
X2519Y2216D02*
X2522D01*
X2512Y2517D02*
X2613D01*
X2678Y2582D01*
D43*
X2440Y1970D02*
X2449D01*
X2860Y1868D02*
Y1924D01*
X1325Y1419D02*
X1460Y1284D01*
X2963Y1607D02*
X3189Y1833D01*
X2542Y1607D02*
X2963D01*
X2465Y1684D02*
X2542Y1607D01*
X2519Y2040D02*
Y2216D01*
X2449Y1970D02*
X2519Y2040D01*
X653Y2768D02*
X655Y2770D01*
Y2841D01*
X700Y2886D01*
X705D01*
X824Y2524D02*
X924D01*
X1485Y2560D02*
X1613Y2432D01*
X1024Y2560D02*
X1485D01*
X989Y2525D02*
X1024Y2560D01*
X1976Y2280D02*
X2057Y2361D01*
X1004Y2280D02*
X1976D01*
X941Y2343D02*
X1004Y2280D01*
X1613Y2432D02*
X1628D01*
X924Y2525D02*
X989D01*
X1628Y2432D02*
Y2515D01*
X520Y2612D02*
X531Y2623D01*
X436Y2612D02*
X520D01*
X280Y2456D02*
X436Y2612D01*
X280Y2398D02*
Y2456D01*
X275Y2393D02*
X280Y2398D01*
X275Y2393D02*
X275D01*
X653Y2626D02*
X655Y2628D01*
X534Y2626D02*
X653D01*
X531Y2623D02*
X534Y2626D01*
X651Y2770D02*
X653Y2768D01*
X531Y2770D02*
X651D01*
X528Y2773D02*
X531Y2770D01*
X785Y2617D02*
X924D01*
X947Y2919D02*
Y2977D01*
X914Y2886D02*
X947Y2919D01*
X792Y2886D02*
X914D01*
X776Y2773D02*
X792Y2789D01*
Y2886D01*
X779Y2623D02*
X785Y2617D01*
X924Y2612D02*
Y2617D01*
X823Y2523D02*
X824Y2524D01*
X924D02*
Y2525D01*
X750Y2593D02*
X779Y2623D01*
X727Y2593D02*
X750D01*
X567Y2433D02*
X727Y2593D01*
X563Y2433D02*
X567D01*
X823Y2343D02*
X941D01*
X3189Y1833D02*
X3191D01*
X3265Y1907D01*
Y1912D01*
X3266Y2163D02*
Y2396D01*
X510Y708D02*
X570D01*
X480Y678D02*
X510Y708D01*
X480Y676D02*
Y678D01*
X2858Y1924D02*
X2860D01*
X1460Y1218D02*
Y1284D01*
X568Y110D02*
Y515D01*
Y110D02*
X570Y108D01*
X1223Y740D02*
X1265D01*
X1147Y702D02*
X1157Y691D01*
X1088Y636D02*
X1130Y678D01*
X1027Y636D02*
X1088D01*
X670Y699D02*
X746Y775D01*
X670Y617D02*
Y699D01*
X568Y515D02*
X670Y617D01*
X2417Y2398D02*
X2420D01*
X2412Y2393D02*
X2417Y2398D01*
X2244Y2393D02*
X2412D01*
X1128Y480D02*
X1331Y682D01*
X1030Y480D02*
X1128D01*
X1022Y472D02*
X1030Y480D01*
X1073Y1730D02*
X1267D01*
X617Y1274D02*
X1073Y1730D01*
X617Y1126D02*
Y1274D01*
X1267Y1730D02*
X1856D01*
X2057Y1931D01*
X746Y863D02*
X765Y881D01*
X746Y775D02*
Y863D01*
X765Y856D02*
Y881D01*
X1331Y1611D02*
X1426D01*
X1431Y1616D01*
X1195Y831D02*
X1265D01*
X1165Y861D02*
X1195Y831D01*
X1175Y691D02*
X1223Y740D01*
X794Y848D02*
X925D01*
X766Y876D02*
X794Y848D01*
X1027Y983D02*
X1113D01*
X1165Y861D02*
Y918D01*
X1325Y884D02*
X1327Y886D01*
X1265Y740D02*
Y745D01*
X1338Y594D02*
X1338Y595D01*
X1549Y1462D02*
X1592D01*
X1147Y936D02*
X1165Y918D01*
X1147Y698D02*
Y702D01*
X1157Y691D02*
X1175D01*
X1226Y1419D02*
X1325D01*
X1405Y681D02*
X1475D01*
X1405D02*
Y682D01*
X1331Y682D02*
X1331Y682D01*
X1405D01*
X1338Y595D02*
X1475D01*
X1360Y1035D02*
Y1131D01*
X1592Y1462D02*
X1593D01*
X2057Y1931D02*
Y2361D01*
X2244Y1684D02*
X2465D01*
X2427Y2582D02*
X2678D01*
X2892D01*
X2363Y2518D02*
X2427Y2582D01*
X2159Y2518D02*
X2363D01*
X2113Y2472D02*
X2159Y2518D01*
X2111Y2472D02*
X2113D01*
X2057Y2418D02*
X2111Y2472D01*
X961Y2212D02*
X961Y2213D01*
X354Y1448D02*
X366D01*
X2244Y1527D02*
X2244Y1527D01*
X2057Y2361D02*
Y2418D01*
X3529Y528D02*
X3530Y527D01*
X3129Y525D02*
Y528D01*
X2629D02*
X2632Y524D01*
D44*
X1562Y1290D02*
X1679Y1407D01*
X1562Y1186D02*
Y1290D01*
X1679Y1407D02*
Y1462D01*
D45*
X1280Y2420D02*
D03*
X130Y2930D02*
D03*
Y130D02*
D03*
X580Y1580D02*
D03*
X1980D02*
D03*
X3630Y2930D02*
D03*
X3622Y126D02*
D03*
D46*
X3023Y1773D02*
D03*
X3223Y1673D02*
D03*
X2723D02*
D03*
X2620Y2724D02*
D03*
X2441Y1969D02*
D03*
X470Y108D02*
D03*
X847Y2977D02*
D03*
X861Y1812D02*
D03*
X761D02*
D03*
X1161D02*
D03*
X961D02*
D03*
X1061D02*
D03*
X761Y2212D02*
D03*
X861D02*
D03*
X961D02*
D03*
X1061D02*
D03*
X1461Y1812D02*
D03*
X1261D02*
D03*
X1361D02*
D03*
X1561D02*
D03*
X1661D02*
D03*
X1761D02*
D03*
X1361Y2212D02*
D03*
X1161D02*
D03*
X1261D02*
D03*
X1661D02*
D03*
X1761D02*
D03*
X1461D02*
D03*
X1561D02*
D03*
X3628Y525D02*
D03*
Y625D02*
D03*
X3529Y528D02*
D03*
Y628D02*
D03*
X3429Y528D02*
D03*
Y628D02*
D03*
X3329Y528D02*
D03*
Y628D02*
D03*
X3229Y528D02*
D03*
Y628D02*
D03*
X3129Y528D02*
D03*
Y628D02*
D03*
X3029Y528D02*
D03*
Y628D02*
D03*
X2929Y528D02*
D03*
Y628D02*
D03*
X2829Y528D02*
D03*
Y628D02*
D03*
X2729Y528D02*
D03*
Y628D02*
D03*
X2629Y528D02*
D03*
Y628D02*
D03*
X2529Y528D02*
D03*
Y628D02*
D03*
X2429Y528D02*
D03*
Y628D02*
D03*
X3629Y1428D02*
D03*
Y1528D02*
D03*
X3529Y1428D02*
D03*
Y1528D02*
D03*
X3429Y1428D02*
D03*
Y1528D02*
D03*
X3329Y1428D02*
D03*
Y1528D02*
D03*
X3229Y1428D02*
D03*
Y1528D02*
D03*
X3129Y1428D02*
D03*
Y1528D02*
D03*
X3029Y1428D02*
D03*
Y1528D02*
D03*
X2929Y1428D02*
D03*
Y1528D02*
D03*
X2829Y1428D02*
D03*
Y1528D02*
D03*
X2729Y1428D02*
D03*
Y1528D02*
D03*
X2629Y1428D02*
D03*
Y1528D02*
D03*
X2529Y1428D02*
D03*
Y1528D02*
D03*
X2429Y1428D02*
D03*
Y1528D02*
D03*
D47*
X2520Y2724D02*
D03*
X570Y108D02*
D03*
X947Y2977D02*
D03*
D48*
X2441Y2069D02*
D03*
D49*
X3700Y2618D02*
D03*
X3464D02*
D03*
D50*
X3562Y2429D02*
D03*
D51*
X1063Y2708D02*
D03*
X1141D02*
D03*
X1220D02*
D03*
X1299D02*
D03*
X1378D02*
D03*
X1456D02*
D03*
X1535D02*
D03*
X1614D02*
D03*
X1693D02*
D03*
X1771D02*
D03*
X1850D02*
D03*
X1929D02*
D03*
X2008D02*
D03*
X2086D02*
D03*
X2165D02*
D03*
X2244D02*
D03*
Y2629D02*
D03*
X2165D02*
D03*
X2086D02*
D03*
X2008D02*
D03*
X1929D02*
D03*
X1850D02*
D03*
X1771D02*
D03*
X1693D02*
D03*
X1614D02*
D03*
X1535D02*
D03*
X1456D02*
D03*
X1378D02*
D03*
X1299D02*
D03*
X1220D02*
D03*
X1141D02*
D03*
X1063D02*
D03*
X630Y346D02*
D03*
X708D02*
D03*
X787D02*
D03*
X866D02*
D03*
X945D02*
D03*
X1023D02*
D03*
X1102D02*
D03*
X1181D02*
D03*
X1260D02*
D03*
X1338D02*
D03*
X1417D02*
D03*
X1496D02*
D03*
X1574D02*
D03*
X1653D02*
D03*
X1732D02*
D03*
X1811D02*
D03*
Y267D02*
D03*
X1732D02*
D03*
X1653D02*
D03*
X1574D02*
D03*
X1496D02*
D03*
X1417D02*
D03*
X1338D02*
D03*
X1260D02*
D03*
X1181D02*
D03*
X1102D02*
D03*
X1023D02*
D03*
X945D02*
D03*
X866D02*
D03*
X787D02*
D03*
X708D02*
D03*
X630D02*
D03*
D52*
X2165Y346D02*
D03*
X2244D02*
D03*
X2165Y425D02*
D03*
X2244D02*
D03*
X2165Y503D02*
D03*
X2244D02*
D03*
X2165Y582D02*
D03*
X2244D02*
D03*
X2165Y661D02*
D03*
X2244D02*
D03*
X2165Y739D02*
D03*
X2244D02*
D03*
X2165Y818D02*
D03*
X2244D02*
D03*
Y897D02*
D03*
Y976D02*
D03*
Y1054D02*
D03*
Y1133D02*
D03*
Y1212D02*
D03*
Y1291D02*
D03*
Y1369D02*
D03*
Y1448D02*
D03*
Y1527D02*
D03*
Y1606D02*
D03*
Y1684D02*
D03*
Y1763D02*
D03*
Y1842D02*
D03*
Y1921D02*
D03*
Y1999D02*
D03*
Y2078D02*
D03*
Y2157D02*
D03*
Y2236D02*
D03*
Y2314D02*
D03*
Y2393D02*
D03*
X2165D02*
D03*
Y2314D02*
D03*
Y2236D02*
D03*
Y2157D02*
D03*
Y2078D02*
D03*
Y1999D02*
D03*
Y1921D02*
D03*
Y1842D02*
D03*
Y1763D02*
D03*
Y1684D02*
D03*
Y1606D02*
D03*
Y1527D02*
D03*
Y1448D02*
D03*
Y1369D02*
D03*
Y1291D02*
D03*
Y1212D02*
D03*
Y1133D02*
D03*
Y1054D02*
D03*
Y976D02*
D03*
Y897D02*
D03*
X275Y346D02*
D03*
X354D02*
D03*
X275Y425D02*
D03*
X354D02*
D03*
X275Y503D02*
D03*
X354D02*
D03*
X275Y582D02*
D03*
X354D02*
D03*
X275Y661D02*
D03*
X354D02*
D03*
X275Y739D02*
D03*
X354D02*
D03*
X275Y818D02*
D03*
X354D02*
D03*
Y897D02*
D03*
Y976D02*
D03*
Y1054D02*
D03*
Y1133D02*
D03*
Y1212D02*
D03*
Y1291D02*
D03*
Y1369D02*
D03*
Y1448D02*
D03*
Y1527D02*
D03*
Y1606D02*
D03*
Y1684D02*
D03*
Y1763D02*
D03*
Y1842D02*
D03*
Y1921D02*
D03*
Y1999D02*
D03*
Y2078D02*
D03*
Y2157D02*
D03*
Y2236D02*
D03*
Y2314D02*
D03*
Y2393D02*
D03*
X275D02*
D03*
Y2314D02*
D03*
Y2236D02*
D03*
Y2157D02*
D03*
Y2078D02*
D03*
Y1999D02*
D03*
Y1921D02*
D03*
Y1842D02*
D03*
Y1763D02*
D03*
Y1684D02*
D03*
Y1606D02*
D03*
Y1527D02*
D03*
Y1448D02*
D03*
Y1369D02*
D03*
Y1291D02*
D03*
Y1212D02*
D03*
Y1133D02*
D03*
Y1054D02*
D03*
Y976D02*
D03*
Y897D02*
D03*
D53*
X3484Y2170D02*
D03*
Y1970D02*
D03*
X3684Y2170D02*
D03*
Y1970D02*
D03*
D54*
X3584Y2070D02*
D03*
D55*
X655Y2628D02*
D03*
X653Y2768D02*
D03*
X3201Y1945D02*
D03*
X570Y708D02*
D03*
X1765Y1427D02*
D03*
X1974Y1358D02*
D03*
X1460Y1218D02*
D03*
X1819Y1627D02*
D03*
X2860Y1868D02*
D03*
X2420Y2398D02*
D03*
X470Y1228D02*
D03*
X1630Y2108D02*
D03*
X1580Y2048D02*
D03*
X1120Y2028D02*
D03*
X1300Y2078D02*
D03*
X890Y1428D02*
D03*
X2902Y2267D02*
D03*
X1867Y2516D02*
D03*
X2337Y1856D02*
D03*
X2362Y2222D02*
D03*
X1000Y1436D02*
D03*
X925Y924D02*
D03*
X1273Y536D02*
D03*
X1274Y1040D02*
D03*
X1331Y682D02*
D03*
X1694Y559D02*
D03*
X1678Y1037D02*
D03*
Y1137D02*
D03*
X1693Y736D02*
D03*
X1692Y634D02*
D03*
X1452Y1123D02*
D03*
X1686Y1918D02*
D03*
X1440Y1914D02*
D03*
X1162Y1913D02*
D03*
X1009Y1912D02*
D03*
X2407Y2645D02*
D03*
X1316Y1611D02*
D03*
X1338Y594D02*
D03*
X1529Y1462D02*
D03*
X2892Y2582D02*
D03*
X3114Y2672D02*
D03*
X1028Y803D02*
D03*
X1325Y884D02*
D03*
X925Y681D02*
D03*
X898Y592D02*
D03*
X1964Y2159D02*
D03*
X1962Y2026D02*
D03*
D56*
X3266Y2396D02*
D03*
Y2163D02*
D03*
X2904Y2396D02*
D03*
Y2163D02*
D03*
D57*
X2772Y2427D02*
D03*
D58*
X2512Y2517D02*
D03*
Y2337D02*
D03*
Y2427D02*
D03*
D59*
X2767Y2216D02*
D03*
X2519D02*
D03*
X2878Y2027D02*
D03*
X2630D02*
D03*
X1679Y1616D02*
D03*
X1431D02*
D03*
X774Y472D02*
D03*
X1022D02*
D03*
X531Y2623D02*
D03*
X779D02*
D03*
X528Y2773D02*
D03*
X776D02*
D03*
X1898Y2410D02*
D03*
X1650D02*
D03*
D60*
X3130Y1991D02*
D03*
X3155D02*
D03*
X3104Y1881D02*
D03*
X3155D02*
D03*
X3130D02*
D03*
X3078Y1991D02*
D03*
X3104D02*
D03*
X3078Y1881D02*
D03*
D61*
X1895Y1290D02*
D03*
Y1392D02*
D03*
X1820Y1290D02*
D03*
X1857Y1392D02*
D03*
X1820D02*
D03*
X1000Y1257D02*
D03*
Y1360D02*
D03*
X925D02*
D03*
X962D02*
D03*
X925Y1257D02*
D03*
X1010Y1977D02*
D03*
X1047Y2079D02*
D03*
X1010D02*
D03*
X1085D02*
D03*
Y1977D02*
D03*
X1236Y2079D02*
D03*
Y1977D02*
D03*
X1198Y2079D02*
D03*
X1161Y1977D02*
D03*
Y2079D02*
D03*
X1514Y2077D02*
D03*
Y1975D02*
D03*
X1476Y2077D02*
D03*
X1439Y1975D02*
D03*
Y2077D02*
D03*
X1761D02*
D03*
Y1975D02*
D03*
X1724Y2077D02*
D03*
X1687Y1975D02*
D03*
Y2077D02*
D03*
D62*
X1076Y1419D02*
D03*
X1126D02*
D03*
X1176D02*
D03*
X1226D02*
D03*
X1076Y1182D02*
D03*
X1126D02*
D03*
X1176D02*
D03*
X1226D02*
D03*
D63*
X1562Y536D02*
D03*
Y586D02*
D03*
Y636D02*
D03*
Y686D02*
D03*
Y736D02*
D03*
Y786D02*
D03*
Y836D02*
D03*
Y886D02*
D03*
Y936D02*
D03*
Y986D02*
D03*
Y1036D02*
D03*
Y1086D02*
D03*
Y1136D02*
D03*
Y1186D02*
D03*
X1981Y536D02*
D03*
Y586D02*
D03*
Y636D02*
D03*
Y686D02*
D03*
Y736D02*
D03*
Y786D02*
D03*
Y836D02*
D03*
Y886D02*
D03*
Y936D02*
D03*
Y986D02*
D03*
Y1036D02*
D03*
Y1086D02*
D03*
Y1136D02*
D03*
D64*
Y1186D02*
D03*
D65*
X563Y2433D02*
D03*
D66*
X823Y2523D02*
D03*
Y2343D02*
D03*
D67*
X2903Y2266D02*
Y2394D01*
X2833Y2266D02*
X2903D01*
X2904Y2053D02*
Y2163D01*
X2878Y2027D02*
X2904Y2053D01*
X2903Y2394D02*
X2904Y2396D01*
X2783Y2216D02*
X2833Y2266D01*
X2767Y2216D02*
X2783D01*
X2903Y2165D02*
Y2266D01*
Y2165D02*
X2904Y2163D01*
D68*
X2106Y1108D02*
Y1158D01*
X2034Y1036D02*
X2106Y1108D01*
Y1158D02*
X2160Y1212D01*
X1981Y1036D02*
X2034D01*
X2107Y1075D02*
X2165Y1133D01*
X2107Y1038D02*
Y1075D01*
X2055Y986D02*
X2107Y1038D01*
X1981Y986D02*
X2055D01*
X2160Y1212D02*
X2165D01*
D69*
X2081Y1134D02*
Y1212D01*
X2033Y1086D02*
X2081Y1134D01*
Y1212D02*
X2160Y1291D01*
X2049Y1149D02*
Y1258D01*
X2036Y1136D02*
X2049Y1149D01*
Y1258D02*
X2160Y1369D01*
X2016Y586D02*
X2099Y503D01*
X1981Y586D02*
X2016D01*
X2099Y503D02*
X2165D01*
X1981Y1136D02*
X2036D01*
X2160Y1369D02*
X2165D01*
X1981Y1086D02*
X2033D01*
X2160Y1291D02*
X2165D01*
X2160Y1039D02*
Y1050D01*
X2057Y936D02*
X2160Y1039D01*
X1981Y936D02*
X2057D01*
X2160Y1050D02*
X2165Y1054D01*
X1981Y886D02*
X2070D01*
X2160Y976D01*
X2165D01*
X1981Y836D02*
X2099D01*
X2160Y897D01*
X2165D01*
X2152Y818D02*
X2165D01*
X2120Y786D02*
X2152Y818D01*
X1981Y786D02*
X2120D01*
X2163Y737D02*
X2165Y739D01*
X1983Y737D02*
X2163D01*
X1981Y736D02*
X1983Y737D01*
X2058Y661D02*
X2165D01*
X2033Y686D02*
X2058Y661D01*
X1981Y686D02*
X2033D01*
X2073Y582D02*
X2165D01*
X2019Y636D02*
X2073Y582D01*
X1981Y636D02*
X2019D01*
X2083Y425D02*
X2165D01*
X1981Y527D02*
X2083Y425D01*
X1981Y527D02*
Y536D01*
D70*
X776Y2773D02*
X778Y2771D01*
Y2625D02*
Y2771D01*
Y2625D02*
X779Y2623D01*
M02*
