G04*
G04 #@! TF.GenerationSoftware,Altium Limited,Altium Designer,19.1.6 (110)*
G04*
G04 Layer_Physical_Order=2*
G04 Layer_Color=16711680*
%FSLAX24Y24*%
%MOIN*%
G70*
G01*
G75*
%ADD14C,0.0118*%
%ADD33R,0.0984X0.1299*%
%ADD34R,0.1299X0.0984*%
%ADD35R,0.0492X0.0394*%
%ADD37R,0.0276X0.0394*%
%ADD38R,0.0394X0.0492*%
%ADD39R,0.1260X0.0591*%
%ADD40R,0.0394X0.0394*%
%ADD44C,0.0315*%
%ADD45C,0.0276*%
%ADD46C,0.0591*%
%ADD47C,0.0197*%
%ADD48C,0.0394*%
%ADD50O,0.0492X0.0591*%
%ADD51O,0.0591X0.0492*%
%ADD52C,0.0591*%
%ADD53C,0.1181*%
%ADD54O,0.1004X0.0984*%
%ADD55C,0.1260*%
%ADD56C,0.0500*%
%ADD57C,0.0080*%
%ADD58R,0.2244X0.2165*%
%ADD59R,0.0846X0.0512*%
%ADD60C,0.0100*%
%ADD61C,0.0472*%
%ADD62C,0.0236*%
D14*
X2953Y13189D02*
X3002D01*
D33*
X17765Y3835D02*
D03*
Y6315D02*
D03*
D34*
X9750Y5000D02*
D03*
X12230D02*
D03*
X5950Y21200D02*
D03*
X8430D02*
D03*
X5920Y22700D02*
D03*
X8400D02*
D03*
X19184Y22019D02*
D03*
X16703D02*
D03*
D35*
X9816Y20823D02*
D03*
X10682D02*
D03*
X13235Y23376D02*
D03*
X14101D02*
D03*
X17346Y23070D02*
D03*
X16480D02*
D03*
D37*
X10297Y17690D02*
D03*
X10671Y18714D02*
D03*
X10297D02*
D03*
X11045D02*
D03*
Y17690D02*
D03*
X12555Y18714D02*
D03*
Y17690D02*
D03*
X12181Y18714D02*
D03*
X11807Y17690D02*
D03*
Y18714D02*
D03*
X15335Y18694D02*
D03*
Y17670D02*
D03*
X14961Y18694D02*
D03*
X14587Y17670D02*
D03*
Y18694D02*
D03*
X17813D02*
D03*
Y17670D02*
D03*
X17439Y18694D02*
D03*
X17065Y17670D02*
D03*
Y18694D02*
D03*
D38*
X14808Y13318D02*
D03*
Y14184D02*
D03*
D39*
X19750Y3400D02*
D03*
D40*
X20650Y6000D02*
D03*
X19750D02*
D03*
X18850D02*
D03*
D44*
X30490Y15650D02*
Y18745D01*
X17985Y13665D02*
X21000Y10650D01*
Y6350D02*
Y10650D01*
X20650Y6000D02*
X21000Y6350D01*
X17985Y13665D02*
Y14425D01*
X17977Y14433D02*
X17985Y14425D01*
X17765Y6315D02*
Y6472D01*
X18100Y6650D02*
Y6750D01*
X19350D01*
X19750Y6350D01*
Y6000D02*
Y6350D01*
X17775Y3055D02*
X17785Y3045D01*
X17775Y3055D02*
Y3825D01*
X17765Y3835D02*
X17775Y3825D01*
X18840Y6010D02*
X18850Y6000D01*
X12105Y4010D02*
Y4875D01*
X12230Y5000D01*
X12675Y5335D02*
Y7590D01*
X12341Y5000D02*
X12675Y5335D01*
X12230Y5000D02*
X12341D01*
D45*
X9566Y12204D02*
X12394Y15032D01*
X7737Y12204D02*
X9566D01*
X12394Y15032D02*
X13801D01*
X14812Y16044D01*
X14587Y16868D02*
X14595Y16860D01*
D46*
X10400Y22700D02*
X10750Y22350D01*
X8400Y22700D02*
X10400D01*
X10750Y22350D02*
X12013D01*
X12578Y21785D01*
X8400Y22700D02*
X8430Y22670D01*
Y21200D02*
Y22670D01*
D47*
X14980Y8420D02*
X16150Y7250D01*
X10895Y8420D02*
X14980D01*
X5195Y18190D02*
X10517D01*
X4685Y18701D02*
X5195Y18190D01*
X3740Y18701D02*
X4685D01*
X3838Y19390D02*
X11825D01*
X3740Y19488D02*
X3838Y19390D01*
X11825D02*
X12181Y19034D01*
Y18714D02*
Y19034D01*
X10671Y18345D02*
Y18714D01*
X10517Y18190D02*
X10671Y18345D01*
X19835Y19510D02*
X19845Y19500D01*
X15275Y19510D02*
X19835D01*
X17742Y18180D02*
X19815D01*
X17479Y18443D02*
X17742Y18180D01*
X17479Y18443D02*
Y18654D01*
X17439Y18694D02*
X17479Y18654D01*
X14961Y19196D02*
X15275Y19510D01*
X14961Y18694D02*
Y19196D01*
X10297Y16802D02*
Y17690D01*
X14587Y16868D02*
Y17670D01*
X17065Y16850D02*
Y17670D01*
X11812Y16044D02*
X12555Y16787D01*
Y17690D01*
X11807Y16973D02*
Y17690D01*
X11049Y16387D02*
Y17686D01*
X11045Y17690D02*
X11049Y17686D01*
X15339Y16573D02*
Y17666D01*
X15335Y17670D02*
X15339Y17666D01*
X17799Y17655D02*
X17813Y17670D01*
X17799Y16057D02*
Y17655D01*
Y16057D02*
X17812Y16044D01*
X15812D02*
Y16100D01*
X15339Y16573D02*
X15812Y16100D01*
X10812Y16044D02*
Y16150D01*
X11049Y16387D01*
D48*
X20768Y17225D02*
Y21530D01*
X14620Y13300D02*
X16843D01*
X17977Y14433D01*
X9814Y20046D02*
Y20823D01*
X9800D02*
Y21219D01*
Y20823D02*
X9814D01*
X9812Y20044D02*
X9814Y20046D01*
Y20823D02*
X9816D01*
X8680Y21450D02*
X9569D01*
X8430Y21200D02*
X8680Y21450D01*
X9569D02*
X9800Y21219D01*
X12578Y21785D02*
X13235Y22442D01*
Y23376D01*
X14145Y12826D02*
X14620Y13300D01*
X4940Y22638D02*
X5050Y22528D01*
X3307Y22638D02*
X4940D01*
X3021Y22352D02*
X3307Y22638D01*
X3021Y21896D02*
Y22352D01*
X2975Y21850D02*
X3021Y21896D01*
X2953Y21850D02*
X2975D01*
X23606D02*
X23653Y21897D01*
X22638Y21850D02*
X23606D01*
X3740Y12402D02*
X3863D01*
X22643Y13194D02*
X23435D01*
X22638Y13189D02*
X22643Y13194D01*
X21308Y22638D02*
X28019D01*
X20768Y22098D02*
X21308Y22638D01*
X20768Y21530D02*
Y22098D01*
X14120Y22940D02*
Y23376D01*
X14380Y22680D02*
X15173D01*
X15178Y22685D01*
X14120Y22940D02*
X14380Y22680D01*
X14101Y23376D02*
X14120D01*
X16480Y22242D02*
X16703Y22019D01*
X16480Y22242D02*
Y23070D01*
X20124Y20885D02*
X20768Y21530D01*
X15178Y20885D02*
X20124D01*
X23819Y17815D02*
Y20571D01*
X28019Y22638D02*
X29119Y23738D01*
X35498Y3187D02*
X36469D01*
X35485Y3200D02*
X35498Y3187D01*
X33635Y2350D02*
X34635D01*
X35485Y3200D01*
X32305Y2350D02*
X33635D01*
X27135D02*
X32305D01*
X31485Y3170D02*
X32305Y2350D01*
X31485Y3170D02*
Y3200D01*
X33635Y2350D02*
X34485Y3200D01*
X26523Y2962D02*
X27135Y2350D01*
X26523Y2962D02*
Y3162D01*
X26485Y3200D02*
X26523Y3162D01*
D50*
X10827Y25000D02*
D03*
X11614D02*
D03*
X12402D02*
D03*
X13189D02*
D03*
X13976D02*
D03*
X14764D02*
D03*
X15551D02*
D03*
X16339D02*
D03*
X17126D02*
D03*
X17913D02*
D03*
X18701D02*
D03*
X19488D02*
D03*
X20276D02*
D03*
X21063D02*
D03*
X21850D02*
D03*
X22638D02*
D03*
Y24213D02*
D03*
X21850D02*
D03*
X21063D02*
D03*
X20276D02*
D03*
X19488D02*
D03*
X18701D02*
D03*
X17913D02*
D03*
X17126D02*
D03*
X16339D02*
D03*
X15551D02*
D03*
X14764D02*
D03*
X13976D02*
D03*
X13189D02*
D03*
X12402D02*
D03*
X11614D02*
D03*
X10827D02*
D03*
X6496Y1378D02*
D03*
X7283D02*
D03*
X8071D02*
D03*
X8858D02*
D03*
X9646D02*
D03*
X10433D02*
D03*
X11220D02*
D03*
X12008D02*
D03*
X12795D02*
D03*
X13583D02*
D03*
X14370D02*
D03*
X15157D02*
D03*
X15945D02*
D03*
X16732D02*
D03*
X17520D02*
D03*
X18307D02*
D03*
Y591D02*
D03*
X17520D02*
D03*
X16732D02*
D03*
X15945D02*
D03*
X15157D02*
D03*
X14370D02*
D03*
X13583D02*
D03*
X12795D02*
D03*
X12008D02*
D03*
X11220D02*
D03*
X10433D02*
D03*
X9646D02*
D03*
X8858D02*
D03*
X8071D02*
D03*
X7283D02*
D03*
X6496D02*
D03*
D51*
X21850Y1378D02*
D03*
X22638D02*
D03*
X21850Y2165D02*
D03*
X22638D02*
D03*
X21850Y2953D02*
D03*
X22638D02*
D03*
X21850Y3740D02*
D03*
X22638D02*
D03*
X21850Y4528D02*
D03*
X22638D02*
D03*
X21850Y5315D02*
D03*
X22638D02*
D03*
X21850Y6102D02*
D03*
X22638D02*
D03*
Y6890D02*
D03*
Y7677D02*
D03*
Y8465D02*
D03*
Y9252D02*
D03*
Y10039D02*
D03*
Y10827D02*
D03*
Y11614D02*
D03*
Y12402D02*
D03*
Y13189D02*
D03*
Y13976D02*
D03*
Y14764D02*
D03*
Y15551D02*
D03*
Y16339D02*
D03*
Y17126D02*
D03*
Y17913D02*
D03*
Y18701D02*
D03*
Y19488D02*
D03*
Y20276D02*
D03*
Y21063D02*
D03*
Y21850D02*
D03*
X21850D02*
D03*
Y21063D02*
D03*
Y20276D02*
D03*
Y19488D02*
D03*
Y18701D02*
D03*
Y17913D02*
D03*
Y17126D02*
D03*
Y16339D02*
D03*
Y15551D02*
D03*
Y14764D02*
D03*
Y13976D02*
D03*
Y13189D02*
D03*
Y12402D02*
D03*
Y11614D02*
D03*
Y10827D02*
D03*
Y10039D02*
D03*
Y9252D02*
D03*
Y8465D02*
D03*
Y7677D02*
D03*
Y6890D02*
D03*
X2953Y1378D02*
D03*
X3740D02*
D03*
X2953Y2165D02*
D03*
X3740D02*
D03*
X2953Y2953D02*
D03*
X3740D02*
D03*
X2953Y3740D02*
D03*
X3740D02*
D03*
X2953Y4528D02*
D03*
X3740D02*
D03*
X2953Y5315D02*
D03*
X3740D02*
D03*
X2953Y6102D02*
D03*
X3740D02*
D03*
Y6890D02*
D03*
Y7677D02*
D03*
Y8465D02*
D03*
Y9252D02*
D03*
Y10039D02*
D03*
Y10827D02*
D03*
Y11614D02*
D03*
Y12402D02*
D03*
Y13189D02*
D03*
Y13976D02*
D03*
Y14764D02*
D03*
Y15551D02*
D03*
Y16339D02*
D03*
Y17126D02*
D03*
Y17913D02*
D03*
Y18701D02*
D03*
Y19488D02*
D03*
Y20276D02*
D03*
Y21063D02*
D03*
Y21850D02*
D03*
X2953D02*
D03*
Y21063D02*
D03*
Y20276D02*
D03*
Y19488D02*
D03*
Y18701D02*
D03*
Y17913D02*
D03*
Y17126D02*
D03*
Y16339D02*
D03*
Y15551D02*
D03*
Y14764D02*
D03*
Y13976D02*
D03*
Y13189D02*
D03*
Y12402D02*
D03*
Y11614D02*
D03*
Y10827D02*
D03*
Y10039D02*
D03*
Y9252D02*
D03*
Y8465D02*
D03*
Y7677D02*
D03*
Y6890D02*
D03*
D52*
X17750Y6200D02*
D03*
X8812Y16044D02*
D03*
X7812D02*
D03*
X11812D02*
D03*
X9812D02*
D03*
X10812D02*
D03*
X7812Y20044D02*
D03*
X8812D02*
D03*
X9812D02*
D03*
X10812D02*
D03*
X14812Y16044D02*
D03*
X12812D02*
D03*
X13812D02*
D03*
X15812D02*
D03*
X16812D02*
D03*
X17812D02*
D03*
X13812Y20044D02*
D03*
X11812D02*
D03*
X12812D02*
D03*
X16812D02*
D03*
X17812D02*
D03*
X14812D02*
D03*
X15812D02*
D03*
X35433Y15650D02*
D03*
X33433Y14650D02*
D03*
X30433Y15650D02*
D03*
X36481Y3174D02*
D03*
Y4174D02*
D03*
X35485Y3200D02*
D03*
Y4200D02*
D03*
X34485Y3200D02*
D03*
Y4200D02*
D03*
X33485Y3200D02*
D03*
Y4200D02*
D03*
X32485Y3200D02*
D03*
Y4200D02*
D03*
X31485Y3200D02*
D03*
Y4200D02*
D03*
X30485Y3200D02*
D03*
Y4200D02*
D03*
X29485Y3200D02*
D03*
Y4200D02*
D03*
X28485Y3200D02*
D03*
Y4200D02*
D03*
X27485Y3200D02*
D03*
Y4200D02*
D03*
X26485Y3200D02*
D03*
Y4200D02*
D03*
X25485Y3200D02*
D03*
Y4200D02*
D03*
X24485Y3200D02*
D03*
Y4200D02*
D03*
X36485Y12200D02*
D03*
Y13200D02*
D03*
X35485Y12200D02*
D03*
Y13200D02*
D03*
X34485Y12200D02*
D03*
Y13200D02*
D03*
X33485Y12200D02*
D03*
Y13200D02*
D03*
X32485Y12200D02*
D03*
Y13200D02*
D03*
X31485Y12200D02*
D03*
Y13200D02*
D03*
X30485Y12200D02*
D03*
Y13200D02*
D03*
X29485Y12200D02*
D03*
Y13200D02*
D03*
X28485Y12200D02*
D03*
Y13200D02*
D03*
X27485Y12200D02*
D03*
Y13200D02*
D03*
X26485Y12200D02*
D03*
Y13200D02*
D03*
X25485Y12200D02*
D03*
Y13200D02*
D03*
X24485Y12200D02*
D03*
Y13200D02*
D03*
D53*
X35008Y18929D02*
D03*
Y16929D02*
D03*
X37008Y18929D02*
D03*
Y16929D02*
D03*
X35039Y22428D02*
D03*
Y20768D02*
D03*
X32905D02*
D03*
Y22428D02*
D03*
D54*
X36008Y17929D02*
D03*
D55*
X1181Y24803D02*
D03*
Y1181D02*
D03*
X5512Y13976D02*
D03*
X20079D02*
D03*
X36417Y24803D02*
D03*
Y1181D02*
D03*
D56*
X30513Y18693D02*
D03*
X7737Y12204D02*
D03*
X24265Y24366D02*
D03*
X12250Y13300D02*
D03*
X17985Y14425D02*
D03*
X12035Y3130D02*
D03*
X16002Y11350D02*
D03*
X16150Y7250D02*
D03*
X5905Y12100D02*
D03*
X10118Y11811D02*
D03*
X20710Y17250D02*
D03*
X23819Y20571D02*
D03*
Y17815D02*
D03*
X29119Y23738D02*
D03*
X31335Y24640D02*
D03*
X27645Y18380D02*
D03*
X28012Y20686D02*
D03*
X15135Y5220D02*
D03*
X11175Y10980D02*
D03*
X12165Y6030D02*
D03*
X16165Y4000D02*
D03*
X16435Y3110D02*
D03*
X8485Y4550D02*
D03*
X8475Y2780D02*
D03*
X8495Y3530D02*
D03*
X8635Y7560D02*
D03*
Y8560D02*
D03*
X12105Y4010D02*
D03*
X10895Y8420D02*
D03*
X12675Y7590D02*
D03*
X19835Y19510D02*
D03*
X19815Y18180D02*
D03*
X11812Y16834D02*
D03*
X10297Y16802D02*
D03*
X17065Y16850D02*
D03*
X14595Y16860D02*
D03*
X14145Y12826D02*
D03*
D57*
X35749Y22428D02*
G03*
X35749Y22428I-709J0D01*
G01*
X33635D02*
G03*
X33635Y22428I-731J0D01*
G01*
X37683Y19208D02*
G03*
X37683Y18650I-675J-279D01*
G01*
X35749Y20768D02*
G03*
X35749Y20768I-709J0D01*
G01*
X33635D02*
G03*
X33635Y20768I-731J0D01*
G01*
X35998Y18540D02*
G03*
X35998Y17318I0J-611D01*
G01*
X35738Y18929D02*
G03*
X35738Y18929I-731J0D01*
G01*
X31725Y24640D02*
G03*
X31725Y24640I-390J0D01*
G01*
X29487Y23738D02*
G03*
X28761Y23826I-369J0D01*
G01*
X29207Y23380D02*
G03*
X29487Y23738I-88J358D01*
G01*
X28019Y22322D02*
G03*
X28242Y22415I0J316D01*
G01*
X28019Y22322D02*
G03*
X28242Y22415I0J316D01*
G01*
X28402Y20686D02*
G03*
X28402Y20686I-390J0D01*
G01*
X30882Y18693D02*
G03*
X30214Y18477I-369J0D01*
G01*
X30767Y18425D02*
G03*
X30882Y18693I-254J268D01*
G01*
X36629Y17929D02*
G03*
X36018Y18540I-611J0D01*
G01*
Y17318D02*
G03*
X36629Y17929I0J611D01*
G01*
X37683Y17208D02*
G03*
X37683Y16650I-675J-279D01*
G01*
X35738Y16929D02*
G03*
X35738Y16929I-731J0D01*
G01*
X35847Y15650D02*
G03*
X35847Y15650I-414J0D01*
G01*
X36921Y13200D02*
G03*
X36921Y13200I-435J0D01*
G01*
X35921D02*
G03*
X35921Y13200I-435J0D01*
G01*
X34899D02*
G03*
X34899Y13200I-414J0D01*
G01*
X33868Y14650D02*
G03*
X33868Y14650I-435J0D01*
G01*
X30214Y16001D02*
G03*
X30847Y15650I219J-351D01*
G01*
D02*
G03*
X30767Y15895I-414J0D01*
G01*
X32899Y13200D02*
G03*
X32899Y13200I-414J0D01*
G01*
X33899D02*
G03*
X33899Y13200I-414J0D01*
G01*
X31893Y13127D02*
G03*
X31899Y13200I-408J73D01*
G01*
D02*
G03*
X31558Y12792I-414J0D01*
G01*
X32222Y12700D02*
G03*
X32153Y12868I-237J0D01*
G01*
X32222Y12700D02*
G03*
X32153Y12867I-237J0D01*
G01*
X30899Y13200D02*
G03*
X30899Y13200I-414J0D01*
G01*
X29899D02*
G03*
X29899Y13200I-414J0D01*
G01*
X28899D02*
G03*
X28899Y13200I-414J0D01*
G01*
X24655Y24366D02*
G03*
X24655Y24366I-390J0D01*
G01*
X24188Y20571D02*
G03*
X23503Y20380I-369J0D01*
G01*
X24134D02*
G03*
X24188Y20571I-316J191D01*
G01*
X21457Y21183D02*
G03*
X21457Y20943I344J-120D01*
G01*
Y20396D02*
G03*
X21457Y20156I344J-120D01*
G01*
X21308Y22953D02*
G03*
X21085Y22861I0J-316D01*
G01*
X21308Y22953D02*
G03*
X21085Y22861I0J-316D01*
G01*
X21457Y21970D02*
G03*
X21457Y21730I344J-120D01*
G01*
X20545Y22321D02*
G03*
X20453Y22098I223J-223D01*
G01*
X20545Y22321D02*
G03*
X20453Y22098I223J-223D01*
G01*
X21457Y19608D02*
G03*
X21457Y19368I344J-120D01*
G01*
X20124Y20570D02*
G03*
X20347Y20662I0J316D01*
G01*
X20124Y20570D02*
G03*
X20347Y20662I0J316D01*
G01*
X20204Y19510D02*
G03*
X19537Y19727I-369J0D01*
G01*
Y19293D02*
G03*
X20204Y19510I298J217D01*
G01*
X18111Y19727D02*
G03*
X18247Y20044I-299J317D01*
G01*
X28035Y18380D02*
G03*
X28035Y18380I-390J0D01*
G01*
X23503Y18006D02*
G03*
X24188Y17815I316J-191D01*
G01*
D02*
G03*
X24134Y18006I-369J0D01*
G01*
X23073Y17126D02*
G03*
X23019Y17323I-386J0D01*
G01*
X22687Y16740D02*
G03*
X23073Y17126I0J386D01*
G01*
Y16339D02*
G03*
X22687Y16725I-386J0D01*
G01*
Y15953D02*
G03*
X23073Y16339I0J386D01*
G01*
Y15551D02*
G03*
X22687Y15937I-386J0D01*
G01*
X22244Y16952D02*
G03*
X22589Y16740I344J174D01*
G01*
Y16725D02*
G03*
X22244Y16513I0J-386D01*
G01*
X21900Y16740D02*
G03*
X22244Y16952I0J386D01*
G01*
Y16513D02*
G03*
X21900Y16725I-344J-174D01*
G01*
X22244Y16164D02*
G03*
X22589Y15953I344J174D01*
G01*
Y15937D02*
G03*
X22244Y15725I0J-386D01*
G01*
X21900Y15953D02*
G03*
X22244Y16164I0J386D01*
G01*
Y15725D02*
G03*
X21900Y15937I-344J-174D01*
G01*
X27899Y13200D02*
G03*
X27899Y13200I-414J0D01*
G01*
X26899D02*
G03*
X26558Y12792I-414J0D01*
G01*
X26893Y13127D02*
G03*
X26899Y13200I-408J73D01*
G01*
X27214Y12708D02*
G03*
X27145Y12875I-237J0D01*
G01*
X27214Y12708D02*
G03*
X27145Y12876I-237J0D01*
G01*
X22868Y15210D02*
G03*
X23073Y15551I-181J341D01*
G01*
X25899Y13200D02*
G03*
X25899Y13200I-414J0D01*
G01*
X24899D02*
G03*
X24899Y13200I-414J0D01*
G01*
X21457Y18821D02*
G03*
X21457Y18581I344J-120D01*
G01*
Y18033D02*
G03*
X21457Y17793I344J-120D01*
G01*
Y16952D02*
G03*
X21801Y16740I344J174D01*
G01*
Y16725D02*
G03*
X21457Y16513I0J-386D01*
G01*
Y17300D02*
G03*
X21457Y16952I344J-174D01*
G01*
X20453Y17515D02*
G03*
X20927Y16952I257J-265D01*
G01*
D02*
G03*
X21084Y17225I-159J273D01*
G01*
X19517Y17963D02*
G03*
X20184Y18180I298J217D01*
G01*
D02*
G03*
X19517Y18397I-369J0D01*
G01*
X21457Y16164D02*
G03*
X21801Y15953I344J174D01*
G01*
X21457Y16513D02*
G03*
X21457Y16164I344J-174D01*
G01*
X21801Y15937D02*
G03*
X21457Y15725I0J-386D01*
G01*
Y15377D02*
G03*
X21621Y15210I344J174D01*
G01*
X21457Y15725D02*
G03*
X21457Y15377I344J-174D01*
G01*
X18261Y14181D02*
G03*
X18353Y14425I-276J244D01*
G01*
X36899Y12200D02*
G03*
X36899Y12200I-414J0D01*
G01*
X35899D02*
G03*
X35899Y12200I-414J0D01*
G01*
X33899D02*
G03*
X33899Y12200I-414J0D01*
G01*
X34899D02*
G03*
X34899Y12200I-414J0D01*
G01*
X37402Y6450D02*
G03*
X37333Y6618I-237J0D01*
G01*
X37402Y6450D02*
G03*
X37333Y6617I-237J0D01*
G01*
X35921Y4200D02*
G03*
X35921Y4200I-435J0D01*
G01*
X34214Y5012D02*
G03*
X34145Y5180I-237J0D01*
G01*
X34214Y5012D02*
G03*
X34145Y5179I-237J0D01*
G01*
X34921Y4200D02*
G03*
X34214Y4541I-435J0D01*
G01*
X32899Y12200D02*
G03*
X32222Y12520I-414J0D01*
G01*
Y11880D02*
G03*
X32899Y12200I263J320D01*
G01*
X31748Y12520D02*
G03*
X31748Y11880I-263J-320D01*
G01*
X30899Y12200D02*
G03*
X30899Y12200I-414J0D01*
G01*
X29899D02*
G03*
X29899Y12200I-414J0D01*
G01*
X31748Y11630D02*
G03*
X31818Y11463I237J0D01*
G01*
X31748Y11630D02*
G03*
X31818Y11462I237J0D01*
G01*
X29899Y4200D02*
G03*
X29899Y4200I-414J0D01*
G01*
X36917Y4174D02*
G03*
X36917Y4174I-435J0D01*
G01*
X37333Y3716D02*
G03*
X37402Y3884I-167J168D01*
G01*
X37333Y3716D02*
G03*
X37402Y3884I-167J167D01*
G01*
X36532Y3585D02*
G03*
X36229Y3503I-50J-411D01*
G01*
X34214Y3859D02*
G03*
X34921Y4200I271J341D01*
G01*
X33741Y3708D02*
G03*
X33810Y3540I237J0D01*
G01*
X33741Y3708D02*
G03*
X33810Y3540I237J0D01*
G01*
X36895Y3174D02*
G03*
X36885Y3268I-414J0D01*
G01*
X36199Y2872D02*
G03*
X36895Y3174I282J303D01*
G01*
X35768Y3503D02*
G03*
X35073Y3234I-282J-303D01*
G01*
X35519Y2787D02*
G03*
X35737Y2872I-34J413D01*
G01*
X34899Y3200D02*
G03*
X34413Y3608I-414J0D01*
G01*
X34078Y3273D02*
G03*
X34073Y3234I408J-73D01*
G01*
X34857Y3018D02*
G03*
X34899Y3200I-372J182D01*
G01*
X34635Y2034D02*
G03*
X34859Y2127I0J316D01*
G01*
X33899Y3200D02*
G03*
X33667Y2828I-414J0D01*
G01*
X33857Y3018D02*
G03*
X33899Y3200I-372J182D01*
G01*
X34635Y2034D02*
G03*
X34859Y2127I0J316D01*
G01*
X33741Y4526D02*
G03*
X33741Y3874I-255J-326D01*
G01*
X32899Y4200D02*
G03*
X32899Y4200I-414J0D01*
G01*
X31899D02*
G03*
X31899Y4200I-414J0D01*
G01*
X32217Y2885D02*
G03*
X32899Y3200I269J315D01*
G01*
D02*
G03*
X32170Y2931I-414J0D01*
G01*
X31899Y3202D02*
G03*
X31417Y2792I-414J-2D01*
G01*
X30899Y4200D02*
G03*
X30899Y4200I-414J0D01*
G01*
Y3200D02*
G03*
X30899Y3200I-414J0D01*
G01*
X29899D02*
G03*
X29899Y3200I-414J0D01*
G01*
X27899Y12200D02*
G03*
X27214Y12513I-414J0D01*
G01*
X28899Y12200D02*
G03*
X28899Y12200I-414J0D01*
G01*
X25899D02*
G03*
X25899Y12200I-414J0D01*
G01*
X26741Y12526D02*
G03*
X26769Y11899I-255J-326D01*
G01*
X27535Y11789D02*
G03*
X27899Y12200I-50J411D01*
G01*
X26769Y11899D02*
G03*
X26810Y11844I208J113D01*
G01*
X26769Y11899D02*
G03*
X26810Y11844I208J113D01*
G01*
X24899Y12200D02*
G03*
X24899Y12200I-414J0D01*
G01*
X21276Y10650D02*
G03*
X21195Y10845I-276J0D01*
G01*
X21276Y10650D02*
G03*
X21195Y10845I-276J0D01*
G01*
Y6155D02*
G03*
X21276Y6350I-195J195D01*
G01*
X21195Y6155D02*
G03*
X21276Y6350I-195J195D01*
G01*
X19545Y6945D02*
G03*
X19350Y7026I-195J-195D01*
G01*
X19545Y6945D02*
G03*
X19350Y7026I-195J-195D01*
G01*
X28899Y4200D02*
G03*
X28899Y4200I-414J0D01*
G01*
X27899D02*
G03*
X27899Y4200I-414J0D01*
G01*
X26899D02*
G03*
X26899Y4200I-414J0D01*
G01*
X25899D02*
G03*
X25899Y4200I-414J0D01*
G01*
X24899D02*
G03*
X24899Y4200I-414J0D01*
G01*
X26899Y3200D02*
G03*
X26217Y2885I-414J0D01*
G01*
X26874Y3058D02*
G03*
X26899Y3200I-389J142D01*
G01*
X28899D02*
G03*
X28899Y3200I-414J0D01*
G01*
X27899D02*
G03*
X27899Y3200I-414J0D01*
G01*
X26217Y2885D02*
G03*
X26300Y2739I306J78D01*
G01*
X24899Y3200D02*
G03*
X24899Y3200I-414J0D01*
G01*
X25899D02*
G03*
X25899Y3200I-414J0D01*
G01*
X26217Y2885D02*
G03*
X26300Y2739I306J78D01*
G01*
X26912Y2127D02*
G03*
X27135Y2034I223J223D01*
G01*
X26912Y2127D02*
G03*
X27135Y2034I223J223D01*
G01*
X18247Y20044D02*
G03*
X17513Y19727I-435J0D01*
G01*
X17226Y20044D02*
G03*
X16545Y19727I-414J0D01*
G01*
X17079D02*
G03*
X17226Y20044I-267J317D01*
G01*
X16079Y19727D02*
G03*
X16226Y20044I-267J317D01*
G01*
X15258Y21719D02*
G03*
X15509Y21615I251J251D01*
G01*
X14878Y22247D02*
G03*
X14982Y21996I355J0D01*
G01*
X15258Y21719D02*
G03*
X15509Y21615I251J251D01*
G01*
X14878Y22247D02*
G03*
X14982Y21996I355J0D01*
G01*
X13819Y22846D02*
G03*
X13897Y22717I301J94D01*
G01*
X13819Y22846D02*
G03*
X13897Y22717I301J94D01*
G01*
X14157Y22457D02*
G03*
X14380Y22364I223J223D01*
G01*
X14157Y22457D02*
G03*
X14380Y22364I223J223D01*
G01*
X16226Y20044D02*
G03*
X15545Y19727I-414J0D01*
G01*
X15226Y20044D02*
G03*
X15226Y20044I-414J0D01*
G01*
X14226D02*
G03*
X14226Y20044I-414J0D01*
G01*
X12226D02*
G03*
X12226Y20044I-414J0D01*
G01*
X13247D02*
G03*
X13247Y20044I-435J0D01*
G01*
X17588Y18026D02*
G03*
X17645Y17986I154J154D01*
G01*
X17588Y18026D02*
G03*
X17645Y17986I154J154D01*
G01*
X17272Y18378D02*
G03*
X17325Y18290I207J65D01*
G01*
X17272Y18378D02*
G03*
X17325Y18290I207J65D01*
G01*
X17434Y16850D02*
G03*
X17283Y17148I-369J0D01*
G01*
X16848D02*
G03*
X17434Y16850I217J-298D01*
G01*
X15122Y16573D02*
G03*
X15186Y16420I217J0D01*
G01*
X15122Y16573D02*
G03*
X15186Y16420I217J0D01*
G01*
X15275Y19727D02*
G03*
X15122Y19664I0J-217D01*
G01*
X15275Y19727D02*
G03*
X15122Y19664I0J-217D01*
G01*
X14808Y19350D02*
G03*
X14744Y19196I154J-154D01*
G01*
X14808Y19350D02*
G03*
X14744Y19196I154J-154D01*
G01*
X12398Y19050D02*
G03*
X12335Y19188I-217J-16D01*
G01*
X12398Y19050D02*
G03*
X12335Y19188I-217J-16D01*
G01*
X14964Y16860D02*
G03*
X14804Y17164I-369J0D01*
G01*
X14370Y17152D02*
G03*
X14964Y16860I225J-292D01*
G01*
X12709Y16633D02*
G03*
X12773Y16787I-154J154D01*
G01*
X12709Y16633D02*
G03*
X12773Y16787I-154J154D01*
G01*
X12181Y16834D02*
G03*
X12024Y17135I-369J0D01*
G01*
X12152Y16690D02*
G03*
X12181Y16834I-340J143D01*
G01*
X10457Y22057D02*
G03*
X10750Y21936I293J293D01*
G01*
X10457Y22057D02*
G03*
X10750Y21936I293J293D01*
G01*
X10693Y22993D02*
G03*
X10400Y23114I-293J-293D01*
G01*
X10693Y22993D02*
G03*
X10400Y23114I-293J-293D01*
G01*
X9793Y21673D02*
G03*
X9569Y21766I-223J-223D01*
G01*
X9793Y21673D02*
G03*
X9569Y21766I-223J-223D01*
G01*
X10116Y21219D02*
G03*
X10023Y21443I-316J0D01*
G01*
X10116Y21219D02*
G03*
X10023Y21443I-316J0D01*
G01*
X11979Y19544D02*
G03*
X11825Y19607I-154J-154D01*
G01*
X11979Y19544D02*
G03*
X11825Y19607I-154J-154D01*
G01*
X11247Y20044D02*
G03*
X11247Y20044I-435J0D01*
G01*
X10226D02*
G03*
X10130Y20310I-414J0D01*
G01*
X10825Y18191D02*
G03*
X10889Y18345I-154J154D01*
G01*
X11590Y17128D02*
G03*
X11955Y16494I222J-295D01*
G01*
X10825Y18191D02*
G03*
X10889Y18345I-154J154D01*
G01*
X10554Y17976D02*
G03*
X10670Y18036I-37J214D01*
G01*
X10554Y17976D02*
G03*
X10670Y18036I-37J214D01*
G01*
X10666Y16802D02*
G03*
X10514Y17100I-369J0D01*
G01*
X9498Y20314D02*
G03*
X10226Y20044I314J-270D01*
G01*
X9226D02*
G03*
X9226Y20044I-414J0D01*
G01*
X8226D02*
G03*
X8226Y20044I-414J0D01*
G01*
X4838Y18854D02*
G03*
X4685Y18918I-154J-154D01*
G01*
X4838Y18854D02*
G03*
X4685Y18918I-154J-154D01*
G01*
X10080Y17100D02*
G03*
X10666Y16802I217J-298D01*
G01*
X5042Y18036D02*
G03*
X5195Y17973I154J154D01*
G01*
X5042Y18036D02*
G03*
X5195Y17973I154J154D01*
G01*
X18226Y16044D02*
G03*
X18016Y16404I-414J0D01*
G01*
X17582Y16388D02*
G03*
X18226Y16044I231J-344D01*
G01*
X17226D02*
G03*
X17226Y16044I-414J0D01*
G01*
X18353Y14425D02*
G03*
X17633Y14536I-369J0D01*
G01*
X16226Y16044D02*
G03*
X15765Y16455I-414J0D01*
G01*
X15422Y16183D02*
G03*
X16226Y16044I390J-139D01*
G01*
X14764Y15633D02*
G03*
X15226Y16044I48J411D01*
G01*
X17708Y13665D02*
G03*
X17789Y13470I276J0D01*
G01*
X17708Y13665D02*
G03*
X17789Y13470I276J0D01*
G01*
X16843Y12984D02*
G03*
X17066Y13077I0J316D01*
G01*
X16843Y12984D02*
G03*
X17066Y13077I0J316D01*
G01*
X15226Y16044D02*
G03*
X14401Y15995I-414J0D01*
G01*
X14226Y16044D02*
G03*
X14226Y16044I-414J0D01*
G01*
X13801Y14776D02*
G03*
X13982Y14851I0J257D01*
G01*
X14493Y13589D02*
G03*
X14397Y13523I127J-289D01*
G01*
X14493Y13589D02*
G03*
X14397Y13523I127J-289D01*
G01*
X13801Y14776D02*
G03*
X13982Y14851I0J257D01*
G01*
X13226Y16044D02*
G03*
X13226Y16044I-414J0D01*
G01*
X12226D02*
G03*
X12215Y16139I-414J0D01*
G01*
X11908Y16447D02*
G03*
X12226Y16044I-96J-403D01*
G01*
X12394Y15289D02*
G03*
X12213Y15214I0J-257D01*
G01*
X12394Y15289D02*
G03*
X12213Y15214I0J-257D01*
G01*
X14057Y13184D02*
G03*
X14503Y12737I88J-358D01*
G01*
X12640Y13300D02*
G03*
X12640Y13300I-390J0D01*
G01*
X16392Y11350D02*
G03*
X16288Y11614I-390J0D01*
G01*
X16519Y7250D02*
G03*
X16093Y7614I-369J0D01*
G01*
X15715Y11614D02*
G03*
X16392Y11350I287J-264D01*
G01*
X15134Y8574D02*
G03*
X14980Y8637I-154J-154D01*
G01*
X15134Y8574D02*
G03*
X14980Y8637I-154J-154D01*
G01*
X15786Y7307D02*
G03*
X16519Y7250I364J-57D01*
G01*
X15525Y5220D02*
G03*
X15525Y5220I-390J0D01*
G01*
X16555Y4000D02*
G03*
X16555Y4000I-390J0D01*
G01*
X16825Y3110D02*
G03*
X16825Y3110I-390J0D01*
G01*
X12952Y7346D02*
G03*
X13044Y7590I-276J244D01*
G01*
D02*
G03*
X12399Y7346I-369J0D01*
G01*
Y6342D02*
G03*
X12399Y5718I-234J-312D01*
G01*
X12474Y4010D02*
G03*
X12382Y4254I-369J0D01*
G01*
X11829D02*
G03*
X12474Y4010I276J-244D01*
G01*
X12425Y3130D02*
G03*
X12425Y3130I-390J0D01*
G01*
X11203Y16234D02*
G03*
X11267Y16387I-154J154D01*
G01*
X11203Y16234D02*
G03*
X11267Y16387I-154J154D01*
G01*
X10812Y16458D02*
G03*
X11226Y16044I-0J-414D01*
G01*
D02*
G03*
X11187Y16218I-414J0D01*
G01*
X10226Y16044D02*
G03*
X10226Y16044I-414J0D01*
G01*
X9226D02*
G03*
X9226Y16044I-414J0D01*
G01*
X8226D02*
G03*
X8226Y16044I-414J0D01*
G01*
X10508Y11811D02*
G03*
X10271Y11452I-390J0D01*
G01*
X11565Y10980D02*
G03*
X11565Y10980I-390J0D01*
G01*
X10477Y11658D02*
G03*
X10508Y11811I-359J153D01*
G01*
X9566Y11947D02*
G03*
X9747Y12022I0J257D01*
G01*
X9566Y11947D02*
G03*
X9747Y12022I0J257D01*
G01*
X8002Y12460D02*
G03*
X8002Y11947I-265J-257D01*
G01*
X3268Y13469D02*
G03*
X3002Y13575I-266J-280D01*
G01*
X2904D02*
G03*
X2559Y13363I0J-386D01*
G01*
Y13015D02*
G03*
X2904Y12803I344J174D01*
G01*
X3538Y12756D02*
G03*
X3346Y12576I153J-354D01*
G01*
X3002Y12803D02*
G03*
X3268Y12909I0J386D01*
G01*
X2904Y12788D02*
G03*
X2559Y12576I0J-386D01*
G01*
X3346Y12576D02*
G03*
X3002Y12788I-344J-174D01*
G01*
X6295Y12100D02*
G03*
X6295Y12100I-390J0D01*
G01*
X4175Y12402D02*
G03*
X3943Y12756I-386J0D01*
G01*
X3789Y12016D02*
G03*
X4175Y12402I0J386D01*
G01*
X2559Y12227D02*
G03*
X2904Y12016I344J174D01*
G01*
X3346Y12227D02*
G03*
X3691Y12016I344J174D01*
G01*
X3002D02*
G03*
X3346Y12227I0J386D01*
G01*
X11193Y8637D02*
G03*
X11193Y8203I-298J-217D01*
G01*
X9025Y8560D02*
G03*
X9025Y8560I-390J0D01*
G01*
Y7560D02*
G03*
X9025Y7560I-390J0D01*
G01*
X8592Y3152D02*
G03*
X8885Y3530I-97J378D01*
G01*
X8875Y4550D02*
G03*
X8875Y4550I-390J0D01*
G01*
X8885Y3530D02*
G03*
X8379Y3158I-390J0D01*
G01*
X8865Y2780D02*
G03*
X8592Y3152I-390J0D01*
G01*
X8379Y3158D02*
G03*
X8865Y2780I97J-378D01*
G01*
X35621Y22834D02*
X36015Y23228D01*
X35715Y22645D02*
X36298Y23228D01*
X35075Y23137D02*
X35167Y23228D01*
X35179D02*
X35335Y23073D01*
X35745Y23228D02*
X37683Y21290D01*
X35462Y23228D02*
X37683Y21007D01*
X36311Y23228D02*
X37683Y21856D01*
X36028Y23228D02*
X37683Y21573D01*
X33071Y25197D02*
X35039Y23228D01*
X37683Y23228D01*
X32645Y25197D02*
X34761Y23081D01*
X32928Y25197D02*
X34989Y23136D01*
X31719Y24709D02*
X34956Y21472D01*
X34714Y23058D02*
X34962Y23306D01*
X33610Y22237D02*
X34820Y23448D01*
X37442Y23228D02*
X37683Y22987D01*
X37159Y23228D02*
X37683Y22704D01*
X35748Y22395D02*
X36581Y23228D01*
X36876D02*
X37683Y22422D01*
X36594Y23228D02*
X37683Y22139D01*
X35636Y21152D02*
X37683Y23199D01*
X35504Y21303D02*
X37429Y23228D01*
X35723Y20956D02*
X37683Y22916D01*
X35109Y21474D02*
X36864Y23228D01*
X35306Y23085D02*
X35449Y23228D01*
X35484Y22980D02*
X35732Y23228D01*
X35332Y21414D02*
X37147Y23228D01*
X34990Y21721D02*
X35273Y21437D01*
X34781Y21428D02*
X35072Y21720D01*
X32362Y25197D02*
X34586Y22973D01*
X33290Y23049D02*
X34254Y24013D01*
X32830Y23155D02*
X33972Y24296D01*
X33092Y23134D02*
X34113Y24155D01*
X33559Y22752D02*
X34537Y23730D01*
X33627Y22537D02*
X34679Y23589D01*
X32079Y25197D02*
X34451Y22825D01*
X33444Y22920D02*
X34396Y23872D01*
X31722Y24592D02*
X32327Y25197D01*
X31683Y24462D02*
X32991Y23154D01*
X31538Y24973D02*
X31761Y25197D01*
X31676Y24829D02*
X32044Y25197D01*
X31514D02*
X34332Y22379D01*
X31797Y25197D02*
X34360Y22633D01*
X31549Y24313D02*
X32726Y23136D01*
X33630Y22515D02*
X34736Y21409D01*
X33613Y22249D02*
X34566Y21296D01*
X33121Y21465D02*
X34409Y22754D01*
X33312Y21374D02*
X34331Y22393D01*
X33529Y22050D02*
X34437Y21142D01*
X33571Y21067D02*
X34487Y21983D01*
X33462Y21240D02*
X34382Y22161D01*
X33403Y21894D02*
X34352Y20944D01*
X32870Y21497D02*
X33096Y21723D01*
X32729Y21719D02*
X32951Y21497D01*
X35747Y22378D02*
X37683Y20442D01*
X35692Y22150D02*
X37683Y20159D01*
X35684Y22723D02*
X37683Y20725D01*
X35745Y20695D02*
X37683Y22634D01*
Y19208D02*
Y23228D01*
X35736Y18989D02*
X37683Y20937D01*
X35680Y19216D02*
X37683Y21219D01*
X35709Y21002D02*
X37052Y19658D01*
X35238Y19623D02*
X37683Y22068D01*
X35436Y21840D02*
X37683Y19593D01*
X34992Y19660D02*
X37683Y22351D01*
X35585Y21975D02*
X37683Y19876D01*
X35244Y21749D02*
X37683Y19310D01*
X35573Y19392D02*
X37683Y21502D01*
X35426Y19528D02*
X37683Y21785D01*
X37414Y19536D02*
X37683Y19805D01*
X37564Y19403D02*
X37683Y19522D01*
X36971Y19659D02*
X37683Y20371D01*
X37223Y19627D02*
X37683Y20088D01*
Y18650D02*
X37683Y17208D01*
X35744Y20684D02*
X36799Y19629D01*
X35681Y20464D02*
X36606Y19539D01*
X35568Y20294D02*
X36455Y19407D01*
X35414Y20165D02*
X36344Y19235D01*
X35685Y18656D02*
X37683Y20654D01*
X34949Y20064D02*
X36314Y18699D01*
X33593Y20523D02*
X34822Y21753D01*
X33631Y20844D02*
X34633Y21847D01*
X33236Y21777D02*
X34336Y20678D01*
X33634Y20814D02*
X34814Y19634D01*
X33605Y20560D02*
X34618Y19547D01*
X33515Y20367D02*
X34465Y19418D01*
X33383Y20216D02*
X34351Y19249D01*
X33023Y21707D02*
X35074Y19657D01*
X33212Y20105D02*
X34285Y19032D01*
X35216Y20081D02*
X36282Y19014D01*
X36126Y18530D02*
X36310Y18714D01*
X35712Y18736D02*
X35914Y18534D01*
X35735Y18995D02*
X36228Y18503D01*
X35828Y18516D02*
X36278Y18966D01*
X34539Y19489D02*
X35112Y20062D01*
X32991Y20042D02*
X34306Y18728D01*
X32678Y20073D02*
X35097Y17654D01*
X31231Y25197D02*
X31404Y25024D01*
X31311Y25029D02*
X31478Y25197D01*
X30665D02*
X31009Y24853D01*
X30948Y25197D02*
X31158Y24987D01*
X29817Y25197D02*
X32254Y22760D01*
X30100Y25197D02*
X32370Y22926D01*
X30382Y25197D02*
X30945Y24634D01*
X29534Y25197D02*
X32184Y22547D01*
X28968Y25197D02*
X32697Y21468D01*
X23228Y25197D02*
X33071D01*
X29251D02*
X32195Y22252D01*
X28685Y25197D02*
X32504Y21379D01*
X28328Y20915D02*
X32610Y25197D01*
X28401Y20705D02*
X32892Y25197D01*
X28403D02*
X32353Y21247D01*
X31329Y24250D02*
X32526Y23053D01*
X30826Y18888D02*
X32298Y20360D01*
X30678Y19023D02*
X32207Y20551D01*
X29471Y23845D02*
X32242Y21075D01*
X29452Y23581D02*
X32179Y20855D01*
X27910Y21063D02*
X31146Y24299D01*
X28172Y21042D02*
X31383Y24253D01*
X27594Y18767D02*
X33547Y24720D01*
X29321Y23430D02*
X32210Y20541D01*
X30423Y19051D02*
X32175Y20802D01*
X28907Y24040D02*
X30064Y25197D01*
X29237Y24087D02*
X30347Y25197D01*
X27837D02*
X28962Y24072D01*
X28120Y25197D02*
X29226Y24091D01*
X29404Y23971D02*
X30630Y25197D01*
X29486Y23770D02*
X30913Y25197D01*
X27554D02*
X28810Y23940D01*
X27538Y22953D02*
X29781Y25197D01*
X26705D02*
X28418Y23484D01*
X27255Y22953D02*
X29498Y25197D01*
X26140D02*
X28136Y23201D01*
X26423Y25197D02*
X28277Y23343D01*
X26689Y22953D02*
X28933Y25197D01*
X26972Y22953D02*
X29216Y25197D01*
X26124Y22953D02*
X28367Y25197D01*
X27888Y22953D02*
X28761Y23826D01*
X28242Y22415D02*
X29207Y23380D01*
X28401Y20673D02*
X30195Y18879D01*
X27271Y25197D02*
X28701Y23767D01*
X27821Y22953D02*
X28816Y23949D01*
X26988Y25197D02*
X28560Y23625D01*
X26406Y22953D02*
X28650Y25197D01*
X27035Y22322D02*
X30339Y19018D01*
X27317Y22322D02*
X30585Y19055D01*
X29148Y23320D02*
X34830Y17638D01*
X29006Y23179D02*
X34630Y17555D01*
X28865Y23038D02*
X34474Y17428D01*
X28723Y22896D02*
X34358Y17262D01*
X28299Y22472D02*
X35029Y15742D01*
X28141Y22347D02*
X37683Y12805D01*
X28582Y22755D02*
X34287Y17049D01*
X28440Y22613D02*
X34298Y16756D01*
X27832Y18722D02*
X33689Y24579D01*
X27977Y18585D02*
X33830Y24438D01*
X23188Y15210D02*
X33123Y25145D01*
X23228Y14967D02*
X33265Y25003D01*
X27600Y22322D02*
X36320Y13603D01*
X27883Y22322D02*
X36581Y13625D01*
X23228Y14684D02*
X33406Y24862D01*
X30767Y16848D02*
X34393Y20475D01*
X30767Y16566D02*
X34504Y20303D01*
X30767Y17414D02*
X34379Y21026D01*
X30767Y17131D02*
X34334Y20698D01*
X30767Y16283D02*
X34655Y20171D01*
X30875Y18765D02*
X36156Y13484D01*
X30827Y15777D02*
X34448Y19398D01*
X30809Y15477D02*
X34278Y18945D01*
X30767Y16000D02*
X34851Y20084D01*
X30767Y17697D02*
X33149Y20079D01*
X30767Y18263D02*
X32605Y20101D01*
X30767Y17980D02*
X32828Y20041D01*
X24663Y13574D02*
X32796Y21706D01*
X28892Y13277D02*
X34314Y18699D01*
X24415Y13608D02*
X32580Y21773D01*
X24178Y17897D02*
X30946Y24665D01*
X28035Y18359D02*
X32178Y22502D01*
X25620Y22322D02*
X30214Y17728D01*
X25337Y22322D02*
X30214Y17446D01*
X24489Y22322D02*
X30214Y16597D01*
X24178Y20653D02*
X31275Y13556D01*
X25055Y22322D02*
X30214Y17163D01*
X24772Y22322D02*
X30214Y16880D01*
X23228Y22169D02*
X32086Y13311D01*
X23228Y21886D02*
X31500Y13614D01*
X24134Y18136D02*
X31195Y25197D01*
X23046Y16481D02*
X31002Y24438D01*
X23228Y12987D02*
X32284Y22043D01*
X23228Y12704D02*
X32412Y21888D01*
X23228Y13270D02*
X32199Y22240D01*
X30880Y18659D02*
X32432Y20211D01*
X28330Y20461D02*
X30148Y18643D01*
X28176Y20332D02*
X30214Y18294D01*
X27918Y20308D02*
X30214Y18011D01*
X24818Y13446D02*
X30155Y18783D01*
X24134Y20131D02*
X30736Y13529D01*
X24134Y19848D02*
X30382Y13601D01*
X24134Y19000D02*
X29522Y13612D01*
X24134Y18717D02*
X29288Y13564D01*
X24147Y20402D02*
X31132Y13416D01*
X24134Y19565D02*
X30200Y13500D01*
X24134Y19283D02*
X30091Y13326D01*
X37618Y18527D02*
X37683Y18462D01*
X37314Y18266D02*
X37683Y17896D01*
X37486Y18376D02*
X37683Y18179D01*
X36628Y17901D02*
X36929Y18203D01*
X36778Y18236D02*
X37683Y17330D01*
X37093Y18204D02*
X37683Y17613D01*
X36950Y17657D02*
X37683Y18391D01*
X37207Y17632D02*
X37683Y18108D01*
X36589Y18145D02*
X36707Y18263D01*
X36591Y18140D02*
X37074Y17657D01*
X36484Y18323D02*
X36534Y18373D01*
X35698Y16688D02*
X37249Y18239D01*
X36620Y17828D02*
X36814Y17634D01*
X37402Y17544D02*
X37683Y17825D01*
X37555Y17414D02*
X37683Y17542D01*
X37626Y16539D02*
X37683Y16482D01*
X37327Y16272D02*
X37683Y15916D01*
X37111Y16206D02*
X37683Y15633D01*
X37496Y16386D02*
X37683Y16199D01*
X36545Y17620D02*
X36618Y17547D01*
X35844Y15703D02*
X36523Y16382D01*
X35733Y17018D02*
X37683Y15068D01*
X35717Y16752D02*
X37683Y14785D01*
X36807Y16227D02*
X37683Y15351D01*
X35626Y18539D02*
X35702Y18463D01*
X36331Y18453D02*
X36401Y18523D01*
X35496Y18386D02*
X35544Y18338D01*
X35414Y17536D02*
X35481Y17603D01*
X36416Y17466D02*
X36465Y17418D01*
X36239Y17360D02*
X36351Y17249D01*
X35564Y17403D02*
X35615Y17454D01*
X35674Y17230D02*
X35796Y17353D01*
X35327Y18272D02*
X35434Y18165D01*
X34971Y17659D02*
X35411Y18099D01*
X35111Y18206D02*
X35387Y17929D01*
X35223Y17627D02*
X35400Y17805D01*
X34807Y18227D02*
X36305Y16728D01*
X35998Y17318D02*
X36285Y17032D01*
X35347Y16055D02*
X36280Y16987D01*
X35734Y17008D02*
X36045Y17319D01*
X35128Y16209D02*
X35296Y16040D01*
X35602Y16027D02*
X36305Y16730D01*
X35761Y15903D02*
X36393Y16535D01*
X35341Y16279D02*
X35585Y16035D01*
X34834Y16220D02*
X35126Y15928D01*
X33832Y14823D02*
X35249Y16239D01*
X33861Y14569D02*
X35028Y15736D01*
X33711Y14985D02*
X34929Y16203D01*
X35700Y13579D02*
X37683Y15563D01*
X35824Y15513D02*
X37683Y13653D01*
X35633Y16552D02*
X37683Y14502D01*
X35818Y15801D02*
X37683Y13936D01*
X35711Y15343D02*
X37683Y13371D01*
X35525Y15246D02*
X37683Y13088D01*
X35846Y13443D02*
X37683Y15280D01*
X36257Y13570D02*
X37683Y14997D01*
X35507Y16395D02*
X37683Y14219D01*
X35473Y13635D02*
X37683Y15845D01*
X34590Y13601D02*
X37219Y16230D01*
X34240Y13533D02*
X36911Y16205D01*
X34771Y13499D02*
X37683Y16411D01*
X34880Y13325D02*
X37683Y16128D01*
X33839Y13415D02*
X36693Y16270D01*
X36591Y13622D02*
X37683Y14714D01*
X36776Y13524D02*
X37683Y14431D01*
X36891Y13357D02*
X37683Y14148D01*
X36823Y12440D02*
X37683Y13300D01*
X36910Y13295D02*
X37683Y12522D01*
X36906Y13088D02*
X37683Y13865D01*
X36671Y12570D02*
X37683Y13583D01*
X36215Y12859D02*
X36461Y12613D01*
X36428Y12610D02*
X36597Y12779D01*
X35841Y12950D02*
X36250Y12541D01*
X35919Y13233D02*
X36115Y13429D01*
X34869Y13357D02*
X35051Y13175D01*
X34859Y13021D02*
X35050Y13212D01*
X33697Y13556D02*
X35380Y15239D01*
X33868Y14640D02*
X35102Y13406D01*
X33804Y14422D02*
X34642Y13583D01*
X33663Y14280D02*
X34351Y13592D01*
X33899Y13195D02*
X34480Y12614D01*
X33899Y13193D02*
X34152Y13446D01*
X35918Y13156D02*
X36144Y12930D01*
X35574Y12604D02*
X36063Y13094D01*
X34877Y13066D02*
X35351Y12592D01*
X35460Y12765D02*
X35642Y12583D01*
X35761Y12509D02*
X36161Y12909D01*
X35692Y12817D02*
X36118Y12390D01*
X34831Y12428D02*
X35242Y12839D01*
X34684Y12563D02*
X35106Y12986D01*
X34450Y12613D02*
X34665Y12827D01*
X33590Y12601D02*
X34085Y13095D01*
X33834Y12977D02*
X34262Y12549D01*
X33771Y12499D02*
X34186Y12914D01*
X34765Y12895D02*
X35180Y12480D01*
X33689Y12839D02*
X34125Y12404D01*
X30767Y18307D02*
X35441Y13633D01*
X30767Y18024D02*
X35235Y13556D01*
X30767Y17459D02*
X33205Y15020D01*
X31492Y13614D02*
X34401Y16523D01*
X30838Y18519D02*
X36061Y13296D01*
X31709Y13548D02*
X34534Y16373D01*
X30791Y13479D02*
X34278Y16966D01*
X30889Y13294D02*
X34310Y16714D01*
X30621Y13591D02*
X35281Y18252D01*
X30331Y13584D02*
X34948Y18201D01*
X29511Y13613D02*
X34409Y18511D01*
X30767Y17742D02*
X33423Y15085D01*
X29721Y13540D02*
X34545Y18364D01*
X29853Y13390D02*
X34721Y18257D01*
X30767Y16610D02*
X34082Y13295D01*
X33520Y15076D02*
X34707Y16263D01*
X33472Y13614D02*
X35180Y15322D01*
X33445Y14215D02*
X34180Y13480D01*
X30767Y16327D02*
X33480Y13614D01*
X30767Y16045D02*
X33262Y13549D01*
X32293Y13567D02*
X33098Y14372D01*
X32606Y13596D02*
X33260Y14250D01*
X32885Y13310D02*
X35055Y15480D01*
X32782Y13489D02*
X33514Y14222D01*
X30846Y15683D02*
X33125Y13404D01*
X30214Y16001D02*
Y18477D01*
X30767Y15895D02*
Y18425D01*
X28010Y18518D02*
X30214Y16314D01*
X28008Y18237D02*
X30214Y16031D01*
X30767Y17176D02*
X33063Y14879D01*
X26650Y13580D02*
X30214Y17144D01*
X27888Y18075D02*
X30087Y15876D01*
X27687Y17992D02*
X30019Y15661D01*
X25548Y13609D02*
X30214Y18276D01*
X26390Y13603D02*
X30214Y17427D01*
X25744Y13523D02*
X30214Y17993D01*
X24188Y17815D02*
X28398Y13605D01*
X24134Y18434D02*
X29140Y13428D01*
X25866Y13362D02*
X30214Y17710D01*
X24119Y17601D02*
X28210Y13510D01*
X30767Y16893D02*
X32998Y14662D01*
X30172Y15971D02*
X30214Y16013D01*
X30796Y15450D02*
X32680Y13565D01*
X31846Y13403D02*
X33007Y14563D01*
X30660Y15303D02*
X32366Y13596D01*
X30444Y15236D02*
X32190Y13490D01*
X27530Y13612D02*
X30214Y16296D01*
X28635Y13586D02*
X30305Y15256D01*
X27733Y13532D02*
X30112Y15911D01*
X28362Y13595D02*
X30132Y15365D01*
X26810Y13457D02*
X30214Y16862D01*
X28801Y13468D02*
X30606Y15273D01*
X27860Y13376D02*
X30032Y15548D01*
X32851Y13395D02*
X33072Y13173D01*
X32833Y12975D02*
X33072Y13214D01*
X32156Y12864D02*
X32196Y12904D01*
X32882Y13081D02*
X33366Y12596D01*
X32697Y12556D02*
X33129Y12989D01*
X32775Y12904D02*
X33190Y12490D01*
X31898Y13172D02*
X32119Y13392D01*
X31899Y13215D02*
X32136Y12979D01*
X32015Y13005D02*
X32089Y13080D01*
X31893Y13127D02*
X32153Y12868D01*
X30886Y13096D02*
X31382Y12601D01*
X32472Y12614D02*
X32710Y12852D01*
X33459Y12787D02*
X33680Y12565D01*
X32264Y12850D02*
X32500Y12614D01*
X32222Y12647D02*
X32376Y12801D01*
X32839Y12415D02*
X33270Y12846D01*
X33240Y12533D02*
X33492Y12786D01*
X32222Y12520D02*
Y12700D01*
Y12609D02*
X32275Y12556D01*
X31558Y12792D02*
X31748Y12602D01*
X31606Y12596D02*
X31680Y12671D01*
X31480Y12786D02*
X31736Y12529D01*
X31748Y12520D02*
Y12602D01*
X31293Y12567D02*
X31513Y12787D01*
X30815Y13451D02*
X31071Y13194D01*
X29896Y13150D02*
X30101Y13355D01*
X29898Y13236D02*
X30111Y13023D01*
X30492Y12614D02*
X31071Y13193D01*
X29621Y12591D02*
X30094Y13065D01*
X28890Y13113D02*
X29398Y12605D01*
X24897Y13242D02*
X30183Y18528D01*
X26895Y13260D02*
X30214Y16579D01*
X24134Y18151D02*
X29072Y13214D01*
X27895Y13259D02*
X28097Y13058D01*
X28511Y12613D02*
X29072Y13174D01*
X27635Y12586D02*
X28099Y13050D01*
X30709Y12548D02*
X31137Y12976D01*
X30785Y12915D02*
X31200Y12500D01*
X29849Y13002D02*
X30288Y12564D01*
X30309Y12826D02*
X30522Y12612D01*
X29791Y12479D02*
X30206Y12894D01*
X30846Y12403D02*
X31283Y12839D01*
X29714Y12855D02*
X30140Y12428D01*
X28721Y12540D02*
X29145Y12964D01*
X29331Y12584D02*
X29536Y12789D01*
X27856Y13015D02*
X28301Y12571D01*
X28343Y12811D02*
X28545Y12610D01*
X28795Y12925D02*
X29210Y12510D01*
X27801Y12468D02*
X28217Y12885D01*
X27726Y12863D02*
X28148Y12440D01*
X25857Y25197D02*
X27994Y23060D01*
X25841Y22953D02*
X28084Y25197D01*
X25558Y22953D02*
X27801Y25197D01*
X25574D02*
X27818Y22953D01*
X25275D02*
X27518Y25197D01*
X25291D02*
X27535Y22953D01*
X25008Y25197D02*
X27252Y22953D01*
X25275D02*
X27518Y25197D01*
X24426Y22953D02*
X26670Y25197D01*
X24443D02*
X26686Y22953D01*
X24144D02*
X26387Y25197D01*
X24160D02*
X26403Y22953D01*
X24726Y25197D02*
X26969Y22953D01*
X24992D02*
X27236Y25197D01*
X24709Y22953D02*
X26953Y25197D01*
X24473Y24697D02*
X24973Y25197D01*
X24609Y24550D02*
X25256Y25197D01*
X24249Y24756D02*
X24690Y25197D01*
X24651Y24423D02*
X26121Y22953D01*
X24609Y24182D02*
X25838Y22953D01*
X24651Y24309D02*
X25539Y25197D01*
X24472Y24036D02*
X25555Y22953D01*
X23578D02*
X25821Y25197D01*
X23861Y22953D02*
X26104Y25197D01*
X24249Y23976D02*
X25272Y22953D01*
X23228Y24714D02*
X24989Y22953D01*
X23228Y22322D02*
X28019D01*
X23228Y24431D02*
X24706Y22953D01*
X23594Y25197D02*
X24081Y24710D01*
X23877Y25197D02*
X24322Y24752D01*
X23228Y25149D02*
X23276Y25197D01*
X23228Y24584D02*
X23842Y25197D01*
X23311D02*
X23935Y24573D01*
X23228Y24301D02*
X24124Y25197D01*
X23228Y24018D02*
X24407Y25197D01*
X23228Y24867D02*
X23559Y25197D01*
X23228Y24997D02*
X23876Y24350D01*
X23228Y23735D02*
X23876Y24383D01*
X22729Y22953D02*
X23935Y24159D01*
X23228Y23622D02*
Y25197D01*
X23012Y22953D02*
X24081Y24022D01*
X22906Y23622D02*
X23575Y22953D01*
X22447D02*
X23115Y23622D01*
X22623D02*
X23292Y22953D01*
X23228Y24148D02*
X24423Y22953D01*
X23295D02*
X24322Y23980D01*
X23228Y23866D02*
X24141Y22953D01*
X23189Y23622D02*
X23858Y22953D01*
X21775Y23622D02*
X22444Y22953D01*
X21881D02*
X22550Y23622D01*
X21492D02*
X22161Y22953D01*
X21598D02*
X22267Y23622D01*
X22164Y22953D02*
X22832Y23622D01*
X22341D02*
X23009Y22953D01*
X22058Y23622D02*
X22726Y22953D01*
X26469Y22322D02*
X27786Y21005D01*
X26752Y22322D02*
X27998Y21076D01*
X25903Y22322D02*
X27633Y20592D01*
X26186Y22322D02*
X27658Y20850D01*
X24134Y18419D02*
X28039Y22323D01*
X24206Y22322D02*
X27784Y18745D01*
X24134Y18984D02*
X27472Y22322D01*
X24134Y18702D02*
X27755Y22322D01*
X24038Y20868D02*
X25492Y22322D01*
X24134Y19267D02*
X27189Y22322D01*
X23228Y21190D02*
X24361Y22322D01*
X23827Y20940D02*
X25210Y22322D01*
X23640D02*
X27340Y18623D01*
X23923Y22322D02*
X27503Y18743D01*
X23358Y22322D02*
X27258Y18422D01*
X24161Y20708D02*
X25775Y22322D01*
X24155Y20419D02*
X26058Y22322D01*
X24134Y19550D02*
X26907Y22322D01*
X24134Y20116D02*
X26341Y22322D01*
X24134Y19833D02*
X26624Y22322D01*
X23228Y20624D02*
X24927Y22322D01*
X23048Y16200D02*
X27635Y20788D01*
X23228Y20907D02*
X24644Y22322D01*
X23228Y20907D02*
X24644Y22322D01*
X23061Y15648D02*
X27783Y20370D01*
X22906Y15210D02*
X27992Y20297D01*
X22957Y15827D02*
X27656Y20526D01*
X23228Y21472D02*
X24078Y22322D01*
X23228Y21603D02*
X23901Y20930D01*
X23228Y22038D02*
X23512Y22322D01*
X23228Y21755D02*
X23795Y22322D01*
X23228Y17323D02*
Y22322D01*
Y21320D02*
X23650Y20899D01*
X23228Y21037D02*
X23504Y20762D01*
X21457Y21970D02*
Y22322D01*
Y21183D02*
Y21730D01*
X23228Y20754D02*
X23452Y20530D01*
X23228Y20341D02*
X23450Y20563D01*
X21457Y20396D02*
Y20943D01*
X23228Y20189D02*
X23503Y19914D01*
X23228Y19775D02*
X23503Y20050D01*
X23228Y20472D02*
X23503Y20197D01*
X23228Y20058D02*
X23503Y20333D01*
X24134Y18006D02*
Y20380D01*
X23228Y19906D02*
X23503Y19631D01*
Y18006D02*
Y20380D01*
X23228Y19493D02*
X23503Y19767D01*
X23228Y19623D02*
X23503Y19348D01*
X21457Y19608D02*
Y20156D01*
X23228Y19210D02*
X23503Y19485D01*
X23228Y19340D02*
X23503Y19065D01*
X21457Y18821D02*
Y19368D01*
X21315Y22953D02*
X21984Y23622D01*
X21308Y22953D02*
X27888D01*
X20926Y23622D02*
X21595Y22953D01*
X21209Y23622D02*
X21878Y22953D01*
X20644Y23622D02*
X21312Y22953D01*
X19973Y22177D02*
X21418Y23622D01*
X20078D02*
X20962Y22738D01*
X20361Y23622D02*
X21104Y22879D01*
X19881Y22651D02*
X20852Y23622D01*
X19973Y22460D02*
X21135Y23622D01*
X19598Y22651D02*
X20570Y23622D01*
X19795D02*
X20820Y22597D01*
X19512Y23622D02*
X20679Y22455D01*
X19973Y21894D02*
X21701Y23622D01*
X19229D02*
X20538Y22314D01*
X21084Y21968D02*
X21439Y22322D01*
X21408Y22292D02*
X21457Y22243D01*
X21125Y22009D02*
X21457Y21677D01*
X21084Y21874D02*
X21457Y22246D01*
X21267Y22150D02*
X21454Y21963D01*
X20545Y22321D02*
X21085Y22861D01*
X21084Y21591D02*
X21453Y21960D01*
X21084Y21767D02*
X21457Y21395D01*
X21084Y21308D02*
X21457Y21681D01*
X21084Y21530D02*
Y21968D01*
X19033Y22651D02*
X20004Y23622D01*
X19315Y22651D02*
X20287Y23622D01*
X18750Y22651D02*
X19721Y23622D01*
X18946D02*
X19918Y22651D01*
X19973Y22595D01*
X20453Y22115D01*
X19973Y21386D02*
Y22651D01*
X18664Y23622D02*
X19635Y22651D01*
X18394D02*
X19973D01*
X18098Y23622D02*
X19069Y22651D01*
X18467D02*
X19438Y23622D01*
X18381D02*
X19352Y22651D01*
X18394Y22578D02*
X18467Y22651D01*
X18394Y21386D02*
Y22651D01*
X19973Y22312D02*
X20453Y21833D01*
Y21661D02*
Y22098D01*
X19973Y21611D02*
X20453Y22091D01*
X19973Y22030D02*
X20397Y21605D01*
X19973Y21747D02*
X20256Y21464D01*
X19973Y21464D02*
X20115Y21323D01*
X19563Y21201D02*
X19748Y21386D01*
X19768D02*
X19953Y21201D01*
X18394Y21386D02*
X19973D01*
X18919D02*
X19105Y21201D01*
X19202Y21386D02*
X19388Y21201D01*
X18637Y21386D02*
X18822Y21201D01*
X21084Y21025D02*
X21457Y21398D01*
X21084Y21202D02*
X21457Y20829D01*
X21084Y21485D02*
X21442Y21127D01*
X21084Y20742D02*
X21438Y21096D01*
X21084Y20919D02*
X21457Y20546D01*
X21084Y20459D02*
X21457Y20832D01*
X21084Y17225D02*
Y21530D01*
Y20636D02*
X21436Y20283D01*
X20267Y20604D02*
X20453Y20419D01*
X20019Y20570D02*
X20453Y20136D01*
X19845Y21201D02*
X20453Y21808D01*
X20419Y20735D02*
X20453Y20702D01*
Y17515D02*
Y20768D01*
X19453Y20570D02*
X20453Y19570D01*
X19736Y20570D02*
X20453Y19853D01*
X21084Y20177D02*
X21457Y20549D01*
X21084Y20353D02*
X21457Y19980D01*
X21084Y19894D02*
X21437Y20247D01*
X21084Y20070D02*
X21457Y19698D01*
X21084Y19611D02*
X21457Y19984D01*
X21084Y19788D02*
X21441Y19430D01*
X21084Y19505D02*
X21457Y19132D01*
X19926Y19867D02*
X20453Y20394D01*
X21084Y19328D02*
X21457Y19701D01*
X20104Y19762D02*
X20453Y20111D01*
X20203Y19537D02*
X20453Y19287D01*
X21084Y19045D02*
X21446Y19407D01*
X20146Y19311D02*
X20453Y19004D01*
X19305Y18397D02*
X20453Y19545D01*
X19993Y21201D02*
X20453Y21661D01*
X20347Y20662D02*
X20453Y20768D01*
X19280Y21201D02*
X19465Y21386D01*
X19485D02*
X19671Y21201D01*
X19503Y19727D02*
X20453Y20677D01*
X19220Y19727D02*
X20063Y20570D01*
X18714Y21201D02*
X18900Y21386D01*
X18997Y21201D02*
X19183Y21386D01*
X18148Y21201D02*
X18394Y21446D01*
X18431Y21201D02*
X18617Y21386D01*
X18938Y19727D02*
X19780Y20570D01*
X19170D02*
X19862Y19878D01*
X18888Y20570D02*
X19637Y19821D01*
X18605Y20570D02*
X19447Y19727D01*
X18655D02*
X19497Y20570D01*
X18322D02*
X19164Y19727D01*
X18372D02*
X19214Y20570D01*
X20199Y19574D02*
X20453Y19828D01*
X18191Y19829D02*
X18931Y20570D01*
X18111Y19727D02*
X19537D01*
X18133Y20337D02*
X18366Y20570D01*
X18233Y20154D02*
X18649Y20570D01*
X18246Y20080D02*
X18599Y19727D01*
X18199Y19844D02*
X18316Y19727D01*
X23228Y18644D02*
X23503Y18919D01*
X23228Y18774D02*
X23503Y18499D01*
X23228Y18361D02*
X23503Y18636D01*
X23228Y18492D02*
X23503Y18217D01*
X23228Y18927D02*
X23503Y19202D01*
X23228Y19057D02*
X23503Y18782D01*
X23228Y18078D02*
X23503Y18353D01*
X23228Y17795D02*
X23503Y18070D01*
X23228Y18209D02*
X23479Y17958D01*
X23228Y17926D02*
X23477Y17678D01*
X23228Y17513D02*
X23458Y17742D01*
X23019Y17323D02*
X23228D01*
X23069Y17070D02*
X23556Y17557D01*
X22924Y16643D02*
X23737Y17455D01*
X22774Y15927D02*
X22825Y15978D01*
X22589Y16740D02*
X22687D01*
X22589Y16725D02*
X22687D01*
X22237Y16938D02*
X22279Y16896D01*
X22378Y16662D02*
X22473Y16758D01*
X22101Y16668D02*
X22301Y16868D01*
X22358Y16816D02*
X22469Y16706D01*
X21801Y16725D02*
X21900D01*
X21801Y16740D02*
X21900D01*
X22097Y16794D02*
X22298Y16593D01*
X22589Y15953D02*
X22687D01*
X22239Y16523D02*
X22265Y16550D01*
X22589Y15937D02*
X22687D01*
X22488Y15924D02*
X22522Y15958D01*
X22213Y16113D02*
X22425Y15901D01*
X22137Y15856D02*
X22332Y16050D01*
X22057Y15986D02*
X22272Y15771D01*
X23228Y13553D02*
X27666Y17991D01*
X23962Y17475D02*
X28096Y13341D01*
X23228Y14401D02*
X27259Y18432D01*
X23682Y17473D02*
X27545Y13610D01*
X27893Y13126D02*
X28090Y13323D01*
X23228Y14118D02*
X27303Y18193D01*
X23228Y13836D02*
X27441Y18048D01*
X23228Y17643D02*
X27301Y13571D01*
X23044Y16979D02*
X26415Y13608D01*
X23228Y17360D02*
X27148Y13440D01*
X23051Y17255D02*
X27073Y13233D01*
X22921Y16819D02*
X26221Y13519D01*
X27213Y12729D02*
X27309Y12825D01*
X26969Y13051D02*
X27074Y13156D01*
X27111Y12910D02*
X27153Y12952D01*
X26893Y13130D02*
X27415Y12608D01*
X27362Y12595D02*
X27559Y12793D01*
X27214Y12513D02*
Y12708D01*
X26893Y13127D02*
X27145Y12876D01*
X26558Y12792D02*
X26741Y12610D01*
X26373Y12802D02*
X26569Y12606D01*
X26530Y12612D02*
X26634Y12716D01*
X25862Y13029D02*
X26314Y12577D01*
X26741Y12526D02*
Y12610D01*
X25810Y12457D02*
X26228Y12876D01*
X23073Y15536D02*
X25157Y13452D01*
X23228Y14815D02*
X24432Y13611D01*
X23228Y14532D02*
X24232Y13528D01*
X23228Y14249D02*
X24108Y13370D01*
X23070Y16387D02*
X26102Y13356D01*
X23228Y15098D02*
X25075Y13251D01*
X23228Y13966D02*
X24080Y13114D01*
X23228Y13683D02*
X24329Y12583D01*
X23000Y15326D02*
X23116Y15210D01*
X23024Y16150D02*
X25569Y13606D01*
X22885Y16007D02*
X25314Y13577D01*
X22868Y15210D02*
X23228D01*
X25887Y13100D02*
X26083Y13296D01*
X25891Y13284D02*
X26087Y13087D01*
X24896Y13147D02*
X25432Y12611D01*
X25650Y12580D02*
X26105Y13036D01*
X25737Y12871D02*
X26157Y12452D01*
X25390Y12603D02*
X25585Y12798D01*
X24548Y12609D02*
X25076Y13138D01*
X24813Y12947D02*
X25232Y12528D01*
X24400Y12795D02*
X24595Y12599D01*
X23228Y13400D02*
X24166Y12463D01*
X24744Y12523D02*
X25162Y12941D01*
X23228Y12421D02*
X24077Y13270D01*
X21084Y18762D02*
X21457Y19135D01*
X21084Y19222D02*
X21457Y18849D01*
X21084Y18762D02*
X21457Y19135D01*
Y18033D02*
Y18581D01*
X21084Y18939D02*
X21457Y18566D01*
X21084Y18479D02*
X21457Y18852D01*
X21084Y18656D02*
X21457Y18283D01*
X21084Y18197D02*
X21457Y18569D01*
X21084Y18373D02*
X21449Y18008D01*
X21084Y17914D02*
X21457Y18287D01*
X21084Y18090D02*
X21457Y17718D01*
X21084Y17808D02*
X21457Y17435D01*
X21084Y17631D02*
X21445Y17992D01*
X21457Y16869D02*
X21638Y16688D01*
X21457Y17323D02*
Y17793D01*
Y16872D02*
X21487Y16902D01*
X21457Y16586D02*
X21484Y16559D01*
X21457Y16513D02*
Y16952D01*
Y16513D02*
Y16952D01*
X21084Y17348D02*
X21457Y17721D01*
X21084Y17242D02*
X21457Y16869D01*
Y16589D02*
X21642Y16774D01*
X21015Y17028D02*
X21457Y16586D01*
X19729Y18538D02*
X20453Y19262D01*
X19996Y19178D02*
X20453Y18722D01*
X19033Y19293D02*
X19779Y18547D01*
X19982Y18509D02*
X20453Y18980D01*
X19316Y19293D02*
X20453Y18156D01*
X19737Y19155D02*
X20453Y18439D01*
X18750Y19293D02*
X19580Y18463D01*
X19022Y18397D02*
X19771Y19147D01*
X18173Y18397D02*
X19069Y19293D01*
X18185D02*
X19080Y18397D01*
X18091Y18881D02*
X18503Y19293D01*
X18091Y18397D02*
Y19030D01*
X18467Y19293D02*
X19363Y18397D01*
X18739D02*
X19583Y19241D01*
X18456Y18397D02*
X19352Y19293D01*
X20182Y18144D02*
X20453Y17873D01*
X20099Y17944D02*
X20453Y17590D01*
X20129Y18373D02*
X20453Y18697D01*
X20182Y18144D02*
X20453Y18414D01*
X21084Y17525D02*
X21420Y17188D01*
X20851Y16909D02*
X21415Y16345D01*
X19930Y17830D02*
X20369Y17391D01*
X18091Y18397D02*
X19517D01*
X19586Y17891D02*
X20369Y17108D01*
X18207Y16168D02*
X19852Y17813D01*
X18099Y16343D02*
X19622Y17866D01*
X21457Y16024D02*
X21514Y16081D01*
X20568Y16910D02*
X21457Y16021D01*
Y15725D02*
Y16164D01*
Y15725D02*
Y16164D01*
X20360Y15210D02*
X21421Y16271D01*
X20643Y15210D02*
X21457Y16024D01*
X19232Y17963D02*
X21457Y15738D01*
X19794Y15210D02*
X21457Y16872D01*
X18949Y17963D02*
X21420Y15492D01*
X20077Y15210D02*
X21457Y16589D01*
X18666Y17963D02*
X21419Y15210D01*
X18338Y14319D02*
X21457Y17438D01*
X19512Y15210D02*
X21415Y17114D01*
X21801Y15953D02*
X21900D01*
X21801Y15937D02*
X21900D01*
X21457Y16021D02*
X21598Y15879D01*
X21590Y15875D02*
X21686Y15970D01*
X21457Y15210D02*
X21621D01*
X21457D02*
Y15377D01*
X21491Y15210D02*
X21544Y15263D01*
X21457Y15210D02*
Y15377D01*
X20926Y15210D02*
X21457Y15741D01*
X19291Y15210D02*
X21457D01*
X21209D02*
X21433Y15435D01*
X18383Y17963D02*
X21136Y15210D01*
X18318Y14582D02*
X20627Y16891D01*
X18858Y14213D02*
X19291Y15210D01*
X18312Y13728D02*
X18905Y14321D01*
X18634Y13744D02*
X18858Y14213D01*
X18340Y14329D02*
X18728Y13941D01*
X18261Y13780D02*
Y14181D01*
X18185Y15863D02*
X20453Y18131D01*
X18100Y17963D02*
X20853Y15210D01*
X18185Y15863D02*
X20453Y18131D01*
X18211Y16155D02*
X19250Y15116D01*
X18187Y14734D02*
X20446Y16993D01*
X18196Y15888D02*
X19165Y14918D01*
X18261Y13959D02*
X19122Y14821D01*
X19302Y12738D02*
X19408Y12844D01*
X19595Y12626D02*
X21358Y12598D01*
X19020Y13021D02*
X19146Y13148D01*
X19161Y12880D02*
X19277Y12996D01*
X19585Y12455D02*
X19753Y12623D01*
X21200Y12601D02*
X21358Y12442D01*
X19444Y12597D02*
X19539Y12692D01*
X18595Y13445D02*
X18754Y13604D01*
X18737Y13304D02*
X18885Y13452D01*
X18261Y14125D02*
X18637Y13750D01*
X18454Y13587D02*
X18655Y13787D01*
X18634Y13744D02*
X19595Y12626D01*
X18878Y13162D02*
X19016Y13300D01*
X18141Y12425D02*
X18488Y12772D01*
X36769Y12870D02*
X37683Y11956D01*
X36581Y12775D02*
X37683Y11674D01*
X36888Y13034D02*
X37683Y12239D01*
X36898Y12232D02*
X37683Y13017D01*
X35877Y12066D02*
X37683Y10259D01*
X35765Y11895D02*
X37683Y9977D01*
X36899Y12175D02*
X37683Y11391D01*
X36826Y11965D02*
X37683Y11108D01*
X34834Y11977D02*
X37683Y9128D01*
X34689Y11839D02*
X37683Y8845D01*
X34450Y9501D02*
X37683Y12734D01*
X34899Y12195D02*
X37683Y9411D01*
X33775Y11904D02*
X37683Y7997D01*
X33264Y11850D02*
X37683Y7431D01*
X33882Y12081D02*
X37683Y8279D01*
X35581Y8369D02*
X37683Y10471D01*
X35864Y8086D02*
X37683Y9906D01*
X36676Y11832D02*
X37683Y10825D01*
X36436Y11789D02*
X37683Y10542D01*
X36288Y7662D02*
X37683Y9057D01*
X36430Y7521D02*
X37683Y8774D01*
X36005Y7945D02*
X37683Y9623D01*
X36147Y7804D02*
X37683Y9340D01*
X35157Y8794D02*
X37683Y11320D01*
X35298Y8652D02*
X37683Y11037D01*
X35580Y11797D02*
X37683Y9694D01*
X35015Y8935D02*
X37683Y11603D01*
X33596Y11801D02*
X37683Y7714D01*
X34459Y11787D02*
X37683Y8562D01*
X35440Y8511D02*
X37683Y10754D01*
X35875Y12340D02*
X36329Y12794D01*
X35869Y12357D02*
X36074Y12151D01*
X34580Y12797D02*
X35082Y12295D01*
X34899Y12213D02*
X35452Y12766D01*
X34591Y9359D02*
X37683Y12451D01*
X35873Y12056D02*
X36075Y12258D01*
X33880Y12325D02*
X34360Y12805D01*
X33859Y12021D02*
X34073Y12235D01*
X32899Y12193D02*
X33152Y12446D01*
X33851Y12395D02*
X34072Y12173D01*
X32899Y12215D02*
X33136Y11979D01*
X34025Y9925D02*
X36115Y12015D01*
X34167Y9783D02*
X36246Y11862D01*
X33884Y10066D02*
X35630Y11812D01*
X33743Y10208D02*
X35345Y11810D01*
X34874Y9076D02*
X37683Y11886D01*
X35722Y8228D02*
X37683Y10188D01*
X34733Y9218D02*
X37683Y12168D01*
X34308Y9642D02*
X36453Y11787D01*
X33035Y10915D02*
X34122Y12001D01*
X33177Y10773D02*
X34258Y11854D01*
X32894Y11056D02*
X33665Y11827D01*
X32753Y11198D02*
X33360Y11805D01*
X33460Y10491D02*
X35081Y12112D01*
X33601Y10349D02*
X35176Y11924D01*
X33318Y10632D02*
X34472Y11786D01*
X37278Y6672D02*
X37683Y7077D01*
X37395Y6507D02*
X37683Y6794D01*
X37402Y6231D02*
X37683Y6512D01*
X37402Y6298D02*
X37683Y6017D01*
X37683Y16650D02*
X37683Y2559D01*
X37402Y3884D02*
Y6450D01*
X32842Y11989D02*
X37683Y7148D01*
X36854Y7096D02*
X37683Y7926D01*
X36571Y7379D02*
X37683Y8491D01*
X36712Y7238D02*
X37683Y8209D01*
X36995Y6955D02*
X37683Y7643D01*
X37137Y6814D02*
X37683Y7360D01*
X34908Y4302D02*
X36929Y6323D01*
X37402Y5665D02*
X37683Y5946D01*
X37402Y5732D02*
X37683Y5451D01*
X37402Y5948D02*
X37683Y6229D01*
X37402Y6015D02*
X37683Y5734D01*
X37402Y5099D02*
X37683Y5380D01*
X37402Y4816D02*
X37683Y5097D01*
X37402Y5382D02*
X37683Y5663D01*
X37402Y5449D02*
X37683Y5168D01*
X37402Y5166D02*
X37683Y4885D01*
X37402Y4883D02*
X37683Y4602D01*
X36313Y4576D02*
X36929Y5191D01*
X36610Y4590D02*
X36929Y4908D01*
X35731Y4559D02*
X36929Y5757D01*
X37402Y4534D02*
X37683Y4814D01*
X35866Y4411D02*
X36929Y5474D01*
X34117Y5208D02*
X36095Y7186D01*
X34214Y5022D02*
X36236Y7044D01*
X33834Y5491D02*
X35812Y7469D01*
X33975Y5349D02*
X35953Y7327D01*
X34645Y4605D02*
X36660Y6620D01*
X34811Y4488D02*
X36802Y6479D01*
X34214Y4740D02*
X36377Y6903D01*
X34380Y4622D02*
X36519Y6762D01*
X33127Y6198D02*
X35105Y8176D01*
X33268Y6056D02*
X35246Y8034D01*
X32844Y6481D02*
X34822Y8459D01*
X32985Y6339D02*
X34963Y8317D01*
X33551Y5773D02*
X35529Y7751D01*
X33692Y5632D02*
X35670Y7610D01*
X33409Y5915D02*
X35388Y7893D01*
X35522Y4634D02*
X36929Y6040D01*
X34214Y4960D02*
X34543Y4631D01*
X34214Y4541D02*
Y5012D01*
Y4677D02*
X34298Y4593D01*
X36929Y3982D02*
Y6352D01*
X36787Y4484D02*
X36929Y4626D01*
X33741Y4526D02*
Y4914D01*
X33521Y4612D02*
X33741Y4832D01*
X32894Y4268D02*
X33640Y5014D01*
X32806Y4462D02*
X33499Y5156D01*
X32596Y12801D02*
X33086Y12311D01*
X32470Y11481D02*
X33085Y12095D01*
X32702Y11847D02*
X37683Y6865D01*
X32480Y11786D02*
X37683Y6582D01*
X32611Y11339D02*
X33186Y11914D01*
X32222Y11728D02*
X37333Y6618D01*
X32222Y11761D02*
X37683Y6300D01*
X31818Y11462D02*
X36929Y6352D01*
X31309Y11826D02*
X36929Y6206D01*
X30581Y8743D02*
X32559Y10721D01*
X30714Y11855D02*
X36929Y5640D01*
X30499Y11786D02*
X36929Y5357D01*
X30849Y12002D02*
X36929Y5923D01*
X31995Y7329D02*
X33973Y9307D01*
X32137Y7188D02*
X34115Y9166D01*
X31712Y7612D02*
X33690Y9590D01*
X31854Y7470D02*
X33832Y9449D01*
X32561Y6763D02*
X34539Y8741D01*
X32702Y6622D02*
X34680Y8600D01*
X32278Y7046D02*
X34256Y9024D01*
X32420Y6905D02*
X34398Y8883D01*
X31005Y8319D02*
X32983Y10297D01*
X31147Y8178D02*
X33125Y10156D01*
X30722Y8602D02*
X32701Y10580D01*
X30864Y8460D02*
X32842Y10438D01*
X31430Y7895D02*
X33408Y9873D01*
X31571Y7753D02*
X33549Y9731D01*
X31288Y8036D02*
X33266Y10014D01*
X30898Y12172D02*
X31119Y12392D01*
X30898Y12236D02*
X31111Y12023D01*
X30611Y12806D02*
X31091Y12326D01*
X29889Y12294D02*
X30392Y12797D01*
X32222Y11728D02*
Y11880D01*
X31748Y11630D02*
Y11880D01*
X29499Y12786D02*
X30072Y12214D01*
X28743Y10582D02*
X30137Y11976D01*
X28601Y10723D02*
X30071Y12193D01*
X29308Y10016D02*
X31196Y11904D01*
X29591Y9733D02*
X31710Y11852D01*
X29167Y10157D02*
X31089Y12080D01*
X32222Y11799D02*
X32270Y11846D01*
X32328Y11622D02*
X32492Y11786D01*
X31611Y11806D02*
X31748Y11669D01*
X30298Y9026D02*
X32276Y11004D01*
X30440Y8885D02*
X32418Y10863D01*
X30157Y9168D02*
X32135Y11146D01*
X29450Y9875D02*
X31376Y11801D01*
X29025Y10299D02*
X30513Y11787D01*
X28884Y10440D02*
X30283Y11839D01*
X28460Y10865D02*
X29392Y11797D01*
X29874Y9450D02*
X31852Y11428D01*
X30015Y9309D02*
X31993Y11287D01*
X29733Y9592D02*
X31749Y11609D01*
X29890Y12113D02*
X36929Y5074D01*
X29795Y11925D02*
X36929Y4791D01*
X27893Y12130D02*
X35397Y4626D01*
X29343Y11811D02*
X36550Y4604D01*
X28856Y12015D02*
X36301Y4570D01*
X28726Y11863D02*
X36142Y4447D01*
X27804Y11936D02*
X35206Y4534D01*
X27641Y11816D02*
X35085Y4372D01*
X26737Y11871D02*
X33741Y4868D01*
X26810Y11844D02*
X33741Y4914D01*
X25896Y12147D02*
X33432Y4611D01*
X24869Y12043D02*
X32329Y4583D01*
X25813Y11947D02*
X33232Y4528D01*
X25655Y11822D02*
X33108Y4370D01*
X24748Y11880D02*
X32166Y4463D01*
X32377Y4600D02*
X33216Y5438D01*
X32643Y4583D02*
X33357Y5297D01*
X30657Y4577D02*
X32367Y6287D01*
X31539Y4610D02*
X32792Y5863D01*
X31739Y4527D02*
X32933Y5721D01*
X31863Y4369D02*
X33075Y5580D01*
X30814Y4451D02*
X32509Y6146D01*
X30896Y4250D02*
X32650Y6004D01*
X26537Y11789D02*
X33741Y4585D01*
X27535Y11789D02*
X34145Y5180D01*
X25400Y11795D02*
X32595Y4599D01*
X30403Y4606D02*
X32226Y6428D01*
X29626Y11811D02*
X36929Y4509D01*
X28518Y11787D02*
X36053Y4253D01*
X29869Y4355D02*
X32085Y6570D01*
X23228Y11986D02*
X30625Y4590D01*
X25590Y4601D02*
X29822Y8833D01*
X24697Y4556D02*
X29398Y9257D01*
X25240Y4533D02*
X29680Y8974D01*
X24554Y11792D02*
X32077Y4269D01*
X25880Y4325D02*
X30105Y8550D01*
X24839Y4415D02*
X29539Y9115D01*
X25771Y4499D02*
X29963Y8691D01*
X23228Y12835D02*
X31451Y4613D01*
X23228Y12552D02*
X31244Y4536D01*
X23228Y11703D02*
X30343Y4589D01*
X23228Y10855D02*
X29470Y4614D01*
X23228Y12269D02*
X31114Y4383D01*
X23228Y11421D02*
X30175Y4474D01*
X23228Y11138D02*
X30080Y4286D01*
X29557Y4608D02*
X31802Y6853D01*
X29750Y4518D02*
X31943Y6711D01*
X28428Y4610D02*
X31236Y7418D01*
X28671Y4570D02*
X31377Y7277D01*
X28823Y4440D02*
X31519Y7136D01*
X28898Y4232D02*
X31660Y6994D01*
X27574Y4604D02*
X30812Y7843D01*
X27761Y4509D02*
X30953Y7701D01*
X26450Y4613D02*
X30246Y8408D01*
X26684Y4563D02*
X30388Y8267D01*
X26899Y4213D02*
X30670Y7984D01*
X27875Y4340D02*
X31095Y7560D01*
X26831Y4428D02*
X30529Y8125D01*
X37402Y4601D02*
X37683Y4320D01*
X37402Y4251D02*
X37683Y4532D01*
X36895Y4309D02*
X36929Y4343D01*
X37402Y4318D02*
X37683Y4037D01*
X37402Y3968D02*
X37683Y4249D01*
X36888Y4020D02*
X36929Y4060D01*
X35920Y4183D02*
X36080Y4343D01*
X35912Y4111D02*
X36437Y3586D01*
X35614Y3594D02*
X36066Y4046D01*
X37402Y4035D02*
X37683Y3754D01*
X36878Y3994D02*
X36909Y3962D01*
X37377Y3777D02*
X37683Y3471D01*
X36885Y3268D02*
X37333Y3716D01*
X36532Y3585D02*
X36929Y3982D01*
X36560Y3746D02*
X36626Y3680D01*
X36456Y3588D02*
X36636Y3768D01*
X35819Y3921D02*
X36234Y3506D01*
X35657Y3800D02*
X35954Y3503D01*
X36089D02*
X36346Y3761D01*
X35768Y3503D02*
X36229D01*
X35806D02*
X36172Y3869D01*
X34917Y4258D02*
X35058Y4116D01*
X34848Y3959D02*
X35052Y4163D01*
X34878Y4013D02*
X35314Y3577D01*
X34716Y3544D02*
X35126Y3954D01*
X34752Y3856D02*
X35157Y3452D01*
X34214Y3806D02*
Y3859D01*
X34502Y3614D02*
X34726Y3837D01*
X33741Y3708D02*
Y3874D01*
X34214Y3829D02*
X34432Y3611D01*
X35401Y3773D02*
X35569Y3605D01*
X34214Y3806D02*
X34413Y3608D01*
X34313Y3707D02*
X34383Y3777D01*
X34850Y3396D02*
X35274Y3819D01*
X35314Y3577D02*
X35502Y3765D01*
X33810Y3540D02*
X34078Y3273D01*
X33891Y3285D02*
X33978Y3372D01*
X33655Y3822D02*
X33741Y3737D01*
X33629Y3588D02*
X33741Y3701D01*
X33400Y3795D02*
X33595Y3599D01*
X33348Y3591D02*
X33548Y3791D01*
X33796Y3473D02*
X33837Y3514D01*
X36895Y3178D02*
X37683Y3966D01*
X37244Y3628D02*
X37683Y3188D01*
X37102Y3486D02*
X37683Y2905D01*
X36842Y2559D02*
X37683Y3400D01*
X36961Y3345D02*
X37683Y2623D01*
X36893Y3130D02*
X37464Y2559D01*
X37125D02*
X37683Y3117D01*
X36559Y2559D02*
X37683Y3683D01*
X36813Y2927D02*
X37181Y2559D01*
X36020Y2872D02*
X36332Y2559D01*
X33348Y197D02*
X36023Y2872D01*
X36407Y2767D02*
X36615Y2559D01*
X36276D02*
X36478Y2760D01*
X35737Y2872D02*
X36199D01*
X35993Y2559D02*
X36259Y2825D01*
X37408Y2559D02*
X37683Y2835D01*
X35827Y2559D02*
X37683Y2559D01*
X35737Y2871D02*
X36050Y2559D01*
X36658Y2800D02*
X36898Y2559D01*
X35537Y2789D02*
X35797Y2529D01*
X35387Y2656D02*
X35655Y2388D01*
X34859Y2127D02*
X35519Y2787D01*
X35246Y2514D02*
X35514Y2246D01*
X34646Y1378D02*
X35827Y2559D01*
X35105Y2373D02*
X35373Y2105D01*
X34963Y2231D02*
X35231Y1963D01*
X34555Y3770D02*
X35075Y3251D01*
X34897Y3160D02*
X35108Y3371D01*
X34857Y3018D02*
X35073Y3234D01*
X34896Y3147D02*
X34941Y3102D01*
X33884Y3310D02*
X34017Y3178D01*
X33857Y3018D02*
X34073Y3234D01*
X33505Y2666D02*
X33667Y2828D01*
X33554Y2792D02*
X33593Y2753D01*
X33272Y2666D02*
X33401Y2795D01*
X34819Y2093D02*
X35090Y1822D01*
X34594Y2034D02*
X34948Y1681D01*
X34312Y2034D02*
X34807Y1539D01*
X34646Y197D02*
Y1378D01*
X34480Y197D02*
X34646Y363D01*
X34197Y197D02*
X34646Y646D01*
X33463Y2034D02*
X34646Y852D01*
X34029Y2034D02*
X34665Y1398D01*
X33635Y2034D02*
X34635D01*
X33746D02*
X34646Y1135D01*
X33631Y197D02*
X34646Y1211D01*
X33914Y197D02*
X34646Y928D01*
X33180Y2034D02*
X34646Y569D01*
X32884Y4310D02*
X33080Y4114D01*
X32521Y3612D02*
X33073Y4164D01*
X32869Y4043D02*
X33329Y3583D01*
X32857Y3382D02*
X33303Y3828D01*
X32728Y3536D02*
X33150Y3958D01*
X32748Y3880D02*
X33166Y3463D01*
X31898Y4165D02*
X32451Y3613D01*
X31643Y3583D02*
X32103Y4042D01*
X31890Y4113D02*
X32086Y4308D01*
X31822Y3959D02*
X32244Y3536D01*
X31806Y3462D02*
X32223Y3880D01*
X31669Y3829D02*
X32114Y3383D01*
X32554Y3792D02*
X33077Y3269D01*
X32895Y3137D02*
X33095Y3337D01*
X32430Y2672D02*
X32548Y2791D01*
X32706Y2666D02*
X33097Y3057D01*
X32669Y2829D02*
X32832Y2666D01*
X32217Y2885D02*
X32436Y2666D01*
X32424Y2791D02*
X32549Y2666D01*
X31894Y3268D02*
X32418Y3792D01*
X31875Y3339D02*
X32076Y3139D01*
X31424Y3791D02*
X31625Y3590D01*
X32005Y3096D02*
X32073Y3164D01*
X31899Y3202D02*
X32170Y2931D01*
X30875Y4339D02*
X31076Y4139D01*
X30539Y3610D02*
X31075Y4146D01*
X29899Y4184D02*
X30470Y3614D01*
X30874Y4058D02*
X31343Y3589D01*
X30863Y3369D02*
X31317Y3822D01*
X30739Y3527D02*
X31158Y3946D01*
X30759Y3890D02*
X31175Y3474D01*
X29657Y3577D02*
X30109Y4028D01*
X29830Y3970D02*
X30256Y3545D01*
X29883Y4086D02*
X30080Y4282D01*
X28879Y4073D02*
X29358Y3594D01*
X29814Y3451D02*
X30234Y3871D01*
X29682Y3836D02*
X30121Y3397D01*
X28869Y3355D02*
X29331Y3816D01*
X31377Y3600D02*
X31573Y3795D01*
X30890Y3113D02*
X31086Y3308D01*
X30571Y3795D02*
X31080Y3286D01*
X29896Y3250D02*
X30435Y3789D01*
X31417Y2792D02*
X31543Y2666D01*
X31292D02*
X31418Y2792D01*
X31009Y2666D02*
X31223Y2880D01*
X29861Y3373D02*
X30073Y3162D01*
X29403Y3606D02*
X29600Y3802D01*
X29447Y3788D02*
X29659Y3576D01*
X29595Y2666D02*
X30075Y3146D01*
X29877Y2666D02*
X30158Y2946D01*
X29770Y2899D02*
X30003Y2666D01*
X32898Y3165D02*
X33398Y2666D01*
X32897Y2034D02*
X34646Y286D01*
X32822Y2959D02*
X33115Y2666D01*
X32989D02*
X33212Y2889D01*
X33066Y197D02*
X35740Y2872D01*
X32783Y197D02*
X34620Y2034D01*
X32500Y197D02*
X34337Y2034D01*
X32615D02*
X34452Y197D01*
X32049Y2034D02*
X33886Y197D01*
X32217D02*
X34055Y2034D01*
X32436Y2666D02*
X33505D01*
X32305Y2034D02*
X33635D01*
X31766D02*
X33604Y197D01*
X31934D02*
X33772Y2034D01*
X31651Y197D02*
X33489Y2034D01*
X30917D02*
X32755Y197D01*
X31086D02*
X32923Y2034D01*
X30635D02*
X32472Y197D01*
X30803D02*
X32640Y2034D01*
X31483D02*
X33321Y197D01*
X32332Y2034D02*
X34169Y197D01*
X31200Y2034D02*
X33038Y197D01*
X31368D02*
X33206Y2034D01*
X27135D02*
X32305D01*
X28937Y197D02*
X34646D01*
X29954D02*
X31792Y2034D01*
X30069D02*
X31906Y197D01*
X30352Y2034D02*
X32189Y197D01*
X30520D02*
X32357Y2034D01*
X30237Y197D02*
X32075Y2034D01*
X30443Y2666D02*
X30573Y2795D01*
X30447Y2788D02*
X30569Y2666D01*
X29879Y3073D02*
X30286Y2666D01*
X30160D02*
X30317Y2822D01*
X30899Y3184D02*
X31418Y2666D01*
X30830Y2970D02*
X31135Y2666D01*
X30726D02*
X31103Y3042D01*
X30682Y2836D02*
X30852Y2666D01*
X29587Y2799D02*
X29721Y2666D01*
X27266D02*
X31543D01*
X29226Y2877D02*
X29438Y2666D01*
X29312D02*
X29435Y2789D01*
X29220Y2034D02*
X31058Y197D01*
X29389D02*
X31226Y2034D01*
X27692Y197D02*
X29529Y2034D01*
X28938D02*
X30775Y197D01*
X29106D02*
X30943Y2034D01*
X28655D02*
X30492Y197D01*
X28823D02*
X30660Y2034D01*
X29671Y197D02*
X31509Y2034D01*
X29786D02*
X31624Y197D01*
X29503Y2034D02*
X31341Y197D01*
X27974D02*
X29812Y2034D01*
X28089D02*
X29927Y197D01*
X27523Y2034D02*
X29361Y197D01*
X27806Y2034D02*
X29644Y197D01*
X28372Y2034D02*
X30209Y197D01*
X28540D02*
X30378Y2034D01*
X28257Y197D02*
X30095Y2034D01*
X28853Y12390D02*
X29296Y12832D01*
X28626Y12811D02*
X29096Y12341D01*
X27892Y12277D02*
X28408Y12793D01*
X27518Y12787D02*
X28073Y12233D01*
X28896Y12150D02*
X29101Y12355D01*
X28895Y12259D02*
X29097Y12058D01*
X25895Y12260D02*
X26426Y12790D01*
X25537Y12789D02*
X26075Y12251D01*
X24655Y12822D02*
X25108Y12370D01*
X24866Y12362D02*
X25323Y12819D01*
X24887Y12100D02*
X25083Y12296D01*
X27611Y11713D02*
X28072Y12174D01*
X27753Y11572D02*
X28145Y11964D01*
X28177Y11147D02*
X29094Y12065D01*
X28318Y11006D02*
X29206Y11894D01*
X27894Y11430D02*
X28296Y11832D01*
X28035Y11289D02*
X28536Y11789D01*
X23228Y9593D02*
X25426Y11790D01*
X23228Y10159D02*
X25105Y12036D01*
X23228Y9876D02*
X25228Y11876D01*
X23228Y9027D02*
X26153Y11952D01*
X23228Y8744D02*
X26309Y11825D01*
X23228Y9310D02*
X26074Y12156D01*
X23228Y11856D02*
X24239Y12867D01*
X24884Y12310D02*
X25080Y12114D01*
X23228Y13118D02*
X24077Y12269D01*
X23228Y12139D02*
X24112Y13022D01*
X23228Y11573D02*
X24444Y12788D01*
X23228Y11290D02*
X24076Y12138D01*
X23228Y11007D02*
X24162Y11941D01*
X23228Y10724D02*
X24323Y11819D01*
X21141Y10900D02*
X21358Y11117D01*
X21262Y10738D02*
X21358Y10834D01*
X23228Y10442D02*
X24585Y11798D01*
X21276Y10469D02*
X21358Y10551D01*
X21276Y9055D02*
X21358Y9137D01*
X21276Y9130D02*
X21358Y9048D01*
X21276Y9338D02*
X21358Y9420D01*
X21276Y9413D02*
X21358Y9331D01*
X21276Y8489D02*
X21358Y8571D01*
X21276Y8564D02*
X21358Y8482D01*
X21276Y8772D02*
X21358Y8854D01*
X21276Y8847D02*
X21358Y8765D01*
X21276Y10261D02*
X21358Y10179D01*
X21276Y9904D02*
X21358Y9986D01*
X21276Y10544D02*
X21358Y10462D01*
X21276Y10186D02*
X21358Y10269D01*
X21276Y9621D02*
X21358Y9703D01*
X21276Y9696D02*
X21358Y9614D01*
X21276Y9979D02*
X21358Y9897D01*
X23228Y5916D02*
X27983Y10671D01*
X23228Y5633D02*
X28125Y10530D01*
X23228Y6482D02*
X27701Y10954D01*
X23228Y6199D02*
X27842Y10812D01*
X23228Y10572D02*
X29256Y4545D01*
X23228Y10289D02*
X29121Y4397D01*
X23228Y5350D02*
X28266Y10388D01*
X23228Y5068D02*
X28408Y10247D01*
X23228Y7896D02*
X26993Y11661D01*
X23228Y7613D02*
X27135Y11520D01*
X23228Y8179D02*
X26852Y11802D01*
X23228Y8462D02*
X26559Y11793D01*
X23228Y7047D02*
X27418Y11237D01*
X23228Y6765D02*
X27559Y11095D01*
X23228Y7330D02*
X27276Y11378D01*
X23228Y10006D02*
X28659Y4576D01*
X24472Y4614D02*
X29256Y9398D01*
X23228Y4785D02*
X28549Y10105D01*
X23228Y9724D02*
X28358Y4594D01*
X23228Y3936D02*
X28973Y9681D01*
X23228Y3653D02*
X29115Y9540D01*
X23228Y4502D02*
X28690Y9964D01*
X23228Y4219D02*
X28832Y9823D01*
X23228Y8875D02*
X27489Y4614D01*
X23228Y8592D02*
X27268Y4552D01*
X23228Y8026D02*
X26702Y4553D01*
X23228Y7744D02*
X26373Y4599D01*
X23228Y9441D02*
X28185Y4484D01*
X23228Y9158D02*
X28084Y4302D01*
X23228Y8309D02*
X27128Y4409D01*
X21276Y8207D02*
X21358Y8289D01*
X21276Y8282D02*
X21358Y8199D01*
X21276Y6350D02*
Y10650D01*
Y7924D02*
X21358Y8006D01*
X23228Y7461D02*
X26194Y4495D01*
X23228Y7178D02*
X26088Y4318D01*
X23228Y984D02*
Y15210D01*
X21358Y984D02*
Y12598D01*
X21276Y7716D02*
X21358Y7634D01*
X21276Y7358D02*
X21358Y7440D01*
X21276Y7999D02*
X21358Y7917D01*
X21276Y7641D02*
X21358Y7723D01*
X21276Y7075D02*
X21358Y7157D01*
X21276Y7150D02*
X21358Y7068D01*
X21276Y7433D02*
X21358Y7351D01*
X23228Y6895D02*
X25510Y4613D01*
X23228Y5764D02*
X24389Y4603D01*
X21276Y6510D02*
X21358Y6592D01*
X21276Y6584D02*
X21358Y6502D01*
X23228Y6612D02*
X25281Y4560D01*
X23228Y6329D02*
X25136Y4422D01*
X23228Y6047D02*
X25071Y4204D01*
X21276Y6792D02*
X21358Y6874D01*
X21276Y6867D02*
X21358Y6785D01*
X21273Y6305D02*
X21358Y6220D01*
X21168Y6127D02*
X21358Y5937D01*
X21026Y5986D02*
X21358Y5654D01*
X20434Y11607D02*
X21358Y12531D01*
X20575Y11465D02*
X21358Y12248D01*
X20625Y12610D02*
X21358Y11876D01*
X20912Y12605D02*
X21358Y12159D01*
X20717Y11324D02*
X21358Y11966D01*
X20858Y11183D02*
X21358Y11683D01*
X21000Y11041D02*
X21358Y11400D01*
X20501Y10260D02*
X20724Y10483D01*
X20050Y12619D02*
X21358Y11311D01*
X20338Y12614D02*
X21358Y11594D01*
X20151Y11890D02*
X20867Y12606D01*
X20292Y11748D02*
X21146Y12602D01*
X18261Y13843D02*
X21358Y10745D01*
X19763Y12623D02*
X21358Y11028D01*
X18261Y13780D02*
X21195Y10845D01*
X20522Y9715D02*
X20724Y9917D01*
X20523Y9883D02*
X20724Y9682D01*
X20524Y10000D02*
X20724Y10200D01*
X20525Y10165D02*
X20724Y9965D01*
X20515Y8477D02*
X20724Y8268D01*
X20513Y8196D02*
X20724Y7985D01*
X20520Y9431D02*
X20724Y9634D01*
X20514Y8293D02*
X20724Y8503D01*
X20512Y7915D02*
X20724Y7703D01*
X20509Y7439D02*
X20724Y7654D01*
X20512Y8008D02*
X20724Y8220D01*
X20511Y7724D02*
X20724Y7937D01*
X20507Y7155D02*
X20724Y7371D01*
X20509Y7352D02*
X20724Y7137D01*
X20510Y7633D02*
X20724Y7420D01*
X19868Y12172D02*
X20310Y12615D01*
X20010Y12031D02*
X20589Y12610D01*
X19727Y12314D02*
X20032Y12619D01*
X18946Y11816D02*
X19195Y12065D01*
X19370Y11391D02*
X19619Y11640D01*
X19511Y11250D02*
X19760Y11499D01*
X19087Y11674D02*
X19336Y11923D01*
X19228Y11533D02*
X19477Y11782D01*
X18663Y12098D02*
X18912Y12348D01*
X18804Y11957D02*
X19053Y12206D01*
X18380Y12381D02*
X18629Y12630D01*
X18521Y12240D02*
X18770Y12489D01*
X18333Y12428D02*
X20525Y10236D01*
X18307Y11614D02*
X19882Y10039D01*
X18226Y11614D02*
X19882Y9959D01*
X20519Y9146D02*
X20724Y9351D01*
X20520Y9321D02*
X20724Y9117D01*
X20360Y10401D02*
X20609Y10650D01*
X20521Y9602D02*
X20724Y9400D01*
X20516Y8577D02*
X20724Y8785D01*
X20517Y8758D02*
X20724Y8551D01*
X20517Y8862D02*
X20724Y9068D01*
X20518Y9040D02*
X20724Y8834D01*
X19936Y10826D02*
X20185Y11075D01*
X20077Y10684D02*
X20326Y10933D01*
X19653Y11109D02*
X19902Y11358D01*
X19794Y10967D02*
X20043Y11216D01*
X20218Y10543D02*
X20467Y10792D01*
X18173Y7083D02*
X19882Y8792D01*
X18399Y7026D02*
X19882Y8509D01*
X20506Y6871D02*
X20724Y7088D01*
X20507Y7071D02*
X20724Y6854D01*
X19639Y6852D02*
X19882Y7095D01*
X19780Y6710D02*
X19882Y6812D01*
X20724Y6464D02*
Y10536D01*
X20504Y6586D02*
X20724Y6806D01*
X20503Y6316D02*
X20525Y10236D01*
X19882Y6609D02*
Y10039D01*
X18682Y7026D02*
X19882Y8226D01*
X19491Y6987D02*
X19882Y7378D01*
X18965Y7026D02*
X19882Y7944D01*
X19247Y7026D02*
X19882Y7661D01*
X19545Y6945D02*
X19882Y6609D01*
X20505Y6790D02*
X20724Y6571D01*
X20575Y6316D02*
X20724Y6464D01*
X20517Y6316D02*
X20724Y6523D01*
X20504Y6508D02*
X20636Y6376D01*
X20966Y5916D02*
X21358Y6309D01*
X20966Y5764D02*
X21358Y5371D01*
X20966Y5925D02*
X21195Y6155D01*
X20966Y5684D02*
Y5925D01*
X20503Y6316D02*
X20575D01*
X20496Y5164D02*
X21358Y6026D01*
X19434Y5684D02*
Y6275D01*
X19187Y6128D02*
X19434Y5881D01*
X19187Y5845D02*
X19882Y5150D01*
X20495Y4879D02*
X21358Y5743D01*
X18397Y4479D02*
X19603Y5684D01*
X18841Y6474D02*
X18978Y6337D01*
X19124D02*
X19248Y6461D01*
X18558Y6337D02*
X18695Y6474D01*
X18841Y6337D02*
X18978Y6474D01*
X19124D02*
X19434Y6164D01*
X19236Y6474D02*
X19434Y6275D01*
X18558Y6474D02*
X18695Y6337D01*
X18513Y5663D02*
Y6337D01*
X18376Y7026D02*
X19350D01*
X18376Y6474D02*
X19236D01*
X18376Y7026D02*
Y7083D01*
Y6438D02*
X18412Y6474D01*
X18376Y6373D02*
X18513Y6236D01*
Y6337D02*
X19187D01*
X18376Y5547D02*
Y6474D01*
X19187Y6117D02*
X19390Y6320D01*
X19187Y5663D02*
Y6337D01*
Y5834D02*
X19434Y6082D01*
X18513Y6292D02*
X18558Y6337D01*
X18376Y6155D02*
X18513Y6292D01*
X18376Y6090D02*
X18513Y5953D01*
X18376Y5872D02*
X18513Y6009D01*
X18260Y4624D02*
X19434Y5799D01*
X18376Y5589D02*
X18513Y5726D01*
X18376Y5808D02*
X18513Y5671D01*
X28861Y4373D02*
X29073Y4162D01*
X27873Y4056D02*
X28075Y4258D01*
X27899Y4204D02*
X28162Y3941D01*
X28750Y3518D02*
X29167Y3935D01*
X28770Y3899D02*
X29185Y3484D01*
X28557Y3608D02*
X29078Y4128D01*
X27838Y3983D02*
X28268Y3552D01*
X26884Y4088D02*
X27373Y3599D01*
X26838Y4417D02*
X27072Y4183D01*
X26574Y3604D02*
X27081Y4112D01*
X27671Y3570D02*
X28115Y4015D01*
X26780Y3909D02*
X27194Y3495D01*
X26761Y3509D02*
X27176Y3924D01*
X28226Y3877D02*
X28489Y3614D01*
X28587Y3799D02*
X29084Y3302D01*
X27823Y3440D02*
X28246Y3862D01*
X27695Y3843D02*
X28128Y3409D01*
X28883Y3086D02*
X29080Y3282D01*
X28899Y3204D02*
X29162Y2941D01*
X27898Y3232D02*
X28453Y3787D01*
X27838Y3417D02*
X28072Y3183D01*
X27428Y3610D02*
X27630Y3812D01*
X27468Y3786D02*
X27702Y3553D01*
X26875Y3340D02*
X27345Y3810D01*
X26603Y3803D02*
X27088Y3318D01*
X26899Y3225D02*
X27122Y3001D01*
X27016Y2916D02*
X27115Y3015D01*
X26875Y3057D02*
X27075Y3258D01*
X25899Y4225D02*
X26122Y4001D01*
X24899Y4193D02*
X25152Y4446D01*
X25859Y4021D02*
X26073Y4235D01*
X25684Y3563D02*
X26122Y4001D01*
X25845Y3995D02*
X26281Y3560D01*
X24888Y4104D02*
X25389Y3603D01*
X24590Y3601D02*
X25085Y4095D01*
X23228Y4915D02*
X24103Y4040D01*
X23228Y4632D02*
X24294Y3567D01*
X23228Y3088D02*
X24129Y3989D01*
X24790Y3919D02*
X25205Y3504D01*
X23228Y4067D02*
X24072Y3223D01*
X25831Y3428D02*
X26258Y3854D01*
X26287Y3837D02*
X26510Y3613D01*
X25707Y3850D02*
X26136Y3422D01*
X25450Y3613D02*
X25665Y3827D01*
X25899Y3213D02*
X26472Y3786D01*
X25489Y3786D02*
X26071Y3204D01*
X24771Y3499D02*
X25186Y3914D01*
X24618Y3808D02*
X25093Y3333D01*
X24325Y3818D02*
X24532Y3611D01*
X24240Y3533D02*
X24492Y3786D01*
X24880Y3325D02*
X25360Y3805D01*
X24897Y3247D02*
X25103Y3040D01*
X24859Y3021D02*
X25073Y3235D01*
X28838Y2983D02*
X29155Y2666D01*
X29029D02*
X29234Y2871D01*
X28746Y2666D02*
X29109Y3028D01*
X27884Y3088D02*
X28306Y2666D01*
X28695Y2843D02*
X28872Y2666D01*
X27898D02*
X28167Y2935D01*
X27780Y2909D02*
X28024Y2666D01*
X27615D02*
X28078Y3128D01*
X25888Y3104D02*
X28795Y197D01*
X27287Y2837D02*
X27458Y2666D01*
X24852Y3008D02*
X27664Y197D01*
X25790Y2919D02*
X28512Y197D01*
X24719Y2858D02*
X27381Y197D01*
X28463Y2666D02*
X28600Y2802D01*
X28468Y2786D02*
X28589Y2666D01*
X28180D02*
X28331Y2816D01*
X27603Y2803D02*
X27741Y2666D01*
X27241Y2034D02*
X29078Y197D01*
X27409D02*
X29246Y2034D01*
X27332Y2666D02*
X27453Y2787D01*
X27126Y197D02*
X28963Y2034D01*
X25325Y2818D02*
X27947Y197D01*
X25618Y2808D02*
X28230Y197D01*
X25712D02*
X27549Y2034D01*
X25994Y197D02*
X27832Y2034D01*
X26560Y197D02*
X28398Y2034D01*
X26843Y197D02*
X28681Y2034D01*
X26277Y197D02*
X28115Y2034D01*
X27158Y2774D02*
X27246Y2862D01*
X26874Y3058D02*
X27266Y2666D01*
X24508Y2787D02*
X27098Y197D01*
X23732D02*
X26287Y2752D01*
X23228Y3501D02*
X26532Y197D01*
X23228Y259D02*
X26081Y3112D01*
X23228Y2522D02*
X24152Y3446D01*
X23228Y1956D02*
X24186Y2914D01*
X23228Y3784D02*
X26815Y197D01*
X23228Y3218D02*
X26250Y197D01*
X23449D02*
X26176Y2924D01*
X25429Y197D02*
X27266Y2034D01*
X26300Y2739D02*
X26912Y2127D01*
X24863Y197D02*
X26853Y2186D01*
X25146Y197D02*
X27010Y2061D01*
X24580Y197D02*
X26711Y2328D01*
X23228Y2370D02*
X25401Y197D01*
X23228Y1238D02*
X24270Y197D01*
X23228D02*
Y984D01*
Y673D02*
X23704Y197D01*
X24015D02*
X26428Y2611D01*
X24297Y197D02*
X26570Y2469D01*
X23228Y2652D02*
X25684Y197D01*
X20762Y5684D02*
X21358Y5088D01*
X20499Y5665D02*
X21358Y4805D01*
X20498Y5448D02*
X20734Y5684D01*
X20499D02*
X20966D01*
X23228Y5481D02*
X24205Y4504D01*
X23228Y5198D02*
X24093Y4333D01*
X20497Y5383D02*
X21358Y4523D01*
X20499Y3752D02*
X21358Y4612D01*
X20496Y5102D02*
X21358Y4240D01*
X20490Y4026D02*
X21358Y4895D01*
X20493Y4595D02*
X21358Y5460D01*
X20491Y4310D02*
X21358Y5177D01*
X20494Y4821D02*
X21358Y3957D01*
X20493Y4540D02*
X21358Y3674D01*
X20489Y3814D02*
X20499Y5684D01*
X23228Y4350D02*
X24144Y3434D01*
X23228Y3370D02*
X24072Y4214D01*
X20499Y3469D02*
X21358Y4329D01*
X20499Y3186D02*
X21358Y4046D01*
X23228Y2805D02*
X24270Y3846D01*
X23228Y2239D02*
X24085Y3095D01*
X20499Y2986D02*
Y3814D01*
Y3402D02*
X21358Y2543D01*
X20483Y2888D02*
X21358Y3763D01*
X20499Y3685D02*
X21358Y2825D01*
X20491Y4258D02*
X21358Y3391D01*
X20489Y3977D02*
X21358Y3108D01*
X20480Y2319D02*
X21358Y3197D01*
X20499Y3119D02*
X21358Y2260D01*
X20482Y2604D02*
X21358Y3480D01*
X19631Y5684D02*
X19882Y5433D01*
X19434Y5684D02*
X19882D01*
X18513Y5663D02*
X19187D01*
X19086D02*
X19882Y4868D01*
Y3814D02*
Y5684D01*
X19146Y3814D02*
X19882Y4549D01*
X18803Y5663D02*
X19882Y4585D01*
X18521Y5663D02*
X19882Y4302D01*
X18354Y5547D02*
X19882Y4019D01*
X18397Y3914D02*
X19882Y5398D01*
X18397Y4196D02*
X19882Y5681D01*
X18333Y5547D02*
X18376Y5589D01*
X18397Y3631D02*
X19882Y5115D01*
X18397Y3348D02*
X19882Y4832D01*
X18397Y3045D02*
Y4624D01*
X19429Y3814D02*
X19882Y4267D01*
X19712Y3814D02*
X19882Y3984D01*
X19001Y2986D02*
Y3814D01*
X19882D01*
X19218Y2986D02*
X19882Y2322D01*
Y2165D02*
Y2986D01*
X19784D02*
X19882Y2888D01*
X19501Y2986D02*
X19882Y2605D01*
X18397Y3806D02*
X19001Y3203D01*
X18397Y3065D02*
X19001Y3669D01*
X18397Y4372D02*
X19001Y3768D01*
X18397Y4089D02*
X19001Y3485D01*
X18310Y3045D02*
X19190Y2165D01*
X19001Y2986D02*
X19882D01*
X18346Y2165D02*
X19167Y2986D01*
X23228Y1108D02*
X25122Y3001D01*
X23228Y825D02*
X25258Y2854D01*
X23228Y1391D02*
X24665Y2827D01*
X23228Y1673D02*
X24360Y2805D01*
X23228Y2935D02*
X25967Y197D01*
X23228Y542D02*
X25473Y2786D01*
X23228Y2087D02*
X25118Y197D01*
X23228Y1804D02*
X24835Y197D01*
X23228Y1521D02*
X24553Y197D01*
X22917Y984D02*
X23228Y673D01*
X21457Y984D02*
X23228D01*
X23199D02*
X23228Y955D01*
X22035Y197D02*
X22822Y984D01*
X23228Y197D02*
Y984D01*
X20477Y1727D02*
X22007Y197D01*
X23228Y955D02*
X23987Y197D01*
X23228D02*
X28937D01*
X22634Y984D02*
X23228Y390D01*
X23421Y197D01*
X22600D02*
X23228Y825D01*
X23166Y197D02*
X23228Y259D01*
X22351Y984D02*
X23138Y197D01*
X22883D02*
X23228Y542D01*
X21752Y197D02*
X22539Y984D01*
X20468Y197D02*
X23228D01*
X21469D02*
X22256Y984D01*
X21502D02*
X22290Y197D01*
X22068Y984D02*
X22855Y197D01*
X22318D02*
X23105Y984D01*
X21785D02*
X22573Y197D01*
X20477Y1750D02*
X21358Y2632D01*
X20481Y2571D02*
X21358Y1694D01*
X20478Y2035D02*
X21358Y2915D01*
X20483Y2852D02*
X21358Y1977D01*
X20475Y1466D02*
X21358Y2349D01*
X20480Y2290D02*
X21358Y1411D01*
X20472Y984D02*
X20484Y2986D01*
X20474Y1181D02*
X21358Y2066D01*
X18397Y3524D02*
X19756Y2165D01*
X18912D02*
X19733Y2986D01*
X18397Y3241D02*
X19473Y2165D01*
X18629D02*
X19450Y2986D01*
X19478Y2165D02*
X19882Y2570D01*
X19761Y2165D02*
X19882Y2287D01*
X19195Y2165D02*
X19882Y2852D01*
X20903Y197D02*
X21691Y984D01*
X21186Y197D02*
X21974Y984D01*
X20478Y2008D02*
X21358Y1128D01*
Y984D02*
X21457D01*
X20475Y1446D02*
X21724Y197D01*
X20473Y1165D02*
X21441Y197D01*
X20620D02*
X21408Y984D01*
X20472Y897D02*
X21358Y1783D01*
X20470Y612D02*
X21358Y1500D01*
X20469Y328D02*
X21358Y1218D01*
X20472Y883D02*
X21158Y197D01*
X20470Y602D02*
X20876Y197D01*
X20469Y321D02*
X20593Y197D01*
X20468D02*
X20472Y984D01*
X17732Y23047D02*
X18307Y23622D01*
X17732Y22764D02*
X18590Y23622D01*
X17526Y23407D02*
X17741Y23622D01*
X17732Y23330D02*
X18024Y23622D01*
X17532D02*
X18504Y22651D01*
X17815Y23622D02*
X18786Y22651D01*
X17732Y22733D02*
Y23407D01*
Y23139D02*
X18394Y22477D01*
X17243Y23407D02*
X17458Y23622D01*
X16960Y23407D02*
X17732D01*
X16960D02*
X17176Y23622D01*
X16967D02*
X17182Y23407D01*
X17249Y23622D02*
X17465Y23407D01*
X17472Y22221D02*
X18873Y23622D01*
X17701Y22733D02*
X17732Y22764D01*
X17031Y22629D02*
X17135Y22733D01*
X17732Y22856D02*
X18394Y22194D01*
X17472Y22504D02*
X17701Y22733D01*
X17290D02*
X17394Y22629D01*
X17314D02*
X17418Y22733D01*
X16960Y22780D02*
X17007Y22733D01*
X16845Y23008D02*
X16960Y23124D01*
X16845Y22895D02*
X16960Y22780D01*
Y22733D02*
X17732D01*
X16796Y22629D02*
X17472D01*
X17007Y22733D02*
X17111Y22629D01*
X16656Y23386D02*
X16893Y23622D01*
X16684D02*
X16960Y23346D01*
X16373Y23386D02*
X16610Y23622D01*
X16401D02*
X16637Y23386D01*
X16845Y23291D02*
X16960Y23407D01*
X16845Y23178D02*
X16960Y23063D01*
Y22733D02*
Y23407D01*
X16845Y22754D02*
Y23386D01*
X16118Y23622D02*
X16354Y23386D01*
X16115D02*
X16845D01*
X15835Y23622D02*
X16115Y23342D01*
X15720Y23015D02*
X16327Y23622D01*
X16115Y22754D02*
Y23386D01*
X15720Y22732D02*
X16115Y23127D01*
X15720Y22325D02*
Y23060D01*
X16115Y22754D02*
X16164D01*
X16796D02*
X16845D01*
X16115Y22776D02*
X16137Y22754D01*
X16164Y22727D01*
X16796Y22676D02*
X16960Y22841D01*
X16796Y22662D02*
X16828Y22629D01*
X16164D02*
Y22754D01*
X16796Y22629D02*
Y22754D01*
X15720Y22449D02*
X16115Y22845D01*
X15935Y22629D02*
X16164D01*
X15720Y22889D02*
X15979Y22629D01*
X15720Y22606D02*
X15935Y22391D01*
Y22325D02*
Y22629D01*
X15878Y22325D02*
X15935Y22382D01*
X15720Y22325D02*
X15935D01*
X17472Y21938D02*
X19155Y23622D01*
X17573Y22733D02*
X18394Y21912D01*
X17472Y21655D02*
X18394Y22578D01*
X17472Y22551D02*
X18394Y21629D01*
X17472Y22268D02*
X18539Y21201D01*
X17583D02*
X18394Y22012D01*
X17472Y21408D02*
Y22629D01*
X17866Y21201D02*
X18394Y21729D01*
X17472Y21985D02*
X18256Y21201D01*
X17472Y21703D02*
X17974Y21201D01*
X17472Y21420D02*
X17691Y21201D01*
X15935Y21408D02*
X17472D01*
X17300Y21201D02*
X18394Y22295D01*
X15720Y21201D02*
X19993D01*
X17201Y21408D02*
X17408Y21201D01*
X17756Y20570D02*
X17848Y20477D01*
X17965Y20451D02*
X18083Y20570D01*
X17473D02*
X17613Y20431D01*
X17693Y20462D02*
X17800Y20570D01*
X18039D02*
X18882Y19727D01*
X17180Y20233D02*
X17517Y20570D01*
X15720D02*
X20124D01*
X17191D02*
X17460Y20300D01*
X17223Y19993D02*
X17394Y20163D01*
X17220Y19974D02*
X17467Y19727D01*
X17240D02*
X17404Y19891D01*
X16918Y21408D02*
X17125Y21201D01*
X17017D02*
X17224Y21408D01*
X16635D02*
X16842Y21201D01*
X16734D02*
X16941Y21408D01*
X16625Y20570D02*
X16743Y20452D01*
X16908Y20570D02*
X17380Y20097D01*
X16352Y21408D02*
X16559Y21201D01*
X16451D02*
X16658Y21408D01*
X16070D02*
X16277Y21201D01*
X16168D02*
X16375Y21408D01*
X15862Y21615D02*
X15935Y21542D01*
Y21408D02*
Y21615D01*
X15886Y21201D02*
X16093Y21408D01*
X16219Y20120D02*
X16669Y20570D01*
X15720Y21201D02*
Y21260D01*
X16839Y20457D02*
X16952Y20570D01*
X17048Y20384D02*
X17234Y20570D01*
X16128Y20312D02*
X16386Y20570D01*
X16342D02*
X16549Y20363D01*
X16217Y20129D02*
X16413Y19933D01*
X15776Y20570D02*
X15897Y20449D01*
X15963Y20429D02*
X16103Y20570D01*
X15720Y20511D02*
Y20570D01*
X15690Y20439D02*
X15820Y20570D01*
X16059D02*
X16429Y20200D01*
X16109Y19727D02*
X16399Y20017D01*
X15199Y23060D02*
X15761Y23622D01*
X15482Y23060D02*
X16044Y23622D01*
X14987D02*
X15549Y23060D01*
X14636D02*
X15720D01*
X15552Y23622D02*
X16115Y23059D01*
X15269Y23622D02*
X16115Y22776D01*
X14704Y23622D02*
X15266Y23060D01*
X14916D02*
X15478Y23622D01*
X14466D02*
X23228D01*
X14466Y23577D02*
X14983Y23060D01*
X14466Y23175D02*
X14913Y23622D01*
X14466Y23294D02*
X14700Y23060D01*
X14569Y22996D02*
X15196Y23622D01*
X13819Y22527D02*
X15086Y21260D01*
X14511Y22996D02*
X14636D01*
X15509Y21615D02*
X15935D01*
X14982Y21996D02*
X15258Y21719D01*
X15379Y21260D02*
X15734Y21615D01*
X15662Y21260D02*
X15935Y21533D01*
X15096Y21260D02*
X15455Y21619D01*
X14636Y22311D02*
X14878D01*
X14636D02*
Y22364D01*
X14878Y22247D02*
Y22311D01*
X14222Y22407D02*
X15369Y21260D01*
X14813D02*
X15266Y21712D01*
X13819Y21397D02*
X14733Y22311D01*
X14466Y23061D02*
Y23622D01*
Y23458D02*
X14630Y23622D01*
X12441D02*
X12870Y23193D01*
X12724Y23622D02*
X12870Y23476D01*
Y23061D02*
X12919D01*
X14446D02*
X14511Y22996D01*
X12870Y23061D02*
Y23622D01*
X12580Y22987D02*
X12870Y23277D01*
X11875Y23622D02*
X12511Y22987D01*
X10433Y23622D02*
X12870D01*
X11593D02*
X12228Y22987D01*
X11732D02*
X12367Y23622D01*
X12158D02*
X12794Y22987D01*
X12297D02*
X12870Y23559D01*
X12015Y22987D02*
X12650Y23622D01*
X14636Y22996D02*
Y23060D01*
X13897Y22717D02*
X14157Y22457D01*
X13819Y21679D02*
X14504Y22364D01*
X14380D02*
X14636D01*
X11337Y22987D02*
X12919D01*
X13819Y22810D02*
X13847Y22782D01*
X12919Y22987D02*
Y23061D01*
X12863Y22987D02*
X12919Y23043D01*
X13819Y22245D02*
X14094Y22520D01*
X13819Y21962D02*
X14249Y22393D01*
X13819Y22528D02*
X13952Y22661D01*
X15579Y21615D02*
X15994Y21201D01*
X14636Y21260D02*
X15720D01*
X14547Y22364D02*
X15652Y21260D01*
X13819Y20831D02*
X14983Y21995D01*
X14636Y20511D02*
Y21260D01*
Y20579D02*
X14704Y20511D01*
X13977Y20423D02*
X14636Y21082D01*
X14137Y20301D02*
X14636Y20800D01*
X13819Y22244D02*
X14803Y21260D01*
X13819Y21114D02*
X14884Y22179D01*
X13819Y21962D02*
X14636Y21144D01*
X13819Y21679D02*
X14636Y20861D01*
X13717Y20447D02*
X15124Y21853D01*
X13819Y21396D02*
X14636Y20579D01*
X13819Y21113D02*
X14560Y20372D01*
X15270Y20511D02*
X15484Y20296D01*
X15553Y20511D02*
X15642Y20421D01*
X15060Y20375D02*
X15195Y20511D01*
X15187Y20219D02*
X15478Y20511D01*
X15223Y19992D02*
X15487Y19727D01*
X15219Y19969D02*
X15417Y20166D01*
X15260Y19727D02*
X15426Y19893D01*
X14857Y20455D02*
X14913Y20511D01*
X14636D02*
X15720D01*
X14222Y20103D02*
X14636Y20517D01*
X14704Y20511D02*
X14760Y20454D01*
X14987Y20511D02*
X15401Y20096D01*
X14196Y19888D02*
X14775Y19308D01*
X13819Y20584D02*
Y22846D01*
X13782Y20584D02*
X13924Y20442D01*
X13087Y20382D02*
X13289Y20584D01*
X13499D02*
X13656Y20427D01*
X13819Y20830D02*
X14435Y20214D01*
X13209Y20222D02*
X13572Y20584D01*
X12934D02*
X13404Y20114D01*
X13217Y20584D02*
X13493Y20307D01*
X12893Y20471D02*
X13006Y20584D01*
X11337D02*
X13819D01*
X12368D02*
X12556Y20396D01*
X12651Y20584D02*
X12759Y20476D01*
X12146Y20289D02*
X12440Y20584D01*
X12224Y20085D02*
X12723Y20584D01*
X12085D02*
X12425Y20244D01*
X14211Y20155D02*
X14407Y19959D01*
X13241Y19971D02*
X13409Y20138D01*
X12833Y18431D02*
X14401Y19999D01*
X13244Y19991D02*
X14331Y18904D01*
X12201Y20185D02*
X12378Y20008D01*
X12201Y19902D02*
X14331Y17773D01*
X11972Y19550D02*
X12385Y19962D01*
X17675Y19030D02*
X17938Y19293D01*
X17958Y19030D02*
X18220Y19293D01*
X17336D02*
X17598Y19030D01*
X17619Y19293D02*
X17881Y19030D01*
X18091Y18598D02*
X18786Y19293D01*
X17902D02*
X18797Y18397D01*
X17371Y19009D02*
X17655Y19293D01*
X17536Y19030D02*
X18091D01*
X15365Y19293D02*
X19537D01*
X17322Y19009D02*
X17536D01*
X17079Y19727D02*
X17513D01*
X17183Y19009D02*
X17322D01*
X17053Y19293D02*
X17337Y19009D01*
X17088D02*
X17372Y19293D01*
X17183Y19009D02*
X17322D01*
X18091Y18820D02*
X18515Y18397D01*
X18091Y18538D02*
X18232Y18397D01*
X17557Y17986D02*
X17645D01*
X17325Y18290D02*
X17588Y18026D01*
X17183Y18378D02*
X17272D01*
X17183D02*
X17272D01*
X17196Y17986D02*
X17413Y18202D01*
X16809Y17986D02*
X17322D01*
X16913D02*
X17281Y18353D01*
X17131Y19780D02*
X17185Y19727D01*
X16079D02*
X16545D01*
X16190Y19874D02*
X16336Y19727D01*
X16392D02*
X16472Y19807D01*
X16487Y19293D02*
X16809Y18971D01*
X16770Y19293D02*
X17054Y19009D01*
X15613Y18666D02*
X16240Y19293D01*
X16205D02*
X16809Y18689D01*
X15275Y19727D02*
X15545D01*
X15179Y19079D02*
X15392Y19293D01*
X15140Y19791D02*
X15214Y19718D01*
X15179Y19106D02*
X15365Y19293D01*
X15613Y18948D02*
X15958Y19293D01*
X15613Y18383D02*
X16523Y19293D01*
X15412Y19030D02*
X15675Y19293D01*
X16809Y19009D02*
X17183D01*
X16809Y18406D02*
X16837Y18378D01*
X15922Y19293D02*
X16809Y18406D01*
Y18378D02*
Y19009D01*
Y18378D02*
X17183D01*
X16837D02*
X17229Y17986D01*
X15639Y19293D02*
X16946Y17986D01*
X15613Y18357D02*
Y19030D01*
X15179D02*
X15613D01*
X15219Y19147D02*
X15336Y19030D01*
X15179D02*
Y19106D01*
X15587Y18357D02*
X15613Y18383D01*
X18070Y17445D02*
X18587Y17963D01*
X18070D02*
X19517D01*
X18070Y17354D02*
Y17963D01*
Y17728D02*
X18305Y17963D01*
X18016Y16826D02*
X19153Y17963D01*
X18016Y16543D02*
X19436Y17963D01*
X17557Y17354D02*
Y17986D01*
X18016Y17109D02*
X18870Y17963D01*
X17119Y18378D02*
X17557Y17941D01*
X17322Y17893D02*
X17557Y17658D01*
X15592Y17796D02*
X17089Y19293D01*
X17322Y17829D02*
X17554Y18061D01*
X17322Y17546D02*
X17557Y17781D01*
X17322Y17610D02*
X17557Y17375D01*
X17322Y17354D02*
Y17986D01*
X17295Y17354D02*
X17582Y17067D01*
X18016Y17354D02*
X18070D01*
X17382Y17040D02*
X17582Y17240D01*
X17432Y16807D02*
X17582Y16957D01*
X18016Y16404D02*
Y17354D01*
X17422Y16944D02*
X17582Y16785D01*
Y16388D02*
Y17354D01*
X17396Y16687D02*
X17582Y16502D01*
X17283Y17224D02*
X17557Y17498D01*
X17283Y17148D02*
Y17354D01*
X17322D01*
X17262Y16538D02*
X17493Y16307D01*
X17024Y16399D02*
X17108Y16484D01*
X15613Y18753D02*
X16809Y17557D01*
X15592Y17513D02*
X16809Y18730D01*
X15592Y17354D02*
Y17986D01*
X16809Y17354D02*
Y17986D01*
X15613Y18470D02*
X16848Y17235D01*
X15557Y17195D02*
X16809Y18447D01*
X15592Y17926D02*
X16698Y16820D01*
X15574Y16646D02*
X16809Y17881D01*
X15499Y17986D02*
X16806Y19293D01*
X15532Y17986D02*
X15592Y17926D01*
X15161Y18357D02*
X15532Y17986D01*
X15216D02*
X15587Y18357D01*
X15361Y19288D02*
X16809Y17840D01*
X15557Y16912D02*
X17023Y18378D01*
X15444Y18357D02*
X16754Y17047D01*
X16809Y17354D02*
X16848D01*
X16799Y16458D02*
X16876Y16534D01*
X15715Y16505D02*
X16809Y17598D01*
X16848Y17148D02*
Y17354D01*
X15933Y16440D02*
X16848Y17354D01*
X16109Y16333D02*
X16705Y16929D01*
X15592Y17360D02*
X16571Y16381D01*
X15592Y17643D02*
X16778Y16456D01*
X15557Y16663D02*
X15765Y16455D01*
X15557Y16663D02*
Y17354D01*
X15592D01*
X15557Y16830D02*
X15953Y16433D01*
X14983Y19666D02*
X15054Y19595D01*
X14728Y19638D02*
X14912Y19454D01*
X14808Y19350D02*
X15122Y19664D01*
X14744Y19009D02*
Y19196D01*
X14076Y19725D02*
X14744Y19056D01*
X14543Y19009D02*
X14745Y19211D01*
X12690Y18006D02*
X14481Y19796D01*
X13882Y19636D02*
X14508Y19009D01*
X12812Y17844D02*
X14636Y19669D01*
X13012Y19657D02*
X14683Y17986D01*
X12776Y19610D02*
X14401Y17986D01*
X14705Y18378D02*
X14844D01*
X15058D01*
X14705Y19009D02*
X14744D01*
X14705D02*
X14744D01*
X15058Y18357D02*
X15613D01*
X15079Y17986D02*
X15592D01*
X14857Y18378D02*
X15249Y17986D01*
X14844Y17896D02*
X15304Y18357D01*
X14705Y18378D02*
X14844D01*
X14650Y17986D02*
X15043Y18378D01*
X14331Y19009D02*
X14705D01*
X14331Y18378D02*
X14705D01*
X14574D02*
X15079Y17873D01*
X14331Y17986D02*
X14844D01*
X14368D02*
X14760Y18378D01*
X12604Y19050D02*
X13432Y19879D01*
X12833Y18997D02*
X13555Y19719D01*
X12384Y19113D02*
X12885Y19615D01*
X12398Y19050D02*
X12833D01*
X13164Y19788D02*
X14331Y18621D01*
X12833Y18714D02*
X13753Y19634D01*
X12833Y18377D02*
Y19050D01*
X12770D02*
X12833Y18987D01*
X12114Y19409D02*
X12474Y19769D01*
X12255Y19267D02*
X12634Y19646D01*
X11979Y19544D02*
X12335Y19188D01*
X12087Y19734D02*
X12770Y19050D01*
X11899Y19639D02*
X12487Y19050D01*
X14331Y18378D02*
Y19009D01*
X12779Y18377D02*
X12833Y18431D01*
X14331Y17949D02*
X14368Y17986D01*
X12312Y18377D02*
X12684Y18006D01*
X12408D02*
X12779Y18377D01*
X12278D02*
X12833D01*
X12299Y18006D02*
X12812D01*
X12064Y18398D02*
X12278D01*
X12008D02*
X12401Y18006D01*
X11725Y18398D02*
X12299Y17825D01*
X12064Y17945D02*
X12496Y18377D01*
X11842Y18006D02*
X12234Y18398D01*
X14844Y17613D02*
X15079Y17848D01*
X14844Y17825D02*
X15079Y17590D01*
X14844Y17354D02*
Y17986D01*
X15079Y17354D02*
Y17986D01*
X14804Y17291D02*
X15079Y17566D01*
X14844Y17542D02*
X15122Y17264D01*
X14331Y17354D02*
X14370D01*
X14804D02*
X14844D01*
X12812Y17561D02*
X14887Y19637D01*
X12833Y18705D02*
X14370Y17168D01*
X12833Y18987D02*
X14331Y17490D01*
X12773Y17239D02*
X14331Y18797D01*
X12839Y16457D02*
X14331Y17949D01*
X13048Y16384D02*
X14331Y17666D01*
X12773Y16956D02*
X14331Y18515D01*
X14804Y17299D02*
X15122Y16981D01*
X14963Y16884D02*
X15122Y17043D01*
X15079Y17354D02*
X15122D01*
X14885Y17089D02*
X15122Y17326D01*
X14819Y16458D02*
X15122Y16760D01*
X15036Y16392D02*
X15138Y16493D01*
X15122Y16573D02*
Y17354D01*
X14964Y16856D02*
X15122Y16698D01*
X14370Y17152D02*
Y17354D01*
X14804Y17164D02*
Y17354D01*
X14451Y16520D02*
X14583Y16389D01*
X14736Y16519D02*
X14797Y16457D01*
X14118Y16322D02*
X14367Y16571D01*
X12833Y18422D02*
X14254Y17000D01*
X14331Y17354D02*
Y17986D01*
X12812Y17374D02*
Y18006D01*
X12773Y17374D02*
X12812D01*
X12595Y18377D02*
X14256Y16716D01*
X12812Y17594D02*
X13988Y16419D01*
X12338Y16877D02*
Y17374D01*
X12773Y16787D02*
Y17374D01*
X12299D02*
Y18006D01*
X12064Y17379D02*
X12299Y17614D01*
X12064Y17662D02*
X12299Y17897D01*
X12064Y17777D02*
X12299Y17542D01*
X12064Y17494D02*
X12338Y17220D01*
X12067Y17100D02*
X12338Y17370D01*
X12299Y17374D02*
X12338D01*
X12773Y17351D02*
X13686Y16438D01*
X12675Y16600D02*
X12817Y16458D01*
X13659Y16428D02*
X14278Y17047D01*
X13948Y16435D02*
X14248Y16735D01*
X12773Y17068D02*
X13512Y16329D01*
X12024Y17250D02*
X12338Y16937D01*
X12170Y16920D02*
X12338Y17088D01*
X12180Y16812D02*
X12227Y16765D01*
X12152Y16690D02*
X12338Y16877D01*
X12534Y16458D02*
X12596Y16397D01*
X11310Y23622D02*
X11945Y22987D01*
X11449D02*
X12084Y23622D01*
X10646Y23033D02*
X11236Y23622D01*
X11027D02*
X11662Y22987D01*
X10791Y22894D02*
X11519Y23622D01*
X10943Y22764D02*
X11802Y23622D01*
X10461D02*
X11319Y22764D01*
X10744Y23622D02*
X11379Y22987D01*
X9879Y23114D02*
X10387Y23622D01*
X10162Y23114D02*
X10670Y23622D01*
X9596Y23114D02*
X10104Y23622D01*
X9613D02*
X10121Y23114D01*
X10443Y23112D02*
X10953Y23622D01*
X10178D02*
X11036Y22764D01*
X9896Y23622D02*
X10404Y23114D01*
X11226Y22764D02*
X11337Y22875D01*
X10921Y22764D02*
X11337D01*
X10693Y22993D02*
X10921Y22764D01*
X11337D02*
Y22987D01*
X10750Y21936D02*
X11337D01*
X11299D02*
X11337Y21898D01*
X9168Y23114D02*
X10400D01*
X9168Y22286D02*
X10229D01*
X10457Y22057D01*
X9823Y21643D02*
X10347Y22168D01*
X9651Y21755D02*
X10183Y22286D01*
X9314Y23114D02*
X9822Y23622D01*
X9330D02*
X9838Y23114D01*
X9168Y23252D02*
X9539Y23622D01*
X9168Y23114D02*
Y23311D01*
X9047Y23622D02*
X9555Y23114D01*
X9142Y21811D02*
X9617Y22286D01*
X9168Y23218D02*
X9272Y23114D01*
X9168Y22120D02*
X9334Y22286D01*
X8379Y23311D02*
X8690Y23622D01*
X8481D02*
X8792Y23311D01*
X8096D02*
X8407Y23622D01*
X8198D02*
X8510Y23311D01*
X8764Y23622D02*
X9075Y23311D01*
X8945D02*
X9256Y23622D01*
X8662Y23311D02*
X8973Y23622D01*
X9379Y21766D02*
X9900Y22286D01*
X9199Y21766D02*
Y21811D01*
X9168Y22089D02*
Y22286D01*
X9161Y21811D02*
X9199Y21773D01*
X9166Y22089D02*
X9489Y21766D01*
X9199D02*
X9569D01*
X9137Y22089D02*
X9168Y22120D01*
X8844Y22089D02*
X9168D01*
X8859Y21811D02*
X9137Y22089D01*
X8883D02*
X9161Y21811D01*
X8844Y21845D02*
X8878Y21811D01*
X8844D02*
X9199D01*
X8844D02*
Y22089D01*
X10733Y21936D02*
X11337Y21332D01*
X11016Y21936D02*
X11337Y21615D01*
X10471Y21160D02*
X11247Y21936D01*
X11036Y21160D02*
X11337Y21461D01*
X10753Y21160D02*
X11337Y21743D01*
X11068Y20909D02*
X11337Y21178D01*
Y20584D02*
Y21936D01*
X11068Y20486D02*
Y21160D01*
X9535Y22286D02*
X10661Y21160D01*
X10090Y21345D02*
X10686Y21941D01*
X9252Y22286D02*
X10378Y21160D01*
X9964Y21502D02*
X10490Y22028D01*
X10100Y22286D02*
X11337Y21049D01*
X10166Y21138D02*
X10964Y21936D01*
X9817Y22286D02*
X10944Y21160D01*
X11743Y20452D02*
X11875Y20584D01*
X11802D02*
X11953Y20433D01*
X11068Y21035D02*
X11337Y20766D01*
X11068Y20626D02*
X11337Y20895D01*
X11520Y20584D02*
X11671Y20433D01*
X11991Y20417D02*
X12157Y20584D01*
X11097Y20372D02*
X11337Y20612D01*
X11215Y20208D02*
X11592Y20584D01*
X10296Y21160D02*
X11068D01*
Y20753D02*
X11502Y20318D01*
X10181Y20509D02*
X10432Y20257D01*
X10116Y21138D02*
X10181D01*
X10116D02*
Y21219D01*
X10296Y20486D02*
Y21160D01*
X10181Y21074D02*
X10296Y20959D01*
X10181Y20507D02*
Y21138D01*
X10116D02*
X10181Y21074D01*
X9793Y21673D02*
X10023Y21443D01*
X9272Y21134D02*
X9451Y20955D01*
X9199Y21019D02*
X9314Y21134D01*
X9199D02*
X9439D01*
X9451Y20507D02*
Y21122D01*
X9199Y20736D02*
X9451Y20989D01*
X9199Y20589D02*
Y21134D01*
X10181Y20870D02*
X10296Y20985D01*
X10181Y20791D02*
X10296Y20676D01*
X9199Y20925D02*
X9451Y20672D01*
X10181Y20587D02*
X10296Y20702D01*
X9093Y20348D02*
X9451Y20706D01*
X9199Y20642D02*
X9498Y20342D01*
X8969Y20589D02*
X9411Y20147D01*
X8686Y20589D02*
X8817Y20458D01*
X8909Y20446D02*
X9051Y20589D01*
X8017Y20403D02*
X8203Y20589D01*
X8403D02*
X8596Y20397D01*
X8162Y20265D02*
X8486Y20589D01*
X8226Y20047D02*
X8769Y20589D01*
X8120D02*
X8455Y20254D01*
X7813Y23311D02*
X8125Y23622D01*
X7916D02*
X8227Y23311D01*
X7350Y23622D02*
X7661Y23311D01*
X7633Y23622D02*
X7944Y23311D01*
X7067Y23622D02*
X7632Y23057D01*
X6709Y22490D02*
X7842Y23622D01*
X6709Y23055D02*
X7276Y23622D01*
X6784D02*
X7632Y22775D01*
X6703Y23332D02*
X6993Y23622D01*
X4331D02*
X10433Y23622D01*
X6138Y23332D02*
X6428Y23622D01*
X6420Y23332D02*
X6710Y23622D01*
X6501D02*
X7632Y22492D01*
X6709Y22772D02*
X7559Y23622D01*
X6219Y23622D02*
X6508Y23332D01*
X7632Y23311D02*
X9168D01*
X7632Y22089D02*
X8016D01*
X6709Y23131D02*
X7632Y22209D01*
X6709Y22207D02*
X7632Y23129D01*
Y22089D02*
Y23311D01*
X7751Y22089D02*
X8016Y21824D01*
X6709Y22068D02*
Y23332D01*
X6617Y21832D02*
X7632Y22846D01*
X5130Y23332D02*
X6709D01*
X5130Y22068D02*
X6709D01*
X6335Y21832D02*
X6570Y22068D01*
X6359D02*
X6594Y21832D01*
X5160D02*
X6740D01*
X6076Y22068D02*
X6311Y21832D01*
X5855Y23332D02*
X6145Y23622D01*
X5936D02*
X6226Y23332D01*
X5572D02*
X5862Y23622D01*
X5653D02*
X5943Y23332D01*
X5289D02*
X5579Y23622D01*
X5370D02*
X5660Y23332D01*
X5087Y23622D02*
X5377Y23332D01*
X5130Y22068D02*
Y23332D01*
X4521Y23622D02*
X5130Y23013D01*
X4804Y23622D02*
X5130Y23296D01*
X4330Y23505D02*
X4448Y23622D01*
X4329Y23220D02*
X4730Y23622D01*
X4326Y22652D02*
X5296Y23622D01*
X4330Y23530D02*
X5130Y22731D01*
X4328Y22936D02*
X5013Y23622D01*
X5793Y22068D02*
X6029Y21832D01*
X6052D02*
X6288Y22068D01*
X5510D02*
X5746Y21832D01*
X5769D02*
X6005Y22068D01*
X5227D02*
X5463Y21832D01*
X5486D02*
X5722Y22068D01*
X4329Y23249D02*
X5130Y22448D01*
X4325Y22368D02*
X5130Y23173D01*
X4328Y22967D02*
X5130Y22165D01*
X4326Y22686D02*
X5180Y21832D01*
X5203D02*
X5439Y22068D01*
X4324Y22084D02*
X5130Y22890D01*
X8016Y21811D02*
Y22089D01*
X7662Y21811D02*
X8016D01*
X7728D02*
X8006Y22089D01*
X7662Y21745D02*
X7728Y21811D01*
X6740Y21106D02*
X7723Y22089D01*
X7662Y20589D02*
Y21811D01*
X6740Y21671D02*
X7632Y22563D01*
X6740Y21389D02*
X7632Y22281D01*
X6709Y22848D02*
X7747Y21811D01*
X6709Y22566D02*
X7662Y21613D01*
X6709Y22283D02*
X7662Y21330D01*
X6641Y22068D02*
X7662Y21047D01*
X6740Y20823D02*
X7662Y21745D01*
X6740Y21687D02*
X7662Y20764D01*
X6740Y20568D02*
Y21832D01*
X7837Y20589D02*
X8032Y20395D01*
X7662Y20589D02*
X9199D01*
X6740Y21404D02*
X7701Y20443D01*
X7788Y20457D02*
X7920Y20589D01*
X6740Y21121D02*
X7522Y20339D01*
X6655Y19607D02*
X7662Y20614D01*
X6740Y20838D02*
X7415Y20162D01*
X6727Y20568D02*
X7448Y19847D01*
X5807Y19607D02*
X7662Y21462D01*
X6090Y19607D02*
X7662Y21180D01*
X5160Y20568D02*
X6740D01*
X5879D02*
X6839Y19607D01*
X6372D02*
X7662Y20897D01*
X6444Y20568D02*
X7405Y19607D01*
X6161Y20568D02*
X7122Y19607D01*
X4324Y22123D02*
X5160Y21286D01*
Y21789D02*
X5203Y21832D01*
X4322Y21800D02*
X5130Y22607D01*
X4325Y22404D02*
X5160Y21569D01*
X4322Y21841D02*
X5160Y21003D01*
Y20568D02*
Y21832D01*
X4321Y21560D02*
X5160Y20720D01*
X4318Y20947D02*
X5160Y21789D01*
X4317Y20663D02*
X5160Y21506D01*
X4321Y21515D02*
X5130Y22325D01*
X4320Y21231D02*
X5156Y22068D01*
X4320Y21278D02*
X5991Y19607D01*
X4316Y20379D02*
X5160Y21224D01*
X4312Y19607D02*
X4331Y23622D01*
X5596Y20568D02*
X6556Y19607D01*
X5313Y20568D02*
X6274Y19607D01*
X5524D02*
X6485Y20568D01*
X5241Y19607D02*
X6202Y20568D01*
X4675Y19607D02*
X5636Y20568D01*
X4958Y19607D02*
X5919Y20568D01*
X4314Y20095D02*
X5160Y20941D01*
X4313Y19810D02*
X5160Y20658D01*
X4318Y20997D02*
X5708Y19607D01*
X4317Y20715D02*
X5425Y19607D01*
X4393D02*
X5353Y20568D01*
X11746Y19607D02*
X11771Y19632D01*
X11246Y20009D02*
X11648Y19607D01*
X11464D02*
X11567Y19710D01*
X11735Y19173D02*
X11879Y19029D01*
X11323Y18901D02*
X11595Y19173D01*
X11516D02*
X11660Y19029D01*
X11052Y20486D02*
X11407Y20130D01*
X11236Y19945D02*
X11404Y20113D01*
X11181Y19607D02*
X11439Y19865D01*
X11172Y19800D02*
X11365Y19607D01*
X11025Y19664D02*
X11082Y19607D01*
X11551Y19029D02*
X11879D01*
X11925Y18398D02*
X12064D01*
X11734Y19029D02*
X11807Y19102D01*
X11323Y18800D02*
X11551Y18573D01*
Y18398D02*
X11925D01*
X12064D01*
X11323Y18377D02*
Y19050D01*
X11551Y18398D02*
Y19029D01*
X11233Y19173D02*
X11551Y18856D01*
X10768Y19050D02*
X11323D01*
X10951Y19173D02*
X11073Y19050D01*
X11190D02*
X11312Y19173D01*
X11323Y18618D02*
X11551Y18846D01*
X10889Y18377D02*
X11323D01*
X10552Y20393D02*
X10645Y20486D01*
X10296D02*
X11068D01*
X10486D02*
X10568Y20404D01*
X10226Y20066D02*
X10463Y20304D01*
X10332Y19607D02*
X10483Y19758D01*
X10154Y20277D02*
X10363Y20486D01*
X10130Y20310D02*
Y20507D01*
X10181D01*
X10049Y19607D02*
X10388Y19946D01*
X10206Y19917D02*
X10516Y19607D01*
X10187Y20219D02*
X10377Y20029D01*
X10668Y19173D02*
X10790Y19050D01*
X10907D02*
X11029Y19173D01*
X10615Y19607D02*
X10648Y19640D01*
X10603Y19029D02*
X10746Y19173D01*
X10889Y18345D02*
Y18377D01*
X10320Y19029D02*
X10464Y19173D01*
X10385D02*
X10529Y19029D01*
X10097Y19743D02*
X10233Y19607D01*
X10102Y19173D02*
X10246Y19029D01*
X10415D02*
X10554D01*
X10768D01*
X10415D02*
X10554D01*
X11559Y18006D02*
X11952Y18398D01*
X11551Y18006D02*
X12064D01*
X11323Y18517D02*
X11835Y18006D01*
X11302Y17466D02*
X11551Y17714D01*
X12064Y17374D02*
Y18006D01*
X11302Y17690D02*
X11551Y17441D01*
X11302Y17374D02*
Y18006D01*
X11551Y17374D02*
Y18006D01*
X11276D02*
X11669Y18398D01*
X11181Y18377D02*
X11552Y18006D01*
X10993D02*
X11551Y18563D01*
X10789Y18006D02*
X11302D01*
Y17973D02*
X11551Y17724D01*
X11267Y17147D02*
X11551Y17432D01*
X11302Y17748D02*
X11551Y17997D01*
X12024Y17340D02*
X12059Y17374D01*
X12024D02*
X12064D01*
X11551D02*
X11590D01*
X12024Y17135D02*
Y17374D01*
X11908Y16447D02*
X11955Y16494D01*
X11690Y16439D02*
X11726Y16475D01*
X11590Y17128D02*
Y17374D01*
X11632Y16512D02*
X11701Y16443D01*
X11302Y17407D02*
X11585Y17124D01*
X11267Y16865D02*
X11590Y17188D01*
X11267Y17160D02*
X11466Y16961D01*
X11267Y16877D02*
X11490Y16654D01*
X11267Y16594D02*
X11522Y16339D01*
X11267Y16582D02*
X11450Y16765D01*
X10898Y18377D02*
X11269Y18006D01*
X10813Y18179D02*
X10986Y18006D01*
X10670Y18036D02*
X10825Y18191D01*
X10554Y17849D02*
X11082Y18377D01*
X11269Y18006D02*
X11302Y17973D01*
X10671Y18038D02*
X10789Y17920D01*
Y17374D02*
Y18006D01*
X10554Y17873D02*
X10789Y17638D01*
X10554Y17566D02*
X10789Y17801D01*
X10554Y17590D02*
X10832Y17311D01*
X10514Y17244D02*
X10789Y17518D01*
X10554Y17374D02*
Y17976D01*
X10789Y17374D02*
X10832D01*
X11267D02*
X11302D01*
X10665Y16829D02*
X10832Y16996D01*
X10640Y16938D02*
X10832Y16746D01*
Y16477D02*
Y17374D01*
X11267Y16387D02*
Y17374D01*
X10637Y16658D02*
X10825Y16470D01*
X10514Y17374D02*
X10554D01*
X10586Y17032D02*
X10832Y17279D01*
X10080Y17100D02*
Y17374D01*
X10514Y17100D02*
Y17374D01*
Y17346D02*
X10832Y17028D01*
X10511Y16501D02*
X10608Y16404D01*
X9451Y20507D02*
X9498D01*
Y20314D02*
Y20507D01*
X9226Y20049D02*
X9485Y19790D01*
X9915Y19643D02*
X9951Y19607D01*
X9767D02*
X9790Y19630D01*
X9558Y19717D02*
X9668Y19607D01*
X9484D02*
X9578Y19702D01*
X9204Y20176D02*
X9498Y20470D01*
X9201Y19607D02*
X9445Y19852D01*
X9194Y19883D02*
X9401Y20090D01*
X9165Y19827D02*
X9385Y19607D01*
X9022Y19687D02*
X9102Y19607D01*
X8918D02*
X8973Y19662D01*
X9819Y19173D02*
X10041Y18951D01*
Y19029D02*
X10415D01*
X9536Y19173D02*
X10041Y18668D01*
X9981Y18407D02*
X10041Y18467D01*
X9415Y18407D02*
X10181Y19173D01*
X9698Y18407D02*
X10041Y18750D01*
X9132Y18407D02*
X9898Y19173D01*
X9254D02*
X10019Y18407D01*
X4312Y19607D02*
X11825D01*
X4310Y19173D02*
X11735D01*
X8796Y19630D02*
X8819Y19607D01*
X8971Y19173D02*
X9736Y18407D01*
X8284D02*
X9049Y19173D01*
X8567Y18407D02*
X9332Y19173D01*
X8122D02*
X8888Y18407D01*
X8211Y19933D02*
X8536Y19607D01*
X8635D02*
X8680Y19651D01*
X8163Y20263D02*
X8398Y20028D01*
X8352Y19607D02*
X8508Y19763D01*
X8069Y19607D02*
X8410Y19947D01*
X8107Y19753D02*
X8254Y19607D01*
X7616Y19679D02*
X7688Y19607D01*
X7931Y19647D02*
X7971Y19607D01*
X7504D02*
X7591Y19694D01*
X6938Y19607D02*
X7399Y20068D01*
X7221Y19607D02*
X7452Y19839D01*
X4316Y20434D02*
X5142Y19607D01*
X4315Y20152D02*
X4859Y19607D01*
X4313Y19870D02*
X4577Y19607D01*
X7787D02*
X7809Y19630D01*
X4801Y18884D02*
X5090Y19173D01*
X5229Y18464D02*
X5938Y19173D01*
X8001Y18407D02*
X8767Y19173D01*
X4946Y18746D02*
X5372Y19173D01*
X5087Y18605D02*
X5655Y19173D01*
X4552Y18918D02*
X4807Y19173D01*
X4309Y18918D02*
X4685D01*
X4309Y18958D02*
X4524Y19173D01*
X4309Y19026D02*
X4417Y18918D01*
X4445Y19173D02*
X4701Y18917D01*
X4307Y18484D02*
X4595D01*
X4309Y18918D02*
X4310Y19173D01*
X8849Y18407D02*
X9615Y19173D01*
X10041Y18407D02*
Y19029D01*
X7839Y19173D02*
X8605Y18407D01*
X8688Y19173D02*
X9454Y18407D01*
X9605Y17973D02*
X10041Y17537D01*
X9888Y17973D02*
X10041Y17820D01*
X8405Y19173D02*
X9171Y18407D01*
X9039Y17973D02*
X9997Y17015D01*
X7556Y19173D02*
X8322Y18407D01*
X7718D02*
X8484Y19173D01*
X7274D02*
X8039Y18407D01*
X7435D02*
X8201Y19173D01*
X5285Y18407D02*
X10041D01*
X5195Y17973D02*
X10041D01*
X7152Y18407D02*
X7918Y19173D01*
X9322Y17973D02*
X10080Y17215D01*
X10041Y17374D02*
X10080D01*
X10041D02*
Y17973D01*
X8875Y16453D02*
X10041Y17619D01*
X9071Y16366D02*
X10079Y17374D01*
X9717Y16447D02*
X9950Y16679D01*
X9977Y16423D02*
X10067Y16514D01*
X8191Y17973D02*
X9717Y16447D01*
X8756Y17973D02*
X9929Y16801D01*
X7342Y17973D02*
X8860Y16455D01*
X7743Y16452D02*
X9264Y17973D01*
X7908D02*
X9532Y16349D01*
X7991Y16417D02*
X9546Y17973D01*
X7059D02*
X8621Y16411D01*
X6304Y18407D02*
X7069Y19173D01*
X6425D02*
X7191Y18407D01*
X6021D02*
X6787Y19173D01*
X6142D02*
X6908Y18407D01*
X6869D02*
X7635Y19173D01*
X6991D02*
X7756Y18407D01*
X6587D02*
X7352Y19173D01*
X6708D02*
X7474Y18407D01*
X5294Y19173D02*
X6059Y18407D01*
X5455D02*
X6221Y19173D01*
X4728D02*
X5494Y18407D01*
X5011Y19173D02*
X5777Y18407D01*
X5738D02*
X6504Y19173D01*
X5859D02*
X6625Y18407D01*
X5577Y19173D02*
X6342Y18407D01*
X4838Y18854D02*
X5285Y18407D01*
X4306Y18390D02*
X4400Y18484D01*
X4595D02*
X5042Y18036D01*
X5928Y17973D02*
X7543Y16358D01*
X6211Y17973D02*
X7734Y16450D01*
X4302Y17537D02*
X4922Y18156D01*
X4301Y17253D02*
X5065Y18017D01*
X4305Y18105D02*
X4639Y18439D01*
X4304Y17821D02*
X4780Y18298D01*
X4298Y16685D02*
X5587Y17973D01*
X4297Y16400D02*
X5869Y17973D01*
X4300Y16969D02*
X5304Y17973D01*
X18070Y17710D02*
X20570Y15210D01*
X18016Y16633D02*
X19439Y15210D01*
X18070Y17428D02*
X20287Y15210D01*
X17964Y14794D02*
X20348Y17178D01*
X18016Y17199D02*
X20005Y15210D01*
X18016Y16916D02*
X19722Y15210D01*
X17166Y16259D02*
X17582Y16674D01*
X17226Y16036D02*
X17477Y16287D01*
X17035Y16483D02*
X17404Y16114D01*
X16503Y13616D02*
X20453Y17565D01*
X17225Y16010D02*
X18908Y14327D01*
X15226Y16029D02*
X17176Y14079D01*
X18076Y15725D02*
X19079Y14721D01*
X17882Y15636D02*
X18994Y14524D01*
X16996Y15673D02*
X17888Y14781D01*
X16752Y15634D02*
X17712Y14674D01*
X17149Y15803D02*
X18820Y14132D01*
X16201Y15902D02*
X17600Y14503D01*
X17708Y13665D02*
Y13719D01*
X16087Y15734D02*
X17459Y14362D01*
X15899Y15639D02*
X17317Y14220D01*
X15157Y15815D02*
X17034Y13937D01*
X15145Y13955D02*
X16820Y15630D01*
X15124Y13651D02*
X17412Y15939D01*
X15009Y15680D02*
X16893Y13796D01*
X14775Y15631D02*
X16752Y13655D01*
X15557Y17112D02*
X16441Y16228D01*
X16212Y16153D02*
X16738Y16680D01*
X15186Y16420D02*
X15422Y16183D01*
X16201Y16185D02*
X16402Y15984D01*
X16158Y15817D02*
X16398Y16057D01*
X15225Y16015D02*
X15408Y16198D01*
X14894Y16644D02*
X15407Y16130D01*
X14912Y14570D02*
X16039Y15698D01*
X15173Y16246D02*
X15266Y16339D01*
X15145Y14521D02*
X16456Y15832D01*
X15145Y14238D02*
X16597Y15690D01*
X14629Y14570D02*
X15703Y15644D01*
X15145Y13798D02*
Y14570D01*
X14912Y13798D02*
X15027Y13682D01*
X15124Y13616D02*
Y13682D01*
X14629Y13798D02*
X14744Y13682D01*
X14873D02*
X14988Y13798D01*
X14471Y14570D02*
X15145D01*
X14471Y13798D02*
X15145D01*
X14471D02*
Y14570D01*
X14627Y15496D02*
X16508Y13616D01*
X14493Y13682D02*
X15124D01*
X14590D02*
X14705Y13798D01*
X16713Y13616D02*
X17633Y14536D01*
X17066Y13077D02*
X17708Y13719D01*
X17622Y13633D02*
X20724Y10531D01*
X17481Y13491D02*
X20724Y10248D01*
X17789Y13470D02*
X20724Y10536D01*
X17339Y13350D02*
X18262Y12427D01*
X16220Y13616D02*
X20453Y17848D01*
X15937Y13616D02*
X17993Y15671D01*
X15372Y13616D02*
X17513Y15757D01*
X15937Y13616D02*
X17993Y15671D01*
X16421Y12403D02*
X17708Y13690D01*
X16708Y12406D02*
X17781Y13479D01*
X15654Y13616D02*
X17688Y15649D01*
X17198Y13208D02*
X17983Y12423D01*
X17854Y12422D02*
X18346Y12913D01*
X17056Y13067D02*
X17704Y12420D01*
X17281Y12414D02*
X18063Y13196D01*
X17568Y12418D02*
X18205Y13055D01*
X16995Y12410D02*
X17922Y13338D01*
X16856Y12985D02*
X17425Y12416D01*
X16339Y12402D02*
X18333Y12428D01*
X16288Y11614D02*
X18307D01*
X16573Y12984D02*
X17146Y12412D01*
X14919Y8637D02*
X17896Y11614D01*
X16812D02*
X19882Y8544D01*
X16529Y11614D02*
X19882Y8262D01*
X15136Y8571D02*
X18178Y11614D01*
X16291Y12984D02*
X16866Y12409D01*
X15572Y12402D02*
X16155Y12984D01*
X16008D02*
X16587Y12405D01*
X15855Y12402D02*
X16437Y12984D01*
X16137Y12402D02*
X16720Y12984D01*
X15442D02*
X16025Y12402D01*
X15725Y12984D02*
X16308Y12402D01*
X14486Y15355D02*
X16225Y13616D01*
X15145Y14413D02*
X15942Y13616D01*
X15145Y14130D02*
X15659Y13616D01*
X15145Y13847D02*
X15376Y13616D01*
X15124D02*
X16713D01*
X15124Y12984D02*
X16843D01*
X14493Y13589D02*
Y13682D01*
X15159Y12984D02*
X15742Y12402D01*
X15289D02*
X15872Y12984D01*
X15124Y12953D02*
Y12984D01*
X15006Y12402D02*
X15589Y12984D01*
X16363Y11496D02*
X16481Y11614D01*
X16369Y11219D02*
X16764Y11614D01*
X15398D02*
X15614Y11398D01*
X14723Y12402D02*
X15306Y12984D01*
X14908Y12953D02*
X15459Y12402D01*
X14503Y12737D02*
X14719Y12953D01*
X15124D01*
X14723Y12402D02*
X15306Y12984D01*
X14672Y12906D02*
X15176Y12402D01*
X14531Y12765D02*
X14893Y12402D01*
X14216Y16137D02*
X14571Y16492D01*
X14187Y16219D02*
X14400Y16006D01*
X14206Y15917D02*
X14265Y15859D01*
X13694Y15289D02*
X14401Y15995D01*
X13982Y14851D02*
X14764Y15633D01*
X14097Y15743D02*
X14123Y15717D01*
X13915Y15643D02*
X13982Y15576D01*
X12219Y16120D02*
X14477Y18378D01*
X12812Y17877D02*
X14448Y16241D01*
X13180Y16233D02*
X14331Y17383D01*
X13651Y15289D02*
X14398Y16036D01*
X12623Y13413D02*
X14841Y15631D01*
X13558Y15717D02*
X13840Y15435D01*
X14344Y15213D02*
X14988Y14570D01*
X14203Y15072D02*
X14705Y14570D01*
X14062Y14930D02*
X14471Y14521D01*
X13909Y14800D02*
X14471Y14238D01*
X14057Y13184D02*
X14397Y13523D01*
X13651Y14776D02*
X14471Y13955D01*
X13368Y14776D02*
X14493Y13651D01*
X13085Y14776D02*
X14367Y13494D01*
X12519Y14776D02*
X14084Y13211D01*
X12802Y14776D02*
X14226Y13352D01*
X12369Y14644D02*
X13906Y13106D01*
X13223Y15993D02*
X13428Y16197D01*
X13226Y16049D02*
X13485Y15790D01*
X12773Y16785D02*
X13411Y16147D01*
X13165Y15827D02*
X13699Y15293D01*
X13085Y15289D02*
X13534Y15737D01*
X12802Y15289D02*
X13421Y15908D01*
X13022Y15687D02*
X13420Y15289D01*
X12215Y16139D02*
X12709Y16633D01*
X12392Y16317D02*
X12455Y16254D01*
X12251Y16175D02*
X12398Y16028D01*
X12211Y15933D02*
X12855Y15289D01*
X12107Y15753D02*
X12572Y15289D01*
X13368D02*
X13719Y15640D01*
X12394Y15289D02*
X13694D01*
X12519D02*
X12863Y15633D01*
X12796Y15630D02*
X13138Y15289D01*
X12514Y13587D02*
X13703Y14776D01*
X12501D02*
X13801D01*
X12327Y13682D02*
X13420Y14776D01*
X11616Y15679D02*
X12147Y15148D01*
X11931Y15647D02*
X12305Y15273D01*
X11803Y14078D02*
X12195Y13686D01*
X14440Y12402D02*
X14992Y12953D01*
X14426Y12586D02*
X14611Y12402D01*
X14256Y12474D02*
X14328Y12402D01*
X13026D02*
X14471Y13847D01*
X13135Y11614D02*
X17666Y7083D01*
X12743Y12402D02*
X14471Y14130D01*
X14158Y12402D02*
X14221Y12465D01*
X12178Y12402D02*
X15523Y15747D01*
X11220Y12402D02*
X16339D01*
X12569Y13076D02*
X15416Y15923D01*
X12460Y12402D02*
X14471Y14413D01*
X11220Y11614D02*
X15715Y11614D01*
X12287Y11614D02*
X16328Y7573D01*
X12086Y14361D02*
X14045Y12402D01*
X13418Y11614D02*
X17949Y7083D01*
X13701Y11614D02*
X18232Y7083D01*
X12656Y8637D02*
X15633Y11614D01*
X14353Y8637D02*
X17330Y11614D01*
X13984D02*
X18572Y7026D01*
X14267Y11614D02*
X18855Y7026D01*
X12570Y11614D02*
X17154Y7029D01*
X12852Y11614D02*
X17383Y7083D01*
X11807Y8637D02*
X14784Y11614D01*
X12090Y8637D02*
X15067Y11614D01*
X11721Y11614D02*
X14698Y8637D01*
X11242D02*
X14219Y11614D01*
X12004Y11614D02*
X14981Y8637D01*
X11524Y8637D02*
X14501Y11614D01*
X11438Y11614D02*
X14415Y8637D01*
X12227Y14502D02*
X13793Y12936D01*
X12636Y13245D02*
X13479Y12402D01*
X10420Y12058D02*
X13138Y14776D01*
X11944Y14219D02*
X13762Y12402D01*
X11237Y13512D02*
X12348Y12402D01*
X11096Y13371D02*
X12065Y12402D01*
X9125Y12460D02*
X12472Y15807D01*
X9408Y12460D02*
X12623Y15675D01*
X8842Y12460D02*
X12399Y16017D01*
X9460Y12460D02*
X12213Y15214D01*
X9966Y12170D02*
X12572Y14776D01*
X10255Y12176D02*
X12855Y14776D01*
X9747Y12022D02*
X12501Y14776D01*
X12549Y13049D02*
X13196Y12402D01*
X12382Y12933D02*
X12914Y12402D01*
X11895D02*
X12474Y12981D01*
X12086Y12946D02*
X12631Y12402D01*
X13592D02*
X13828Y12638D01*
X13875Y12402D02*
X13973Y12500D01*
X13309Y12402D02*
X13780Y12872D01*
X8814Y7907D02*
X12522Y11614D01*
X11068Y8746D02*
X13936Y11614D01*
X11612Y12402D02*
X12137Y12927D01*
X11563Y10939D02*
X12239Y11614D01*
X9025Y7552D02*
X13087Y11614D01*
X7268Y5512D02*
X13370Y11614D01*
X8963Y7772D02*
X12804Y11614D01*
X17378Y11614D02*
X19882Y9110D01*
X17095Y11614D02*
X19882Y8827D01*
X17944Y11614D02*
X19882Y9676D01*
X17661Y11614D02*
X19882Y9393D01*
X16362Y11499D02*
X19882Y7979D01*
X16366Y11212D02*
X19882Y7696D01*
X16248Y11047D02*
X19882Y7413D01*
X15843Y7864D02*
X18950Y10971D01*
X15560Y8147D02*
X18667Y11254D01*
X15701Y8006D02*
X18808Y11113D01*
X15277Y8430D02*
X18384Y11537D01*
X15419Y8289D02*
X18526Y11396D01*
X14832Y11614D02*
X19433Y7013D01*
X15115Y11614D02*
X19882Y6847D01*
X14549Y11614D02*
X19137Y7026D01*
X17325Y7083D02*
X19882Y9641D01*
X17890Y7083D02*
X19882Y9075D01*
X16494Y7384D02*
X19516Y10406D01*
X17607Y7083D02*
X19882Y9358D01*
X17694Y4624D02*
X18733Y5663D01*
X17977Y4624D02*
X19016Y5663D01*
X17154Y7083D02*
X18376D01*
X17154Y5547D02*
X18376D01*
X16049Y10963D02*
X19882Y7130D01*
X16372Y7545D02*
X19374Y10547D01*
X15984Y7723D02*
X19091Y10830D01*
X16163Y7619D02*
X19233Y10689D01*
X15264Y5588D02*
X19798Y10123D01*
X15432Y5473D02*
X19882Y9923D01*
X16482Y7089D02*
X19657Y10264D01*
X16473Y7428D02*
X17154Y6746D01*
X15134Y8574D02*
X16093Y7614D01*
X14636Y8637D02*
X17613Y11614D01*
X14890Y8203D02*
X15786Y7307D01*
X14567Y8203D02*
X17154Y5615D01*
X14284Y8203D02*
X17862Y4624D01*
X14850Y8203D02*
X15782Y7271D01*
X16376Y6959D02*
X17154Y6181D01*
X16171Y6882D02*
X17154Y5898D01*
X16496Y7122D02*
X17154Y6464D01*
X17223Y5547D02*
X18145Y4624D01*
X17411D02*
X18333Y5547D01*
X17154D02*
Y7083D01*
Y5615D02*
X17223Y5547D01*
X14962Y5569D02*
X16311Y6918D01*
X15521Y5280D02*
X17154Y6913D01*
X18071Y5547D02*
X19804Y3814D01*
X17506Y5547D02*
X19238Y3814D01*
X17789Y5547D02*
X19521Y3814D01*
X17781Y2165D02*
X19001Y3386D01*
X16468Y4246D02*
X17768Y5547D01*
X17133Y4624D02*
X18397D01*
X16016Y4360D02*
X17202Y5547D01*
X16303Y4365D02*
X17485Y5547D01*
X16552Y4048D02*
X18051Y5547D01*
X16553Y3954D02*
X17133Y3374D01*
X16724Y3372D02*
X17133Y3781D01*
X17462Y3045D02*
X18341Y2165D01*
X17133Y3045D02*
X18397D01*
X17179D02*
X18059Y2165D01*
X17215D02*
X18095Y3045D01*
X18063Y2165D02*
X19001Y3103D01*
X18027Y3045D02*
X18907Y2165D01*
X17498D02*
X18377Y3045D01*
X17745D02*
X18624Y2165D01*
X16825Y3116D02*
X17776Y2165D01*
X16932D02*
X17812Y3045D01*
X17133Y3091D02*
X17179Y3045D01*
X16762Y2897D02*
X17493Y2165D01*
X16366D02*
X17246Y3045D01*
X16649Y2165D02*
X17529Y3045D01*
X16613Y2763D02*
X17210Y2165D01*
X16552Y3482D02*
X17133Y4064D01*
X16226Y3439D02*
X17133Y4346D01*
X16469Y3755D02*
X17133Y3091D01*
Y3045D02*
Y4624D01*
X16020Y3638D02*
X16222Y3436D01*
X15476Y5031D02*
X16119Y4387D01*
X15337Y4886D02*
X15920Y4304D01*
X15110Y4831D02*
X15801Y4140D01*
X15523Y5267D02*
X17133Y3656D01*
X14386Y2165D02*
X15919Y3698D01*
X16818Y3183D02*
X17133Y3498D01*
X16305Y3636D02*
X16441Y3500D01*
X16084Y2165D02*
X17133Y3215D01*
X16366Y2726D02*
X16927Y2165D01*
X15518D02*
X16173Y2821D01*
X15801Y2165D02*
X16362Y2727D01*
X14669Y2165D02*
X16117Y3613D01*
X14952Y2165D02*
X16107Y3320D01*
X15235Y2165D02*
X16063Y2993D01*
X12373Y8637D02*
X15350Y11614D01*
X12939Y8637D02*
X15613Y11312D01*
X11561Y10925D02*
X13850Y8637D01*
X11474Y10730D02*
X13567Y8637D01*
X14070D02*
X17047Y11614D01*
X13787Y8637D02*
X16133Y10983D01*
X13222Y8637D02*
X15694Y11110D01*
X13504Y8637D02*
X15856Y10988D01*
X11068Y8746D02*
X13936Y11614D01*
X11193Y8637D02*
X14980D01*
X10820Y8781D02*
X13653Y11614D01*
X11308Y10613D02*
X13284Y8637D01*
X11188Y11582D02*
X14132Y8637D01*
X11193Y8203D02*
X14890D01*
X11013Y10626D02*
X13001Y8637D01*
X13044Y7611D02*
X13636Y8203D01*
X12952Y6953D02*
X14201Y8203D01*
X12966Y7816D02*
X13353Y8203D01*
X12999Y5586D02*
X15253Y7840D01*
X13027Y7480D02*
X14946Y5561D01*
X12952Y6670D02*
X14484Y8203D01*
X12952Y6387D02*
X14767Y8203D01*
X12952Y7236D02*
X13919Y8203D01*
X12952Y6104D02*
X14970Y8123D01*
X12803Y7936D02*
X13070Y8203D01*
X12587D02*
X15182Y5607D01*
X12952Y5822D02*
X15111Y7981D01*
X12952Y7272D02*
X14802Y5422D01*
X12304Y8203D02*
X12565Y7942D01*
X12497Y7913D02*
X12787Y8203D01*
X11738D02*
X12309Y7632D01*
X12021Y8203D02*
X12395Y7829D01*
X10706Y8103D02*
X12399Y6411D01*
X11020Y8073D02*
X12399Y6693D01*
X11455Y8203D02*
X12399Y7259D01*
X11184Y8191D02*
X12399Y6976D01*
X10481Y10875D02*
X12718Y8637D01*
X10339Y10733D02*
X12435Y8637D01*
X10198Y10592D02*
X12152Y8637D01*
X8881Y9646D02*
X12111Y6416D01*
X9934Y5632D02*
X12504Y8203D01*
X10216Y5632D02*
X12352Y7768D01*
X9651Y5632D02*
X12222Y8203D01*
X12952Y5611D02*
Y7346D01*
X12364Y6366D02*
X12399Y6401D01*
Y6342D02*
Y7346D01*
Y5611D02*
Y5718D01*
X12952Y5611D02*
X12999D01*
X12298Y5663D02*
X12350Y5611D01*
X12175D02*
X12206Y5642D01*
X12135Y6419D02*
X12399Y6683D01*
X10499Y5632D02*
X12329Y7462D01*
X11462Y5611D02*
X12399D01*
X12003Y5675D02*
X12067Y5611D01*
X14001Y8203D02*
X17580Y4624D01*
X12999Y4737D02*
X15677Y7416D01*
X12999Y5303D02*
X15394Y7699D01*
X12999Y5020D02*
X15536Y7557D01*
X13435Y8203D02*
X17133Y4505D01*
X13718Y8203D02*
X17297Y4624D01*
X13152Y8203D02*
X17133Y4222D01*
X12999Y4454D02*
X15781Y7237D01*
X12870Y8203D02*
X17133Y3939D01*
X12952Y6424D02*
X16088Y3287D01*
X12269Y3442D02*
X15855Y7028D01*
X12952Y6707D02*
X15803Y3855D01*
X12689Y2165D02*
X17154Y6630D01*
X12972Y2165D02*
X17154Y6348D01*
X12394Y3284D02*
X16016Y6906D01*
X13255Y2165D02*
X17154Y6065D01*
X13538Y2165D02*
X17154Y5782D01*
X12999Y4397D02*
X15230Y2165D01*
X13821D02*
X15805Y4150D01*
X12999Y5528D02*
X16362Y2165D01*
X12999Y5245D02*
X16079Y2165D01*
X12999Y4963D02*
X15796Y2165D01*
X14104D02*
X15800Y3862D01*
X12952Y6141D02*
X16051Y3041D01*
X12999Y4680D02*
X15513Y2165D01*
X12124Y2165D02*
X14882Y4924D01*
X12407Y2165D02*
X15076Y4835D01*
X12952Y5858D02*
X16644Y2165D01*
X7677Y2165D02*
X19882Y2165D01*
X12724Y4389D02*
X14947Y2165D01*
X12952Y6990D02*
X14746Y5195D01*
X12933Y4389D02*
X12999Y4454D01*
Y4389D02*
Y5611D01*
X12382Y4389D02*
X12999D01*
X12408Y3015D02*
X14786Y5393D01*
X12441Y4389D02*
X14664Y2165D01*
X12436Y4174D02*
X12650Y4389D01*
X12463Y3918D02*
X12933Y4389D01*
X10540Y5390D02*
X12399Y7249D01*
X10540Y5107D02*
X12399Y6966D01*
X12382Y4254D02*
Y4389D01*
X11841Y2165D02*
X14767Y5092D01*
X10199Y4368D02*
X12402Y2165D01*
X9916Y4368D02*
X12119Y2165D01*
X12373Y3326D02*
X13533Y2165D01*
X12406Y3009D02*
X13250Y2165D01*
X12294Y2838D02*
X12967Y2165D01*
X12104Y2746D02*
X12685Y2165D01*
X12467Y4079D02*
X14382Y2165D01*
X12430Y3834D02*
X14099Y2165D01*
X12290Y3691D02*
X13816Y2165D01*
X12063Y3519D02*
X12197Y3653D01*
X12054Y3645D02*
X12231Y3467D01*
X11558Y2165D02*
X12150Y2757D01*
X11216Y16249D02*
X11546Y16578D01*
X11256Y16322D02*
X11415Y16162D01*
X11219Y15969D02*
X11417Y16166D01*
X11225Y16070D02*
X11448Y15847D01*
X10222Y16103D02*
X10832Y16713D01*
X10215Y15949D02*
X11582Y14582D01*
X8474Y17973D02*
X10398Y16048D01*
X10296Y16433D02*
X10463Y16266D01*
X7998Y12465D02*
X11426Y15893D01*
X9179Y15853D02*
X11016Y14016D01*
X8219Y15965D02*
X10592Y13592D01*
X11172Y15840D02*
X12006Y15006D01*
X11035Y15695D02*
X11864Y14865D01*
X10117Y15764D02*
X11440Y14441D01*
X10817Y15630D02*
X11723Y14724D01*
X11661Y13936D02*
X11999Y13599D01*
X11379Y13654D02*
X11896Y13136D01*
X9946Y15652D02*
X11299Y14299D01*
X11520Y13795D02*
X11883Y13432D01*
X9047Y15703D02*
X10874Y13875D01*
X9654Y15661D02*
X11157Y14158D01*
X8127Y15774D02*
X10450Y13451D01*
X8836Y15630D02*
X10733Y13734D01*
X8277Y12460D02*
X11544Y15728D01*
X7815Y12564D02*
X10887Y15637D01*
X7961Y15657D02*
X10309Y13309D01*
X8224Y16085D02*
X10041Y17902D01*
X10137Y16301D02*
X10271Y16434D01*
X8146Y16289D02*
X9829Y17973D01*
X9193Y16205D02*
X9984Y16996D01*
X9223Y16092D02*
X9429Y15886D01*
X9214Y15943D02*
X9409Y16138D01*
X6777Y17973D02*
X8471Y16278D01*
X7625Y17973D02*
X9420Y16178D01*
X6494Y17973D02*
X8399Y16068D01*
X6850Y14428D02*
X8403Y15981D01*
X6850Y13297D02*
X9432Y15879D01*
X6448Y15157D02*
X7404Y16113D01*
X6850Y14145D02*
X8489Y15784D01*
X6850Y13863D02*
X8650Y15663D01*
X6850Y14994D02*
X7567Y15710D01*
X6850Y14711D02*
X7771Y15632D01*
X6850Y13014D02*
X9555Y15719D01*
X7686Y15649D02*
X10167Y13168D01*
X6850Y13580D02*
X8913Y15642D01*
X6850Y13656D02*
X8046Y12460D01*
X6850Y13374D02*
X7660Y12564D01*
X6850Y13091D02*
X7477Y12465D01*
X6731Y15157D02*
X7439Y15865D01*
X6850Y12756D02*
Y15157D01*
Y15071D02*
X9460Y12461D01*
X6850Y14505D02*
X8895Y12460D01*
X6850Y13939D02*
X8329Y12460D01*
X10954Y13229D02*
X11782Y12402D01*
X11329D02*
X11963Y13036D01*
X10813Y13088D02*
X11499Y12402D01*
X10672Y12947D02*
X11218Y12400D01*
X10505Y11860D02*
X11868Y13223D01*
X10477Y11658D02*
X11220Y12402D01*
X10530Y12805D02*
X11077Y12258D01*
X10389Y12664D02*
X10936Y12117D01*
X8559Y12460D02*
X11736Y15637D01*
X10247Y12522D02*
X10794Y11975D01*
X10106Y12381D02*
X10653Y11834D01*
X9408Y11947D02*
X10087Y11268D01*
X11374Y11315D02*
X11673Y11614D01*
X11514Y11173D02*
X11956Y11614D01*
X11145Y11369D02*
X11390Y11614D01*
X11046Y11440D02*
X11121Y11366D01*
X10764Y11157D02*
X10809Y11112D01*
X10622Y11016D02*
X10821Y10817D01*
X10207Y11431D02*
X10229Y11410D01*
X9252Y9646D02*
X11220Y11614D01*
X9055Y10236D02*
X10271Y11452D01*
X8881Y10236D02*
X10069Y11424D01*
X8002Y12460D02*
X9460D01*
X9964Y12239D02*
X10016Y12188D01*
X6850Y14222D02*
X8612Y12460D01*
X6850Y12808D02*
X7377Y12281D01*
X9669Y11969D02*
X9738Y11900D01*
X6289Y12170D02*
X9753Y15634D01*
X6850Y14788D02*
X9178Y12460D01*
X6196Y12360D02*
X6592Y12756D01*
X6619D02*
X9097Y10278D01*
X6337Y12756D02*
X8856Y10236D01*
X6256Y12271D02*
X8291Y10236D01*
X6273Y11971D02*
X8008Y10236D01*
X8842Y11947D02*
X9804Y10985D01*
X9125Y11947D02*
X9946Y11127D01*
X8277Y11947D02*
X9521Y10703D01*
X8559Y11947D02*
X9663Y10844D01*
X8032Y10236D02*
X9759Y11963D01*
X8598Y10236D02*
X9871Y11509D01*
X8315Y10236D02*
X9753Y11674D01*
X7750Y10236D02*
X9461Y11947D01*
X8002D02*
X9566D01*
X7998Y11943D02*
X9380Y10561D01*
X7815Y11843D02*
X9239Y10420D01*
X7184Y10236D02*
X8895Y11947D01*
X7467Y10236D02*
X9178Y11947D01*
X6901Y10236D02*
X8612Y11947D01*
X5883Y15157D02*
X8698Y17973D01*
X6165Y15157D02*
X8981Y17973D01*
X5362D02*
X7418Y15917D01*
X5645Y17973D02*
X7426Y16192D01*
X4569Y18484D02*
X10026Y13026D01*
X5600Y15157D02*
X8415Y17973D01*
X4751Y15157D02*
X7567Y17973D01*
X5317Y15157D02*
X8132Y17973D01*
X4293Y15548D02*
X6718Y17973D01*
X4292Y15264D02*
X7001Y17973D01*
X4296Y16116D02*
X6152Y17973D01*
X4294Y15832D02*
X6435Y17973D01*
X4307Y18463D02*
X9884Y12885D01*
X4305Y18181D02*
X9743Y12744D01*
X4468Y15157D02*
X7284Y17973D01*
X5034Y15157D02*
X7849Y17973D01*
X4303Y17618D02*
X6764Y15157D01*
X4301Y17337D02*
X6481Y15157D01*
X4298Y16492D02*
X5632Y15157D01*
X4304Y17900D02*
X9602Y12602D01*
X6025Y12471D02*
X6309Y12756D01*
X4300Y17055D02*
X6198Y15157D01*
X4299Y16774D02*
X5915Y15157D01*
X4296Y16211D02*
X5349Y15157D01*
X4295Y15929D02*
X5066Y15157D01*
X4294Y15647D02*
X4784Y15157D01*
X4292Y15366D02*
X4501Y15157D01*
X4291D02*
X6850D01*
X4291Y12756D02*
X6850D01*
X4139Y12565D02*
X4329Y12756D01*
X4291Y15157D02*
X4307Y18484D01*
X3142Y13549D02*
X3176Y13583D01*
X2681D02*
X2730Y13534D01*
X2904Y13575D02*
X3002D01*
X3268Y13469D02*
Y13583D01*
X2559Y13531D02*
X2611Y13583D01*
X2559D02*
X3268D01*
X2559Y13363D02*
Y13583D01*
Y13422D02*
X2581Y13401D01*
X2559Y12576D02*
Y13015D01*
X3268Y12756D02*
X3538D01*
X3943D02*
X4291D01*
X3268D02*
Y12909D01*
X3184Y12742D02*
X3268Y12825D01*
X4009Y12719D02*
X4047Y12756D01*
X3149Y12832D02*
X3368Y12613D01*
X3330Y12605D02*
X3481Y12756D01*
X2904Y12803D02*
X3002D01*
X2559Y12857D02*
X2691Y12724D01*
X2904Y12788D02*
X3002D01*
X2559Y12683D02*
X2724Y12847D01*
X5706Y12435D02*
X6027Y12756D01*
X5771D02*
X6076Y12450D01*
X5488Y12756D02*
X5776Y12468D01*
X4640Y12756D02*
X7159Y10236D01*
X6054Y12756D02*
X8573Y10236D01*
X4357Y12756D02*
X6890Y10223D01*
X4288Y9886D02*
X10401Y15999D01*
X4074Y12756D02*
X6890Y9940D01*
X4281Y11293D02*
X5744Y12756D01*
X4174Y12373D02*
X6890Y9657D01*
X4290Y9605D02*
X10481Y15796D01*
X4291Y9324D02*
X10636Y15669D01*
X4293Y9042D02*
X7377Y12126D01*
X6158Y11803D02*
X7725Y10236D01*
X4298Y8199D02*
X8046Y11947D01*
X4299Y7917D02*
X8329Y11947D01*
X4296Y8480D02*
X7660Y11843D01*
X5964Y11714D02*
X7442Y10236D01*
X4277Y11987D02*
X6890Y9374D01*
X4278Y11703D02*
X6890Y9092D01*
X4285Y10449D02*
X5646Y11809D01*
X4287Y10168D02*
X5835Y11716D01*
X4295Y8761D02*
X7477Y11943D01*
X4280Y11419D02*
X6890Y8809D01*
X4281Y11134D02*
X6890Y8526D01*
X4922Y12756D02*
X5520Y12159D01*
X5205Y12756D02*
X5608Y12353D01*
X4164Y12307D02*
X4612Y12756D01*
X4279Y11574D02*
X5461Y12756D01*
X4282Y11012D02*
X5570Y12300D01*
X4147Y12008D02*
X4895Y12756D01*
X4278Y11855D02*
X5178Y12756D01*
X2559Y12008D02*
Y12227D01*
X4096Y12168D02*
X4256Y12008D01*
X3691Y12016D02*
X3789D01*
X3299Y12008D02*
X3419Y12128D01*
X4277Y12008D02*
X4331Y2165D01*
X4284Y10730D02*
X5534Y11981D01*
X3937Y12045D02*
X3973Y12008D01*
X3104Y12029D02*
X3125Y12008D01*
X2559Y12117D02*
X2602Y12160D01*
X2904Y12016D02*
X3002D01*
X3281Y12135D02*
X3408Y12008D01*
X2559D02*
X4277Y12008D01*
X2733Y12008D02*
X2766Y12041D01*
X9632Y10026D02*
X10870Y8788D01*
X10057Y10450D02*
X11870Y8637D01*
X9915Y10309D02*
X11587Y8637D01*
X9774Y10167D02*
X11304Y8637D01*
X9491Y9885D02*
X10666Y8709D01*
X9010Y8668D02*
X10983Y10641D01*
X8935Y8311D02*
X11217Y10592D01*
X8717Y8941D02*
X10787Y11011D01*
X8903Y8844D02*
X10840Y10781D01*
X8316Y9646D02*
X11799Y6163D01*
X8598Y9646D02*
X11915Y6329D01*
X9164Y9646D02*
X10579Y8231D01*
X9368Y5632D02*
X11939Y8203D01*
X11892Y5611D02*
X11972Y5691D01*
X9085Y5632D02*
X11656Y8203D01*
X10540Y4824D02*
X11777Y6061D01*
X11609Y5611D02*
X11830Y5831D01*
X10540Y4541D02*
X11462Y5463D01*
X10540Y5442D02*
X11462Y4519D01*
X9010Y8668D02*
X11811Y5868D01*
X8992Y8403D02*
X11785Y5611D01*
X8867Y8246D02*
X11502Y5611D01*
X8659Y8171D02*
X11462Y5368D01*
X9024Y7523D02*
X11462Y5085D01*
X8943Y7321D02*
X11462Y4802D01*
X7677Y5356D02*
X10569Y8248D01*
X9349Y9743D02*
X10548Y8544D01*
X8782Y7199D02*
X10349Y5632D01*
X8033Y9646D02*
X8744Y8935D01*
X7750Y9646D02*
X8478Y8917D01*
X8569Y7944D02*
X8885Y8260D01*
X8960Y5632D02*
X10540D01*
X8875Y4560D02*
X8960Y4475D01*
X8800Y4781D02*
X8960Y4942D01*
X8875Y4573D02*
X8960Y4659D01*
X8507Y7192D02*
X10066Y5632D01*
X7677Y6890D02*
X8960Y5607D01*
X8378Y4925D02*
X8960Y5507D01*
X8643Y4907D02*
X8960Y5225D01*
X11829Y4254D02*
Y4389D01*
X11462D02*
X11829D01*
X10540Y4368D02*
Y5632D01*
X11462Y4389D02*
Y5611D01*
X10540Y4876D02*
X11915Y3501D01*
X11592Y4389D02*
X11786Y4195D01*
X10540Y5159D02*
X11740Y3958D01*
X10540Y4593D02*
X11744Y3389D01*
X9578Y2165D02*
X11802Y4389D01*
X9634Y4368D02*
X11836Y2165D01*
X9295D02*
X11519Y4389D01*
X10482Y4368D02*
X11651Y3198D01*
X8730Y2165D02*
X11462Y4898D01*
X9012Y2165D02*
X11462Y4615D01*
X8447Y2165D02*
X11462Y5181D01*
X10992Y2165D02*
X11723Y2896D01*
X11275Y2165D02*
X11881Y2772D01*
X10144Y2165D02*
X11793Y3814D01*
X10427Y2165D02*
X11941Y3680D01*
X9861Y2165D02*
X11738Y4042D01*
X10710Y2165D02*
X11646Y3102D01*
X9068Y4368D02*
X11270Y2165D01*
X9351Y4368D02*
X11553Y2165D01*
X8857Y2859D02*
X10366Y4368D01*
X8960D02*
X10540D01*
X8814Y4339D02*
X10988Y2165D01*
X8666Y4204D02*
X10705Y2165D01*
X8422Y4165D02*
X10422Y2165D01*
X8848Y3697D02*
X9518Y4368D01*
X8875Y3443D02*
X9801Y4368D01*
X8960D02*
Y5632D01*
X8718Y3850D02*
X9235Y4368D01*
X8761Y3045D02*
X10084Y4368D01*
X8873Y3432D02*
X10139Y2165D01*
X8769Y3252D02*
X9856Y2165D01*
X8504Y3920D02*
X8960Y4376D01*
X8832Y2623D02*
X9290Y2165D01*
X8850Y2889D02*
X9573Y2165D01*
X8707Y2466D02*
X9008Y2165D01*
X8499Y2391D02*
X8725Y2165D01*
X8244Y3094D02*
X8328Y3178D01*
X7677Y2527D02*
X8161Y3011D01*
X7677Y2930D02*
X8442Y2165D01*
X8164D02*
X8397Y2398D01*
X7881Y2165D02*
X8210Y2494D01*
X7677Y8750D02*
X8573Y9646D01*
X7677D02*
X9252D01*
X7677Y9032D02*
X8290Y9646D01*
X7677Y9435D02*
X8321Y8791D01*
X7677Y8467D02*
X8856Y9646D01*
X7677Y8184D02*
X9139Y9646D01*
X7677Y9153D02*
X8246Y8584D01*
X7677Y8304D02*
X8274Y7707D01*
X6890Y10236D02*
X9055D01*
X7677Y8870D02*
X8599Y7948D01*
X7677Y8587D02*
X8396Y7868D01*
X7677Y7901D02*
X8254Y8478D01*
X7551Y5512D02*
X10534Y8496D01*
X7677Y5356D02*
X10569Y8248D01*
X7677Y7618D02*
X8351Y8293D01*
X7677Y7335D02*
X8527Y8185D01*
X7677Y6770D02*
X8289Y7381D01*
X7677Y8021D02*
X8267Y7431D01*
X7677Y7053D02*
X8251Y7627D01*
X7677Y5073D02*
X10707Y8103D01*
X7677Y4790D02*
X10941Y8054D01*
X7677Y7738D02*
X9783Y5632D01*
X7677Y7456D02*
X9501Y5632D01*
X7677Y7173D02*
X9218Y5632D01*
X7677Y6607D02*
X8960Y5324D01*
X6985Y5512D02*
X8643Y7170D01*
X7505Y6496D02*
X8960Y5041D01*
X6940Y6496D02*
X8496Y4940D01*
X7222Y6496D02*
X8960Y4758D01*
X7677Y5476D02*
X8275Y4878D01*
X7677Y9598D02*
X7725Y9646D01*
X7677Y9315D02*
X8007Y9646D01*
X4301Y7636D02*
X6890Y10225D01*
X4302Y7355D02*
X6890Y9942D01*
Y6496D02*
Y10236D01*
X7677Y6496D02*
Y9646D01*
X4304Y7073D02*
X6890Y9659D01*
X4305Y6792D02*
X6890Y9376D01*
X4286Y10281D02*
X6890Y7677D01*
X4288Y9997D02*
X6890Y7394D01*
X4283Y10850D02*
X6890Y8243D01*
X4285Y10565D02*
X6890Y7960D01*
X4291Y9428D02*
X6890Y6829D01*
X4292Y9143D02*
X6890Y6546D01*
X4289Y9712D02*
X6890Y7112D01*
X4308Y6229D02*
X6890Y8811D01*
Y6496D02*
X7677D01*
X4310Y5948D02*
X6890Y8528D01*
X4311Y5667D02*
X6890Y8245D01*
X4313Y5386D02*
X6890Y7962D01*
Y5512D02*
X7677D01*
X4315Y5104D02*
X6890Y7679D01*
X4316Y4823D02*
X6890Y7397D01*
X4294Y8859D02*
X7641Y5512D01*
X4296Y8574D02*
X7358Y5512D01*
X4307Y6511D02*
X6890Y9094D01*
X4297Y8290D02*
X7075Y5512D01*
X4300Y7721D02*
X6890Y5132D01*
X4302Y7437D02*
X6890Y4849D01*
X4299Y8006D02*
X6890Y5415D01*
X7677Y4507D02*
X11373Y8203D01*
X7677Y5193D02*
X8140Y4730D01*
X4319Y4260D02*
X6890Y6831D01*
X7677Y4910D02*
X8101Y4487D01*
X4325Y3135D02*
X8423Y7233D01*
X7677Y2165D02*
Y5512D01*
X4322Y3698D02*
X7121Y6496D01*
X4324Y3416D02*
X7403Y6496D01*
X4305Y6868D02*
X6890Y4283D01*
X4308Y6299D02*
X6890Y3718D01*
X4303Y7152D02*
X6890Y4566D01*
X4318Y4542D02*
X6890Y7114D01*
X4311Y5730D02*
X6890Y3152D01*
X4313Y5446D02*
X6890Y2869D01*
X4310Y6015D02*
X6890Y3435D01*
X7677Y3779D02*
X8319Y3137D01*
X7677Y2810D02*
X8175Y3308D01*
X7677Y3093D02*
X8105Y3521D01*
X7677Y3496D02*
X8161Y3011D01*
X7677Y2244D02*
X8102Y2669D01*
X7677Y2647D02*
X8159Y2165D01*
X7677Y3213D02*
X8086Y2804D01*
X7677Y2364D02*
X7876Y2165D01*
X7677Y4627D02*
X8397Y3907D01*
X7677Y4344D02*
X8218Y3804D01*
X7677Y4224D02*
X8110Y4657D01*
X7677Y3941D02*
X8128Y4393D01*
X7677Y3658D02*
X8254Y4236D01*
X7677Y3376D02*
X8462Y4161D01*
X7677Y4061D02*
X8116Y3622D01*
X4330Y2291D02*
X6890Y4851D01*
X4487Y2165D02*
X6890Y4568D01*
X4327Y2854D02*
X6890Y5417D01*
X4328Y2573D02*
X6890Y5134D01*
Y2165D02*
Y5512D01*
X5053Y2165D02*
X6890Y4002D01*
X4487Y2165D02*
X6890Y4568D01*
X4770Y2165D02*
X6890Y4285D01*
X4314Y5162D02*
X6890Y2586D01*
X4316Y4877D02*
X6890Y2303D01*
X4306Y6584D02*
X6890Y4000D01*
X4321Y3979D02*
X6890Y6548D01*
X4317Y4593D02*
X6745Y2165D01*
X4319Y4308D02*
X6462Y2165D01*
X4321Y4024D02*
X6179Y2165D01*
X5901D02*
X6890Y3154D01*
X6184Y2165D02*
X6890Y2871D01*
X5336Y2165D02*
X6890Y3720D01*
X5618Y2165D02*
X6890Y3437D01*
X6467Y2165D02*
X6890Y2588D01*
X6750Y2165D02*
X6890Y2305D01*
X6299Y2165D02*
X6890D01*
X4322Y3740D02*
X5896Y2165D01*
X4324Y3455D02*
X5613Y2165D01*
X4325Y3171D02*
X5331Y2165D01*
X4327Y2886D02*
X5048Y2165D01*
X4328Y2602D02*
X4765Y2165D01*
X4331D02*
X6299D01*
X4330Y2318D02*
X4482Y2165D01*
D58*
X12578Y21785D02*
D03*
D59*
X15178Y22685D02*
D03*
Y20885D02*
D03*
D60*
X32214Y22428D02*
X32905D01*
X33595D01*
X32905D02*
Y23119D01*
Y21738D02*
Y22428D01*
X37008Y18239D02*
Y18929D01*
Y19620D01*
X36317Y18929D02*
X37008D01*
X32905Y20768D02*
Y21458D01*
Y20768D02*
X33595D01*
X32214D02*
X32905D01*
Y20077D02*
Y20768D01*
X35008Y18929D02*
Y19620D01*
Y18929D02*
X35698D01*
X34317D02*
X35008D01*
Y18239D02*
Y18929D01*
X30985Y24640D02*
X31335D01*
X31685D01*
X31335D02*
Y24990D01*
Y24290D02*
Y24640D01*
X28012Y20686D02*
X28362D01*
X37008Y16929D02*
Y17620D01*
Y16239D02*
Y16929D01*
X36317D02*
X37008D01*
X35008D02*
Y17620D01*
Y16929D02*
X35698D01*
X35008Y16239D02*
Y16929D01*
X34317D02*
X35008D01*
X36485Y13200D02*
Y13595D01*
Y13200D02*
X36881D01*
X36485Y12805D02*
Y13200D01*
X36090D02*
X36485D01*
X35485D02*
X35881D01*
X35485D02*
Y13595D01*
X35090Y13200D02*
X35485D01*
Y12805D02*
Y13200D01*
X33433Y14650D02*
X33828D01*
X33433D02*
Y15045D01*
X33038Y14650D02*
X33433D01*
Y14254D02*
Y14650D01*
X24265Y24366D02*
X24615D01*
X23915D02*
X24265D01*
Y24016D02*
Y24366D01*
Y24716D01*
X28012Y20686D02*
Y21036D01*
X27662Y20686D02*
X28012D01*
Y20336D02*
Y20686D01*
X19184Y22019D02*
Y22611D01*
Y22019D02*
X19933D01*
X19184Y21426D02*
Y22019D01*
X18434D02*
X19184D01*
X27645Y18380D02*
Y18730D01*
Y18380D02*
X27995D01*
X27295D02*
X27645D01*
Y18030D02*
Y18380D01*
X22638Y17126D02*
X23033D01*
X22638Y16339D02*
X23033D01*
X22638Y16780D02*
Y17126D01*
X21850Y16780D02*
Y17126D01*
Y16339D02*
Y16685D01*
X22638Y15993D02*
Y16339D01*
Y16685D01*
X21850Y15993D02*
Y16339D01*
Y15551D02*
Y15897D01*
X22638Y15551D02*
Y15897D01*
Y15551D02*
X23033D01*
X21455Y17126D02*
X21850D01*
X21455Y16339D02*
X21850D01*
X21455Y15551D02*
X21850D01*
X36481Y4174D02*
X36877D01*
X36481D02*
Y4570D01*
X36086Y4174D02*
X36481D01*
Y3779D02*
Y4174D01*
X35485Y4200D02*
X35881D01*
X35485D02*
Y4595D01*
X35090Y4200D02*
X35485D01*
Y3805D02*
Y4200D01*
X34485D02*
Y4595D01*
Y4200D02*
X34881D01*
X34485Y3805D02*
Y4200D01*
X18850Y6000D02*
X19147D01*
X18850D02*
Y6297D01*
X18553Y6000D02*
X18850D01*
Y5703D02*
Y6000D01*
X17346Y23070D02*
Y23367D01*
Y23070D02*
X17692D01*
X17346Y22773D02*
Y23070D01*
X17000D02*
X17346D01*
X17812Y20044D02*
X18207D01*
X17812D02*
Y20439D01*
X17417Y20044D02*
X17812D01*
X12812D02*
Y20439D01*
Y20044D02*
X13207D01*
X12417D02*
X12812D01*
Y19648D02*
Y20044D01*
X17813Y18694D02*
Y18990D01*
Y18694D02*
X18051D01*
X15335D02*
Y18990D01*
Y18694D02*
X15573D01*
X15335Y18397D02*
Y18694D01*
X12555Y18714D02*
X12793D01*
X12555D02*
Y19010D01*
Y18417D02*
Y18714D01*
X10682Y20823D02*
X11028D01*
X10682D02*
Y21120D01*
X10336Y20823D02*
X10682D01*
Y20526D02*
Y20823D01*
X5920Y22700D02*
X6669D01*
X5920D02*
Y23292D01*
Y22108D02*
Y22700D01*
X5170D02*
X5920D01*
X5950Y21200D02*
Y21792D01*
Y21200D02*
X6700D01*
X5950Y20608D02*
Y21200D01*
X5200D02*
X5950D01*
X10812Y20044D02*
X11207D01*
X11045Y18714D02*
X11283D01*
X10812Y20044D02*
Y20439D01*
X10417Y20044D02*
X10812D01*
Y19648D02*
Y20044D01*
X11045Y18714D02*
Y19010D01*
Y18417D02*
Y18714D01*
X14808Y14184D02*
X15105D01*
X14808D02*
Y14530D01*
Y13838D02*
Y14184D01*
X14511D02*
X14808D01*
X12250Y13300D02*
X12600D01*
X12250D02*
Y13650D01*
X11900Y13300D02*
X12250D01*
Y12950D02*
Y13300D01*
X16002Y11350D02*
X16352D01*
X15652D02*
X16002D01*
Y11000D02*
Y11350D01*
X15135Y5220D02*
Y5570D01*
Y5220D02*
X15485D01*
X15135Y4870D02*
Y5220D01*
X14785D02*
X15135D01*
X17765Y3835D02*
X18357D01*
X17765D02*
Y4584D01*
X17173Y3835D02*
X17765D01*
Y3085D02*
Y3835D01*
X16165Y4000D02*
X16515D01*
X16165D02*
Y4350D01*
Y3650D02*
Y4000D01*
X15815D02*
X16165D01*
X16435Y3110D02*
X16785D01*
X16435D02*
Y3460D01*
Y2760D02*
Y3110D01*
X16085D02*
X16435D01*
X12165Y6030D02*
Y6380D01*
Y5680D02*
Y6030D01*
X11815D02*
X12165D01*
X12035Y3130D02*
X12385D01*
X12035Y2780D02*
Y3130D01*
X10118Y11811D02*
Y12161D01*
Y11461D02*
Y11811D01*
X11175Y10980D02*
Y11330D01*
X10118Y11811D02*
X10468D01*
X9768D02*
X10118D01*
X2953Y13189D02*
Y13535D01*
Y12843D02*
Y13189D01*
X5905Y12100D02*
Y12450D01*
Y12100D02*
X6255D01*
X5905Y11750D02*
Y12100D01*
X5555D02*
X5905D01*
X3740Y12055D02*
Y12402D01*
X4135D01*
X2953D02*
Y12748D01*
Y12055D02*
Y12402D01*
X10825Y10980D02*
X11175D01*
X11525D01*
X11175Y10630D02*
Y10980D01*
X8635Y8560D02*
X8985D01*
X8635D02*
Y8910D01*
Y8210D02*
Y8560D01*
Y7560D02*
X8985D01*
X8635D02*
Y7910D01*
Y7210D02*
Y7560D01*
X8285Y8560D02*
X8635D01*
X8285Y7560D02*
X8635D01*
X9750Y5000D02*
X10500D01*
X9750D02*
Y5592D01*
X9000Y5000D02*
X9750D01*
Y4408D02*
Y5000D01*
X8135Y4550D02*
X8485D01*
X8835D01*
X8485D02*
Y4900D01*
X12035Y3130D02*
Y3480D01*
X11685Y3130D02*
X12035D01*
X8485Y4200D02*
Y4550D01*
X8495Y3530D02*
X8845D01*
X8145D02*
X8495D01*
Y3880D01*
X8475Y2430D02*
Y2780D01*
X8825D01*
X8125D02*
X8475D01*
D61*
X15233Y22247D02*
X15509Y21970D01*
X16655D01*
X16703Y22019D01*
X15233Y22247D02*
Y22666D01*
X15213Y22685D02*
X15233Y22666D01*
X15178Y22685D02*
X15213D01*
D62*
X36469Y3187D02*
X37165Y3884D01*
X31985Y11630D02*
X37165Y6450D01*
Y3884D02*
Y6450D01*
X31985Y11630D02*
Y12700D01*
X31485Y13200D02*
X31985Y12700D01*
X26485Y13200D02*
X26977Y12708D01*
Y12012D02*
Y12708D01*
Y12012D02*
X33977Y5012D01*
Y3708D02*
Y5012D01*
Y3708D02*
X34485Y3200D01*
X36469Y3187D02*
X36481Y3174D01*
M02*
