G04*
G04 #@! TF.GenerationSoftware,Altium Limited,Altium Designer,19.1.6 (110)*
G04*
G04 Layer_Color=16711935*
%FSLAX23Y23*%
%MOIN*%
G70*
G01*
G75*
%ADD14R,0.065X0.055*%
%ADD15R,0.114X0.146*%
%ADD17R,0.055X0.065*%
%ADD18R,0.142X0.075*%
%ADD19R,0.055X0.055*%
%ADD20C,0.142*%
%ADD21C,0.075*%
%ADD22R,0.075X0.075*%
%ADD23R,0.075X0.075*%
%ADD24R,0.087X0.193*%
%ADD25R,0.193X0.087*%
%ADD26O,0.065X0.075*%
%ADD27O,0.075X0.065*%
%ADD28C,0.134*%
%ADD29O,0.116X0.114*%
%ADD30C,0.066*%
%ADD71R,0.102X0.102*%
%ADD72R,0.075X0.142*%
%ADD73R,0.055X0.055*%
%ADD74R,0.146X0.114*%
%ADD75R,0.031X0.043*%
%ADD76R,0.043X0.055*%
%ADD77R,0.055X0.075*%
%ADD78O,0.114X0.043*%
%ADD79R,0.114X0.043*%
%ADD80R,0.240X0.232*%
%ADD81R,0.100X0.067*%
D14*
X2858Y1924D02*
D03*
X2771D02*
D03*
X3149Y2103D02*
D03*
X3062D02*
D03*
X1679Y1462D02*
D03*
X1592D02*
D03*
X1447Y1029D02*
D03*
X1360D02*
D03*
X1335Y964D02*
D03*
X1422D02*
D03*
X1389Y886D02*
D03*
X1476D02*
D03*
X792Y2886D02*
D03*
X705D02*
D03*
X1126Y1538D02*
D03*
X1039D02*
D03*
X1715Y2515D02*
D03*
X1628D02*
D03*
D15*
X765Y881D02*
D03*
Y633D02*
D03*
X1147Y688D02*
D03*
Y936D02*
D03*
X1335Y1411D02*
D03*
Y1163D02*
D03*
X480Y676D02*
D03*
Y428D02*
D03*
D17*
X3265Y1912D02*
D03*
Y1999D02*
D03*
X1027Y983D02*
D03*
Y896D02*
D03*
X925Y848D02*
D03*
Y761D02*
D03*
X1027Y723D02*
D03*
Y636D02*
D03*
X1265Y745D02*
D03*
Y831D02*
D03*
X1475Y595D02*
D03*
Y681D02*
D03*
X924Y2612D02*
D03*
Y2525D02*
D03*
D18*
X527Y866D02*
D03*
D19*
X617Y1126D02*
D03*
X527D02*
D03*
X437D02*
D03*
D20*
X1280Y2420D02*
D03*
X130Y2930D02*
D03*
Y130D02*
D03*
X580Y1580D02*
D03*
X1980D02*
D03*
X3630Y2930D02*
D03*
X3622Y126D02*
D03*
D21*
X3023Y1773D02*
D03*
X3223Y1673D02*
D03*
X2723D02*
D03*
X2620Y2724D02*
D03*
X2441Y1969D02*
D03*
X470Y108D02*
D03*
X847Y2977D02*
D03*
X861Y1812D02*
D03*
X761D02*
D03*
X1161D02*
D03*
X961D02*
D03*
X1061D02*
D03*
X761Y2212D02*
D03*
X861D02*
D03*
X961D02*
D03*
X1061D02*
D03*
X1461Y1812D02*
D03*
X1261D02*
D03*
X1361D02*
D03*
X1561D02*
D03*
X1661D02*
D03*
X1761D02*
D03*
X1361Y2212D02*
D03*
X1161D02*
D03*
X1261D02*
D03*
X1661D02*
D03*
X1761D02*
D03*
X1461D02*
D03*
X1561D02*
D03*
X3628Y525D02*
D03*
Y625D02*
D03*
X3529Y528D02*
D03*
Y628D02*
D03*
X3429Y528D02*
D03*
Y628D02*
D03*
X3329Y528D02*
D03*
Y628D02*
D03*
X3229Y528D02*
D03*
Y628D02*
D03*
X3129Y528D02*
D03*
Y628D02*
D03*
X3029Y528D02*
D03*
Y628D02*
D03*
X2929Y528D02*
D03*
Y628D02*
D03*
X2829Y528D02*
D03*
Y628D02*
D03*
X2729Y528D02*
D03*
Y628D02*
D03*
X2629Y528D02*
D03*
Y628D02*
D03*
X2529Y528D02*
D03*
Y628D02*
D03*
X2429Y528D02*
D03*
Y628D02*
D03*
X3629Y1428D02*
D03*
Y1528D02*
D03*
X3529Y1428D02*
D03*
Y1528D02*
D03*
X3429Y1428D02*
D03*
Y1528D02*
D03*
X3329Y1428D02*
D03*
Y1528D02*
D03*
X3229Y1428D02*
D03*
Y1528D02*
D03*
X3129Y1428D02*
D03*
Y1528D02*
D03*
X3029Y1428D02*
D03*
Y1528D02*
D03*
X2929Y1428D02*
D03*
Y1528D02*
D03*
X2829Y1428D02*
D03*
Y1528D02*
D03*
X2729Y1428D02*
D03*
Y1528D02*
D03*
X2629Y1428D02*
D03*
Y1528D02*
D03*
X2529Y1428D02*
D03*
Y1528D02*
D03*
X2429Y1428D02*
D03*
Y1528D02*
D03*
D22*
X2520Y2724D02*
D03*
X570Y108D02*
D03*
X947Y2977D02*
D03*
D23*
X2441Y2069D02*
D03*
D24*
X3700Y2618D02*
D03*
X3464D02*
D03*
D25*
X3562Y2429D02*
D03*
D26*
X1063Y2708D02*
D03*
X1141D02*
D03*
X1220D02*
D03*
X1299D02*
D03*
X1378D02*
D03*
X1456D02*
D03*
X1535D02*
D03*
X1614D02*
D03*
X1693D02*
D03*
X1771D02*
D03*
X1850D02*
D03*
X1929D02*
D03*
X2008D02*
D03*
X2086D02*
D03*
X2165D02*
D03*
X2244D02*
D03*
Y2629D02*
D03*
X2165D02*
D03*
X2086D02*
D03*
X2008D02*
D03*
X1929D02*
D03*
X1850D02*
D03*
X1771D02*
D03*
X1693D02*
D03*
X1614D02*
D03*
X1535D02*
D03*
X1456D02*
D03*
X1378D02*
D03*
X1299D02*
D03*
X1220D02*
D03*
X1141D02*
D03*
X1063D02*
D03*
X630Y346D02*
D03*
X708D02*
D03*
X787D02*
D03*
X866D02*
D03*
X945D02*
D03*
X1023D02*
D03*
X1102D02*
D03*
X1181D02*
D03*
X1260D02*
D03*
X1338D02*
D03*
X1417D02*
D03*
X1496D02*
D03*
X1574D02*
D03*
X1653D02*
D03*
X1732D02*
D03*
X1811D02*
D03*
Y267D02*
D03*
X1732D02*
D03*
X1653D02*
D03*
X1574D02*
D03*
X1496D02*
D03*
X1417D02*
D03*
X1338D02*
D03*
X1260D02*
D03*
X1181D02*
D03*
X1102D02*
D03*
X1023D02*
D03*
X945D02*
D03*
X866D02*
D03*
X787D02*
D03*
X708D02*
D03*
X630D02*
D03*
D27*
X2165Y346D02*
D03*
X2244D02*
D03*
X2165Y425D02*
D03*
X2244D02*
D03*
X2165Y503D02*
D03*
X2244D02*
D03*
X2165Y582D02*
D03*
X2244D02*
D03*
X2165Y661D02*
D03*
X2244D02*
D03*
X2165Y739D02*
D03*
X2244D02*
D03*
X2165Y818D02*
D03*
X2244D02*
D03*
Y897D02*
D03*
Y976D02*
D03*
Y1054D02*
D03*
Y1133D02*
D03*
Y1212D02*
D03*
Y1291D02*
D03*
Y1369D02*
D03*
Y1448D02*
D03*
Y1527D02*
D03*
Y1606D02*
D03*
Y1684D02*
D03*
Y1763D02*
D03*
Y1842D02*
D03*
Y1921D02*
D03*
Y1999D02*
D03*
Y2078D02*
D03*
Y2157D02*
D03*
Y2236D02*
D03*
Y2314D02*
D03*
Y2393D02*
D03*
X2165D02*
D03*
Y2314D02*
D03*
Y2236D02*
D03*
Y2157D02*
D03*
Y2078D02*
D03*
Y1999D02*
D03*
Y1921D02*
D03*
Y1842D02*
D03*
Y1763D02*
D03*
Y1684D02*
D03*
Y1606D02*
D03*
Y1527D02*
D03*
Y1448D02*
D03*
Y1369D02*
D03*
Y1291D02*
D03*
Y1212D02*
D03*
Y1133D02*
D03*
Y1054D02*
D03*
Y976D02*
D03*
Y897D02*
D03*
X275Y346D02*
D03*
X354D02*
D03*
X275Y425D02*
D03*
X354D02*
D03*
X275Y503D02*
D03*
X354D02*
D03*
X275Y582D02*
D03*
X354D02*
D03*
X275Y661D02*
D03*
X354D02*
D03*
X275Y739D02*
D03*
X354D02*
D03*
X275Y818D02*
D03*
X354D02*
D03*
Y897D02*
D03*
Y976D02*
D03*
Y1054D02*
D03*
Y1133D02*
D03*
Y1212D02*
D03*
Y1291D02*
D03*
Y1369D02*
D03*
Y1448D02*
D03*
Y1527D02*
D03*
Y1606D02*
D03*
Y1684D02*
D03*
Y1763D02*
D03*
Y1842D02*
D03*
Y1921D02*
D03*
Y1999D02*
D03*
Y2078D02*
D03*
Y2157D02*
D03*
Y2236D02*
D03*
Y2314D02*
D03*
Y2393D02*
D03*
X275D02*
D03*
Y2314D02*
D03*
Y2236D02*
D03*
Y2157D02*
D03*
Y2078D02*
D03*
Y1999D02*
D03*
Y1921D02*
D03*
Y1842D02*
D03*
Y1763D02*
D03*
Y1684D02*
D03*
Y1606D02*
D03*
Y1527D02*
D03*
Y1448D02*
D03*
Y1369D02*
D03*
Y1291D02*
D03*
Y1212D02*
D03*
Y1133D02*
D03*
Y1054D02*
D03*
Y976D02*
D03*
Y897D02*
D03*
D28*
X3484Y2170D02*
D03*
Y1970D02*
D03*
X3684Y2170D02*
D03*
Y1970D02*
D03*
D29*
X3584Y2070D02*
D03*
D30*
X655Y2628D02*
D03*
X653Y2768D02*
D03*
X3201Y1945D02*
D03*
X570Y708D02*
D03*
X1765Y1427D02*
D03*
X1974Y1358D02*
D03*
X1460Y1218D02*
D03*
X1819Y1627D02*
D03*
X2860Y1868D02*
D03*
X2420Y2398D02*
D03*
X470Y1228D02*
D03*
X1630Y2108D02*
D03*
X1580Y2048D02*
D03*
X1120Y2028D02*
D03*
X1300Y2078D02*
D03*
X890Y1428D02*
D03*
X2902Y2267D02*
D03*
X1867Y2516D02*
D03*
X2337Y1856D02*
D03*
X2362Y2222D02*
D03*
X1000Y1436D02*
D03*
X925Y924D02*
D03*
X1273Y536D02*
D03*
X1274Y1040D02*
D03*
X1331Y682D02*
D03*
X1694Y559D02*
D03*
X1678Y1037D02*
D03*
Y1137D02*
D03*
X1693Y736D02*
D03*
X1692Y634D02*
D03*
X1452Y1123D02*
D03*
X1686Y1918D02*
D03*
X1440Y1914D02*
D03*
X1162Y1913D02*
D03*
X1009Y1912D02*
D03*
X2407Y2645D02*
D03*
X1316Y1611D02*
D03*
X1338Y594D02*
D03*
X1529Y1462D02*
D03*
X2892Y2582D02*
D03*
X3114Y2672D02*
D03*
X1028Y803D02*
D03*
X1325Y884D02*
D03*
X925Y681D02*
D03*
X898Y592D02*
D03*
X1964Y2159D02*
D03*
X1962Y2026D02*
D03*
D71*
X3266Y2396D02*
D03*
Y2163D02*
D03*
X2904Y2396D02*
D03*
Y2163D02*
D03*
D72*
X2772Y2427D02*
D03*
D73*
X2512Y2517D02*
D03*
Y2337D02*
D03*
Y2427D02*
D03*
D74*
X2767Y2216D02*
D03*
X2519D02*
D03*
X2878Y2027D02*
D03*
X2630D02*
D03*
X1679Y1616D02*
D03*
X1431D02*
D03*
X774Y472D02*
D03*
X1022D02*
D03*
X531Y2623D02*
D03*
X779D02*
D03*
X528Y2773D02*
D03*
X776D02*
D03*
X1898Y2410D02*
D03*
X1650D02*
D03*
D75*
X3130Y1991D02*
D03*
X3155D02*
D03*
X3104Y1881D02*
D03*
X3155D02*
D03*
X3130D02*
D03*
X3078Y1991D02*
D03*
X3104D02*
D03*
X3078Y1881D02*
D03*
D76*
X1895Y1290D02*
D03*
Y1392D02*
D03*
X1820Y1290D02*
D03*
X1857Y1392D02*
D03*
X1820D02*
D03*
X1000Y1257D02*
D03*
Y1360D02*
D03*
X925D02*
D03*
X962D02*
D03*
X925Y1257D02*
D03*
X1010Y1977D02*
D03*
X1047Y2079D02*
D03*
X1010D02*
D03*
X1085D02*
D03*
Y1977D02*
D03*
X1236Y2079D02*
D03*
Y1977D02*
D03*
X1198Y2079D02*
D03*
X1161Y1977D02*
D03*
Y2079D02*
D03*
X1514Y2077D02*
D03*
Y1975D02*
D03*
X1476Y2077D02*
D03*
X1439Y1975D02*
D03*
Y2077D02*
D03*
X1761D02*
D03*
Y1975D02*
D03*
X1724Y2077D02*
D03*
X1687Y1975D02*
D03*
Y2077D02*
D03*
D77*
X1076Y1419D02*
D03*
X1126D02*
D03*
X1176D02*
D03*
X1226D02*
D03*
X1076Y1182D02*
D03*
X1126D02*
D03*
X1176D02*
D03*
X1226D02*
D03*
D78*
X1562Y536D02*
D03*
Y586D02*
D03*
Y636D02*
D03*
Y686D02*
D03*
Y736D02*
D03*
Y786D02*
D03*
Y836D02*
D03*
Y886D02*
D03*
Y936D02*
D03*
Y986D02*
D03*
Y1036D02*
D03*
Y1086D02*
D03*
Y1136D02*
D03*
Y1186D02*
D03*
X1981Y536D02*
D03*
Y586D02*
D03*
Y636D02*
D03*
Y686D02*
D03*
Y736D02*
D03*
Y786D02*
D03*
Y836D02*
D03*
Y886D02*
D03*
Y936D02*
D03*
Y986D02*
D03*
Y1036D02*
D03*
Y1086D02*
D03*
Y1136D02*
D03*
D79*
Y1186D02*
D03*
D80*
X563Y2433D02*
D03*
D81*
X823Y2523D02*
D03*
Y2343D02*
D03*
M02*
