G04*
G04 #@! TF.GenerationSoftware,Altium Limited,Altium Designer,19.1.6 (110)*
G04*
G04 Layer_Physical_Order=1*
G04 Layer_Color=255*
%FSLAX23Y23*%
%MOIN*%
G70*
G01*
G75*
%ADD31C,0.010*%
%ADD32R,0.049X0.039*%
%ADD33R,0.098X0.130*%
%ADD34R,0.039X0.028*%
%ADD35R,0.039X0.049*%
%ADD36R,0.126X0.059*%
%ADD37R,0.039X0.039*%
%ADD38C,0.020*%
%ADD39C,0.010*%
%ADD40C,0.028*%
%ADD41C,0.035*%
%ADD42C,0.031*%
%ADD43C,0.039*%
%ADD44C,0.024*%
%ADD45C,0.126*%
%ADD46C,0.059*%
%ADD47R,0.059X0.059*%
%ADD48R,0.059X0.059*%
%ADD49R,0.071X0.177*%
%ADD50R,0.177X0.071*%
%ADD51O,0.049X0.059*%
%ADD52O,0.059X0.049*%
%ADD53C,0.118*%
%ADD54O,0.100X0.098*%
%ADD55C,0.050*%
D31*
X3153Y2672D02*
G03*
X3153Y2672I-40J0D01*
G01*
X3054Y2524D02*
G03*
X3063Y2545I-22J22D01*
G01*
X3054Y2524D02*
G03*
X3063Y2545I-22J22D01*
G01*
X2915Y2614D02*
G03*
X2919Y2553I-23J-32D01*
G01*
X2842Y2550D02*
G03*
X2820Y2559I-22J-22D01*
G01*
X2842Y2550D02*
G03*
X2820Y2559I-22J-22D01*
G01*
X2940Y2496D02*
G03*
X2931Y2474I22J-22D01*
G01*
X2940Y2496D02*
G03*
X2931Y2474I22J-22D01*
G01*
X2902Y2476D02*
G03*
X2893Y2498I-31J0D01*
G01*
X2902Y2476D02*
G03*
X2893Y2498I-31J0D01*
G01*
X3741Y2218D02*
G03*
X3610Y2168I-57J-48D01*
G01*
X3558Y2170D02*
G03*
X3410Y2168I-74J0D01*
G01*
X3211Y2095D02*
G03*
X3193Y2087I0J-25D01*
G01*
X3211Y2095D02*
G03*
X3193Y2087I0J-25D01*
G01*
X3610Y1968D02*
G03*
X3741Y1923I74J2D01*
G01*
X3410Y1968D02*
G03*
X3558Y1968I74J2D01*
G01*
X3150Y1984D02*
G03*
X3167Y1992I0J25D01*
G01*
X3241Y1945D02*
G03*
X3241Y1945I-40J0D01*
G01*
X3150Y1984D02*
G03*
X3167Y1992I0J25D01*
G01*
X3268Y1673D02*
G03*
X3268Y1673I-44J0D01*
G01*
X2942Y2267D02*
G03*
X2942Y2267I-40J0D01*
G01*
X3068Y1773D02*
G03*
X3068Y1773I-44J0D01*
G01*
X2900Y1868D02*
G03*
X2900Y1868I-40J0D01*
G01*
X2809Y1844D02*
G03*
X2818Y1865I-22J22D01*
G01*
X2809Y1844D02*
G03*
X2818Y1865I-22J22D01*
G01*
X2664Y2724D02*
G03*
X2617Y2680I-44J0D01*
G01*
X2691Y2681D02*
G03*
X2682Y2702I-31J0D01*
G01*
X2664Y2720D02*
G03*
X2664Y2724I-44J5D01*
G01*
X2691Y2681D02*
G03*
X2682Y2702I-31J0D01*
G01*
X2446Y2645D02*
G03*
X2371Y2663I-40J0D01*
G01*
Y2626D02*
G03*
X2446Y2645I35J18D01*
G01*
X2460Y2398D02*
G03*
X2390Y2425I-40J0D01*
G01*
X2439Y2363D02*
G03*
X2460Y2398I-19J35D01*
G01*
X2390Y2465D02*
G03*
X2382Y2485I-29J0D01*
G01*
X2390Y2465D02*
G03*
X2382Y2485I-29J0D01*
G01*
X2390Y2371D02*
G03*
X2436Y2361I30J27D01*
G01*
X2760Y2145D02*
G03*
X2743Y2153I-17J-17D01*
G01*
X2760Y2145D02*
G03*
X2743Y2153I-17J-17D01*
G01*
X2768Y1673D02*
G03*
X2754Y1705I-44J0D01*
G01*
X2693Y1641D02*
G03*
X2768Y1673I31J32D01*
G01*
X2702Y1823D02*
G03*
X2693Y1801I22J-22D01*
G01*
X2620Y1915D02*
G03*
X2637Y1907I17J17D01*
G01*
X2620Y1915D02*
G03*
X2637Y1907I17J17D01*
G01*
X2702Y1823D02*
G03*
X2693Y1801I22J-22D01*
G01*
Y1705D02*
G03*
X2690Y1702I31J-32D01*
G01*
X2589Y1956D02*
G03*
X2596Y1938I25J0D01*
G01*
X2589Y1956D02*
G03*
X2596Y1938I25J0D01*
G01*
X2402Y2222D02*
G03*
X2390Y2250I-40J0D01*
G01*
X2359Y2182D02*
G03*
X2402Y2222I3J40D01*
G01*
X2499Y2153D02*
G03*
X2482Y2145I0J-25D01*
G01*
X2499Y2153D02*
G03*
X2482Y2145I0J-25D01*
G01*
X2557Y1914D02*
G03*
X2565Y1931I-17J17D01*
G01*
X2557Y1914D02*
G03*
X2565Y1931I-17J17D01*
G01*
X2507Y1873D02*
G03*
X2524Y1881I0J25D01*
G01*
X2507Y1873D02*
G03*
X2524Y1881I0J25D01*
G01*
X2369D02*
G03*
X2386Y1873I17J17D01*
G01*
X2369Y1881D02*
G03*
X2386Y1873I17J17D01*
G01*
X2375Y1866D02*
G03*
X2366Y1883I-38J-10D01*
G01*
X3673Y1528D02*
G03*
X3673Y1528I-44J0D01*
G01*
X3452Y1614D02*
G03*
X3435Y1622I-17J-17D01*
G01*
X3452Y1614D02*
G03*
X3435Y1622I-17J-17D01*
G01*
X3573Y1528D02*
G03*
X3501Y1563I-44J0D01*
G01*
X3425Y1572D02*
G03*
X3453Y1491I3J-44D01*
G01*
X3373Y1528D02*
G03*
X3373Y1528I-44J0D01*
G01*
X3501Y1563D02*
G03*
X3495Y1571I-23J-9D01*
G01*
X3503Y1492D02*
G03*
X3573Y1528I26J36D01*
G01*
X3501Y1563D02*
G03*
X3495Y1571I-23J-9D01*
G01*
X3673Y1428D02*
G03*
X3673Y1428I-44J0D01*
G01*
X3453Y1479D02*
G03*
X3461Y1461I25J0D01*
G01*
X3573Y1428D02*
G03*
X3520Y1471I-44J0D01*
G01*
X3485Y1437D02*
G03*
X3573Y1428I43J-9D01*
G01*
X3453Y1479D02*
G03*
X3461Y1461I25J0D01*
G01*
X3473Y1428D02*
G03*
X3473Y1428I-44J0D01*
G01*
X3373D02*
G03*
X3373Y1428I-44J0D01*
G01*
X3273Y1528D02*
G03*
X3273Y1528I-44J0D01*
G01*
X3173D02*
G03*
X3085Y1519I-44J0D01*
G01*
X3120Y1485D02*
G03*
X3173Y1528I9J43D01*
G01*
X3273Y1428D02*
G03*
X3273Y1428I-44J0D01*
G01*
X3173D02*
G03*
X3104Y1465I-44J0D01*
G01*
Y1391D02*
G03*
X3173Y1428I25J37D01*
G01*
X3673Y625D02*
G03*
X3673Y625I-44J0D01*
G01*
X3573Y628D02*
G03*
X3573Y628I-44J0D01*
G01*
X3473D02*
G03*
X3473Y628I-44J0D01*
G01*
X3672Y525D02*
G03*
X3602Y561I-44J0D01*
G01*
X3558D02*
G03*
X3501Y562I-29J-33D01*
G01*
X3599Y492D02*
G03*
X3672Y525I29J33D01*
G01*
X3501Y494D02*
G03*
X3555Y492I28J34D01*
G01*
X3456Y562D02*
G03*
X3384Y533I-28J-34D01*
G01*
X3372Y520D02*
G03*
X3373Y528I-44J8D01*
G01*
X3433Y484D02*
G03*
X3456Y494I-5J44D01*
G01*
X3373Y628D02*
G03*
X3373Y628I-44J0D01*
G01*
X3273D02*
G03*
X3273Y628I-44J0D01*
G01*
X3173D02*
G03*
X3104Y665I-44J0D01*
G01*
Y591D02*
G03*
X3173Y628I25J37D01*
G01*
X3273Y528D02*
G03*
X3273Y528I-44J0D01*
G01*
X3173D02*
G03*
X3120Y571I-44J0D01*
G01*
X3133Y484D02*
G03*
X3173Y528I-5J44D01*
G01*
X3373D02*
G03*
X3336Y484I-44J0D01*
G01*
X3344Y409D02*
G03*
X3368Y419I0J34D01*
G01*
X3344Y409D02*
G03*
X3368Y419I0J34D01*
G01*
X3062Y1496D02*
G03*
X3055Y1479I17J-17D01*
G01*
X3062Y1496D02*
G03*
X3055Y1479I17J-17D01*
G01*
X3073Y1528D02*
G03*
X3073Y1528I-44J0D01*
G01*
X2973D02*
G03*
X2973Y1528I-44J0D01*
G01*
X2873D02*
G03*
X2873Y1528I-44J0D01*
G01*
X3055Y1464D02*
G03*
X3055Y1392I-26J-36D01*
G01*
X2973Y1428D02*
G03*
X2973Y1428I-44J0D01*
G01*
X2873D02*
G03*
X2873Y1428I-44J0D01*
G01*
X2773Y1528D02*
G03*
X2773Y1528I-44J0D01*
G01*
X2704Y1477D02*
G03*
X2697Y1495I-25J0D01*
G01*
X2704Y1477D02*
G03*
X2697Y1495I-25J0D01*
G01*
X2672Y1519D02*
G03*
X2673Y1528I-43J9D01*
G01*
D02*
G03*
X2637Y1485I-44J0D01*
G01*
X2597Y1580D02*
G03*
X2614Y1572I17J17D01*
G01*
X2597Y1580D02*
G03*
X2614Y1572I17J17D01*
G01*
X2573Y1528D02*
G03*
X2573Y1528I-44J0D01*
G01*
X2473D02*
G03*
X2473Y1528I-44J0D01*
G01*
X2773Y1428D02*
G03*
X2704Y1465I-44J0D01*
G01*
Y1391D02*
G03*
X2773Y1428I25J37D01*
G01*
X2655Y1344D02*
G03*
X2662Y1327I25J0D01*
G01*
X2655Y1344D02*
G03*
X2662Y1327I25J0D01*
G01*
X2655Y1464D02*
G03*
X2655Y1392I-26J-36D01*
G01*
X2573Y1428D02*
G03*
X2573Y1428I-44J0D01*
G01*
X2473D02*
G03*
X2473Y1428I-44J0D01*
G01*
X3055Y577D02*
G03*
X3062Y560I25J0D01*
G01*
X3055Y577D02*
G03*
X3062Y560I25J0D01*
G01*
X3055Y664D02*
G03*
X3055Y592I-26J-36D01*
G01*
X2973Y628D02*
G03*
X2973Y628I-44J0D01*
G01*
X2873D02*
G03*
X2873Y628I-44J0D01*
G01*
X3085Y537D02*
G03*
X3084Y533I43J-9D01*
G01*
X3072Y520D02*
G03*
X3073Y528I-44J8D01*
G01*
D02*
G03*
X3036Y484I-44J0D01*
G01*
X2973Y528D02*
G03*
X2973Y528I-44J0D01*
G01*
X2873D02*
G03*
X2873Y528I-44J0D01*
G01*
X2773Y628D02*
G03*
X2773Y628I-44J0D01*
G01*
X2673D02*
G03*
X2673Y628I-44J0D01*
G01*
X2573D02*
G03*
X2573Y628I-44J0D01*
G01*
X2473D02*
G03*
X2473Y628I-44J0D01*
G01*
X2773Y528D02*
G03*
X2685Y520I-44J0D01*
G01*
X2721Y484D02*
G03*
X2773Y528I8J44D01*
G01*
X2673Y533D02*
G03*
X2624Y484I-44J-5D01*
G01*
X2573Y528D02*
G03*
X2573Y528I-44J0D01*
G01*
X2473D02*
G03*
X2473Y528I-44J0D01*
G01*
X2689Y419D02*
G03*
X2714Y409I24J24D01*
G01*
X2689Y419D02*
G03*
X2714Y409I24J24D01*
G01*
X1907Y2516D02*
G03*
X1907Y2516I-40J0D01*
G01*
X1822Y2306D02*
G03*
X1813Y2286I20J-20D01*
G01*
X1822Y2306D02*
G03*
X1813Y2286I20J-20D01*
G01*
X1806Y2212D02*
G03*
X1806Y2212I-44J0D01*
G01*
X1706D02*
G03*
X1706Y2212I-44J0D01*
G01*
X1670Y2108D02*
G03*
X1599Y2083I-40J0D01*
G01*
X1611Y2073D02*
G03*
X1670Y2108I19J35D01*
G01*
X1620Y2048D02*
G03*
X1611Y2073I-40J0D01*
G01*
X1506Y2212D02*
G03*
X1506Y2212I-44J0D01*
G01*
X1406D02*
G03*
X1406Y2212I-44J0D01*
G01*
X1606D02*
G03*
X1606Y2212I-44J0D01*
G01*
X1599Y2083D02*
G03*
X1620Y2048I-19J-35D01*
G01*
X1306Y2212D02*
G03*
X1306Y2212I-44J0D01*
G01*
X1340Y2078D02*
G03*
X1340Y2078I-40J0D01*
G01*
X2305Y1954D02*
G03*
X2313Y1937I25J0D01*
G01*
X2305Y1954D02*
G03*
X2313Y1937I25J0D01*
G01*
X2364Y1885D02*
G03*
X2301Y1874I-27J-29D01*
G01*
X1791Y1889D02*
G03*
X1811Y1898I0J29D01*
G01*
X1791Y1889D02*
G03*
X1811Y1898I0J29D01*
G01*
X2302Y1837D02*
G03*
X2344Y1817I35J19D01*
G01*
X1714Y1947D02*
G03*
X1658Y1947I-28J-29D01*
G01*
Y1889D02*
G03*
X1714Y1889I28J29D01*
G01*
X1806Y1812D02*
G03*
X1806Y1812I-44J0D01*
G01*
X1706D02*
G03*
X1706Y1812I-44J0D01*
G01*
X1747Y1719D02*
G03*
X1739Y1699I20J-20D01*
G01*
X1747Y1719D02*
G03*
X1739Y1699I20J-20D01*
G01*
X2065Y1398D02*
G03*
X2085Y1407I0J29D01*
G01*
X1739Y1457D02*
G03*
X1793Y1398I26J-30D01*
G01*
X2065D02*
G03*
X2085Y1407I0J29D01*
G01*
X1463Y1947D02*
G03*
X1417Y1947I-23J-33D01*
G01*
X1409Y1889D02*
G03*
X1471Y1889I31J25D01*
G01*
X1606Y1812D02*
G03*
X1606Y1812I-44J0D01*
G01*
X1506D02*
G03*
X1506Y1812I-44J0D01*
G01*
X1406D02*
G03*
X1406Y1812I-44J0D01*
G01*
X1306D02*
G03*
X1306Y1812I-44J0D01*
G01*
X1569Y1462D02*
G03*
X1569Y1462I-40J0D01*
G01*
X1356Y1611D02*
G03*
X1356Y1611I-40J0D01*
G01*
X996Y2432D02*
G03*
X986Y2456I-34J0D01*
G01*
X996Y2432D02*
G03*
X986Y2456I-34J0D01*
G01*
X813Y2546D02*
G03*
X823Y2522I34J0D01*
G01*
X813Y2546D02*
G03*
X823Y2522I34J0D01*
G01*
X1206Y2212D02*
G03*
X1206Y2212I-44J0D01*
G01*
X1106D02*
G03*
X1106Y2212I-44J0D01*
G01*
X906D02*
G03*
X827Y2241I-44J0D01*
G01*
X1006Y2212D02*
G03*
X996Y2240I-44J0D01*
G01*
X927D02*
G03*
X1006Y2212I34J-28D01*
G01*
X827Y2184D02*
G03*
X906Y2212I34J29D01*
G01*
X693Y2768D02*
G03*
X693Y2768I-40J0D01*
G01*
X695Y2628D02*
G03*
X695Y2628I-40J0D01*
G01*
X795Y2241D02*
G03*
X733Y2179I-34J-29D01*
G01*
X1160Y2028D02*
G03*
X1160Y2028I-40J0D01*
G01*
X1183Y1947D02*
G03*
X1141Y1947I-21J-34D01*
G01*
X1130Y1889D02*
G03*
X1194Y1889I32J24D01*
G01*
X1029Y1947D02*
G03*
X981Y1941I-20J-35D01*
G01*
Y1883D02*
G03*
X1042Y1889I28J29D01*
G01*
X883Y1892D02*
G03*
X903Y1883I20J20D01*
G01*
X883Y1892D02*
G03*
X903Y1883I20J20D01*
G01*
X1206Y1812D02*
G03*
X1206Y1812I-44J0D01*
G01*
X1106D02*
G03*
X1106Y1812I-44J0D01*
G01*
X1006D02*
G03*
X1006Y1812I-44J0D01*
G01*
X1039Y1436D02*
G03*
X995Y1475I-40J0D01*
G01*
X960Y1440D02*
G03*
X1039Y1436I39J-5D01*
G01*
X930Y1428D02*
G03*
X930Y1428I-40J0D01*
G01*
X790Y2179D02*
G03*
X795Y2184I-29J34D01*
G01*
X906Y1812D02*
G03*
X906Y1812I-44J0D01*
G01*
X806D02*
G03*
X737Y1776I-44J0D01*
G01*
X786D02*
G03*
X806Y1812I-25J37D01*
G01*
X733Y2054D02*
G03*
X741Y2034I29J0D01*
G01*
X733Y2054D02*
G03*
X741Y2034I29J0D01*
G01*
X737Y1674D02*
G03*
X744Y1657I25J0D01*
G01*
X737Y1674D02*
G03*
X744Y1657I25J0D01*
G01*
X2014Y1358D02*
G03*
X2014Y1358I-40J0D01*
G01*
X1500Y1218D02*
G03*
X1500Y1218I-40J0D01*
G01*
X1718Y1137D02*
G03*
X1718Y1137I-40J0D01*
G01*
Y1037D02*
G03*
X1718Y1037I-40J0D01*
G01*
X1491Y1123D02*
G03*
X1426Y1154I-40J0D01*
G01*
Y1093D02*
G03*
X1491Y1123I25J31D01*
G01*
X1733Y736D02*
G03*
X1733Y736I-40J0D01*
G01*
X1365Y884D02*
G03*
X1365Y884I-40J0D01*
G01*
X1706Y597D02*
G03*
X1732Y634I-15J37D01*
G01*
X1291Y679D02*
G03*
X1370Y682I40J4D01*
G01*
D02*
G03*
X1334Y722I-40J0D01*
G01*
X1732Y634D02*
G03*
X1679Y596I-40J0D01*
G01*
X1734Y559D02*
G03*
X1706Y597I-40J0D01*
G01*
X1679Y596D02*
G03*
X1734Y559I15J-37D01*
G01*
X1378Y594D02*
G03*
X1378Y594I-40J0D01*
G01*
X1313Y1040D02*
G03*
X1234Y1044I-40J0D01*
G01*
X1277Y1001D02*
G03*
X1313Y1040I-4J40D01*
G01*
X1215Y1025D02*
G03*
X1206Y1004I22J-22D01*
G01*
X1215Y1025D02*
G03*
X1206Y1004I22J-22D01*
G01*
X1124Y1154D02*
G03*
X1103Y1145I0J-31D01*
G01*
X1124Y1154D02*
G03*
X1103Y1145I0J-31D01*
G01*
X1068Y803D02*
G03*
X1068Y803I-40J0D01*
G01*
X956Y899D02*
G03*
X965Y921I-31J25D01*
G01*
X922Y964D02*
G03*
X895Y899I4J-40D01*
G01*
X510Y1228D02*
G03*
X431Y1236I-40J0D01*
G01*
X431Y1219D02*
G03*
X510Y1228I39J9D01*
G01*
X1206Y776D02*
G03*
X1215Y754I31J0D01*
G01*
X1206Y776D02*
G03*
X1215Y754I31J0D01*
G01*
X895Y800D02*
G03*
X904Y778I31J0D01*
G01*
X895Y800D02*
G03*
X904Y778I31J0D01*
G01*
X965Y681D02*
G03*
X965Y681I-40J0D01*
G01*
X1313Y536D02*
G03*
X1248Y567I-40J0D01*
G01*
Y505D02*
G03*
X1313Y536I25J31D01*
G01*
X1167Y514D02*
G03*
X1189Y505I22J22D01*
G01*
X1167Y514D02*
G03*
X1189Y505I22J22D01*
G01*
X938Y592D02*
G03*
X938Y592I-40J0D01*
G01*
X610Y708D02*
G03*
X610Y708I-40J0D01*
G01*
X514Y108D02*
G03*
X514Y108I-44J0D01*
G01*
X3296Y2818D02*
X3378Y2735D01*
X3268Y2818D02*
X3378Y2707D01*
X3352Y2818D02*
X3378Y2792D01*
X3324Y2818D02*
X3378Y2764D01*
Y2818D02*
X3378Y2618D01*
X3211Y2817D02*
X3378Y2651D01*
X3240Y2818D02*
X3378Y2679D01*
X3148Y2692D02*
X3274Y2818D01*
X3134Y2706D02*
X3246Y2818D01*
X3112Y2712D02*
X3218Y2817D01*
X3159Y2618D02*
X3360Y2818D01*
X3131Y2618D02*
X3331Y2818D01*
X3153Y2668D02*
X3303Y2818D01*
X3183Y2817D02*
X3378Y2622D01*
X3216Y2618D02*
X3378Y2780D01*
X3244Y2618D02*
X3378Y2752D01*
X3272Y2618D02*
X3378Y2724D01*
X3155Y2817D02*
X3355Y2618D01*
X3187D02*
X3378Y2808D01*
X3153Y2678D02*
X3213Y2618D01*
X3071Y2699D02*
X3189Y2817D01*
X3057Y2713D02*
X3161Y2817D01*
X3136Y2639D02*
X3157Y2618D01*
X3127Y2817D02*
X3326Y2618D01*
X3042Y2817D02*
X3242Y2618D01*
X3149Y2654D02*
X3185Y2618D01*
X3071Y2703D02*
X3080Y2694D01*
X3071Y2634D02*
Y2713D01*
X3028D02*
X3132Y2817D01*
X3014Y2817D02*
X3119Y2712D01*
X3002Y2713D02*
X3071D01*
X2986Y2817D02*
X3095Y2707D01*
X3002Y2634D02*
Y2713D01*
X3071Y2643D02*
X3080Y2651D01*
X3063Y2634D02*
X3071Y2643D01*
X3114Y2632D02*
X3128Y2618D01*
X3063Y2626D02*
X3071Y2618D01*
X3002Y2634D02*
X3071D01*
X3002Y2626D02*
X3071D01*
X3027D02*
X3034Y2634D01*
X3055Y2626D02*
X3063Y2634D01*
X3055D02*
X3063Y2626D01*
X3027Y2634D02*
X3035Y2626D01*
X3161Y2556D02*
X3474Y2243D01*
X3189Y2556D02*
X3505Y2241D01*
X3300Y2618D02*
X3378Y2695D01*
X3359Y2556D02*
X3378Y2537D01*
X3218Y2556D02*
X3606Y2168D01*
X3246Y2556D02*
X3613Y2190D01*
X3133Y2556D02*
X3452Y2237D01*
X3076Y2556D02*
X3422Y2211D01*
X3105Y2556D02*
X3435Y2226D01*
X3063Y2542D02*
X3413Y2191D01*
X3039Y2509D02*
X3410Y2138D01*
X3025Y2495D02*
X3410Y2110D01*
X3053Y2523D02*
X3410Y2166D01*
X3680Y2429D02*
X3740Y2429D01*
X3713D02*
X3740Y2402D01*
X3666Y2429D02*
X3680D01*
X3666Y2389D02*
X3706Y2429D01*
X3740Y2429D02*
X3741Y2218D01*
X3685Y2429D02*
X3740Y2373D01*
X3666Y2379D02*
Y2429D01*
Y2417D02*
X3678Y2429D01*
X3532Y2227D02*
X3734Y2429D01*
X3011Y2480D02*
X3397Y2095D01*
X3329Y2618D02*
X3378Y2667D01*
X3357Y2618D02*
X3378Y2639D01*
X3074Y2618D02*
X3094Y2637D01*
X3103Y2618D02*
X3117Y2632D01*
X3331Y2556D02*
X3378Y2509D01*
Y2429D02*
Y2556D01*
X3099Y2817D02*
X3298Y2618D01*
X3071Y2647D02*
X3100Y2618D01*
X3071D02*
X3378D01*
X3071D02*
Y2626D01*
X3070Y2817D02*
X3270Y2618D01*
X2986Y2614D02*
X3006Y2634D01*
X3002Y2614D02*
Y2626D01*
X3071Y2548D02*
Y2556D01*
X3378D01*
X3063Y2548D02*
X3071D01*
X3303Y2556D02*
X3378Y2481D01*
X3274Y2556D02*
X3378Y2453D01*
X2996Y2454D02*
X3098Y2556D01*
X2996Y2426D02*
X3126Y2556D01*
X2996Y2466D02*
X3054Y2524D01*
X2997Y2466D02*
X3368Y2095D01*
X2996Y2439D02*
X3340Y2095D01*
X2996Y2404D02*
Y2466D01*
X2949Y2719D02*
X3047Y2817D01*
X2958Y2817D02*
X3061Y2713D01*
X2949Y2719D02*
X3047Y2817D01*
X2944Y2742D02*
X3019Y2817D01*
X2949Y2662D02*
X3104Y2817D01*
X2949Y2691D02*
X3076Y2817D01*
X2949Y2654D02*
Y2742D01*
X2330Y2815D02*
X3378Y2818D01*
X2916Y2742D02*
X2991Y2817D01*
X2888Y2742D02*
X2962Y2817D01*
X2929Y2817D02*
X3033Y2713D01*
X2901Y2816D02*
X3005Y2713D01*
X2873Y2816D02*
X2947Y2742D01*
X2949Y2740D02*
X3002Y2687D01*
X2949Y2683D02*
X3006Y2626D01*
X2949Y2712D02*
X3002Y2659D01*
X2941Y2654D02*
X2949Y2662D01*
X2929Y2614D02*
X3002Y2687D01*
X2958Y2614D02*
X3002Y2658D01*
X2949Y2655D02*
X2990Y2614D01*
X2794Y2742D02*
X2949D01*
X2794Y2654D02*
X2949D01*
X2906Y2619D02*
X2941Y2654D01*
X2915Y2614D02*
X3002D01*
X2919Y2553D02*
X2997D01*
X2923Y2654D02*
X2962Y2614D01*
X2860Y2742D02*
X2934Y2817D01*
X2845Y2816D02*
X2919Y2742D01*
X2831D02*
X2905Y2816D01*
X2803Y2742D02*
X2877Y2816D01*
X2817Y2816D02*
X2890Y2742D01*
X2866Y2654D02*
X2899Y2621D01*
X2789Y2559D02*
X2884Y2654D01*
X2788Y2816D02*
X2862Y2742D01*
X2760Y2816D02*
X2834Y2742D01*
X2690Y2686D02*
X2820Y2816D01*
X2691Y2658D02*
X2849Y2816D01*
X2619Y2815D02*
X2852Y2583D01*
X2689Y2689D02*
X2820Y2559D01*
X2878Y2619D02*
X2912Y2654D01*
X2894D02*
X2934Y2614D01*
X2838Y2654D02*
X2874Y2617D01*
X2839Y2552D02*
X2855Y2568D01*
X2809Y2654D02*
X2859Y2604D01*
X2789Y2559D02*
X2884Y2654D01*
X2817Y2559D02*
X2855Y2596D01*
X2732Y2559D02*
X2828Y2654D01*
X2761Y2559D02*
X2856Y2654D01*
X2726Y2559D02*
X2820D01*
X2905Y2307D02*
X3155Y2556D01*
X2902Y2474D02*
X2981Y2553D01*
X2895Y2495D02*
X2953Y2553D01*
X2938D02*
X2968Y2524D01*
X2938Y2284D02*
X3211Y2556D01*
X2941Y2258D02*
X3239Y2556D01*
X2926Y2299D02*
X3183Y2556D01*
X2824Y2112D02*
X3268Y2556D01*
X2827Y2087D02*
X3296Y2556D01*
X2655Y2752D02*
X2931Y2475D01*
X2830Y2034D02*
X3353Y2556D01*
X2858Y2034D02*
X3378Y2554D01*
X2827Y2059D02*
X3324Y2556D01*
X2967Y2553D02*
X2982Y2538D01*
X2940Y2496D02*
X2997Y2553D01*
X2943Y2034D02*
X3378Y2469D01*
X2971Y2034D02*
X3378Y2441D01*
X2927Y2472D02*
X2931D01*
X2914Y2549D02*
X2954Y2509D01*
X2893Y2542D02*
X2939Y2495D01*
X2906Y2472D02*
X2927Y2451D01*
X2886Y2034D02*
X3378Y2526D01*
X2915Y2034D02*
X3378Y2497D01*
X2647Y2448D02*
X3062Y2034D01*
X2882Y2510D02*
X2925Y2553D01*
X2853Y2538D02*
X2866Y2551D01*
X2867Y2524D02*
X2886Y2542D01*
X2902Y2476D02*
X2906Y2472D01*
X2902D02*
Y2476D01*
X2842Y2550D02*
X2893Y2498D01*
X2816Y2473D02*
X2824Y2481D01*
X2788Y2473D02*
X2810Y2495D01*
X2796Y2497D02*
X2837Y2456D01*
X2807Y2497D02*
X2837Y2468D01*
X2816Y2403D02*
Y2473D01*
X2906Y2444D02*
X2927Y2423D01*
X2906Y2421D02*
X2927Y2442D01*
X2902Y2472D02*
X2906D01*
Y2449D02*
X2927Y2470D01*
X2906Y2404D02*
Y2472D01*
X2927Y2404D02*
Y2472D01*
X2837Y2404D02*
Y2468D01*
X2747Y2473D02*
X2816D01*
Y2444D02*
X2837Y2465D01*
X2675Y2448D02*
X2863Y2261D01*
X2816Y2416D02*
X2837Y2437D01*
X2816Y2449D02*
X2837Y2428D01*
X3650Y2379D02*
X3741Y2288D01*
X3622Y2379D02*
X3741Y2260D01*
X3666Y2420D02*
X3740Y2345D01*
X3666Y2391D02*
X3740Y2317D01*
X3545Y2212D02*
X3740Y2407D01*
X3594Y2379D02*
X3741Y2232D01*
X3565Y2379D02*
X3702Y2242D01*
X3459Y2379D02*
X3666D01*
X3537D02*
X3673Y2243D01*
X3492Y2244D02*
X3627Y2379D01*
X3402Y2429D02*
X3621Y2209D01*
X3480Y2379D02*
X3634Y2225D01*
X3461Y2240D02*
X3599Y2379D01*
X3713Y2238D02*
X3741Y2266D01*
X3731Y2227D02*
X3741Y2237D01*
X3657Y2239D02*
X3740Y2322D01*
X3690Y2244D02*
X3741Y2294D01*
X3514Y2237D02*
X3656Y2379D01*
X3554Y2193D02*
X3740Y2378D01*
X3509Y2379D02*
X3651Y2236D01*
X3558Y2168D02*
X3740Y2350D01*
X3586Y2168D02*
X3615Y2197D01*
X3558Y2168D02*
X3610D01*
X3459Y2379D02*
Y2429D01*
X3378Y2429D02*
X3459Y2429D01*
X3430D02*
X3459Y2400D01*
X3555Y2191D02*
X3578Y2168D01*
X3315Y2095D02*
X3414Y2193D01*
X3258Y2095D02*
X3542Y2379D01*
X3287Y2095D02*
X3571Y2379D01*
X3230Y2095D02*
X3514Y2379D01*
X3084Y2034D02*
X3459Y2408D01*
X3199Y2092D02*
X3486Y2379D01*
X3113Y2034D02*
X3459Y2380D01*
X3410Y2095D02*
Y2168D01*
X3400Y2095D02*
X3410Y2105D01*
X3389Y2045D02*
X3410Y2025D01*
X3361Y2045D02*
X3410Y1997D01*
X3372Y2095D02*
X3410Y2133D01*
X3343Y2095D02*
X3410Y2161D01*
X3211Y2095D02*
X3410D01*
X3221Y2045D02*
X3410D01*
X3139Y2034D02*
X3193Y2087D01*
X3558Y1968D02*
X3610Y1968D01*
X3580Y1968D02*
X3741Y1807D01*
X3558Y1962D02*
X3741Y1779D01*
X3552Y1940D02*
X3741Y1750D01*
X3546Y1930D02*
X3584Y1968D01*
X3295Y1622D02*
X3615Y1942D01*
X3725Y1908D02*
X3741Y1892D01*
X3705Y1899D02*
X3741Y1863D01*
X3541Y1922D02*
X3741Y1722D01*
X3680Y1896D02*
X3741Y1835D01*
X3526Y1909D02*
X3741Y1694D01*
X3507Y1900D02*
X3741Y1666D01*
X3482Y1896D02*
X3741Y1637D01*
X3244Y1712D02*
X3441Y1910D01*
X3259Y1699D02*
X3460Y1900D01*
X3220Y1717D02*
X3427Y1923D01*
X3323Y1622D02*
X3626Y1924D01*
X3351Y1622D02*
X3640Y1911D01*
X3267Y1679D02*
X3484Y1896D01*
X3333Y2045D02*
X3410Y1968D01*
Y1968D02*
Y2045D01*
X3205Y1985D02*
X3266Y2045D01*
X3225Y1977D02*
X3294Y2045D01*
X3239Y1934D02*
X3351Y2045D01*
X3305D02*
X3427Y1923D01*
X3238Y1961D02*
X3322Y2045D01*
X3167Y1992D02*
X3221Y2045D01*
X3178Y2002D02*
X3196Y1985D01*
X3163Y1989D02*
X3176Y1976D01*
X3139Y1984D02*
X3164Y1960D01*
X3153Y1622D02*
X3184Y1653D01*
X3065Y1788D02*
X3185Y1908D01*
X3066Y1761D02*
X3212Y1907D01*
X3111Y1984D02*
X3163Y1932D01*
X3097Y1622D02*
X3416Y1941D01*
X3062Y1751D02*
X3191Y1622D01*
X3068Y1773D02*
X3181Y1660D01*
X2996Y2411D02*
X3312Y2095D01*
X2975Y2404D02*
X3284Y2095D01*
X2906Y2416D02*
X3227Y2095D01*
X2946Y2404D02*
X3255Y2095D01*
X3028Y2034D02*
X3423Y2429D01*
X3056Y2034D02*
X3451Y2429D01*
X2999Y2034D02*
X3395Y2429D01*
X2694Y2153D02*
X2945Y2404D01*
X2722Y2153D02*
X2973Y2404D01*
X2726Y2212D02*
X2927Y2414D01*
X2862Y2404D02*
X3185Y2080D01*
X2890Y2404D02*
X3201Y2093D01*
X2816Y2421D02*
X3171Y2066D01*
X2927Y2404D02*
X2996D01*
X2942Y2267D02*
X3157Y2051D01*
X2935Y2245D02*
X3143Y2037D01*
X2920Y2232D02*
X3118Y2034D01*
X2896Y2228D02*
X3090Y2034D01*
X2726Y2313D02*
X3005Y2034D01*
X2726Y2285D02*
X2977Y2034D01*
X2726Y2228D02*
X2920Y2034D01*
X2726Y2341D02*
X3033Y2034D01*
X2827D02*
X3139D01*
X2726Y2257D02*
X2949Y2034D01*
X2837Y2404D02*
X2906D01*
X2777Y2403D02*
X2880Y2300D01*
X2805Y2403D02*
X2902Y2307D01*
X2766Y2139D02*
X2870Y2243D01*
X2726Y2297D02*
X2837Y2409D01*
X2749Y2403D02*
X2867Y2285D01*
X2747Y2403D02*
X2816D01*
X2726Y2241D02*
X2889Y2404D01*
X2750Y2151D02*
X2862Y2264D01*
X2726Y2269D02*
X2860Y2404D01*
X2827Y2099D02*
X2892Y2034D01*
X2823Y2055D02*
X2827Y2059D01*
Y2055D02*
Y2112D01*
X2805Y2038D02*
X2823Y2055D01*
X2827Y2070D02*
X2864Y2034D01*
X2814Y2055D02*
X2836Y2034D01*
X2827D02*
Y2038D01*
X2780Y2125D02*
X2885Y2231D01*
X2795Y2112D02*
X2911Y2228D01*
X2793Y2112D02*
X2827D01*
X2758Y2055D02*
X2827D01*
X2758Y2038D02*
X2827D01*
X2726Y2200D02*
X2813Y2112D01*
X3006Y1814D02*
X3237Y2045D01*
X2856Y1984D02*
X3023Y1817D01*
X2872Y1906D02*
X2950Y1984D01*
X2889Y1895D02*
X2979Y1984D01*
X2913D02*
X3193Y1705D01*
X2941Y1984D02*
X3210Y1715D01*
X2885Y1984D02*
X3182Y1688D01*
X2755Y1704D02*
X3035Y1984D01*
X2827D02*
X3150D01*
X2828D02*
X3001Y1811D01*
X2765Y1658D02*
X3092Y1984D01*
X2757Y1622D02*
X3120Y1984D01*
X2765Y1687D02*
X3063Y1984D01*
X3036Y1816D02*
X3161Y1941D01*
X3054Y1805D02*
X3169Y1921D01*
X2899Y1877D02*
X3007Y1984D01*
X2890Y1894D02*
X2986Y1798D01*
X2840Y1903D02*
X2922Y1984D01*
X2970D02*
X3240Y1714D01*
X2899Y1857D02*
X2979Y1777D01*
X2776Y1811D02*
X2965Y1622D01*
X2827Y1946D02*
X2865Y1984D01*
X2827Y1917D02*
X2894Y1984D01*
X2827Y1980D02*
Y1984D01*
X2827Y1929D02*
X2849Y1907D01*
X2827Y1901D02*
X2832Y1896D01*
X2827Y1898D02*
Y1966D01*
X2819D02*
X2837Y1984D01*
X2758Y1980D02*
X2827D01*
X2804D02*
X2818Y1966D01*
X2827Y1958D02*
X2886Y1898D01*
X2748Y1966D02*
X2827D01*
X2818Y1898D02*
X2827D01*
X2818Y1880D02*
X2825Y1888D01*
X2818Y1882D02*
X2821Y1878D01*
X2818Y1865D02*
Y1898D01*
X2754Y1760D02*
X2833Y1839D01*
X2754Y1731D02*
X2851Y1829D01*
X2754Y1788D02*
X2822Y1856D01*
X2732Y2816D02*
X2806Y2742D01*
X2704Y2816D02*
X2794Y2726D01*
X2666Y2718D02*
X2764Y2816D01*
X2661Y2741D02*
X2735Y2816D01*
X2676Y2816D02*
X2794Y2698D01*
Y2654D02*
Y2742D01*
X2680Y2704D02*
X2792Y2816D01*
X2630Y2767D02*
X2678Y2816D01*
X2596Y2761D02*
X2650Y2816D01*
X2591Y2815D02*
X2648Y2759D01*
X2649Y2758D02*
X2707Y2816D01*
X2648Y2816D02*
X2794Y2669D01*
X2691Y2630D02*
X2794Y2733D01*
X2697Y2608D02*
X2794Y2705D01*
X2725Y2608D02*
X2794Y2676D01*
X2691Y2608D02*
X2726D01*
Y2580D02*
X2799Y2654D01*
X2691Y2631D02*
X2714Y2608D01*
X2691D02*
Y2681D01*
X2664Y2720D02*
X2682Y2702D01*
X2629Y2608D02*
Y2668D01*
X2598Y2608D02*
X2629D01*
X2564Y2758D02*
X2622Y2815D01*
X2564Y2730D02*
X2583Y2748D01*
X2564Y2757D02*
X2579Y2742D01*
X2564Y2729D02*
X2576Y2717D01*
X2564Y2702D02*
X2577Y2714D01*
X2564Y2701D02*
X2629Y2636D01*
X2564Y2680D02*
Y2769D01*
X2546D02*
X2593Y2815D01*
X2518Y2769D02*
X2565Y2815D01*
X2507Y2815D02*
X2553Y2769D01*
X2563Y2815D02*
X2611Y2768D01*
X2535Y2815D02*
X2592Y2758D01*
X2552Y2661D02*
X2586Y2695D01*
X2613Y2681D02*
X2629Y2664D01*
X2617Y2680D02*
X2629Y2668D01*
X2558Y2611D02*
X2622Y2675D01*
X2612Y2608D02*
X2629Y2625D01*
X2557Y2680D02*
X2629Y2608D01*
X2564Y2588D02*
X2629Y2654D01*
X2564Y2560D02*
X2598Y2593D01*
X2552Y2633D02*
X2603Y2683D01*
X2552Y2680D02*
X2564D01*
X2552Y2611D02*
X2564D01*
X2552Y2656D02*
X2601Y2608D01*
X2552Y2628D02*
X2598Y2583D01*
X2552Y2611D02*
Y2680D01*
X2760Y2473D02*
X2784Y2497D01*
X2768D02*
X2792Y2473D01*
X2726Y2559D02*
Y2608D01*
Y2568D02*
X2735Y2559D01*
X2739Y2497D02*
X2764Y2473D01*
X2747Y2403D02*
Y2473D01*
X2691Y2659D02*
X2791Y2559D01*
X2726Y2497D02*
X2807D01*
X2726Y2596D02*
X2763Y2559D01*
X2726Y2467D02*
X2756Y2497D01*
X2726Y2483D02*
X2747Y2462D01*
X2726Y2448D02*
Y2497D01*
Y2455D02*
X2747Y2433D01*
X2704Y2448D02*
X2747Y2405D01*
X2726Y2354D02*
X2775Y2403D01*
X2726Y2326D02*
X2804Y2403D01*
X2726Y2200D02*
Y2360D01*
X2675D02*
X2747Y2432D01*
X2703Y2360D02*
X2747Y2403D01*
X2598Y2448D02*
X2726D01*
X2647Y2360D02*
X2747Y2460D01*
X2597Y2360D02*
X2726D01*
X2619Y2448D02*
X2707Y2360D01*
X2564Y2560D02*
X2598Y2526D01*
X2564Y2503D02*
X2598Y2537D01*
X2564Y2588D02*
X2598Y2554D01*
X2564Y2532D02*
X2598Y2565D01*
Y2448D02*
Y2608D01*
X2564Y2531D02*
X2598Y2498D01*
X2564Y2451D02*
Y2611D01*
Y2503D02*
X2598Y2470D01*
X2508Y2363D02*
X2598Y2452D01*
X2564Y2475D02*
X2598Y2509D01*
X2564Y2475D02*
X2679Y2360D01*
X2559Y2451D02*
X2651Y2360D01*
X2503Y2451D02*
X2597Y2357D01*
X2564Y2334D02*
X2679Y2448D01*
X2619Y2360D02*
X2707Y2448D01*
X2564Y2362D02*
X2650Y2448D01*
X2564Y2334D02*
X2679Y2448D01*
X2597Y2200D02*
Y2360D01*
X2564Y2203D02*
Y2363D01*
X2531Y2451D02*
X2622Y2360D01*
X2537Y2363D02*
X2622Y2448D01*
X2564Y2362D02*
X2597Y2328D01*
X2564Y2333D02*
X2597Y2300D01*
X2564Y2277D02*
X2597Y2310D01*
X2564Y2305D02*
X2597Y2339D01*
X2490Y2769D02*
X2537Y2815D01*
X2476Y2769D02*
X2564D01*
X2478Y2815D02*
X2525Y2769D01*
X2450Y2815D02*
X2497Y2769D01*
X2394Y2815D02*
X2476Y2733D01*
Y2680D02*
Y2769D01*
X2422Y2815D02*
X2476Y2761D01*
X2349Y2684D02*
X2480Y2815D01*
X2366Y2815D02*
X2476Y2705D01*
X2330Y2694D02*
X2451Y2815D01*
X2371Y2678D02*
X2508Y2815D01*
X2337Y2815D02*
X2488Y2664D01*
X2330Y2794D02*
X2488Y2636D01*
Y2611D02*
Y2680D01*
X2476D02*
X2488D01*
X2442Y2664D02*
X2476Y2698D01*
X2446Y2640D02*
X2486Y2680D01*
X2445Y2611D02*
X2488Y2653D01*
X2473Y2611D02*
X2488Y2625D01*
X2446Y2649D02*
X2485Y2611D01*
X2406Y2685D02*
X2476Y2754D01*
X2428Y2678D02*
X2476Y2726D01*
X2442Y2626D02*
X2456Y2611D01*
X2436D02*
X2488D01*
X2330Y2722D02*
X2423Y2815D01*
X2371Y2663D02*
Y2684D01*
X2330Y2778D02*
X2366Y2815D01*
X2330Y2807D02*
X2338Y2815D01*
X2330Y2750D02*
X2395Y2815D01*
X2330Y2765D02*
X2411Y2684D01*
X2330Y2684D02*
Y2815D01*
Y2737D02*
X2387Y2680D01*
X2330Y2684D02*
X2371D01*
X2330Y2709D02*
X2355Y2684D01*
X2428Y2611D02*
X2436Y2603D01*
X2371Y2605D02*
Y2626D01*
X2371Y2593D02*
X2387Y2610D01*
X2406Y2605D02*
X2418Y2592D01*
X2371D02*
X2436D01*
X2399D02*
X2411Y2605D01*
X2347Y2597D02*
X2355Y2605D01*
X2330D02*
X2371D01*
X2349D02*
X2357Y2597D01*
X2330D02*
X2371D01*
X2330D02*
Y2605D01*
X2430Y2524D02*
X2436Y2518D01*
Y2451D02*
Y2524D01*
Y2592D02*
Y2611D01*
X2427Y2592D02*
X2436Y2602D01*
X2480Y2363D02*
X2598Y2480D01*
X2446Y2451D02*
X2535Y2363D01*
X2453Y2421D02*
X2484Y2451D01*
X2402Y2524D02*
X2436Y2490D01*
X2390Y2471D02*
X2436Y2517D01*
X2371Y2524D02*
X2436D01*
X2390Y2443D02*
X2436Y2488D01*
X2413Y2437D02*
X2436Y2460D01*
X2374Y2524D02*
X2436Y2461D01*
X2460Y2399D02*
X2512Y2451D01*
X2474D02*
X2563Y2363D01*
X2458Y2412D02*
X2506Y2363D01*
X2445Y2367D02*
X2450Y2363D01*
X2452D02*
X2540Y2451D01*
X2457Y2384D02*
X2478Y2363D01*
X2436Y2451D02*
X2564D01*
X2438Y2434D02*
X2455Y2451D01*
X2439Y2363D02*
X2564D01*
X2379Y2488D02*
X2415Y2524D01*
X2371Y2611D02*
X2390Y2592D01*
X2371Y2519D02*
Y2524D01*
X2390Y2450D02*
X2406Y2435D01*
X2390Y2425D02*
Y2465D01*
X2365Y2502D02*
X2386Y2524D01*
X2365Y2519D02*
X2371D01*
Y2592D02*
Y2597D01*
X2365Y2504D02*
X2434Y2436D01*
X2365Y2502D02*
X2382Y2485D01*
X2365Y2502D02*
Y2519D01*
X2426Y2358D02*
X2436Y2348D01*
X2390Y2366D02*
X2436Y2320D01*
Y2203D02*
Y2361D01*
X2390Y2250D02*
Y2371D01*
Y2330D02*
X2419Y2358D01*
X2390Y2358D02*
X2397Y2365D01*
X2390Y2337D02*
X2436Y2292D01*
X2390Y2273D02*
X2436Y2319D01*
X2390Y2301D02*
X2436Y2347D01*
X2760Y2145D02*
X2793Y2112D01*
X2732Y2103D02*
X2758Y2078D01*
X2725Y2070D02*
X2745Y2090D01*
X2758Y2055D02*
Y2078D01*
X2725Y2018D02*
Y2075D01*
X2697Y2200D02*
X2745Y2152D01*
X2725Y2103D02*
X2732D01*
X2725Y2098D02*
X2730Y2103D01*
X2725Y2088D02*
X2775Y2038D01*
X2725Y2075D02*
Y2103D01*
X2777Y2038D02*
X2795Y2055D01*
X2786D02*
X2803Y2038D01*
X2725Y2042D02*
X2758Y2075D01*
X2725Y2059D02*
X2758Y2026D01*
Y1980D02*
Y2038D01*
X2776Y1980D02*
X2790Y1966D01*
X2725Y2031D02*
X2758Y1998D01*
X2725Y2013D02*
X2767Y2055D01*
X2725Y1985D02*
X2758Y2019D01*
X2725Y1980D02*
Y2018D01*
X2720Y1980D02*
X2725Y1985D01*
X2719Y1980D02*
X2733Y1966D01*
X2656Y1980D02*
X2725D01*
X2666Y2153D02*
X2713Y2200D01*
X2669D02*
X2717Y2153D01*
X2648Y2059D02*
X2656D01*
Y2032D02*
Y2059D01*
X2648Y2051D02*
X2656Y2044D01*
X2648Y2050D02*
X2656Y2057D01*
X2612Y2200D02*
X2660Y2153D01*
X2609D02*
X2657Y2200D01*
X2638Y2153D02*
X2685Y2200D01*
X2641D02*
X2688Y2153D01*
X2648Y2044D02*
Y2059D01*
X2642Y2044D02*
X2648Y2050D01*
Y2032D02*
Y2036D01*
Y1982D02*
X2656D01*
X2706Y1966D02*
X2720Y1980D01*
X2648Y2032D02*
X2656D01*
X2635Y2036D02*
X2642Y2044D01*
X2614D02*
X2648D01*
X2627D02*
X2635Y2036D01*
X2606D02*
X2614Y2044D01*
X2606Y2036D02*
X2648D01*
X2606D02*
X2614Y2044D01*
X2763Y1966D02*
X2777Y1980D01*
X2791Y1966D02*
X2805Y1980D01*
X2740Y1960D02*
X2748Y1952D01*
X2740Y1931D02*
X2748Y1923D01*
Y1898D02*
Y1966D01*
X2740Y1915D02*
X2748Y1923D01*
X2740Y1898D02*
Y1966D01*
X2725Y2003D02*
X2761Y1966D01*
X2734D02*
X2758Y1990D01*
X2661Y1966D02*
X2740D01*
X2733D02*
X2740Y1960D01*
Y1944D02*
X2748Y1952D01*
X2651Y1907D02*
X2718Y1840D01*
X2757Y1878D02*
Y1898D01*
X2754Y1789D02*
X2809Y1844D01*
X2740Y1903D02*
X2757Y1886D01*
X2748Y1898D02*
X2757D01*
X2750Y1638D02*
X2767Y1622D01*
X2754Y1705D02*
Y1789D01*
X2661Y1898D02*
X2740D01*
X2717D02*
X2747Y1868D01*
X2689Y1898D02*
X2733Y1854D01*
X2702Y1823D02*
X2757Y1878D01*
X2701Y1622D02*
X2710Y1631D01*
X2678Y1966D02*
X2692Y1980D01*
X2691D02*
X2705Y1966D01*
X2648Y1965D02*
X2663Y1980D01*
X2662D02*
X2676Y1966D01*
X2661Y1898D02*
Y1907D01*
Y1957D02*
Y1966D01*
X2648Y1967D02*
X2658Y1957D01*
X2647D02*
X2661D01*
X2648Y1958D02*
Y1982D01*
X2637Y1907D02*
X2661D01*
X2693Y1705D02*
Y1801D01*
X2668Y1702D02*
X2693Y1727D01*
X2662Y1702D02*
X2690D01*
X2662Y1641D02*
X2693D01*
X2662D02*
X2682Y1622D01*
X2614Y1704D02*
X2693Y1784D01*
X2642Y1704D02*
X2693Y1755D01*
X2658Y1636D02*
X2662Y1640D01*
Y1636D02*
Y1641D01*
X2610Y1636D02*
X2662D01*
X2620Y1626D02*
X2630Y1636D01*
X2564Y2277D02*
X2597Y2243D01*
X2564Y2221D02*
X2597Y2254D01*
X2564Y2305D02*
X2597Y2272D01*
X2564Y2249D02*
X2597Y2282D01*
X2564Y2220D02*
X2632Y2153D01*
X2553Y2203D02*
X2603Y2153D01*
X2564Y2248D02*
X2597Y2215D01*
X2524Y2153D02*
X2597Y2226D01*
X2436Y2203D02*
X2564D01*
X2496D02*
X2547Y2153D01*
X2525Y2203D02*
X2575Y2153D01*
X2496Y2152D02*
X2547Y2203D01*
X2581Y2153D02*
X2629Y2200D01*
X2597D02*
X2726D01*
X2565Y1997D02*
X2579Y2011D01*
Y1958D02*
X2589D01*
X2579D02*
Y2011D01*
X2553Y2153D02*
X2600Y2200D01*
X2499Y2153D02*
X2743D01*
X2565Y1995D02*
X2579Y2009D01*
X2565Y1966D02*
X2579Y1981D01*
X2565Y1938D02*
X2584Y1958D01*
X2565Y1993D02*
X2579Y1979D01*
X2393Y2247D02*
X2436Y2290D01*
X2390Y2281D02*
X2436Y2235D01*
X2401Y2227D02*
X2436Y2262D01*
X2401Y2214D02*
X2475Y2139D01*
X2436Y2207D02*
X2440Y2203D01*
X2390Y2309D02*
X2436Y2264D01*
X2390Y2252D02*
X2436Y2207D01*
X2372Y2169D02*
X2436Y2234D01*
X2386Y2155D02*
X2436Y2205D01*
X2468Y2203D02*
X2519Y2153D01*
X2440Y2203D02*
X2491Y2151D01*
X2429Y2113D02*
X2518Y2203D01*
X2449Y2113D02*
X2482Y2145D01*
X2428Y2113D02*
X2449D01*
X2400Y2141D02*
X2462Y2203D01*
X2414Y2127D02*
X2490Y2203D01*
X2386Y2155D02*
X2436Y2205D01*
X2391Y2195D02*
X2461Y2125D01*
X2374Y2184D02*
X2445Y2113D01*
X2359Y2182D02*
X2428Y2113D01*
X2565Y1965D02*
X2704Y1825D01*
X2565Y1937D02*
X2694Y1808D01*
X2596Y1938D02*
X2620Y1915D01*
X2558Y1915D02*
X2693Y1780D01*
X2533Y1709D02*
X2722Y1898D01*
X2557Y1704D02*
X2750Y1898D01*
X2544Y1901D02*
X2693Y1752D01*
X2462Y1779D02*
X2609Y1926D01*
X2476Y1765D02*
X2623Y1912D01*
X2448Y1793D02*
X2595Y1940D01*
X2505Y1737D02*
X2665Y1898D01*
X2519Y1723D02*
X2694Y1898D01*
X2490Y1751D02*
X2647Y1907D01*
X2585Y1704D02*
X2696Y1815D01*
X2583Y1704D02*
X2662D01*
X2575Y1700D02*
X2583Y1692D01*
X2577Y1668D02*
X2583Y1674D01*
Y1662D02*
Y1704D01*
X2575Y1670D02*
X2583Y1662D01*
X2575Y1671D02*
X2583Y1664D01*
X2530Y1886D02*
X2693Y1724D01*
X2487Y1873D02*
X2656Y1704D01*
X2430Y1873D02*
X2599Y1704D01*
X2514Y1874D02*
X2686Y1702D01*
X2458Y1873D02*
X2627Y1704D01*
X2575Y1694D02*
X2583Y1702D01*
X2565Y1931D02*
Y1997D01*
X2524Y1881D02*
X2557Y1914D01*
X2434Y1808D02*
X2500Y1873D01*
X2321Y1892D02*
X2339Y1910D01*
X2372Y1875D02*
X2542Y1704D01*
X2392Y1850D02*
X2415Y1873D01*
X2537Y1704D02*
X2575D01*
X2571D02*
X2575Y1700D01*
X2420Y1822D02*
X2472Y1873D01*
X2575Y1670D02*
Y1704D01*
X2497Y1636D02*
X2541D01*
X2497D02*
Y1664D01*
X2406Y1836D02*
X2443Y1873D01*
X2386D02*
X2507D01*
X2377Y1864D02*
X2387Y1873D01*
X2402D02*
X2571Y1704D01*
X2375Y1866D02*
X2537Y1704D01*
X2344Y1817D02*
X2497Y1664D01*
X3469Y1598D02*
X3741Y1870D01*
X3483Y1584D02*
X3741Y1842D01*
X3497Y1570D02*
X3741Y1814D01*
X3528Y1572D02*
X3741Y1785D01*
X3551Y1567D02*
X3741Y1757D01*
X3565Y1553D02*
X3741Y1729D01*
X3608Y1567D02*
X3741Y1700D01*
X3436Y1622D02*
X3719Y1905D01*
X3408Y1622D02*
X3682Y1896D01*
X3379Y1622D02*
X3658Y1901D01*
X3437Y1913D02*
X3741Y1609D01*
X3455Y1612D02*
X3741Y1899D01*
X3276Y2045D02*
X3741Y1581D01*
X3640Y1571D02*
X3741Y1672D01*
X3658Y1561D02*
X3741Y1644D01*
X3670Y1544D02*
X3741Y1615D01*
X3672Y1518D02*
X3741Y1587D01*
X3573Y1523D02*
X3591Y1505D01*
X3573Y1532D02*
X3589Y1548D01*
X3626Y1472D02*
X3638Y1485D01*
X3605Y1490D02*
X3623Y1472D01*
X3452Y1614D02*
X3495Y1571D01*
X3410Y1572D02*
X3413Y1569D01*
X3412Y1569D02*
X3415Y1572D01*
X3352Y1566D02*
X3358Y1572D01*
X3382D02*
X3396Y1558D01*
X3297Y1572D02*
X3304Y1565D01*
X3353Y1572D02*
X3386Y1540D01*
X3366Y1552D02*
X3387Y1572D01*
X3516Y1475D02*
X3524Y1484D01*
X3503Y1489D02*
X3520Y1471D01*
X3373Y1525D02*
X3389Y1509D01*
X3373Y1530D02*
X3388Y1545D01*
X3453Y1479D02*
Y1491D01*
X3428Y1472D02*
X3441Y1486D01*
X3409Y1488D02*
X3425Y1472D01*
X3664Y1454D02*
X3741Y1530D01*
X3672Y1434D02*
X3741Y1502D01*
X3672Y1536D02*
X3741Y1468D01*
X3669Y1511D02*
X3741Y1440D01*
X3739Y280D02*
X3741Y1923D01*
X3658Y1494D02*
X3741Y1411D01*
X3673Y1423D02*
X3741Y1355D01*
X3649Y1467D02*
X3741Y1559D01*
X3570Y1444D02*
X3612Y1487D01*
X3565Y1502D02*
X3603Y1464D01*
X3639Y1485D02*
X3741Y1383D01*
X3370Y1414D02*
X3740Y1044D01*
X3665Y1402D02*
X3741Y1327D01*
X3650Y1389D02*
X3740Y1298D01*
X3570Y1412D02*
X3740Y1242D01*
X3627Y1384D02*
X3740Y1270D01*
X3559Y1395D02*
X3740Y1214D01*
X3540Y1385D02*
X3740Y1185D01*
X3509Y1388D02*
X3740Y1157D01*
X3466Y1404D02*
X3740Y1129D01*
X3451Y1390D02*
X3740Y1101D01*
X3429Y1384D02*
X3740Y1072D01*
X3360Y1396D02*
X3740Y1016D01*
X3342Y1386D02*
X3740Y988D01*
X3313Y1387D02*
X3740Y959D01*
X3540Y1471D02*
X3586Y1517D01*
X3527Y1484D02*
X3540Y1471D01*
X3440Y1485D02*
X3455Y1471D01*
X3558Y1461D02*
X3595Y1498D01*
X3550Y1489D02*
X3590Y1449D01*
X3370Y1443D02*
X3414Y1486D01*
X3341Y1470D02*
X3386Y1515D01*
X3329Y1484D02*
X3343Y1470D01*
X3312Y1469D02*
X3326Y1484D01*
X3366Y1504D02*
X3404Y1465D01*
X3359Y1460D02*
X3397Y1497D01*
X3351Y1490D02*
X3390Y1450D01*
X3571Y1439D02*
X3584Y1426D01*
X3461Y1461D02*
X3485Y1437D01*
X3473Y1432D02*
X3481Y1441D01*
X3572Y1418D02*
X3584Y1431D01*
X3473Y1425D02*
X3489Y1409D01*
X3451Y1466D02*
X3455Y1471D01*
X3371Y1442D02*
X3384Y1428D01*
X3371Y1415D02*
X3384Y1428D01*
X3192Y2017D02*
X3637Y1572D01*
X3266Y1622D02*
X3610Y1966D01*
X3054Y1984D02*
X3417Y1622D01*
X3083Y1984D02*
X3503Y1564D01*
X3248Y2045D02*
X3741Y1553D01*
X3220Y2045D02*
X3741Y1524D01*
X3206Y2031D02*
X3741Y1496D01*
X2955Y1622D02*
X3379Y2045D01*
X2983Y1622D02*
X3407Y2045D01*
X2998Y1984D02*
X3361Y1622D01*
X3012D02*
X3410Y2020D01*
X3040Y1622D02*
X3410Y1992D01*
X3026Y1984D02*
X3389Y1622D01*
X3241Y1940D02*
X3611Y1569D01*
X3238Y1622D02*
X3524Y1908D01*
X3264Y1690D02*
X3332Y1622D01*
X3266Y1660D02*
X3304Y1622D01*
X3271Y1541D02*
X3302Y1572D01*
X3270Y1514D02*
X3314Y1470D01*
X3260Y1496D02*
X3297Y1459D01*
X2624Y1622D02*
X3435D01*
X2614Y1572D02*
X3425D01*
X3068Y1622D02*
X3410Y1964D01*
X3232Y1920D02*
X3595Y1557D01*
X3216Y1908D02*
X3585Y1538D01*
X3188Y1907D02*
X3523Y1572D01*
X3255Y1642D02*
X3276Y1622D01*
X3238Y1631D02*
X3248Y1622D01*
X3210Y1631D02*
X3219Y1622D01*
X3210D02*
X3217Y1629D01*
X3260Y1559D02*
X3274Y1572D01*
X3268D02*
X3290Y1550D01*
X3184Y1572D02*
X3197Y1559D01*
X3125Y1622D02*
X3179Y1676D01*
X3181Y1622D02*
X3197Y1637D01*
X3048Y1736D02*
X3163Y1622D01*
X3155Y1572D02*
X3186Y1541D01*
X3167Y1550D02*
X3189Y1572D01*
X3153Y1565D02*
X3160Y1572D01*
X3271Y1542D02*
X3284Y1528D01*
X3270Y1512D02*
X3284Y1526D01*
X3173Y1528D02*
X3186Y1542D01*
X3252Y1466D02*
X3291Y1505D01*
X3230Y1472D02*
X3244Y1487D01*
X3213Y1487D02*
X3227Y1472D01*
X3173Y1527D02*
X3187Y1512D01*
X3166Y1505D02*
X3205Y1466D01*
X3160Y1459D02*
X3198Y1496D01*
X3143Y1470D02*
X3187Y1514D01*
X3266Y1405D02*
X3740Y931D01*
X3252Y1391D02*
X3740Y903D01*
X3171Y1415D02*
X3740Y846D01*
X3231Y1384D02*
X3740Y875D01*
X3161Y1397D02*
X3740Y818D01*
X3143Y1386D02*
X3740Y790D01*
X3116Y1386D02*
X3740Y762D01*
X3104Y837D02*
X3741Y1474D01*
X3104Y865D02*
X3623Y1384D01*
X3104Y894D02*
X3603Y1392D01*
X3104Y809D02*
X3741Y1445D01*
X3104Y780D02*
X3741Y1417D01*
X3104Y752D02*
X3741Y1389D01*
X3104Y724D02*
X3741Y1361D01*
X3104Y696D02*
X3741Y1332D01*
X3104Y1369D02*
X3740Y733D01*
X3104Y1313D02*
X3740Y677D01*
X3136Y672D02*
X3740Y1276D01*
X3156Y663D02*
X3740Y1247D01*
X3169Y647D02*
X3740Y1219D01*
X3104Y1341D02*
X3740Y705D01*
X3104Y667D02*
X3740Y1304D01*
X3104Y1199D02*
X3634Y670D01*
X3104Y1284D02*
X3740Y649D01*
X3104Y1256D02*
X3740Y620D01*
X3104Y1228D02*
X3740Y592D01*
X3266Y1452D02*
X3305Y1491D01*
X3273Y1430D02*
X3288Y1445D01*
X3242Y1486D02*
X3286Y1441D01*
X3171Y1441D02*
X3215Y1486D01*
X3273Y1427D02*
X3287Y1412D01*
X3170Y1412D02*
X3184Y1426D01*
X3152Y1491D02*
X3191Y1452D01*
X3169Y1445D02*
X3184Y1430D01*
X3104Y1035D02*
X3486Y1417D01*
X3104Y1233D02*
X3286Y1415D01*
X3104Y1176D02*
X3314Y1386D01*
X3104Y1148D02*
X3341Y1386D01*
X3104Y1290D02*
X3205Y1391D01*
X3104Y1261D02*
X3226Y1384D01*
X3104Y978D02*
X3512Y1387D01*
X3104Y950D02*
X3539Y1385D01*
X3104Y1063D02*
X3425Y1384D01*
X3104Y1120D02*
X3390Y1406D01*
X3104Y1205D02*
X3297Y1397D01*
X3104Y1318D02*
X3191Y1405D01*
X3104Y922D02*
X3589Y1407D01*
X3104Y1007D02*
X3496Y1398D01*
X3104Y1092D02*
X3404Y1391D01*
X3533Y672D02*
X3740Y879D01*
X3554Y665D02*
X3740Y851D01*
X3613Y667D02*
X3740Y794D01*
X3642Y668D02*
X3740Y766D01*
X3567Y650D02*
X3740Y822D01*
X3659Y657D02*
X3740Y737D01*
X3670Y640D02*
X3740Y709D01*
X3355Y664D02*
X3740Y1049D01*
X3419Y671D02*
X3740Y992D01*
X3445Y669D02*
X3740Y964D01*
X3368Y648D02*
X3740Y1021D01*
X3462Y657D02*
X3740Y936D01*
X3472Y639D02*
X3740Y907D01*
X3670Y611D02*
X3740Y681D01*
X3651Y564D02*
X3740Y652D01*
X3672Y631D02*
X3740Y564D01*
X3629Y570D02*
X3642Y583D01*
X3573Y627D02*
X3586Y641D01*
X3572Y618D02*
X3621Y569D01*
X3592Y561D02*
X3614Y583D01*
X3563Y561D02*
X3597Y594D01*
X3565Y654D02*
X3585Y634D01*
X3473Y633D02*
X3485Y621D01*
X3373Y625D02*
X3385Y637D01*
X3544Y570D02*
X3586Y612D01*
X3521Y584D02*
X3533Y572D01*
X3468Y607D02*
X3484Y623D01*
X3516Y571D02*
X3529Y584D01*
X3469Y609D02*
X3509Y568D01*
X3480Y562D02*
X3507Y589D01*
X3456Y562D02*
X3501D01*
X3454Y564D02*
X3492Y603D01*
X3433Y572D02*
X3450Y589D01*
X3372Y620D02*
X3421Y572D01*
X3456Y593D02*
X3486Y562D01*
X3436Y584D02*
X3458Y562D01*
X3363Y601D02*
X3401Y563D01*
X3665Y550D02*
X3740Y624D01*
X3672Y529D02*
X3740Y596D01*
X3668Y607D02*
X3739Y536D01*
X3656Y591D02*
X3739Y507D01*
X3637Y582D02*
X3739Y479D01*
X3672Y518D02*
X3739Y451D01*
X3663Y499D02*
X3739Y423D01*
X3499Y494D02*
X3713Y280D01*
X3585Y492D02*
X3739Y338D01*
X3360Y160D02*
X3739Y539D01*
X3389Y160D02*
X3739Y511D01*
X3470Y494D02*
X3684Y280D01*
X3648Y486D02*
X3739Y394D01*
X3624Y481D02*
X3739Y366D01*
X3706Y280D02*
X3739Y313D01*
X3735Y280D02*
X3739Y284D01*
X3621Y280D02*
X3739Y398D01*
X3650Y280D02*
X3739Y369D01*
X3678Y280D02*
X3739Y341D01*
X3557Y492D02*
X3739Y310D01*
X3565Y280D02*
X3739Y454D01*
X3536Y484D02*
X3739Y281D01*
X3537Y280D02*
X3739Y483D01*
X3593Y280D02*
X3739Y426D01*
X3530Y280D02*
X3739D01*
X3563Y599D02*
X3601Y561D01*
X3558D02*
X3602D01*
X3546Y587D02*
X3573Y561D01*
X3362Y557D02*
X3399Y595D01*
X3371Y539D02*
X3418Y585D01*
X3348Y588D02*
X3389Y547D01*
X3372Y535D02*
X3380Y528D01*
X3372Y520D02*
X3384Y533D01*
X3555Y492D02*
X3599D01*
X3448Y488D02*
X3656Y280D01*
X3456Y494D02*
X3501D01*
X3428Y479D02*
X3628Y280D01*
X3445Y160D02*
X3530Y280D01*
X3417Y160D02*
X3514Y257D01*
X3414Y465D02*
X3599Y280D01*
X3400Y451D02*
X3571Y280D01*
X3368Y419D02*
X3433Y484D01*
X3386Y437D02*
X3543Y280D01*
X3372Y423D02*
X3524Y271D01*
X3355Y411D02*
X3512Y254D01*
X3221Y672D02*
X3740Y1191D01*
X3247Y668D02*
X3740Y1162D01*
X3104Y1171D02*
X3609Y666D01*
X3335Y672D02*
X3740Y1077D01*
X3263Y656D02*
X3740Y1134D01*
X3272Y637D02*
X3740Y1106D01*
X3104Y1143D02*
X3594Y653D01*
X3104Y1086D02*
X3519Y671D01*
X3104Y1002D02*
X3433Y672D01*
X3104Y973D02*
X3409Y668D01*
X3104Y1115D02*
X3554Y664D01*
X3104Y1058D02*
X3500Y662D01*
X3104Y1030D02*
X3488Y646D01*
X3345Y569D02*
X3387Y611D01*
X3323Y584D02*
X3336Y572D01*
X3319Y571D02*
X3332Y584D01*
X3269Y610D02*
X3311Y569D01*
X3268Y548D02*
X3308Y589D01*
X3272Y522D02*
X3294Y500D01*
X3104Y945D02*
X3394Y655D01*
X3104Y888D02*
X3321Y672D01*
X3104Y860D02*
X3301Y663D01*
X3104Y917D02*
X3385Y636D01*
X3257Y594D02*
X3295Y556D01*
X3255Y564D02*
X3293Y602D01*
X3104Y775D02*
X3211Y669D01*
X3272Y635D02*
X3285Y623D01*
X3173Y623D02*
X3185Y635D01*
X3172Y622D02*
X3194Y600D01*
X3263Y600D02*
X3285Y622D01*
X3147Y568D02*
X3188Y610D01*
X3104Y832D02*
X3289Y647D01*
X3104Y804D02*
X3236Y672D01*
X3104Y747D02*
X3195Y656D01*
X3104Y719D02*
X3185Y637D01*
X3235Y572D02*
X3257Y594D01*
X3238Y585D02*
X3285Y537D01*
X3201Y593D02*
X3222Y572D01*
X3172Y537D02*
X3219Y585D01*
X3273Y525D02*
X3285Y538D01*
X3172Y538D02*
X3184Y525D01*
X3164Y602D02*
X3202Y564D01*
X3163Y556D02*
X3200Y594D01*
X3149Y589D02*
X3189Y548D01*
X3163Y500D02*
X3185Y522D01*
X3329Y477D02*
X3336Y484D01*
X3332Y160D02*
X3740Y568D01*
X3304Y160D02*
X3625Y481D01*
X3276Y160D02*
X3604Y488D01*
X3134Y160D02*
X3468Y494D01*
X3162Y160D02*
X3496Y494D01*
X3127Y477D02*
X3329D01*
X3247Y160D02*
X3579Y492D01*
X3219Y160D02*
X3546Y487D01*
X3191Y160D02*
X3516Y485D01*
X3301Y409D02*
X3488Y221D01*
X3329Y409D02*
X3500Y238D01*
X3244Y409D02*
X3465Y188D01*
X3273Y409D02*
X3476Y205D01*
X3188Y409D02*
X3436Y160D01*
X3216Y409D02*
X3453Y172D01*
X3159Y409D02*
X3408Y160D01*
X3106D02*
X3357Y411D01*
X3131Y409D02*
X3380Y160D01*
X3044Y409D02*
X3344D01*
X3103D02*
X3351Y160D01*
X2330D02*
X3445D01*
X3078D02*
X3326Y409D01*
X3253Y477D02*
X3287Y511D01*
X3264Y502D02*
X3289Y477D01*
X3249Y489D02*
X3260Y477D01*
X3226Y484D02*
X3232Y477D01*
X3301Y493D02*
X3317Y477D01*
X3310D02*
X3318Y485D01*
X3282Y477D02*
X3299Y495D01*
X3169Y477D02*
X3193Y502D01*
X3158Y495D02*
X3175Y477D01*
X3140D02*
X3157Y494D01*
X3197Y477D02*
X3208Y489D01*
X3225Y477D02*
X3232Y484D01*
X3170Y512D02*
X3204Y477D01*
X3018Y409D02*
X3266Y160D01*
X3021D02*
X3269Y409D01*
X2993Y160D02*
X3241Y409D01*
X3049Y160D02*
X3298Y409D01*
X3075D02*
X3323Y160D01*
X3046Y409D02*
X3295Y160D01*
X2933Y409D02*
X3182Y160D01*
X2936D02*
X3185Y409D01*
X2908Y160D02*
X3156Y409D01*
X2964Y160D02*
X3213Y409D01*
X2990D02*
X3238Y160D01*
X2961Y409D02*
X3210Y160D01*
X2927Y1622D02*
X3035Y1730D01*
X3027Y1729D02*
X3134Y1622D01*
X2899D02*
X3008Y1731D01*
X2986Y1572D02*
X2998Y1560D01*
X3070Y1572D02*
X3091Y1552D01*
X3071Y1540D02*
X3104Y1572D01*
X3061Y1558D02*
X3076Y1572D01*
X2785Y1622D02*
X3148Y1984D01*
X2804Y1839D02*
X3021Y1622D01*
X2790Y1825D02*
X2993Y1622D01*
X2888Y1840D02*
X3106Y1622D01*
X2870Y1829D02*
X3078Y1622D01*
X2816Y1855D02*
X3050Y1622D01*
X3099Y1572D02*
X3105Y1566D01*
X3068Y1509D02*
X3084Y1525D01*
X3069Y1545D02*
X3084Y1530D01*
X3071Y1515D02*
X3076Y1510D01*
X3062Y1496D02*
X3085Y1519D01*
X3044Y1569D02*
X3047Y1572D01*
X3042D02*
X3046Y1569D01*
X3032Y1472D02*
X3048Y1488D01*
X3043Y1486D02*
X3055Y1475D01*
X3016Y1486D02*
X3029Y1472D01*
X2870Y1622D02*
X2991Y1742D01*
X2954Y1564D02*
X2962Y1572D01*
X2872D02*
X2892Y1553D01*
X2901Y1572D02*
X2907Y1566D01*
X2957Y1572D02*
X2987Y1543D01*
X2967Y1549D02*
X2991Y1572D01*
X2872Y1538D02*
X2906Y1572D01*
X2814Y1622D02*
X2982Y1790D01*
X2842Y1622D02*
X2981Y1760D01*
X2767Y1677D02*
X2823Y1622D01*
X2844Y1572D02*
X2850Y1567D01*
X2862Y1557D02*
X2878Y1572D01*
X2846Y1569D02*
X2849Y1572D01*
X2973Y1526D02*
X2986Y1539D01*
X2973Y1529D02*
X2986Y1515D01*
X2867Y1549D02*
X2884Y1532D01*
X2866Y1504D02*
X2885Y1523D01*
X2918Y1471D02*
X2930Y1484D01*
X2834Y1472D02*
X2853Y1491D01*
X2768Y1548D02*
X2793Y1572D01*
X2788D02*
X2799Y1561D01*
X2773Y1524D02*
X2785Y1536D01*
X2819Y1485D02*
X2831Y1472D01*
X2773Y1531D02*
X2785Y1518D01*
X3131Y1484D02*
X3146Y1469D01*
X3115Y1470D02*
X3128Y1484D01*
X3104Y1469D02*
X3120Y1485D01*
X3111Y1475D02*
X3116Y1470D01*
X3055Y1003D02*
Y1392D01*
X3104Y944D02*
Y1391D01*
X3055Y1464D02*
Y1479D01*
X2971Y1417D02*
X3055Y1334D01*
X2962Y1398D02*
X3055Y1305D01*
X2772Y1418D02*
X3055Y1136D01*
X2855Y1392D02*
X3055Y1192D01*
X2868Y1407D02*
X3055Y1220D01*
X3104Y1346D02*
X3144Y1387D01*
X3104Y1374D02*
X3115Y1386D01*
X2945Y1387D02*
X3055Y1277D01*
X3033Y1384D02*
X3055Y1362D01*
X2936Y1122D02*
X3055Y1240D01*
X2950Y1108D02*
X3055Y1212D01*
X2922Y1136D02*
X3055Y1269D01*
X2866Y1193D02*
X3055Y1382D01*
X2880Y1178D02*
X3055Y1353D01*
X2919Y1385D02*
X3055Y1249D01*
X2834Y1384D02*
X3055Y1164D01*
X2908Y1150D02*
X3055Y1297D01*
X2894Y1164D02*
X3055Y1325D01*
X2944Y1469D02*
X2987Y1512D01*
X2967Y1506D02*
X3007Y1466D01*
X2871Y1517D02*
X2917Y1471D01*
X2933Y1484D02*
X2950Y1467D01*
X2961Y1458D02*
X2999Y1495D01*
X2971Y1440D02*
X3017Y1485D01*
X2953Y1491D02*
X2992Y1453D01*
X2854Y1464D02*
X2892Y1502D01*
X2862Y1498D02*
X2899Y1461D01*
X2768Y1507D02*
X2808Y1467D01*
X2867Y1449D02*
X2907Y1489D01*
X2845Y1487D02*
X2887Y1444D01*
X2772Y1438D02*
X2818Y1485D01*
X2967Y1449D02*
X2984Y1432D01*
X2968Y1409D02*
X2984Y1425D01*
X2873Y1426D02*
X2886Y1439D01*
X2873Y1431D02*
X2885Y1418D01*
X2837Y1221D02*
X3006Y1390D01*
X2851Y1207D02*
X3028Y1384D01*
X2767Y1292D02*
X2887Y1412D01*
X2781Y1277D02*
X2899Y1395D01*
X2823Y1235D02*
X2992Y1404D01*
X2809Y1249D02*
X2948Y1388D01*
X2795Y1263D02*
X2917Y1385D01*
X2762Y1796D02*
X2936Y1622D01*
X2754Y1776D02*
X2908Y1622D01*
X2754Y1719D02*
X2852Y1622D01*
X2763Y1653D02*
X2795Y1622D01*
X2754Y1748D02*
X2880Y1622D01*
X2759Y1572D02*
X2787Y1544D01*
X2755Y1563D02*
X2764Y1572D01*
X2729Y1622D02*
X2739Y1631D01*
X2731Y1629D02*
X2738Y1622D01*
X2691Y1641D02*
X2710Y1622D01*
X2672D02*
X2692Y1641D01*
X2703Y1572D02*
X2708Y1567D01*
X2644Y1622D02*
X2658Y1636D01*
X2703Y1483D02*
X2709Y1488D01*
X2674Y1572D02*
X2693Y1554D01*
X2678Y1514D02*
X2685Y1521D01*
X2720Y1471D02*
X2733Y1484D01*
X2672Y1536D02*
X2708Y1572D01*
X2664Y1555D02*
X2685Y1534D01*
X2663Y1556D02*
X2680Y1572D01*
X2672Y1519D02*
X2697Y1495D01*
X2611Y1636D02*
X2625Y1622D01*
X2640Y1636D02*
X2654Y1622D01*
X2541Y1636D02*
X2597Y1580D01*
X2610Y1636D02*
X2624Y1622D01*
X2556Y1562D02*
X2585Y1591D01*
X2537Y1571D02*
X2571Y1605D01*
X2449Y1568D02*
X2517Y1636D01*
X2526D02*
X2600Y1562D01*
X2425Y1572D02*
X2497Y1644D01*
X2498Y1636D02*
X2588Y1546D01*
X2472Y1535D02*
X2557Y1619D01*
X2464Y1555D02*
X2543Y1633D01*
X2647Y1568D02*
X2651Y1572D01*
X2646D02*
X2655Y1563D01*
X2572Y1522D02*
X2585Y1534D01*
X2621Y1484D02*
X2633Y1472D01*
X2636Y1472D02*
X2643Y1479D01*
X2573Y1533D02*
X2585Y1521D01*
X2569Y1546D02*
X2599Y1577D01*
X2472Y1520D02*
X2521Y1472D01*
X2523Y1472D02*
X2535Y1484D01*
X2423Y1484D02*
X2436Y1472D01*
X2762Y1457D02*
X2800Y1494D01*
X2755Y1492D02*
X2793Y1454D01*
X2746Y1469D02*
X2788Y1511D01*
X2734Y1484D02*
X2755Y1463D01*
X2764Y1455D02*
X2785Y1434D01*
X2762Y1400D02*
X3055Y1107D01*
X2766Y1404D02*
X2785Y1423D01*
X2700Y1490D02*
X2719Y1471D01*
X2469Y1410D02*
X3055Y824D01*
X2563Y1401D02*
X3055Y909D01*
X2724Y1334D02*
X2792Y1402D01*
X2746Y1387D02*
X3055Y1079D01*
X2752Y1306D02*
X2830Y1384D01*
X2710Y1348D02*
X2753Y1391D01*
X2738Y1320D02*
X2807Y1389D01*
X2704Y1373D02*
X3055Y1022D01*
X2704Y1354D02*
X3055Y1003D01*
X2721Y1384D02*
X3055Y1051D01*
X2548Y1388D02*
X3055Y881D01*
X2523Y1384D02*
X3055Y853D01*
X2662Y1327D02*
X3055Y934D01*
X2401Y1393D02*
X3055Y740D01*
X2438Y1385D02*
X3055Y768D01*
X2457Y1394D02*
X3055Y796D01*
X2637Y1485D02*
X2655Y1467D01*
X2704Y1465D02*
Y1477D01*
X2547Y1468D02*
X2588Y1509D01*
X2568Y1509D02*
X2609Y1468D01*
X2563Y1456D02*
X2601Y1494D01*
X2572Y1436D02*
X2620Y1485D01*
X2556Y1493D02*
X2594Y1455D01*
X2463Y1501D02*
X2501Y1463D01*
X2456Y1462D02*
X2494Y1500D01*
X2437Y1471D02*
X2485Y1519D01*
X2469Y1446D02*
X2510Y1488D01*
X2536Y1484D02*
X2585Y1436D01*
X2448Y1488D02*
X2489Y1447D01*
X2704Y1354D02*
Y1391D01*
Y1370D02*
X2718Y1385D01*
X2636Y1384D02*
X2655Y1366D01*
Y1344D02*
Y1392D01*
X2472Y1422D02*
X2485Y1434D01*
X2472Y1435D02*
X2485Y1423D01*
X2572Y1420D02*
X2656Y1336D01*
X3007Y1051D02*
X3055Y1099D01*
X3021Y1037D02*
X3055Y1071D01*
X2979Y1079D02*
X3055Y1156D01*
X2993Y1065D02*
X3055Y1127D01*
X3035Y1023D02*
X3055Y1042D01*
X3104Y665D02*
Y944D01*
X3055Y664D02*
Y934D01*
X2849Y667D02*
X3055Y873D01*
X2938Y671D02*
X3055Y788D01*
X2965Y1094D02*
X3055Y1184D01*
X2770Y644D02*
X3055Y929D01*
X2864Y654D02*
X3055Y844D01*
X2902Y664D02*
X3055Y816D01*
X3104Y690D02*
X3122Y672D01*
X3121Y572D02*
X3134Y584D01*
X3055Y577D02*
Y592D01*
X3106Y585D02*
X3109Y588D01*
X3104Y587D02*
X3120Y571D01*
X3126Y584D02*
X3138Y571D01*
X2957Y662D02*
X3055Y760D01*
X2969Y646D02*
X3055Y731D01*
X3048Y668D02*
X3055Y675D01*
X3040Y585D02*
X3056Y568D01*
X3049Y1009D02*
X3055Y1014D01*
X3024Y672D02*
X3055Y703D01*
X2872Y634D02*
X2893Y654D01*
X2871Y640D02*
X2884Y627D01*
X2972Y620D02*
X2984Y633D01*
X2973Y624D02*
X2990Y607D01*
X2826Y672D02*
X3055Y901D01*
X2773Y626D02*
X2788Y610D01*
X2772Y618D02*
X2784Y631D01*
X2838Y571D02*
X2885Y618D01*
X2870Y613D02*
X2914Y570D01*
X3036Y572D02*
X3055Y590D01*
X3007Y589D02*
X3024Y572D01*
X2924Y572D02*
X2936Y584D01*
X2928Y584D02*
X2941Y571D01*
X2965Y603D02*
X3004Y565D01*
X2964Y555D02*
X3001Y593D01*
X2948Y568D02*
X2989Y609D01*
X2811Y587D02*
X2826Y572D01*
X2802Y564D02*
X2823Y584D01*
X2766Y604D02*
X2805Y565D01*
X2857Y562D02*
X2895Y599D01*
X2859Y596D02*
X2896Y558D01*
X2764Y554D02*
X2803Y592D01*
X3062Y560D02*
X3085Y537D01*
X3069Y547D02*
X3072Y550D01*
X3073Y523D02*
X3085Y535D01*
X3072Y520D02*
X3084Y533D01*
X3140Y485D02*
X3147Y477D01*
X3027D02*
X3034Y484D01*
X2972Y536D02*
X3021Y584D01*
X2999Y477D02*
X3009Y488D01*
X3029Y477D02*
X3036Y484D01*
X2970Y513D02*
X3006Y477D01*
X3127D02*
X3133Y484D01*
X2905Y409D02*
X3153Y160D01*
X3028Y484D02*
X3032Y480D01*
X2880Y160D02*
X3128Y409D01*
X2851Y160D02*
X3100Y409D01*
X2877D02*
X3125Y160D01*
X2848Y409D02*
X3097Y160D01*
X2766D02*
X3015Y409D01*
X2792D02*
X3040Y160D01*
X2764Y409D02*
X3012Y160D01*
X2820Y409D02*
X3068Y160D01*
X2823D02*
X3071Y409D01*
X2795Y160D02*
X3043Y409D01*
X2950Y589D02*
X2990Y550D01*
X2971Y540D02*
X2984Y527D01*
X2869Y546D02*
X2911Y587D01*
X2872Y520D02*
X2884Y533D01*
X2942Y477D02*
X2985Y520D01*
X2873Y526D02*
X2888Y510D01*
X2841Y586D02*
X2886Y541D01*
X2772Y534D02*
X2793Y554D01*
X2770Y543D02*
X2784Y529D01*
X2857Y477D02*
X2889Y509D01*
X2771Y514D02*
X2808Y477D01*
X2911Y487D02*
X2921Y477D01*
X2914D02*
X2921Y484D01*
X2866Y504D02*
X2893Y477D01*
X2886D02*
X2901Y493D01*
X2971Y477D02*
X2994Y501D01*
X2959Y496D02*
X2977Y477D01*
X2941Y486D02*
X2949Y477D01*
X2773D02*
X2795Y499D01*
X2801Y477D02*
X2811Y487D01*
X2760Y497D02*
X2779Y477D01*
X2852Y490D02*
X2864Y477D01*
X2829D02*
X2836Y484D01*
X2830Y484D02*
X2836Y477D01*
X2708Y667D02*
X3015Y974D01*
X2740Y671D02*
X3029Y960D01*
X2628Y672D02*
X2972Y1016D01*
X2651Y666D02*
X2986Y1002D01*
X2665Y653D02*
X3000Y988D01*
X2758Y661D02*
X3043Y946D01*
X2570Y643D02*
X2958Y1031D01*
X2512Y669D02*
X2916Y1073D01*
X2541Y670D02*
X2930Y1059D01*
X2430Y672D02*
X2873Y1115D01*
X2466Y652D02*
X2901Y1087D01*
X2559Y660D02*
X2944Y1045D01*
X2452Y666D02*
X2887Y1101D01*
X2730Y584D02*
X2744Y570D01*
X2673Y632D02*
X2689Y649D01*
X2726Y572D02*
X2739Y585D01*
X2749Y567D02*
X2789Y607D01*
X2752Y590D02*
X2791Y551D01*
X2680Y526D02*
X2684Y531D01*
X2671Y614D02*
X2715Y570D01*
X2658Y561D02*
X2696Y598D01*
X2640Y571D02*
X2686Y617D01*
X2660Y597D02*
X2697Y560D01*
X2670Y544D02*
X2712Y587D01*
X2643Y586D02*
X2687Y542D01*
X2670Y643D02*
X2684Y629D01*
X2571Y615D02*
X2584Y628D01*
X2573Y628D02*
X2587Y614D01*
X2551Y566D02*
X2590Y606D01*
X2567Y605D02*
X2606Y566D01*
X2469Y647D02*
X2484Y631D01*
X2473Y630D02*
X2488Y645D01*
X2471Y616D02*
X2517Y571D01*
X2461Y598D02*
X2498Y560D01*
X2441Y570D02*
X2486Y615D01*
X2614Y586D02*
X2628Y572D01*
X2608Y567D02*
X2625Y584D01*
X2565Y553D02*
X2604Y591D01*
X2532Y584D02*
X2547Y568D01*
X2553Y591D02*
X2591Y552D01*
X2573Y532D02*
X2589Y549D01*
X2569Y547D02*
X2584Y531D01*
X2528Y572D02*
X2541Y586D01*
X2417Y585D02*
X2430Y572D01*
X2412Y569D02*
X2426Y584D01*
X2459Y560D02*
X2497Y597D01*
X2470Y543D02*
X2514Y586D01*
X2444Y587D02*
X2487Y544D01*
X2744Y477D02*
X2785Y518D01*
X2743Y486D02*
X2751Y477D01*
X2571Y516D02*
X2927Y160D01*
X2728Y477D02*
X3029D01*
X2721Y484D02*
X2728Y477D01*
X2467Y507D02*
X2814Y160D01*
X2454Y492D02*
X2786Y160D01*
X2434Y484D02*
X2757Y160D01*
X2561Y498D02*
X2899Y160D01*
X2544Y487D02*
X2870Y160D01*
X2517Y485D02*
X2842Y160D01*
X2738D02*
X2987Y409D01*
X2714D02*
X3044D01*
X2710Y160D02*
X2958Y409D01*
X2735D02*
X2984Y160D01*
X2706Y409D02*
X2955Y160D01*
X2682D02*
X2930Y409D01*
X2653Y160D02*
X2902Y409D01*
X2512Y160D02*
X2760Y409D01*
X2540Y160D02*
X2789Y409D01*
X2484Y160D02*
X2732Y409D01*
X2597Y160D02*
X2845Y409D01*
X2625Y160D02*
X2873Y409D01*
X2568Y160D02*
X2817Y409D01*
X2673Y533D02*
X2685Y520D01*
X2473Y530D02*
X2486Y517D01*
X2471Y515D02*
X2484Y528D01*
X2624Y484D02*
X2689Y419D01*
X2319Y420D02*
X2397Y497D01*
X2320Y392D02*
X2414Y486D01*
X2319Y448D02*
X2386Y515D01*
X2320Y336D02*
X2490Y506D01*
X2321Y308D02*
X2504Y491D01*
X2320Y364D02*
X2441Y486D01*
X2455Y160D02*
X2705Y410D01*
X2399Y160D02*
X2673Y435D01*
X2427Y160D02*
X2687Y420D01*
X2370Y160D02*
X2659Y449D01*
X2319Y429D02*
X2588Y160D01*
X2319Y400D02*
X2559Y160D01*
X2320Y371D02*
X2531Y160D01*
X2342D02*
X2645Y463D01*
X2320Y343D02*
X2503Y160D01*
X2321Y314D02*
X2475Y160D01*
X2000Y2558D02*
X2037Y2521D01*
X2028Y2558D02*
X2051Y2535D01*
X1906Y2524D02*
X1940Y2558D01*
X1972D02*
X2023Y2507D01*
X1915Y2558D02*
X1994Y2479D01*
X1943Y2558D02*
X2009Y2493D01*
X1887Y2558D02*
X1980Y2465D01*
X1689Y2558D02*
X1881Y2366D01*
X1667Y2256D02*
X1968Y2558D01*
X1661D02*
X1867Y2351D01*
X1700Y2233D02*
X2025Y2558D01*
X1751Y2256D02*
X2053Y2558D01*
X1687Y2248D02*
X1996Y2558D01*
X1897Y2543D02*
X1912Y2558D01*
X2057D02*
X2065Y2549D01*
X1879Y2554D02*
X1883Y2558D01*
X1906Y2510D02*
X1966Y2450D01*
X1898Y2491D02*
X1952Y2436D01*
X1881Y2479D02*
X1938Y2422D01*
X1853Y2479D02*
X1924Y2408D01*
X1745Y2558D02*
X1910Y2394D01*
X1822Y2306D02*
X2074Y2558D01*
X1717D02*
X1895Y2380D01*
X1848Y2551D02*
X1855Y2558D01*
X1802D02*
X1830Y2530D01*
X1830Y2558D02*
X1842Y2547D01*
X1774Y2558D02*
X1830Y2502D01*
X1604Y2558D02*
X1839Y2323D01*
X1632Y2558D02*
X1853Y2337D01*
X1576Y2558D02*
X1825Y2309D01*
X1595Y2241D02*
X1840Y2486D01*
X1604Y2222D02*
X1859Y2477D01*
X1578Y2253D02*
X1829Y2504D01*
X1777Y2254D02*
X1814Y2290D01*
X1794Y2242D02*
X1813Y2262D01*
X1804Y2224D02*
X1813Y2234D01*
X1806Y2215D02*
X1813Y2207D01*
X1801Y2193D02*
X1813Y2205D01*
X1696Y2240D02*
X1717Y2219D01*
X1705Y2210D02*
X1718Y2223D01*
X1605Y2217D02*
X1618Y2205D01*
X1598Y2188D02*
X1617Y2207D01*
X1801Y2192D02*
X1813Y2179D01*
X1787Y2177D02*
X1813Y2151D01*
X1767Y2168D02*
X1813Y2122D01*
Y1981D02*
Y2286D01*
X1695Y2184D02*
X1813Y2066D01*
X1704Y2203D02*
X1813Y2094D01*
X1654Y2169D02*
X1813Y2009D01*
X1660Y2134D02*
X1813Y1981D01*
X1679Y2172D02*
X1813Y2037D01*
X1611Y1947D02*
X1813Y2149D01*
X1640Y1947D02*
X1813Y2120D01*
X1583Y1947D02*
X1813Y2177D01*
X2305Y1954D02*
Y1996D01*
X2300Y1975D02*
X2305Y1970D01*
X2300Y2001D02*
X2305Y1996D01*
X2300Y1985D02*
X2305Y1990D01*
X1753Y1947D02*
X1813Y2007D01*
X2300Y2001D02*
X2301Y1874D01*
X1779Y1947D02*
X1813Y1981D01*
X1678Y1957D02*
X1813Y2092D01*
X1703Y1954D02*
X1813Y2064D01*
X1669Y2098D02*
X1799Y1967D01*
X1658Y2080D02*
X1785Y1953D01*
X1724Y1947D02*
X1813Y2036D01*
X1640Y2069D02*
X1763Y1947D01*
X1669Y2117D02*
X1731Y2180D01*
X1659Y2136D02*
X1720Y2196D01*
X1641Y2146D02*
X1663Y2168D01*
X1619Y2039D02*
X1749Y2170D01*
X1608Y2141D02*
X1640Y2173D01*
X1589Y2178D02*
X1620Y2147D01*
X1601Y2193D02*
X1656Y2138D01*
X1569Y2169D02*
X1602Y2136D01*
X1616Y2065D02*
X1621Y2069D01*
X1616Y2065D02*
X1735Y1947D01*
X1618Y2035D02*
X1697Y1956D01*
X1606Y2018D02*
X1670Y1954D01*
X1583Y2088D02*
X1592Y2097D01*
X1588Y2009D02*
X1650Y1947D01*
X1519Y2558D02*
X1813Y2264D01*
X1547Y2558D02*
X1814Y2291D01*
X1463Y2558D02*
X1764Y2257D01*
X1468Y2256D02*
X1770Y2558D01*
X1491D02*
X1813Y2235D01*
X1501Y2232D02*
X1827Y2558D01*
X1488Y2248D02*
X1798Y2558D01*
X1430Y2303D02*
X1685Y2558D01*
X1430D02*
X2074D01*
X1430Y2388D02*
X1600Y2558D01*
X1434D02*
X1741Y2252D01*
X1405Y2221D02*
X1742Y2558D01*
X1430Y2274D02*
X1714Y2558D01*
X1430Y2359D02*
X1629Y2558D01*
X1430Y2331D02*
X1657Y2558D01*
X1430Y2444D02*
X1544Y2558D01*
X1430Y2416D02*
X1572Y2558D01*
X1553Y2256D02*
X1832Y2535D01*
X1430Y2534D02*
X1725Y2239D01*
X1430Y2506D02*
X1688Y2247D01*
X1430Y2477D02*
X1652Y2256D01*
X1430Y2393D02*
X1566Y2256D01*
X1430Y2364D02*
X1542Y2252D01*
X1430Y2449D02*
X1633Y2246D01*
X1430Y2421D02*
X1621Y2230D01*
X1430Y2336D02*
X1526Y2240D01*
X1430Y2501D02*
X1487Y2558D01*
X1430Y2472D02*
X1516Y2558D01*
X1430Y2270D02*
Y2558D01*
Y2529D02*
X1459Y2558D01*
X1430Y2308D02*
X1518Y2220D01*
X1430Y2279D02*
X1453Y2256D01*
X1411Y2270D02*
X1434Y2247D01*
X1380Y2253D02*
X1397Y2270D01*
X1130D02*
X1430D01*
X1298D02*
X1327Y2241D01*
X1383Y2270D02*
X1421Y2232D01*
X1396Y2240D02*
X1426Y2270D01*
X1302Y2231D02*
X1341Y2270D01*
X1355Y2256D02*
X1369Y2270D01*
X1505Y2208D02*
X1518Y2221D01*
X1326Y2270D02*
X1343Y2253D01*
X1355Y2270D02*
X1369Y2256D01*
X1405Y2220D02*
X1417Y2207D01*
X1289Y2247D02*
X1312Y2270D01*
X1270D02*
X1318Y2222D01*
X1270Y2256D02*
X1284Y2270D01*
X1305Y2206D02*
X1317Y2218D01*
X1305Y2206D02*
X1326Y2185D01*
X1496Y2185D02*
X1597Y2084D01*
X1505Y2205D02*
X1591Y2118D01*
X1480Y2172D02*
X1567Y2086D01*
X1385Y1947D02*
X1625Y2187D01*
X1390Y2178D02*
X1621Y1947D01*
X1402Y2195D02*
X1541Y2056D01*
X1272Y1947D02*
X1520Y2195D01*
X1297Y2186D02*
X1537Y1947D01*
X1282Y2173D02*
X1508Y1947D01*
X1334Y2177D02*
X1565Y1947D01*
X1357D02*
X1586Y2175D01*
X1300Y1947D02*
X1532Y2179D01*
X1555Y1947D02*
X1781Y2172D01*
X1456Y2168D02*
X1550Y2074D01*
X1498Y1947D02*
X1563Y2012D01*
X1526Y1947D02*
X1589Y2009D01*
X1470Y1947D02*
X1548Y2024D01*
X1371Y2169D02*
X1593Y1947D01*
X1413D02*
X1597Y2130D01*
X1448Y1953D02*
X1540Y2045D01*
X1328Y1947D02*
X1551Y2169D01*
X1339Y2088D02*
X1480Y1947D01*
X1244D02*
X1465Y2168D01*
X1323Y2111D02*
X1417Y2205D01*
X1302Y2118D02*
X1353Y2169D01*
X1202Y2196D02*
X1284Y2115D01*
X1336Y2095D02*
X1426Y2186D01*
X1339Y2070D02*
X1441Y2173D01*
X1191Y2179D02*
X1268Y2102D01*
X1160Y2032D02*
X1321Y2194D01*
X1140Y2173D02*
X1367Y1947D01*
X1152Y2052D02*
X1267Y2168D01*
X1098Y2187D02*
X1339Y1947D01*
X1102D02*
X1333Y2178D01*
X1083Y2174D02*
X1310Y1947D01*
X1337Y2062D02*
X1445Y1953D01*
X1324Y2046D02*
X1421Y1949D01*
X1304Y2038D02*
X1395Y1947D01*
X1259Y2168D02*
X1310Y2117D01*
X1165Y1953D02*
X1267Y2055D01*
X1187Y1947D02*
X1283Y2042D01*
X1215Y1947D02*
X1308Y2039D01*
X1061Y2168D02*
X1282Y1947D01*
X2301Y1901D02*
X2325Y1925D01*
X2301Y1929D02*
X2311Y1939D01*
X2313Y1937D02*
X2364Y1885D01*
X2301Y1918D02*
X2325Y1894D01*
X2300Y1957D02*
X2305Y1962D01*
X2301Y1946D02*
X2356Y1891D01*
X1813Y1785D02*
Y1900D01*
X1774Y1855D02*
X1813Y1894D01*
X2302Y1817D02*
X2311Y1826D01*
X2301Y1889D02*
X2308Y1883D01*
X1805Y1820D02*
X1813Y1811D01*
X2303Y1761D02*
X2351Y1810D01*
X2303Y1733D02*
X2365Y1795D01*
X2302Y1789D02*
X2330Y1817D01*
X1763Y1889D02*
X1813Y1839D01*
X1792Y1844D02*
X1813Y1866D01*
X1792Y1889D02*
X1813Y1868D01*
X1803Y1827D02*
X1813Y1838D01*
X1804Y1799D02*
X1813Y1809D01*
X1802Y1795D02*
X1812Y1784D01*
X1744Y1853D02*
X1780Y1889D01*
X1714D02*
X1791D01*
X1714Y1947D02*
X1779D01*
X1735Y1889D02*
X1769Y1856D01*
X1699Y1836D02*
X1752Y1889D01*
X1710Y1886D02*
X1743Y1853D01*
X1685Y1850D02*
X1724Y1889D01*
X1622D02*
X1655Y1856D01*
X1593Y1843D02*
X1639Y1889D01*
X1650D02*
X1718Y1822D01*
X1594Y1889D02*
X1635Y1848D01*
X1790Y1778D02*
X1798Y1770D01*
X1705Y1814D02*
X1720Y1829D01*
X1705Y1806D02*
X1726Y1785D01*
X1734Y1777D02*
X1770Y1741D01*
X1771Y1769D02*
X1784Y1756D01*
X1697Y1786D02*
X1756Y1727D01*
X1690Y1878D02*
X1727Y1841D01*
X1663Y1857D02*
X1684Y1878D01*
X1603Y1826D02*
X1663Y1885D01*
X1604Y1822D02*
X1617Y1810D01*
X1602Y1796D02*
X1617Y1811D01*
X2304Y1622D02*
X2422Y1739D01*
X2305Y1594D02*
X2436Y1725D01*
X2304Y1677D02*
X2394Y1767D01*
X2304Y1649D02*
X2408Y1753D01*
X2306Y1538D02*
X2464Y1696D01*
X2306Y1510D02*
X2478Y1682D01*
X2305Y1566D02*
X2450Y1711D01*
X2302Y1832D02*
X2497Y1637D01*
X2302Y1803D02*
X2533Y1572D01*
X2304Y1689D02*
X2421Y1572D01*
X2303Y1775D02*
X2509Y1568D01*
X2303Y1746D02*
X2494Y1555D01*
X2303Y1717D02*
X2485Y1536D01*
X2306Y1482D02*
X2493Y1668D01*
X2306Y1488D02*
X2394Y1400D01*
X2307Y1454D02*
X2384Y1532D01*
X2307Y1426D02*
X2389Y1508D01*
X2307Y1398D02*
X2402Y1493D01*
X2308Y1370D02*
X2422Y1484D01*
X2308Y1342D02*
X2385Y1419D01*
X2304Y1660D02*
X2401Y1563D01*
X2304Y1631D02*
X2389Y1547D01*
X2305Y1603D02*
X2385Y1523D01*
X2305Y1574D02*
X2411Y1469D01*
X2305Y1545D02*
X2395Y1456D01*
X2306Y1517D02*
X2385Y1437D01*
X1747Y1719D02*
X1813Y1785D01*
X2303Y1705D02*
X2379Y1781D01*
X2085Y1407D02*
X2098Y1419D01*
X1739Y1457D02*
Y1699D01*
X1682Y1773D02*
X1743Y1712D01*
X1658Y1768D02*
X1739Y1688D01*
X1602Y1796D02*
X1739Y1659D01*
X1653Y1338D02*
X1728Y1413D01*
X1625Y1338D02*
X1728Y1441D01*
X2080Y1403D02*
X2098Y1385D01*
X1992Y1394D02*
X1997Y1398D01*
X2007Y1380D02*
X2025Y1398D01*
X2014Y1359D02*
X2053Y1398D01*
X2056D02*
X2098Y1357D01*
X1943Y1398D02*
X1951Y1391D01*
X1793Y1398D02*
X2065D01*
X1915D02*
X1938Y1376D01*
X1887Y1398D02*
X1934Y1351D01*
X1548Y1854D02*
X1582Y1889D01*
X1576Y1854D02*
X1611Y1889D01*
X1509D02*
X1545Y1854D01*
X1537Y1889D02*
X1571Y1856D01*
X1499Y1835D02*
X1554Y1889D01*
X1565D02*
X1622Y1833D01*
X1486Y1849D02*
X1526Y1889D01*
X1463Y1947D02*
X1658D01*
X1471Y1889D02*
X1658D01*
X1465Y1857D02*
X1498Y1889D01*
X1481D02*
X1528Y1842D01*
X1506Y1812D02*
X1519Y1826D01*
X1505Y1808D02*
X1522Y1791D01*
X1461Y1880D02*
X1518Y1823D01*
X1439Y1874D02*
X1457Y1856D01*
X1591Y1779D02*
X1739Y1631D01*
X1396Y1889D02*
X1436Y1849D01*
X1404Y1824D02*
X1459Y1879D01*
X1394Y1842D02*
X1428Y1876D01*
X1351Y1630D02*
X1519Y1798D01*
X1338Y1645D02*
X1461Y1768D01*
X1316Y1651D02*
X1439Y1774D01*
X1350Y1855D02*
X1385Y1889D01*
X1377Y1854D02*
X1411Y1887D01*
X1311Y1889D02*
X1346Y1854D01*
X1339Y1889D02*
X1374Y1855D01*
X1300Y1833D02*
X1356Y1889D01*
X1367D02*
X1423Y1834D01*
X1287Y1848D02*
X1328Y1889D01*
X1183Y1947D02*
X1417D01*
X1194Y1889D02*
X1409D01*
X1267Y1856D02*
X1300Y1889D01*
X1254D02*
X1319Y1825D01*
X1283Y1889D02*
X1329Y1843D01*
X1204Y1822D02*
X1271Y1889D01*
X1404Y1825D02*
X1417Y1812D01*
X1401Y1793D02*
X1417Y1809D01*
X1305Y1810D02*
X1318Y1823D01*
X1305Y1810D02*
X1320Y1795D01*
X1193Y1781D02*
X1324Y1651D01*
X1175Y1770D02*
X1299Y1647D01*
X1147Y1770D02*
X1283Y1634D01*
X1099Y1790D02*
X1276Y1613D01*
X1498Y1787D02*
X1739Y1546D01*
X1483Y1774D02*
X1739Y1518D01*
X1540Y1773D02*
X1739Y1575D01*
X1572Y1769D02*
X1739Y1603D01*
X1461Y1768D02*
X1739Y1490D01*
X1534Y1502D02*
X1741Y1708D01*
X1403Y1797D02*
X1739Y1461D01*
X1392Y1780D02*
X1729Y1443D01*
X1374Y1770D02*
X1726Y1417D01*
X1356Y1606D02*
X1530Y1781D01*
X1257Y1338D02*
X1719Y1800D01*
X1286Y1338D02*
X1729Y1782D01*
X1229Y1338D02*
X1659Y1768D01*
X1567Y1450D02*
X1739Y1622D01*
X1568Y1338D02*
X1739Y1509D01*
X1554Y1494D02*
X1739Y1678D01*
X1566Y1477D02*
X1739Y1650D01*
X1540Y1338D02*
X1739Y1537D01*
X1568Y1338D02*
X1739Y1509D01*
X1562Y1440D02*
X1664Y1338D01*
X1512D02*
X1739Y1565D01*
X1523Y1423D02*
X1608Y1338D01*
X1339Y1578D02*
X1580Y1338D01*
X1203Y1799D02*
X1507Y1495D01*
X1263Y1768D02*
X1528Y1502D01*
X1021Y1469D02*
X1331Y1780D01*
X1035Y1455D02*
X1350Y1770D01*
X1086Y1775D02*
X1523Y1338D01*
X1064Y1768D02*
X1495Y1338D01*
X1039Y1431D02*
X1381Y1773D01*
X1004Y1800D02*
X1466Y1338D01*
X999Y1475D02*
X1320Y1797D01*
X983Y1488D02*
X1263Y1768D01*
X994Y1782D02*
X1438Y1338D01*
X866Y1768D02*
X1297Y1338D01*
X804Y1802D02*
X1268Y1338D01*
X1355Y1619D02*
X1494Y1480D01*
X1352Y1594D02*
X1490Y1456D01*
X1427Y1338D02*
X1514Y1425D01*
X1399Y1338D02*
X1498Y1437D01*
X1088Y1338D02*
X1321Y1572D01*
X1031Y1338D02*
X1283Y1590D01*
X1059Y1338D02*
X1297Y1576D01*
X1003Y1338D02*
X1276Y1612D01*
X881Y2771D02*
X980Y2673D01*
X1123Y2558D02*
X1130Y2551D01*
X881Y2858D02*
X980D01*
X881Y2687D02*
X980Y2786D01*
X1010Y2558D02*
X1130Y2438D01*
X982Y2558D02*
X1130Y2410D01*
X1038Y2558D02*
X1130Y2466D01*
X881Y2743D02*
X980Y2645D01*
X881Y2631D02*
X980Y2729D01*
X881Y2800D02*
X980Y2701D01*
X881Y2630D02*
X1130Y2381D01*
X881Y2602D02*
X1130Y2353D01*
X881Y2560D02*
X986Y2456D01*
X1095Y2558D02*
X1130Y2523D01*
X1067Y2558D02*
X1130Y2495D01*
X987Y2454D02*
X1091Y2558D01*
X996Y2434D02*
X1120Y2558D01*
X996Y2377D02*
X1130Y2512D01*
X996Y2349D02*
X1130Y2483D01*
X996Y2406D02*
X1130Y2540D01*
X959Y2482D02*
X1035Y2558D01*
X980D02*
X1130D01*
X945Y2497D02*
X1007Y2558D01*
X973Y2468D02*
X1063Y2558D01*
X936Y2858D02*
X980Y2814D01*
X965Y2858D02*
X980Y2843D01*
X881Y2829D02*
X911Y2858D01*
X881Y2801D02*
X939Y2858D01*
X980Y2558D02*
Y2858D01*
X908D02*
X980Y2786D01*
X881Y2772D02*
X967Y2858D01*
X881Y2744D02*
X980Y2843D01*
X881Y2828D02*
X980Y2729D01*
X881Y2856D02*
X980Y2758D01*
X881Y2560D02*
Y2858D01*
Y2716D02*
X980Y2814D01*
X813Y2546D02*
Y2858D01*
X881Y2687D02*
X980Y2588D01*
X889Y2553D02*
X980Y2645D01*
X881Y2659D02*
X980Y2758D01*
X881Y2603D02*
X980Y2701D01*
X917Y2525D02*
X980Y2588D01*
X931Y2511D02*
X980Y2560D01*
X903Y2539D02*
X980Y2616D01*
X881Y2574D02*
X980Y2673D01*
X881Y2658D02*
X980Y2560D01*
X881Y2715D02*
X980Y2616D01*
X823Y2522D02*
X927Y2418D01*
X1039Y2251D02*
X1130Y2342D01*
X1090Y2246D02*
X1130Y2285D01*
Y2270D02*
Y2558D01*
X1072Y2256D02*
X1130Y2314D01*
X1185Y2270D02*
X1222Y2233D01*
X1197Y2239D02*
X1228Y2270D01*
X997Y2238D02*
X1130Y2370D01*
X996Y2321D02*
X1130Y2455D01*
X996Y2431D02*
X1130Y2297D01*
X881Y2573D02*
X1130Y2325D01*
X996Y2403D02*
X1145Y2254D01*
X996Y2264D02*
X1130Y2399D01*
X996Y2293D02*
X1130Y2427D01*
X1205Y2219D02*
X1256Y2270D01*
X1213D02*
X1235Y2248D01*
X1241Y2270D02*
X1255Y2256D01*
X1204Y2222D02*
X1217Y2210D01*
X1158Y2257D02*
X1171Y2270D01*
X1181Y2252D02*
X1199Y2270D01*
X1157D02*
X1171Y2256D01*
X955Y1941D02*
X1218Y2203D01*
X1102Y2229D02*
X1143Y2270D01*
X996Y2374D02*
X1128Y2242D01*
X996Y2318D02*
X1057Y2257D01*
X996Y2290D02*
X1036Y2249D01*
X996Y2261D02*
X1023Y2234D01*
X996Y2346D02*
X1118Y2223D01*
X842Y2252D02*
X927Y2337D01*
X891Y2245D02*
X927Y2280D01*
X873Y2255D02*
X927Y2309D01*
X996Y2240D02*
Y2432D01*
X927Y2240D02*
Y2418D01*
X1005Y2217D02*
X1023Y2235D01*
X1004Y2225D02*
X1017Y2212D01*
X1105Y2204D02*
X1117Y2216D01*
X1105Y2208D02*
X1122Y2191D01*
X903Y2228D02*
X927Y2252D01*
X904Y2201D02*
X917Y2214D01*
X905Y2210D02*
X920Y2195D01*
X795Y2858D02*
X813Y2840D01*
X767Y2858D02*
X813Y2812D01*
X691Y2780D02*
X769Y2858D01*
X738D02*
X813Y2784D01*
X682Y2858D02*
X813Y2727D01*
X710Y2858D02*
X813Y2755D01*
X688Y2748D02*
X797Y2858D01*
X680Y2797D02*
X741Y2858D01*
X430D02*
X813D01*
X662Y2807D02*
X713Y2858D01*
X625D02*
X813Y2671D01*
X653Y2858D02*
X813Y2699D01*
X430Y2604D02*
X684Y2858D01*
X693Y2762D02*
X813Y2642D01*
X693Y2640D02*
X813Y2760D01*
X663Y2667D02*
X813Y2817D01*
X682Y2658D02*
X813Y2788D01*
X690Y2610D02*
X813Y2732D01*
X668Y2731D02*
X813Y2586D01*
X684Y2743D02*
X813Y2614D01*
X430Y2462D02*
X813Y2845D01*
X640Y2730D02*
X813Y2557D01*
X569Y2858D02*
X628Y2799D01*
X597Y2858D02*
X647Y2808D01*
X430Y2830D02*
X458Y2858D01*
X430Y2802D02*
X486Y2858D01*
X540D02*
X616Y2783D01*
X455Y2858D02*
X646Y2667D01*
X512Y2858D02*
X615Y2755D01*
X430Y2745D02*
X543Y2858D01*
X430Y2717D02*
X571Y2858D01*
X430Y2773D02*
X515Y2858D01*
X430Y2660D02*
X628Y2858D01*
X430Y2632D02*
X656Y2858D01*
X430Y2689D02*
X599Y2858D01*
X430Y2799D02*
X620Y2608D01*
X430Y2855D02*
X628Y2657D01*
X430Y2827D02*
X617Y2640D01*
X430Y2575D02*
X614Y2759D01*
X430Y2491D02*
X673Y2733D01*
X430Y2519D02*
X641Y2730D01*
X430Y2547D02*
X624Y2741D01*
X684Y2601D02*
X927Y2358D01*
X667Y2590D02*
X927Y2330D01*
X484Y2858D02*
X927Y2415D01*
X694Y2619D02*
X927Y2387D01*
X430Y2742D02*
X927Y2245D01*
X635Y2593D02*
X927Y2302D01*
X430Y2714D02*
X919Y2225D01*
X430Y2770D02*
X927Y2274D01*
X430Y2685D02*
X859Y2257D01*
X430Y2657D02*
X837Y2250D01*
X430Y2123D02*
X826Y2519D01*
X430Y2095D02*
X840Y2504D01*
X430Y2629D02*
X818Y2241D01*
X784Y2250D02*
X927Y2393D01*
X803Y2241D02*
X927Y2365D01*
X762Y2257D02*
X925Y2420D01*
X795Y2241D02*
X827D01*
X430Y2010D02*
X882Y2462D01*
X430Y1981D02*
X896Y2448D01*
X430Y2066D02*
X854Y2490D01*
X430Y2038D02*
X868Y2476D01*
X430Y1953D02*
X911Y2434D01*
X430Y2290D02*
X863Y1857D01*
X430Y2318D02*
X920Y1828D01*
X430Y2261D02*
X840Y1851D01*
X430Y2233D02*
X825Y1838D01*
X430Y2349D02*
X673Y2593D01*
X430Y2572D02*
X748Y2255D01*
X430Y2406D02*
X625Y2601D01*
X430Y2377D02*
X643Y2590D01*
X430Y2208D02*
X813Y2590D01*
X430Y2179D02*
X813Y2562D01*
X430Y2601D02*
X777Y2254D01*
X430Y2321D02*
X813Y2703D01*
X430Y2293D02*
X813Y2675D01*
X430Y2434D02*
X616Y2620D01*
X430Y2264D02*
X813Y2647D01*
X430Y2236D02*
X813Y2619D01*
X430Y1730D02*
Y2858D01*
Y2544D02*
X730Y2244D01*
X430Y2516D02*
X719Y2227D01*
X430Y2488D02*
X719Y2198D01*
X430Y2151D02*
X814Y2535D01*
X430Y2459D02*
X733Y2157D01*
X430Y2403D02*
X733Y2100D01*
X430Y2374D02*
X733Y2072D01*
X430Y2431D02*
X733Y2128D01*
X430Y2346D02*
X736Y2040D01*
X430Y2205D02*
X785Y1850D01*
X430Y1925D02*
X717Y2212D01*
X1136Y2065D02*
X1243Y2172D01*
X1172Y2169D02*
X1260Y2082D01*
X1109Y2066D02*
X1227Y2184D01*
X1130Y1947D02*
X1260Y2076D01*
X1157Y2044D02*
X1254Y1947D01*
X1003Y2197D02*
X1136Y2065D01*
X892Y1963D02*
X1122Y2192D01*
X899Y2189D02*
X1141Y1947D01*
X926Y1941D02*
X1155Y2169D01*
X907Y1949D02*
X1135Y2177D01*
X1158Y2014D02*
X1226Y1947D01*
X1226Y1889D02*
X1259Y1857D01*
X1146Y1998D02*
X1197Y1947D01*
X1178Y1853D02*
X1215Y1889D01*
X1157Y1874D02*
X1177Y1854D01*
X1153Y1856D02*
X1171Y1874D01*
X1127Y1989D02*
X1163Y1953D01*
X1029Y1947D02*
X1141D01*
X1113Y1889D02*
X1148Y1855D01*
X1042Y1889D02*
X1130D01*
X992Y2180D02*
X1106Y2066D01*
X944Y2172D02*
X1081Y2035D01*
X974Y2170D02*
X1090Y2054D01*
X884Y2175D02*
X1112Y1947D01*
X1021Y1950D02*
X1083Y2012D01*
X989Y1946D02*
X1082Y2039D01*
X836Y2020D02*
X1018Y2202D01*
X850Y2005D02*
X1028Y2183D01*
X822Y2034D02*
X956Y2168D01*
X878Y1977D02*
X1070Y2169D01*
X863Y2168D02*
X1084Y1947D01*
X864Y1991D02*
X1044Y2171D01*
X1046Y1947D02*
X1096Y1996D01*
X1074Y1947D02*
X1116Y1988D01*
X1068Y1856D02*
X1102Y1889D01*
X1035Y1882D02*
X1061Y1857D01*
X955Y1856D02*
X982Y1883D01*
X915Y1941D02*
X981D01*
X903Y1883D02*
X981D01*
X921D02*
X949Y1855D01*
X870Y1856D02*
X898Y1884D01*
X1198Y1889D02*
X1237Y1850D01*
X1195Y1841D02*
X1243Y1889D01*
X1181Y1878D02*
X1223Y1835D01*
X1101Y1832D02*
X1146Y1877D01*
X1203Y1828D02*
X1217Y1814D01*
X1105Y1808D02*
X1118Y1821D01*
X1088Y1848D02*
X1130Y1889D01*
X1085D02*
X1130Y1844D01*
X996Y1840D02*
X1045Y1889D01*
X1056D02*
X1119Y1827D01*
X1005Y1821D02*
X1073Y1889D01*
X954Y1516D02*
X1225Y1787D01*
X968Y1502D02*
X1240Y1773D01*
X1106Y1812D02*
X1119Y1798D01*
X1198Y1788D02*
X1217Y1807D01*
X1038Y1427D02*
X1127Y1338D01*
X1028Y1408D02*
X1099Y1338D01*
X1011Y1398D02*
X1070Y1338D01*
X898Y1572D02*
X1120Y1795D01*
X884Y1587D02*
X1065Y1768D01*
X869Y1601D02*
X1041Y1773D01*
X940Y1530D02*
X1186Y1775D01*
X926Y1544D02*
X1151Y1769D01*
X912Y1558D02*
X1132Y1779D01*
X977Y1883D02*
X1024Y1837D01*
X1016Y1873D02*
X1039Y1851D01*
X949Y1883D02*
X980Y1852D01*
X980Y1853D02*
X1001Y1873D01*
X1001Y1831D02*
X1017Y1816D01*
X905Y1814D02*
X918Y1801D01*
X889Y1887D02*
X931Y1845D01*
X902Y1831D02*
X954Y1883D01*
X889Y1847D02*
X926Y1883D01*
X841Y1629D02*
X1017Y1805D01*
X855Y1615D02*
X1026Y1786D01*
X905Y1806D02*
X917Y1818D01*
X929Y1434D02*
X948Y1453D01*
X904Y1465D02*
X920Y1481D01*
X921Y1454D02*
X934Y1467D01*
X827Y1643D02*
X953Y1769D01*
X875Y1465D02*
X905Y1495D01*
X877Y1390D02*
X929Y1338D01*
X808Y2048D02*
X936Y2176D01*
X790Y2156D02*
X996Y1950D01*
X793Y2062D02*
X922Y2191D01*
X795Y2184D02*
X827D01*
X819D02*
X1056Y1947D01*
X793Y2181D02*
X1026Y1948D01*
X790Y2128D02*
X977Y1941D01*
X790Y2172D02*
X802Y2184D01*
X790Y2143D02*
X829Y2182D01*
X790Y2087D02*
X873Y2170D01*
X790Y2099D02*
X949Y1941D01*
X790Y2115D02*
X846Y2171D01*
X790Y2071D02*
X920Y1941D01*
X790Y2066D02*
X915Y1941D01*
X797Y1839D02*
X866Y1908D01*
X805Y1819D02*
X880Y1894D01*
X786Y1743D02*
X827Y1784D01*
X799Y1836D02*
X817Y1817D01*
X741Y2034D02*
X883Y1892D01*
X781Y1852D02*
X852Y1923D01*
X758Y1857D02*
X838Y1937D01*
X786Y1772D02*
X818Y1804D01*
X733Y2054D02*
Y2179D01*
X790Y2066D02*
Y2179D01*
X430Y1897D02*
X723Y2190D01*
X430Y1868D02*
X733Y2171D01*
X430Y2176D02*
X751Y1855D01*
X430Y1840D02*
X733Y2143D01*
X430Y2148D02*
X732Y1846D01*
X430Y2120D02*
X720Y1829D01*
X430Y1812D02*
X733Y2114D01*
X430Y2092D02*
X718Y1804D01*
X430Y1783D02*
X733Y2086D01*
X430Y2063D02*
X737Y1757D01*
X430Y1755D02*
X733Y2058D01*
X430Y1950D02*
X650Y1730D01*
X430Y1922D02*
X622Y1730D01*
X430Y2007D02*
X707Y1730D01*
X430Y1978D02*
X678Y1730D01*
X430Y1894D02*
X594Y1730D01*
X430Y1865D02*
X565Y1730D01*
X430Y1837D02*
X537Y1730D01*
X430Y1809D02*
X509Y1730D01*
X430Y1780D02*
X480Y1730D01*
X430D02*
X730D01*
X430Y1752D02*
X452Y1730D01*
X795Y1783D02*
X1240Y1338D01*
X813Y1657D02*
X933Y1778D01*
X799Y1671D02*
X921Y1794D01*
X786Y1687D02*
X868Y1769D01*
X786Y1764D02*
X1212Y1338D01*
X786Y1736D02*
X1184Y1338D01*
X786Y1707D02*
X1155Y1338D01*
X575Y1730D02*
X810Y1965D01*
X603Y1730D02*
X824Y1951D01*
X518Y1730D02*
X781Y1993D01*
X546Y1730D02*
X795Y1979D01*
X786Y1715D02*
X843Y1772D01*
X786Y1684D02*
Y1776D01*
Y1684D02*
X995Y1475D01*
X730Y1490D02*
X821Y1580D01*
X730Y1546D02*
X792Y1608D01*
X730Y1518D02*
X806Y1594D01*
X744Y1657D02*
X960Y1440D01*
X730Y1509D02*
X901Y1338D01*
X730Y1537D02*
X852Y1415D01*
X730Y1622D02*
X884Y1468D01*
X730Y1594D02*
X865Y1459D01*
X730Y1461D02*
X835Y1566D01*
X730Y1650D02*
X967Y1413D01*
X730Y1565D02*
X853Y1442D01*
X730Y1433D02*
X849Y1552D01*
X716Y1730D02*
X737Y1751D01*
X730Y1716D02*
X737Y1722D01*
X688Y1730D02*
X735Y1777D01*
X730Y1707D02*
X737Y1700D01*
Y1674D02*
Y1776D01*
X730Y1688D02*
X737Y1694D01*
X730Y1730D02*
X730Y1430D01*
X490Y1730D02*
X767Y2007D01*
X659Y1730D02*
X722Y1792D01*
X631Y1730D02*
X717Y1816D01*
X433Y1730D02*
X739Y2036D01*
X461Y1730D02*
X753Y2022D01*
X430Y2035D02*
X737Y1728D01*
X730Y1659D02*
X738Y1667D01*
X730Y1678D02*
X737Y1672D01*
X730Y1631D02*
X750Y1651D01*
X730Y1574D02*
X778Y1622D01*
X730Y1603D02*
X764Y1637D01*
X430Y1430D02*
X730D01*
X430Y1416D02*
X444Y1430D01*
X430Y1388D02*
X472Y1430D01*
X430Y1359D02*
X501Y1430D01*
X430Y1409D02*
Y1430D01*
X2309Y1230D02*
X2488Y1409D01*
X2310Y1202D02*
X2501Y1394D01*
X2308Y1314D02*
X2394Y1400D01*
X2028Y1398D02*
X2098Y1328D01*
X2311Y1119D02*
X2593Y1401D01*
X2311Y1091D02*
X2609Y1388D01*
X2310Y1147D02*
X2585Y1421D01*
X1858Y1398D02*
X2100Y1157D01*
X1830Y1398D02*
X2100Y1129D01*
X2000Y1398D02*
X2099Y1300D01*
X1781Y1391D02*
X2100Y1072D01*
X1755Y1388D02*
X2101Y1043D01*
X1802Y1398D02*
X2100Y1100D01*
X2309Y1286D02*
X2410Y1388D01*
X2309Y1258D02*
X2435Y1384D01*
X2014Y1356D02*
X2099Y1271D01*
X2007Y1335D02*
X2099Y1243D01*
X2310Y1174D02*
X2520Y1385D01*
X2311Y1063D02*
X2633Y1384D01*
X1991Y1322D02*
X2099Y1214D01*
X1901Y1133D02*
X2098Y1331D01*
X1966Y1319D02*
X2100Y1186D01*
X1901Y1161D02*
X2098Y1359D01*
X1901Y1076D02*
X2099Y1274D01*
X1901Y1048D02*
X2099Y1246D01*
X1901Y1104D02*
X2099Y1302D01*
X1787Y1274D02*
X1912Y1398D01*
X1803Y1262D02*
X1940Y1398D01*
X1885Y1202D02*
X2098Y1415D01*
X1901Y1189D02*
X2098Y1387D01*
X1820Y1250D02*
X1934Y1364D01*
X1722Y1322D02*
X1799Y1398D01*
X1706Y1334D02*
X1759Y1388D01*
X1682Y1338D02*
X1740Y1396D01*
X1755Y1298D02*
X1855Y1398D01*
X1771Y1286D02*
X1883Y1398D01*
X1738Y1310D02*
X1827Y1398D01*
X1852Y1226D02*
X1951Y1325D01*
X1868Y1214D02*
X1973Y1318D01*
X1836Y1238D02*
X1938Y1340D01*
X1727Y1191D02*
X1761Y1156D01*
X1717Y1144D02*
X1761Y1099D01*
X1713Y1119D02*
X1762Y1071D01*
X1717Y1147D02*
X1747Y1177D01*
X1700Y1338D02*
X1901Y1190D01*
X1706Y1165D02*
X1730Y1188D01*
X1689Y1176D02*
X1713Y1200D01*
X1712Y1057D02*
X1761Y1107D01*
X1700Y1104D02*
X1762Y1043D01*
X1698Y1072D02*
X1761Y1135D01*
X2314Y811D02*
X2746Y1243D01*
X2315Y783D02*
X2760Y1229D01*
X2314Y867D02*
X2718Y1271D01*
X2314Y839D02*
X2732Y1257D01*
X2309Y1288D02*
X2924Y672D01*
X2309Y1259D02*
X2904Y665D01*
X2309Y1230D02*
X2890Y650D01*
X2306Y1460D02*
X3055Y711D01*
X2307Y1431D02*
X3055Y683D01*
X2307Y1402D02*
X3038Y671D01*
X2308Y1374D02*
X3012Y669D01*
X2308Y1345D02*
X2995Y657D01*
X2308Y1316D02*
X2986Y639D01*
X2316Y699D02*
X2802Y1186D01*
X2316Y672D02*
X2817Y1172D01*
X2315Y755D02*
X2774Y1214D01*
X2315Y727D02*
X2788Y1200D01*
X2317Y616D02*
X2845Y1144D01*
X2317Y588D02*
X2859Y1130D01*
X2316Y644D02*
X2831Y1158D01*
X2310Y1202D02*
X2841Y671D01*
X2310Y1173D02*
X2814Y670D01*
X2311Y1087D02*
X2726Y672D01*
X2310Y1145D02*
X2796Y658D01*
X2311Y1116D02*
X2786Y641D01*
X2311Y1059D02*
X2705Y665D01*
X2312Y979D02*
X2661Y1328D01*
X2313Y951D02*
X2675Y1313D01*
X2312Y1035D02*
X2655Y1378D01*
X2312Y1007D02*
X2655Y1349D01*
X2313Y923D02*
X2689Y1299D01*
X2313Y895D02*
X2703Y1285D01*
X2302Y1837D02*
X2321Y288D01*
X1901Y991D02*
X2099Y1190D01*
X1901Y1187D02*
X2101Y986D01*
X1901Y1020D02*
X2099Y1218D01*
X2098Y1419D02*
X2107Y288D01*
X1901Y868D02*
Y1190D01*
X1761Y1168D02*
X1763Y868D01*
X1901Y1158D02*
X2101Y958D01*
X1901Y1130D02*
X2102Y929D01*
X1901Y963D02*
X2100Y1162D01*
X1901Y935D02*
X2100Y1134D01*
X1901Y1102D02*
X2102Y901D01*
X2312Y1030D02*
X2691Y651D01*
X1901Y906D02*
X2100Y1106D01*
X1901Y878D02*
X2100Y1078D01*
X1717Y1031D02*
X1762Y986D01*
X1718Y1035D02*
X1762Y1079D01*
X1901Y1073D02*
X2102Y872D01*
X1901Y1045D02*
X2102Y844D01*
X1839Y788D02*
X2101Y1050D01*
X1314Y1338D02*
X1746Y1771D01*
X1342Y1338D02*
X1774Y1770D01*
X1484Y1338D02*
X1739Y1593D01*
X1318Y1571D02*
X1551Y1338D01*
X1597D02*
X1739Y1480D01*
X1569Y1461D02*
X1693Y1338D01*
X1547Y1427D02*
X1636Y1338D01*
X1172D02*
X1624Y1789D01*
X1144Y1338D02*
X1577Y1771D01*
X1116Y1338D02*
X1548Y1770D01*
X1299Y1789D02*
X1888Y1200D01*
X1284Y1775D02*
X1780Y1279D01*
X1201Y1338D02*
X1638Y1775D01*
X1565Y1268D02*
X1660Y1173D01*
X1593Y1268D02*
X1684Y1177D01*
X1495Y1237D02*
X1527Y1268D01*
X1500Y1213D02*
X1555Y1268D01*
X1610D02*
X1761Y1168D01*
X1655Y1170D02*
X1696Y1211D01*
X1536Y1268D02*
X1645Y1160D01*
X889Y1338D02*
X1700D01*
X926Y1268D02*
X1610D01*
X1455Y1338D02*
X1542Y1424D01*
X1472Y1157D02*
X1583Y1268D01*
X1482Y1251D02*
X1498Y1268D01*
X1370Y1338D02*
X1490Y1457D01*
X1460Y1258D02*
X1470Y1268D01*
X1423D02*
X1439Y1252D01*
X1452Y1268D02*
X1462Y1258D01*
X1395Y1268D02*
X1425Y1238D01*
X1482Y1251D02*
X1498Y1268D01*
X1367D02*
X1420Y1214D01*
X974Y1338D02*
X1424Y1788D01*
X977Y1771D02*
X1410Y1338D01*
X950Y1770D02*
X1382Y1338D01*
X1328Y1154D02*
X1442Y1268D01*
X1338D02*
X1444Y1162D01*
X1310Y1268D02*
X1424Y1154D01*
X1413D02*
X1441Y1183D01*
X1450Y1163D02*
X1465Y1178D01*
X1384Y1154D02*
X1427Y1196D01*
X1282Y1268D02*
X1396Y1154D01*
X1124D02*
X1426D01*
X1243D02*
X1357Y1268D01*
X1356Y1154D02*
X1420Y1218D01*
X1384Y1154D02*
X1427Y1196D01*
X1299Y1154D02*
X1414Y1268D01*
X1643Y1246D02*
X1761Y1128D01*
X1675Y1077D02*
X1761Y1163D01*
X1679Y1097D02*
X1762Y1014D01*
X1344Y1772D02*
X2101Y1015D01*
X1480Y1268D02*
X1671Y1077D01*
X1456Y1178D02*
X1763Y872D01*
X1491Y1116D02*
X1818Y788D01*
X1360Y903D02*
X1679Y1222D01*
X1481Y1097D02*
X1790Y788D01*
X1464Y1086D02*
X1762Y788D01*
X1400Y1093D02*
X1761Y732D01*
X1434Y1088D02*
X1761Y761D01*
X1372Y1093D02*
X1689Y776D01*
X1345Y634D02*
X1762Y1051D01*
X1364Y624D02*
X1762Y1022D01*
X1313Y1038D02*
X1680Y672D01*
X1508Y1268D02*
X1638Y1138D01*
X1491Y1119D02*
X1628Y1256D01*
X1486Y1143D02*
X1611Y1267D01*
X1500Y1220D02*
X1652Y1068D01*
X1480Y1183D02*
X1641Y1022D01*
X1494Y1197D02*
X1640Y1051D01*
X1271Y1154D02*
X1385Y1268D01*
X1324Y924D02*
X1645Y1245D01*
X1254Y1268D02*
X1368Y1154D01*
X1346Y918D02*
X1662Y1234D01*
X1364Y879D02*
X1645Y1160D01*
X1285Y771D02*
X1639Y1126D01*
X1344Y1093D02*
X1669Y768D01*
X1309Y1022D02*
X1380Y1093D01*
X1313Y743D02*
X1668Y1098D01*
X1316Y1093D02*
X1656Y752D01*
X1327Y729D02*
X1638Y1040D01*
X1137Y1093D02*
X1426D01*
X1268Y924D02*
X1432Y1089D01*
X1268Y952D02*
X1408Y1093D01*
X1299Y757D02*
X1650Y1108D01*
X1287Y1093D02*
X1654Y726D01*
X1268Y896D02*
X1456Y1084D01*
X2314Y858D02*
X2506Y666D01*
X2315Y801D02*
X2447Y668D01*
X2315Y772D02*
X2417Y671D01*
X2315Y744D02*
X2398Y660D01*
X2314Y830D02*
X2491Y652D01*
X2316Y715D02*
X2387Y644D01*
X2316Y686D02*
X2386Y617D01*
X2312Y1001D02*
X2644Y670D01*
X2312Y973D02*
X2615Y670D01*
X2314Y887D02*
X2528Y672D01*
X2313Y944D02*
X2597Y660D01*
X2313Y915D02*
X2587Y642D01*
X1901Y706D02*
X2105Y501D01*
X2316Y658D02*
X2407Y567D01*
X2317Y629D02*
X2392Y553D01*
X2318Y560D02*
X2384Y626D01*
X2317Y600D02*
X2385Y533D01*
X2318Y532D02*
X2391Y605D01*
X2318Y504D02*
X2405Y591D01*
X2319Y476D02*
X2388Y545D01*
X1901Y649D02*
X2105Y444D01*
X1901Y621D02*
X2106Y416D01*
X1901Y677D02*
X2105Y473D01*
X1901Y564D02*
X2106Y359D01*
X1901Y536D02*
X2106Y330D01*
X1901Y593D02*
X2106Y387D01*
X1901Y1017D02*
X2102Y815D01*
X1901Y709D02*
X2102Y910D01*
X1901Y765D02*
X2101Y966D01*
X1901Y737D02*
X2101Y938D01*
X1901Y652D02*
X2102Y854D01*
X1901Y624D02*
X2102Y825D01*
X1901Y680D02*
X2102Y882D01*
X1901Y989D02*
X2103Y787D01*
X1901Y960D02*
X2103Y758D01*
X1895Y788D02*
X2101Y994D01*
X1901Y904D02*
X2103Y701D01*
X1901Y875D02*
X2104Y672D01*
X1901Y932D02*
X2103Y729D01*
X1901Y426D02*
X2104Y629D01*
X1901Y397D02*
X2104Y601D01*
X1901Y482D02*
X2104Y685D01*
X1901Y454D02*
X2104Y657D01*
X1901Y341D02*
X2105Y545D01*
X1901Y313D02*
X2105Y517D01*
X1901Y369D02*
X2104Y573D01*
X1901Y567D02*
X2103Y769D01*
X1901Y762D02*
X2105Y558D01*
X1901Y595D02*
X2103Y797D01*
X1901Y734D02*
X2105Y530D01*
X1901Y511D02*
X2103Y713D01*
X1901Y539D02*
X2103Y741D01*
X2317Y572D02*
X2729Y160D01*
X2318Y543D02*
X2701Y160D01*
X2318Y515D02*
X2672Y160D01*
X2314D02*
X2631Y477D01*
X2318Y486D02*
X2644Y160D01*
X2319Y457D02*
X2616Y160D01*
X2318Y288D02*
X2446Y160D01*
X2229D02*
X2586Y517D01*
X2201Y160D02*
X2525Y484D01*
X1901Y479D02*
X2220Y160D01*
X2257D02*
X2596Y498D01*
X2286Y160D02*
X2612Y487D01*
X2290Y288D02*
X2418Y160D01*
X2173D02*
X2300Y288D01*
X2177Y288D02*
X2305Y160D01*
X2144D02*
X2272Y288D01*
X2149Y288D02*
X2277Y160D01*
X2234Y288D02*
X2361Y160D01*
X2262Y288D02*
X2390Y160D01*
X2205Y288D02*
X2333Y160D01*
X2107Y288D02*
X2321Y288D01*
X2120Y288D02*
X2248Y160D01*
X2116D02*
X2244Y288D01*
X2110Y160D02*
X2322Y160D01*
X2110Y160D02*
X2330Y158D01*
X2110Y160D02*
X2322D01*
X1901Y508D02*
X2107Y302D01*
X1901Y228D02*
X2106Y433D01*
X1901Y284D02*
X2105Y489D01*
X1901Y256D02*
X2105Y461D01*
X1901Y451D02*
X2192Y160D01*
X1918D02*
X2106Y348D01*
X1901Y160D02*
Y788D01*
Y171D02*
X2106Y376D01*
X1901Y366D02*
X2107Y160D01*
X1901Y199D02*
X2106Y405D01*
X1901Y423D02*
X2163Y160D01*
X1901Y395D02*
X2135Y160D01*
X1901Y338D02*
X2079Y160D01*
X2003D02*
X2131Y288D01*
X1901Y160D02*
X2110D01*
X1946D02*
X2106Y320D01*
X1975Y160D02*
X2107Y292D01*
X2059Y160D02*
X2187Y288D01*
X2088Y160D02*
X2215Y288D01*
X2031Y160D02*
X2159Y288D01*
X1901Y253D02*
X1994Y160D01*
X1901Y225D02*
X1965Y160D01*
X1901Y197D02*
X1937Y160D01*
X1901Y310D02*
X2050Y160D01*
X1901Y281D02*
X2022Y160D01*
X1901Y168D02*
X1909Y160D01*
X1867Y788D02*
X2101Y1022D01*
X1810Y788D02*
X1890Y868D01*
X1782Y788D02*
X1862Y868D01*
X1795Y868D02*
X1875Y788D01*
X1852Y868D02*
X2104Y615D01*
X1823Y868D02*
X2104Y587D01*
X1880Y868D02*
X2104Y644D01*
X1663Y1000D02*
X1763Y900D01*
X1691Y1000D02*
X1763Y929D01*
X1708Y1011D02*
X1762Y957D01*
X1725Y759D02*
X1834Y868D01*
X1763Y868D02*
X1901Y868D01*
X1375Y608D02*
X1762Y994D01*
X1767Y868D02*
X1847Y788D01*
X1761D02*
X1901D01*
X1733Y738D02*
X1761Y767D01*
X1732Y733D02*
X1761Y704D01*
X1727Y653D02*
X1761Y619D01*
X1730Y622D02*
X1761Y591D01*
X1730Y623D02*
X1761Y654D01*
X1685Y775D02*
X1777Y868D01*
X1710Y772D02*
X1806Y868D01*
X1725Y712D02*
X1761Y676D01*
X1716Y666D02*
X1761Y710D01*
X1722Y587D02*
X1761Y625D01*
X1696Y674D02*
X1761Y739D01*
X1346Y719D02*
X1643Y1017D01*
X1362Y707D02*
X1658Y1003D01*
X1370Y687D02*
X1680Y997D01*
X1268Y801D02*
X1356Y713D01*
X1306Y1017D02*
X1662Y661D01*
X1272Y995D02*
X1673Y594D01*
X1291Y1004D02*
X1653Y643D01*
X1709Y700D02*
X1761Y647D01*
X1729Y650D02*
X1761Y682D01*
X1682Y698D02*
X1711Y669D01*
X1671Y592D02*
X1676Y597D01*
X1374Y578D02*
X1762Y966D01*
X1732Y569D02*
X1761Y597D01*
X1719Y605D02*
X1761Y563D01*
Y416D02*
Y788D01*
X1608Y416D02*
X1761Y569D01*
X1297Y416D02*
X1763Y882D01*
X1336Y846D02*
X1761Y421D01*
X1303Y851D02*
X1738Y416D01*
X1241D02*
X1763Y938D01*
X1269Y416D02*
X1763Y910D01*
X1268Y858D02*
X1709Y416D01*
X1734Y562D02*
X1761Y534D01*
X1728Y539D02*
X1761Y506D01*
X1721Y416D02*
X1761Y456D01*
X1750Y416D02*
X1761Y427D01*
X1714Y525D02*
X1761Y478D01*
X1691Y519D02*
X1761Y449D01*
X1693Y416D02*
X1761Y484D01*
X1637Y416D02*
X1761Y541D01*
X570Y416D02*
X1761D01*
X1665D02*
X1761Y512D01*
X1382Y416D02*
X1670Y704D01*
X1410Y416D02*
X1691Y696D01*
X1364Y875D02*
X1659Y579D01*
X1439Y416D02*
X1652Y630D01*
X1361Y708D02*
X1653Y416D01*
X1369Y672D02*
X1625Y416D01*
X1359Y654D02*
X1596Y416D01*
X1354Y857D02*
X1654Y557D01*
X1354Y416D02*
X1657Y719D01*
X1268Y830D02*
X1681Y416D01*
X1325D02*
X1654Y744D01*
X1068Y803D02*
X1455Y416D01*
X1467D02*
X1660Y610D01*
X1495Y416D02*
X1661Y582D01*
X1375Y581D02*
X1540Y416D01*
X1552D02*
X1666Y531D01*
X1580Y416D02*
X1684Y520D01*
X1523Y416D02*
X1655Y548D01*
X1312Y530D02*
X1427Y416D01*
X1304Y511D02*
X1398Y416D01*
X1287Y499D02*
X1370Y416D01*
X1375Y610D02*
X1568Y416D01*
X1364Y564D02*
X1511Y416D01*
X1344Y555D02*
X1483Y416D01*
X1215Y1154D02*
X1329Y1268D01*
X1225D02*
X1339Y1154D01*
X1169Y1268D02*
X1283Y1154D01*
X1197Y1268D02*
X1311Y1154D01*
X1186D02*
X1300Y1268D01*
X1311Y1053D02*
X1351Y1093D01*
X1174D02*
X1229Y1038D01*
X900Y1791D02*
X1353Y1338D01*
X887Y1776D02*
X1325Y1338D01*
X1112Y1268D02*
X1226Y1154D01*
X1140Y1268D02*
X1255Y1154D01*
X1158D02*
X1272Y1268D01*
X1130Y1154D02*
X1244Y1268D01*
X1300Y1070D02*
X1323Y1093D01*
X1300Y1070D02*
X1323Y1093D01*
X1259D02*
X1272Y1080D01*
X1281Y1079D02*
X1295Y1093D01*
X1268Y991D02*
X1277Y1001D01*
X1202Y1093D02*
X1238Y1057D01*
X1231Y1093D02*
X1251Y1073D01*
X1215Y1025D02*
X1234Y1044D01*
X1146Y1093D02*
X1214Y1024D01*
X1027Y1268D02*
X1141Y1154D01*
X1056Y1268D02*
X1170Y1154D01*
X977Y1403D02*
X1042Y1338D01*
X946D02*
X1004Y1396D01*
X999Y1268D02*
X1115Y1152D01*
X1084Y1268D02*
X1198Y1154D01*
X971Y1268D02*
X1098Y1140D01*
X890Y1338D02*
X966Y1414D01*
X918Y1338D02*
X981Y1401D01*
X904Y1391D02*
X957Y1338D01*
X930Y1422D02*
X1014Y1338D01*
X942Y1268D02*
X1084Y1126D01*
X921Y1403D02*
X986Y1338D01*
X920Y1262D02*
X1070Y1112D01*
X906Y1248D02*
X1056Y1098D01*
X892Y1234D02*
X1042Y1084D01*
X1127Y1083D02*
X1206Y1004D01*
X877Y1220D02*
X1028Y1070D01*
X863Y1206D02*
X1013Y1056D01*
X849Y1192D02*
X999Y1041D01*
X835Y1177D02*
X985Y1027D01*
X821Y1163D02*
X971Y1013D01*
X807Y1149D02*
X957Y999D01*
X793Y1135D02*
X943Y985D01*
X1268Y981D02*
X1292Y1005D01*
X1268Y971D02*
X1316Y923D01*
X1099Y1055D02*
X1206Y947D01*
X1071Y1027D02*
X1206Y891D01*
X1043Y840D02*
X1206Y1004D01*
X1268Y789D02*
Y991D01*
X1206Y776D02*
Y1004D01*
X908Y960D02*
X1216Y1268D01*
X1015Y841D02*
X1267Y1093D01*
X956Y839D02*
X1210Y1093D01*
X957Y811D02*
X1238Y1093D01*
X1000Y956D02*
X1324Y632D01*
X1014Y970D02*
X1206Y778D01*
X1268Y943D02*
X1297Y913D01*
X1268Y915D02*
X1286Y896D01*
X1271Y786D02*
X1330Y845D01*
X1268Y886D02*
X1291Y863D01*
X1268Y839D02*
X1291Y863D01*
X1268Y811D02*
X1306Y849D01*
X1268Y867D02*
X1285Y885D01*
X986Y942D02*
X1307Y620D01*
X972Y928D02*
X1298Y601D01*
X1028Y741D02*
X1206Y919D01*
X1113Y1069D02*
X1206Y976D01*
X1085Y1041D02*
X1206Y919D01*
X965Y921D02*
X1137Y1093D01*
X1057Y1012D02*
X1206Y862D01*
X1028Y984D02*
X1206Y806D01*
X1059Y828D02*
X1206Y976D01*
X1042Y998D02*
X1206Y834D01*
X922Y964D02*
X1103Y1145D01*
X778Y1121D02*
X929Y971D01*
X764Y1107D02*
X910Y961D01*
X956Y895D02*
X1154Y1093D01*
X956Y867D02*
X1182Y1093D01*
X750Y1093D02*
X894Y949D01*
X1059Y828D02*
X1206Y976D01*
X1067Y809D02*
X1206Y948D01*
X962Y909D02*
X1028Y843D01*
X1042Y726D02*
X1206Y891D01*
X1056Y712D02*
X1206Y863D01*
X956Y887D02*
X1006Y837D01*
X956Y812D02*
Y899D01*
Y858D02*
X992Y822D01*
X895Y800D02*
Y899D01*
X730Y1480D02*
X881Y1330D01*
X730Y1452D02*
X866Y1316D01*
X696Y1430D02*
X837Y1288D01*
X724Y1430D02*
X852Y1302D01*
X621Y1098D02*
X960Y1437D01*
X667Y1430D02*
X823Y1274D01*
X639Y1430D02*
X809Y1260D01*
X432Y1106D02*
X863Y1538D01*
X498Y1430D02*
X737Y1191D01*
X504Y1207D02*
X727Y1430D01*
X452Y1098D02*
X877Y1523D01*
X480Y1098D02*
X891Y1509D01*
X508Y1098D02*
X853Y1443D01*
X611Y1430D02*
X794Y1247D01*
X536Y1098D02*
X853Y1414D01*
X554Y1430D02*
X765Y1219D01*
X582Y1430D02*
X780Y1233D01*
X593Y1098D02*
X884Y1389D01*
X640Y1098D02*
X889Y1338D01*
X565Y1098D02*
X864Y1397D01*
X469Y1430D02*
X722Y1177D01*
X526Y1430D02*
X751Y1205D01*
X508Y1239D02*
X699Y1430D01*
X441D02*
X708Y1163D01*
X430Y1413D02*
X693Y1149D01*
X430Y1384D02*
X679Y1135D01*
X479Y1267D02*
X642Y1430D01*
X497Y1257D02*
X670Y1430D01*
X431Y1275D02*
X586Y1430D01*
X431Y1271D02*
X443Y1258D01*
X431Y1247D02*
X614Y1430D01*
X430Y1331D02*
X529Y1430D01*
X431Y1303D02*
X557Y1430D01*
X431Y1299D02*
X462Y1267D01*
X430Y1356D02*
X665Y1122D01*
X430Y1327D02*
X650Y1108D01*
X430Y1409D02*
X431Y1236D01*
X500Y1201D02*
X603Y1098D01*
X509Y1220D02*
X632Y1098D01*
X483Y1190D02*
X575Y1098D01*
X453Y1192D02*
X547Y1098D01*
X431Y1191D02*
X441Y1201D01*
X431Y1214D02*
X434Y1211D01*
X432Y1134D02*
X491Y1194D01*
X431Y1157D02*
X490Y1098D01*
X431Y1163D02*
X459Y1190D01*
X666Y1008D02*
X926Y1268D01*
X581Y746D02*
X1102Y1268D01*
X722Y1064D02*
X895Y891D01*
X708Y1050D02*
X895Y863D01*
X599Y736D02*
X1131Y1268D01*
X609Y718D02*
X1159Y1268D01*
X546Y740D02*
X1074Y1268D01*
X410Y717D02*
X961Y1268D01*
X410Y689D02*
X989Y1268D01*
X410Y745D02*
X933Y1268D01*
X410Y632D02*
X1046Y1268D01*
X410Y491D02*
X1187Y1268D01*
X410Y660D02*
X1018Y1268D01*
X608Y1008D02*
X902Y714D01*
X637Y1008D02*
X924Y721D01*
X694Y1036D02*
X895Y835D01*
X679Y1022D02*
X895Y806D01*
X524Y1008D02*
X899Y632D01*
X665Y1008D02*
X1257Y416D01*
X580Y1008D02*
X889Y699D01*
X410Y1008D02*
X1002Y416D01*
X410Y980D02*
X974Y416D01*
X410Y462D02*
X890Y942D01*
X410Y952D02*
X946Y416D01*
X410Y406D02*
X895Y891D01*
X410Y378D02*
X895Y863D01*
X736Y1078D02*
X886Y929D01*
X552Y1008D02*
X885Y674D01*
X432Y1128D02*
X462Y1098D01*
X432D02*
X640D01*
X467Y1008D02*
X863Y612D01*
X495Y1008D02*
X877Y626D01*
X439Y1008D02*
X858Y589D01*
X431Y1185D02*
X518Y1098D01*
X410Y1008D02*
X666D01*
X431Y1219D02*
X432Y1098D01*
X410Y802D02*
X616Y1008D01*
X410Y774D02*
X644Y1008D01*
X410Y830D02*
X588Y1008D01*
X410Y924D02*
X593Y741D01*
X410Y895D02*
X559Y746D01*
X410Y887D02*
X531Y1008D01*
X410Y434D02*
X888Y912D01*
X410Y867D02*
X541Y736D01*
X410Y839D02*
X531Y718D01*
X410Y972D02*
X446Y1008D01*
X410Y943D02*
X475Y1008D01*
X410Y1000D02*
X418Y1008D01*
X410Y915D02*
X503Y1008D01*
X410Y858D02*
X560Y1008D01*
X410Y288D02*
Y1008D01*
X1268Y789D02*
X1334Y722D01*
X1084Y684D02*
X1206Y806D01*
X1112Y656D02*
X1213Y757D01*
X1215Y754D02*
X1291Y679D01*
X1098Y670D02*
X1206Y778D01*
X1070Y698D02*
X1206Y835D01*
X1061Y782D02*
X1267Y575D01*
X1046Y768D02*
X1248Y567D01*
X1022Y764D02*
X1220Y567D01*
X1340Y644D02*
X1353Y631D01*
X1285Y574D02*
X1298Y587D01*
X1221Y567D02*
X1306Y651D01*
X1254Y571D02*
X1326Y643D01*
X1202Y567D02*
X1248D01*
X1141Y627D02*
X1242Y728D01*
X1155Y613D02*
X1256Y714D01*
X1127Y642D02*
X1227Y742D01*
X1183Y585D02*
X1284Y686D01*
X1197Y571D02*
X1294Y667D01*
X1169Y599D02*
X1270Y700D01*
X985Y783D02*
X991Y788D01*
X956Y830D02*
X988Y798D01*
X971Y797D02*
X990Y816D01*
X999Y769D02*
X1003Y772D01*
X1013Y755D02*
X1022Y764D01*
X999Y769D02*
X1003Y772D01*
X923Y721D02*
X942Y740D01*
X946Y715D02*
X956Y726D01*
X946Y715D02*
X956Y726D01*
X960Y701D02*
X970Y712D01*
X964Y677D02*
X984Y697D01*
X930Y615D02*
X999Y683D01*
X938Y594D02*
X1013Y669D01*
X915Y628D02*
X929Y642D01*
X890Y631D02*
X905Y646D01*
X1312Y544D02*
X1324Y557D01*
X1302Y563D02*
X1308Y568D01*
X1212Y416D02*
X1354Y558D01*
X1014Y416D02*
X1140Y542D01*
X986Y416D02*
X1126Y556D01*
X956Y812D02*
X1202Y567D01*
X958Y659D02*
X1200Y416D01*
X904Y778D02*
X1167Y514D01*
X965Y680D02*
X1229Y416D01*
X943Y646D02*
X1172Y416D01*
X918Y642D02*
X1144Y416D01*
X1259Y499D02*
X1342Y416D01*
X1189Y505D02*
X1248D01*
X1196D02*
X1285Y416D01*
X1224Y505D02*
X1313Y416D01*
X1184D02*
X1265Y497D01*
X1127Y416D02*
X1217Y505D01*
X1156Y416D02*
X1245Y505D01*
X1071Y416D02*
X1168Y514D01*
X1099Y416D02*
X1188Y505D01*
X1043Y416D02*
X1154Y528D01*
X938Y594D02*
X1115Y416D01*
X929D02*
X1098Y584D01*
X873Y416D02*
X1069Y613D01*
X901Y416D02*
X1083Y598D01*
X845Y416D02*
X1055Y627D01*
X647Y416D02*
X891Y660D01*
X647Y416D02*
X891Y660D01*
X618Y416D02*
X885Y683D01*
X788Y416D02*
X1027Y655D01*
X816Y416D02*
X1041Y641D01*
X675Y416D02*
X858Y600D01*
X894Y553D02*
X1031Y416D01*
X760D02*
X896Y552D01*
X703Y416D02*
X862Y575D01*
X731Y416D02*
X875Y560D01*
X932Y572D02*
X1087Y416D01*
X958D02*
X1112Y570D01*
X917Y558D02*
X1059Y416D01*
X645Y208D02*
X690Y163D01*
X674Y48D02*
X690Y64D01*
X673Y208D02*
X690Y191D01*
X618Y48D02*
X690Y120D01*
X646Y48D02*
X690Y92D01*
Y48D02*
Y208D01*
X590Y416D02*
X928Y754D01*
X410Y293D02*
X900Y783D01*
X603Y731D02*
X917Y416D01*
X410Y810D02*
X804Y416D01*
X410Y754D02*
X748Y416D01*
X410Y726D02*
X719Y416D01*
X410Y697D02*
X691Y416D01*
X410Y349D02*
X895Y834D01*
X410Y321D02*
X895Y806D01*
X410Y782D02*
X776Y416D01*
X608Y697D02*
X889Y416D01*
X598Y679D02*
X861Y416D01*
X580Y669D02*
X833Y416D01*
X570Y208D02*
X690D01*
X581Y152D02*
X636Y208D01*
X609Y152D02*
X665Y208D01*
X552Y152D02*
X608Y208D01*
X410Y669D02*
X663Y416D01*
X410Y612D02*
X606Y416D01*
X410Y584D02*
X578Y416D01*
X410Y641D02*
X635Y416D01*
X526Y152D02*
X614D01*
X410Y330D02*
X587Y152D01*
X410Y604D02*
X538Y732D01*
X410Y576D02*
X532Y697D01*
X410Y519D02*
X560Y669D01*
X570Y208D02*
Y416D01*
X410Y547D02*
X542Y679D01*
X410Y528D02*
X570Y368D01*
X410Y499D02*
X570Y339D01*
X410Y556D02*
X570Y396D01*
X410Y443D02*
X570Y283D01*
X410Y414D02*
X570Y254D01*
X410Y471D02*
X570Y311D01*
X410Y386D02*
X570Y226D01*
X468Y152D02*
X570Y255D01*
X410Y301D02*
X559Y152D01*
X395Y288D02*
X531Y152D01*
X338Y288D02*
X474Y152D01*
X491Y147D02*
X570Y226D01*
X310Y288D02*
X450Y148D01*
X280Y288D02*
X410Y288D01*
X280Y247D02*
X321Y288D01*
X280Y276D02*
X293Y288D01*
X280Y191D02*
X377Y288D01*
X280Y163D02*
X405Y288D01*
X280Y219D02*
X349Y288D01*
X616Y208D02*
X690Y134D01*
X614Y129D02*
X690Y205D01*
X506Y134D02*
X580Y208D01*
X588D02*
X690Y106D01*
X410Y358D02*
X690Y78D01*
X614Y101D02*
X690Y177D01*
X335Y48D02*
X570Y283D01*
X280Y135D02*
X914Y768D01*
X280Y106D02*
X570Y396D01*
X280Y78D02*
X570Y368D01*
X280Y50D02*
X570Y340D01*
X307Y48D02*
X570Y311D01*
X280Y50D02*
X570Y340D01*
X614Y73D02*
X690Y148D01*
X614Y125D02*
X690Y50D01*
X614Y64D02*
Y152D01*
Y69D02*
X635Y48D01*
X614Y97D02*
X663Y48D01*
X591Y64D02*
X607Y48D01*
X590D02*
X605Y64D01*
X563D02*
X578Y48D01*
X526Y64D02*
X614D01*
X561Y48D02*
X577Y64D01*
X534D02*
X550Y48D01*
X467D02*
X690D01*
X533D02*
X549Y64D01*
X514Y114D02*
X526Y126D01*
X514Y112D02*
X526Y101D01*
X282Y288D02*
X435Y135D01*
X367Y288D02*
X526Y129D01*
Y64D02*
Y152D01*
X280Y120D02*
X352Y48D01*
X280Y262D02*
X426Y115D01*
X280Y177D02*
X409Y48D01*
X280Y148D02*
X380Y48D01*
X280Y233D02*
X465Y48D01*
X280Y205D02*
X437Y48D01*
X280Y288D02*
X280Y48D01*
X510Y88D02*
X526Y72D01*
X505Y48D02*
X526Y69D01*
X497Y73D02*
X522Y48D01*
X476D02*
X526Y97D01*
X477Y64D02*
X494Y48D01*
X448D02*
X464Y64D01*
X392Y48D02*
X431Y87D01*
X420Y48D02*
X444Y72D01*
X363Y48D02*
X426Y110D01*
X280Y92D02*
X324Y48D01*
X280D02*
X467Y48D01*
X280Y63D02*
X296Y48D01*
D32*
X2623Y1670D02*
D03*
X2536D02*
D03*
X2701Y1932D02*
D03*
X2787D02*
D03*
D33*
X2500Y2283D02*
D03*
Y2531D02*
D03*
X2662Y2528D02*
D03*
Y2280D02*
D03*
D34*
X2690Y2046D02*
D03*
Y2009D02*
D03*
Y2084D02*
D03*
X2793Y2009D02*
D03*
Y2084D02*
D03*
D35*
X2337Y2645D02*
D03*
Y2558D02*
D03*
X3037Y2674D02*
D03*
Y2587D02*
D03*
X2614Y1997D02*
D03*
Y2084D02*
D03*
D36*
X2872Y2698D02*
D03*
D37*
X2962Y2438D02*
D03*
X2872D02*
D03*
X2782D02*
D03*
D38*
X2434Y2063D02*
X2499Y2128D01*
X3435Y1597D02*
X3478Y1554D01*
Y1479D02*
Y1554D01*
Y1479D02*
X3529Y1428D01*
X3079Y944D02*
Y1479D01*
Y577D02*
Y944D01*
X2679Y1344D02*
X3079Y944D01*
X2679Y1344D02*
Y1477D01*
X2629Y1528D02*
X2679Y1477D01*
X3079Y1479D02*
X3129Y1528D01*
X3079Y577D02*
X3129Y528D01*
X465Y2521D02*
X472Y2514D01*
X2540Y2007D02*
X2584Y2051D01*
X2540Y1931D02*
Y2007D01*
X2507Y1898D02*
X2540Y1931D01*
X2386Y1898D02*
X2507D01*
X2330Y1954D02*
X2386Y1898D01*
X2258Y2078D02*
X2330Y2006D01*
Y1954D02*
Y2006D01*
X2614Y1597D02*
X3435D01*
X2541Y1670D02*
X2614Y1597D01*
X2536Y1670D02*
X2541D01*
X761Y1674D02*
X1000Y1436D01*
X761Y1674D02*
Y1812D01*
X2244Y2078D02*
X2246Y2080D01*
X2244Y2078D02*
X2258D01*
X2614Y2079D02*
Y2084D01*
X2584Y2051D02*
X2586D01*
X2614Y2079D01*
X2499Y2128D02*
X2743D01*
X2787Y2084D01*
X2793D01*
Y2009D02*
X3150D01*
X3211Y2070D01*
X3584D01*
X761Y1812D02*
X771D01*
X2637Y1932D02*
X2701D01*
X2614Y1956D02*
X2637Y1932D01*
X2614Y1956D02*
Y1997D01*
Y2084D02*
X2614Y2084D01*
X2690D01*
X2690Y2084D01*
X2623Y2007D02*
X2688D01*
X2690Y2009D01*
D39*
X3114Y2672D02*
Y2707D01*
X3037Y2674D02*
Y2708D01*
Y2674D02*
X3066D01*
X3037Y2639D02*
Y2674D01*
X3007D02*
X3037D01*
X3079Y2672D02*
X3114D01*
X3149D01*
X3114Y2637D02*
Y2672D01*
X3562Y2429D02*
X3661D01*
X3464D02*
X3562D01*
Y2384D02*
Y2429D01*
X2782Y2438D02*
X2811D01*
X3684Y2170D02*
Y2239D01*
X3615Y2170D02*
X3684D01*
X3484D02*
Y2239D01*
X3415Y2170D02*
X3484D01*
X3553D01*
X3615Y1970D02*
X3684D01*
Y1901D02*
Y1970D01*
X3484D02*
X3553D01*
X3415D02*
X3484D01*
Y1901D02*
Y1970D01*
X3201Y1945D02*
Y1980D01*
Y1945D02*
X3236D01*
X3166D02*
X3201D01*
Y1910D02*
Y1945D01*
X2902Y2267D02*
X2937D01*
X2902D02*
Y2302D01*
Y2232D02*
Y2267D01*
X2867D02*
X2902D01*
X3023Y1773D02*
Y1812D01*
Y1773D02*
X3063D01*
X3023Y1733D02*
Y1773D01*
X2984D02*
X3023D01*
X2860Y1868D02*
Y1903D01*
X2825Y1868D02*
X2860D01*
X2895D01*
X2860Y1833D02*
Y1868D01*
X2782Y2438D02*
Y2468D01*
X2752Y2438D02*
X2782D01*
Y2408D02*
Y2438D01*
X2662Y2280D02*
Y2355D01*
X2407Y2645D02*
Y2680D01*
Y2610D02*
Y2645D01*
X2337D02*
Y2679D01*
X2407Y2645D02*
X2442D01*
X2337Y2610D02*
Y2645D01*
X2500Y2283D02*
Y2358D01*
X2420Y2398D02*
X2455D01*
X2420Y2363D02*
Y2398D01*
Y2433D01*
X2662Y2280D02*
X2721D01*
X2662Y2205D02*
Y2280D01*
X2602D02*
X2662D01*
X2660Y2046D02*
X2690D01*
X2720D01*
X2500Y2283D02*
X2559D01*
X2441D02*
X2500D01*
Y2208D02*
Y2283D01*
X3629Y1528D02*
X3668D01*
X3629D02*
Y1568D01*
Y1488D02*
Y1528D01*
X3589D02*
X3629D01*
X3529D02*
Y1568D01*
Y1528D02*
X3568D01*
X3529Y1488D02*
Y1528D01*
X3628Y625D02*
X3668D01*
X3628D02*
Y665D01*
Y586D02*
Y625D01*
X3589D02*
X3628D01*
X3529Y628D02*
X3568D01*
X3529D02*
Y668D01*
X3489Y628D02*
X3529D01*
Y588D02*
Y628D01*
X3389D02*
X3429D01*
X3468D01*
X3429D02*
Y668D01*
Y588D02*
Y628D01*
X1867Y2516D02*
X1902D01*
X1867D02*
Y2551D01*
X1832Y2516D02*
X1867D01*
Y2481D02*
Y2516D01*
X1761Y2212D02*
Y2252D01*
X1722Y2212D02*
X1761D01*
X1801D01*
X1761Y2173D02*
Y2212D01*
X1630Y2108D02*
X1665D01*
X1630D02*
Y2143D01*
Y2073D02*
Y2108D01*
X1595D02*
X1630D01*
X1580Y2048D02*
Y2083D01*
Y2048D02*
X1615D01*
X1580Y2013D02*
Y2048D01*
X1261Y2212D02*
X1301D01*
X1545Y2048D02*
X1580D01*
X1300Y2078D02*
Y2113D01*
Y2078D02*
X1335D01*
X1265D02*
X1300D01*
Y2043D02*
Y2078D01*
X1974Y1358D02*
X2009D01*
X1974D02*
Y1393D01*
X1939Y1358D02*
X1974D01*
X1316Y1611D02*
X1351D01*
X1316D02*
Y1646D01*
X1281Y1611D02*
X1316D01*
X1529Y1462D02*
X1564D01*
X1494D02*
X1529D01*
Y1497D01*
Y1427D02*
Y1462D01*
X1316Y1576D02*
Y1611D01*
X1261Y2212D02*
Y2252D01*
Y2173D02*
Y2212D01*
X1222D02*
X1261D01*
X1061D02*
Y2252D01*
X1022Y2212D02*
X1061D01*
X1101D01*
X1061Y2173D02*
Y2212D01*
X655Y2628D02*
X690D01*
X653Y2768D02*
X688D01*
X653Y2733D02*
Y2768D01*
X655Y2628D02*
Y2663D01*
X653Y2768D02*
Y2803D01*
X618Y2768D02*
X653D01*
X655Y2593D02*
Y2628D01*
X620D02*
X655D01*
X1120Y2028D02*
Y2063D01*
Y1993D02*
Y2028D01*
X1155D01*
X1085D02*
X1120D01*
X890Y1428D02*
X925D01*
X890D02*
Y1463D01*
X855Y1428D02*
X890D01*
Y1393D02*
Y1428D01*
X1974Y1323D02*
Y1358D01*
X1425Y1218D02*
X1460D01*
X1495D01*
X1460D02*
Y1253D01*
Y1183D02*
Y1218D01*
X1678Y1137D02*
X1713D01*
X1678D02*
Y1172D01*
X1643Y1137D02*
X1678D01*
Y1102D02*
Y1137D01*
X1643Y1037D02*
X1678D01*
X1713D01*
X1678D02*
Y1072D01*
Y1002D02*
Y1037D01*
X1693Y736D02*
Y771D01*
X1658Y736D02*
X1693D01*
Y701D02*
Y736D01*
X1325Y884D02*
X1360D01*
X1693Y736D02*
X1728D01*
X1692Y634D02*
X1727D01*
X1692D02*
Y669D01*
X1657Y634D02*
X1692D01*
X1338Y594D02*
X1373D01*
X1694Y524D02*
Y559D01*
X1729D01*
X1659D02*
X1694D01*
X1325Y884D02*
Y919D01*
X1290Y884D02*
X1325D01*
Y849D02*
Y884D01*
X1028Y803D02*
Y838D01*
X470Y1228D02*
Y1263D01*
Y1228D02*
X505D01*
X470Y1193D02*
Y1228D01*
X435D02*
X470D01*
X1028Y803D02*
X1063D01*
X1028Y768D02*
Y803D01*
X1303Y594D02*
X1338D01*
Y629D01*
X993Y803D02*
X1028D01*
X925Y681D02*
Y716D01*
Y681D02*
X960D01*
X925Y646D02*
Y681D01*
X890D02*
X925D01*
X863Y592D02*
X898D01*
X933D01*
X898D02*
Y627D01*
X1338Y559D02*
Y594D01*
X898Y557D02*
Y592D01*
X535Y708D02*
X570D01*
X605D01*
X570D02*
Y743D01*
Y673D02*
Y708D01*
D40*
X1009Y1918D02*
X1686D01*
X1003Y1912D02*
X1009Y1918D01*
X2065Y1427D02*
X2165Y1527D01*
X1765Y1427D02*
Y1442D01*
X1768Y1445D01*
X1765Y1427D02*
X2065D01*
X1768Y1445D02*
Y1699D01*
X1842Y1773D01*
X903Y1912D02*
X1003D01*
X761Y2054D02*
X903Y1912D01*
X761Y2054D02*
Y2212D01*
X861D01*
X354Y1527D02*
X359D01*
X2337Y1856D02*
X2341Y1852D01*
X2349D01*
X2531Y1670D01*
X2536D01*
X2362Y2222D02*
Y2465D01*
X2337Y2490D02*
X2362Y2465D01*
X1842Y1773D02*
Y1969D01*
Y2286D01*
X1791Y1918D02*
X1842Y1969D01*
X1686Y1918D02*
X1791D01*
X1842Y2286D02*
X2114Y2558D01*
X2337D01*
X2500Y2531D02*
X2520Y2551D01*
X2337Y2490D02*
Y2558D01*
D41*
X461Y2476D02*
X463Y2474D01*
X221Y2476D02*
X461D01*
X200Y2455D02*
X221Y2476D01*
X200Y1555D02*
Y2455D01*
Y1555D02*
X225Y1530D01*
X273D01*
X275Y1527D01*
X2520Y2724D02*
Y2728D01*
Y2551D02*
Y2724D01*
D42*
X2257Y2493D02*
X2308Y2442D01*
Y2190D02*
Y2442D01*
Y2190D02*
X2434Y2063D01*
X1890Y2236D02*
X2147Y2493D01*
X1890Y1758D02*
Y2236D01*
X1819Y1686D02*
X1890Y1758D01*
X1819Y1627D02*
Y1686D01*
X2723Y1673D02*
Y1801D01*
X2722Y1671D02*
X2723Y1673D01*
X2787Y1865D02*
Y1932D01*
X2723Y1801D02*
X2787Y1865D01*
X1237Y1004D02*
X1274Y1040D01*
X1237Y776D02*
Y1004D01*
Y776D02*
X1331Y682D01*
X1124Y1123D02*
X1452D01*
X925Y924D02*
X1124Y1123D01*
X925Y800D02*
X1189Y536D01*
X1273D01*
X925Y800D02*
Y924D01*
X2623Y1670D02*
X2624Y1671D01*
X2722D01*
X3464Y2601D02*
Y2618D01*
X3450Y2587D02*
X3464Y2601D01*
X3037Y2587D02*
X3450D01*
X2147Y2493D02*
X2257D01*
X2620Y2721D02*
X2660Y2681D01*
X2620Y2721D02*
Y2728D01*
X2660Y2530D02*
Y2681D01*
Y2530D02*
X2662Y2528D01*
X2872Y2438D02*
Y2476D01*
X2820Y2528D02*
X2872Y2476D01*
X2662Y2528D02*
X2820D01*
X2892Y2582D02*
X2894Y2584D01*
X3033Y2545D02*
Y2582D01*
X2962Y2474D02*
X3033Y2545D01*
X2962Y2438D02*
Y2474D01*
X2894Y2584D02*
X3033D01*
Y2582D02*
Y2584D01*
X3113Y2673D02*
X3114Y2672D01*
X3037Y2673D02*
X3113D01*
X3037Y2674D02*
X3037Y2673D01*
X3033Y2582D02*
X3037Y2586D01*
Y2587D01*
D43*
X3700Y2400D02*
X3700Y2400D01*
Y2618D01*
X2339Y1527D02*
X2340Y1528D01*
X2244Y1527D02*
X2339D01*
X847Y2546D02*
Y2977D01*
Y2546D02*
X961Y2432D01*
Y2212D02*
Y2432D01*
X3044Y443D02*
X3344D01*
X2714D02*
X3044D01*
X3129Y528D01*
X3529D02*
X3530Y527D01*
X3429Y528D02*
X3529D01*
X3344Y443D02*
X3429Y528D01*
X2629D02*
X2714Y443D01*
X3530Y527D02*
X3627D01*
X2048Y2159D02*
X2128Y2078D01*
X2165D01*
X1964Y2159D02*
X2048D01*
X1988Y1999D02*
X2165D01*
X1962Y2026D02*
X1988Y1999D01*
X2337Y2558D02*
X2490D01*
X2337Y2645D02*
X2407D01*
D44*
X3627Y527D02*
X3628Y525D01*
D45*
X1280Y2420D02*
D03*
X130Y2930D02*
D03*
Y130D02*
D03*
X580Y1580D02*
D03*
X1980D02*
D03*
X3630Y2930D02*
D03*
X3622Y126D02*
D03*
D46*
X3023Y1773D02*
D03*
X3223Y1673D02*
D03*
X2723D02*
D03*
X2620Y2724D02*
D03*
X2441Y1969D02*
D03*
X470Y108D02*
D03*
X847Y2977D02*
D03*
X861Y1812D02*
D03*
X761D02*
D03*
X1161D02*
D03*
X961D02*
D03*
X1061D02*
D03*
X761Y2212D02*
D03*
X861D02*
D03*
X961D02*
D03*
X1061D02*
D03*
X1461Y1812D02*
D03*
X1261D02*
D03*
X1361D02*
D03*
X1561D02*
D03*
X1661D02*
D03*
X1761D02*
D03*
X1361Y2212D02*
D03*
X1161D02*
D03*
X1261D02*
D03*
X1661D02*
D03*
X1761D02*
D03*
X1461D02*
D03*
X1561D02*
D03*
X3628Y525D02*
D03*
Y625D02*
D03*
X3529Y528D02*
D03*
Y628D02*
D03*
X3429Y528D02*
D03*
Y628D02*
D03*
X3329Y528D02*
D03*
Y628D02*
D03*
X3229Y528D02*
D03*
Y628D02*
D03*
X3129Y528D02*
D03*
Y628D02*
D03*
X3029Y528D02*
D03*
Y628D02*
D03*
X2929Y528D02*
D03*
Y628D02*
D03*
X2829Y528D02*
D03*
Y628D02*
D03*
X2729Y528D02*
D03*
Y628D02*
D03*
X2629Y528D02*
D03*
Y628D02*
D03*
X2529Y528D02*
D03*
Y628D02*
D03*
X2429Y528D02*
D03*
Y628D02*
D03*
X3629Y1428D02*
D03*
Y1528D02*
D03*
X3529Y1428D02*
D03*
Y1528D02*
D03*
X3429Y1428D02*
D03*
Y1528D02*
D03*
X3329Y1428D02*
D03*
Y1528D02*
D03*
X3229Y1428D02*
D03*
Y1528D02*
D03*
X3129Y1428D02*
D03*
Y1528D02*
D03*
X3029Y1428D02*
D03*
Y1528D02*
D03*
X2929Y1428D02*
D03*
Y1528D02*
D03*
X2829Y1428D02*
D03*
Y1528D02*
D03*
X2729Y1428D02*
D03*
Y1528D02*
D03*
X2629Y1428D02*
D03*
Y1528D02*
D03*
X2529Y1428D02*
D03*
Y1528D02*
D03*
X2429Y1428D02*
D03*
Y1528D02*
D03*
D47*
X2520Y2724D02*
D03*
X570Y108D02*
D03*
X947Y2977D02*
D03*
D48*
X2441Y2069D02*
D03*
D49*
X3700Y2618D02*
D03*
X3464D02*
D03*
D50*
X3562Y2429D02*
D03*
D51*
X1063Y2708D02*
D03*
X1141D02*
D03*
X1220D02*
D03*
X1299D02*
D03*
X1378D02*
D03*
X1456D02*
D03*
X1535D02*
D03*
X1614D02*
D03*
X1693D02*
D03*
X1771D02*
D03*
X1850D02*
D03*
X1929D02*
D03*
X2008D02*
D03*
X2086D02*
D03*
X2165D02*
D03*
X2244D02*
D03*
Y2629D02*
D03*
X2165D02*
D03*
X2086D02*
D03*
X2008D02*
D03*
X1929D02*
D03*
X1850D02*
D03*
X1771D02*
D03*
X1693D02*
D03*
X1614D02*
D03*
X1535D02*
D03*
X1456D02*
D03*
X1378D02*
D03*
X1299D02*
D03*
X1220D02*
D03*
X1141D02*
D03*
X1063D02*
D03*
X630Y346D02*
D03*
X708D02*
D03*
X787D02*
D03*
X866D02*
D03*
X945D02*
D03*
X1023D02*
D03*
X1102D02*
D03*
X1181D02*
D03*
X1260D02*
D03*
X1338D02*
D03*
X1417D02*
D03*
X1496D02*
D03*
X1574D02*
D03*
X1653D02*
D03*
X1732D02*
D03*
X1811D02*
D03*
Y267D02*
D03*
X1732D02*
D03*
X1653D02*
D03*
X1574D02*
D03*
X1496D02*
D03*
X1417D02*
D03*
X1338D02*
D03*
X1260D02*
D03*
X1181D02*
D03*
X1102D02*
D03*
X1023D02*
D03*
X945D02*
D03*
X866D02*
D03*
X787D02*
D03*
X708D02*
D03*
X630D02*
D03*
D52*
X2165Y346D02*
D03*
X2244D02*
D03*
X2165Y425D02*
D03*
X2244D02*
D03*
X2165Y503D02*
D03*
X2244D02*
D03*
X2165Y582D02*
D03*
X2244D02*
D03*
X2165Y661D02*
D03*
X2244D02*
D03*
X2165Y739D02*
D03*
X2244D02*
D03*
X2165Y818D02*
D03*
X2244D02*
D03*
Y897D02*
D03*
Y976D02*
D03*
Y1054D02*
D03*
Y1133D02*
D03*
Y1212D02*
D03*
Y1291D02*
D03*
Y1369D02*
D03*
Y1448D02*
D03*
Y1527D02*
D03*
Y1606D02*
D03*
Y1684D02*
D03*
Y1763D02*
D03*
Y1842D02*
D03*
Y1921D02*
D03*
Y1999D02*
D03*
Y2078D02*
D03*
Y2157D02*
D03*
Y2236D02*
D03*
Y2314D02*
D03*
Y2393D02*
D03*
X2165D02*
D03*
Y2314D02*
D03*
Y2236D02*
D03*
Y2157D02*
D03*
Y2078D02*
D03*
Y1999D02*
D03*
Y1921D02*
D03*
Y1842D02*
D03*
Y1763D02*
D03*
Y1684D02*
D03*
Y1606D02*
D03*
Y1527D02*
D03*
Y1448D02*
D03*
Y1369D02*
D03*
Y1291D02*
D03*
Y1212D02*
D03*
Y1133D02*
D03*
Y1054D02*
D03*
Y976D02*
D03*
Y897D02*
D03*
X275Y346D02*
D03*
X354D02*
D03*
X275Y425D02*
D03*
X354D02*
D03*
X275Y503D02*
D03*
X354D02*
D03*
X275Y582D02*
D03*
X354D02*
D03*
X275Y661D02*
D03*
X354D02*
D03*
X275Y739D02*
D03*
X354D02*
D03*
X275Y818D02*
D03*
X354D02*
D03*
Y897D02*
D03*
Y976D02*
D03*
Y1054D02*
D03*
Y1133D02*
D03*
Y1212D02*
D03*
Y1291D02*
D03*
Y1369D02*
D03*
Y1448D02*
D03*
Y1527D02*
D03*
Y1606D02*
D03*
Y1684D02*
D03*
Y1763D02*
D03*
Y1842D02*
D03*
Y1921D02*
D03*
Y1999D02*
D03*
Y2078D02*
D03*
Y2157D02*
D03*
Y2236D02*
D03*
Y2314D02*
D03*
Y2393D02*
D03*
X275D02*
D03*
Y2314D02*
D03*
Y2236D02*
D03*
Y2157D02*
D03*
Y2078D02*
D03*
Y1999D02*
D03*
Y1921D02*
D03*
Y1842D02*
D03*
Y1763D02*
D03*
Y1684D02*
D03*
Y1606D02*
D03*
Y1527D02*
D03*
Y1448D02*
D03*
Y1369D02*
D03*
Y1291D02*
D03*
Y1212D02*
D03*
Y1133D02*
D03*
Y1054D02*
D03*
Y976D02*
D03*
Y897D02*
D03*
D53*
X3484Y2170D02*
D03*
Y1970D02*
D03*
X3684Y2170D02*
D03*
Y1970D02*
D03*
D54*
X3584Y2070D02*
D03*
D55*
X655Y2628D02*
D03*
X653Y2768D02*
D03*
X3201Y1945D02*
D03*
X570Y708D02*
D03*
X1765Y1427D02*
D03*
X1974Y1358D02*
D03*
X1460Y1218D02*
D03*
X1819Y1627D02*
D03*
X2860Y1868D02*
D03*
X2420Y2398D02*
D03*
X470Y1228D02*
D03*
X1630Y2108D02*
D03*
X1580Y2048D02*
D03*
X1120Y2028D02*
D03*
X1300Y2078D02*
D03*
X890Y1428D02*
D03*
X2902Y2267D02*
D03*
X1867Y2516D02*
D03*
X2337Y1856D02*
D03*
X2362Y2222D02*
D03*
X1000Y1436D02*
D03*
X925Y924D02*
D03*
X1273Y536D02*
D03*
X1274Y1040D02*
D03*
X1331Y682D02*
D03*
X1694Y559D02*
D03*
X1678Y1037D02*
D03*
Y1137D02*
D03*
X1693Y736D02*
D03*
X1692Y634D02*
D03*
X1452Y1123D02*
D03*
X1686Y1918D02*
D03*
X1440Y1914D02*
D03*
X1162Y1913D02*
D03*
X1009Y1912D02*
D03*
X2407Y2645D02*
D03*
X1316Y1611D02*
D03*
X1338Y594D02*
D03*
X1529Y1462D02*
D03*
X2892Y2582D02*
D03*
X3114Y2672D02*
D03*
X1028Y803D02*
D03*
X1325Y884D02*
D03*
X925Y681D02*
D03*
X898Y592D02*
D03*
X1964Y2159D02*
D03*
X1962Y2026D02*
D03*
M02*
