G04*
G04 #@! TF.GenerationSoftware,Altium Limited,Altium Designer,19.1.6 (110)*
G04*
G04 Layer_Color=16711935*
%FSLAX24Y24*%
%MOIN*%
G70*
G01*
G75*
%ADD15R,0.1142X0.1457*%
%ADD16R,0.1457X0.1142*%
%ADD17R,0.0650X0.0551*%
%ADD19R,0.0433X0.0551*%
%ADD20R,0.0551X0.0650*%
%ADD21R,0.1417X0.0748*%
%ADD22R,0.0551X0.0551*%
%ADD26O,0.0650X0.0748*%
%ADD27O,0.0748X0.0650*%
%ADD28C,0.0748*%
%ADD29C,0.1339*%
%ADD30O,0.1161X0.1142*%
%ADD31C,0.1417*%
%ADD32C,0.0657*%
%ADD63R,0.2402X0.2323*%
%ADD64R,0.1004X0.0669*%
D15*
X17765Y3835D02*
D03*
Y6315D02*
D03*
D16*
X9750Y5000D02*
D03*
X12230D02*
D03*
X5950Y21200D02*
D03*
X8430D02*
D03*
X5920Y22700D02*
D03*
X8400D02*
D03*
X19184Y22019D02*
D03*
X16703D02*
D03*
D17*
X9816Y20823D02*
D03*
X10682D02*
D03*
X13235Y23376D02*
D03*
X14101D02*
D03*
X17346Y23070D02*
D03*
X16480D02*
D03*
D19*
X10297Y17690D02*
D03*
X10671Y18714D02*
D03*
X10297D02*
D03*
X11045D02*
D03*
Y17690D02*
D03*
X12555Y18714D02*
D03*
Y17690D02*
D03*
X12181Y18714D02*
D03*
X11807Y17690D02*
D03*
Y18714D02*
D03*
X15335Y18694D02*
D03*
Y17670D02*
D03*
X14961Y18694D02*
D03*
X14587Y17670D02*
D03*
Y18694D02*
D03*
X17813D02*
D03*
Y17670D02*
D03*
X17439Y18694D02*
D03*
X17065Y17670D02*
D03*
Y18694D02*
D03*
D20*
X14808Y13318D02*
D03*
Y14184D02*
D03*
D21*
X19750Y3400D02*
D03*
D22*
X20650Y6000D02*
D03*
X19750D02*
D03*
X18850D02*
D03*
D26*
X10827Y25000D02*
D03*
X11614D02*
D03*
X12402D02*
D03*
X13189D02*
D03*
X13976D02*
D03*
X14764D02*
D03*
X15551D02*
D03*
X16339D02*
D03*
X17126D02*
D03*
X17913D02*
D03*
X18701D02*
D03*
X19488D02*
D03*
X20276D02*
D03*
X21063D02*
D03*
X21850D02*
D03*
X22638D02*
D03*
Y24213D02*
D03*
X21850D02*
D03*
X21063D02*
D03*
X20276D02*
D03*
X19488D02*
D03*
X18701D02*
D03*
X17913D02*
D03*
X17126D02*
D03*
X16339D02*
D03*
X15551D02*
D03*
X14764D02*
D03*
X13976D02*
D03*
X13189D02*
D03*
X12402D02*
D03*
X11614D02*
D03*
X10827D02*
D03*
X6496Y1378D02*
D03*
X7283D02*
D03*
X8071D02*
D03*
X8858D02*
D03*
X9646D02*
D03*
X10433D02*
D03*
X11220D02*
D03*
X12008D02*
D03*
X12795D02*
D03*
X13583D02*
D03*
X14370D02*
D03*
X15157D02*
D03*
X15945D02*
D03*
X16732D02*
D03*
X17520D02*
D03*
X18307D02*
D03*
Y591D02*
D03*
X17520D02*
D03*
X16732D02*
D03*
X15945D02*
D03*
X15157D02*
D03*
X14370D02*
D03*
X13583D02*
D03*
X12795D02*
D03*
X12008D02*
D03*
X11220D02*
D03*
X10433D02*
D03*
X9646D02*
D03*
X8858D02*
D03*
X8071D02*
D03*
X7283D02*
D03*
X6496D02*
D03*
D27*
X21850Y1378D02*
D03*
X22638D02*
D03*
X21850Y2165D02*
D03*
X22638D02*
D03*
X21850Y2953D02*
D03*
X22638D02*
D03*
X21850Y3740D02*
D03*
X22638D02*
D03*
X21850Y4528D02*
D03*
X22638D02*
D03*
X21850Y5315D02*
D03*
X22638D02*
D03*
X21850Y6102D02*
D03*
X22638D02*
D03*
Y6890D02*
D03*
Y7677D02*
D03*
Y8465D02*
D03*
Y9252D02*
D03*
Y10039D02*
D03*
Y10827D02*
D03*
Y11614D02*
D03*
Y12402D02*
D03*
Y13189D02*
D03*
Y13976D02*
D03*
Y14764D02*
D03*
Y15551D02*
D03*
Y16339D02*
D03*
Y17126D02*
D03*
Y17913D02*
D03*
Y18701D02*
D03*
Y19488D02*
D03*
Y20276D02*
D03*
Y21063D02*
D03*
Y21850D02*
D03*
X21850D02*
D03*
Y21063D02*
D03*
Y20276D02*
D03*
Y19488D02*
D03*
Y18701D02*
D03*
Y17913D02*
D03*
Y17126D02*
D03*
Y16339D02*
D03*
Y15551D02*
D03*
Y14764D02*
D03*
Y13976D02*
D03*
Y13189D02*
D03*
Y12402D02*
D03*
Y11614D02*
D03*
Y10827D02*
D03*
Y10039D02*
D03*
Y9252D02*
D03*
Y8465D02*
D03*
Y7677D02*
D03*
Y6890D02*
D03*
X2953Y1378D02*
D03*
X3740D02*
D03*
X2953Y2165D02*
D03*
X3740D02*
D03*
X2953Y2953D02*
D03*
X3740D02*
D03*
X2953Y3740D02*
D03*
X3740D02*
D03*
X2953Y4528D02*
D03*
X3740D02*
D03*
X2953Y5315D02*
D03*
X3740D02*
D03*
X2953Y6102D02*
D03*
X3740D02*
D03*
Y6890D02*
D03*
Y7677D02*
D03*
Y8465D02*
D03*
Y9252D02*
D03*
Y10039D02*
D03*
Y10827D02*
D03*
Y11614D02*
D03*
Y12402D02*
D03*
Y13189D02*
D03*
Y13976D02*
D03*
Y14764D02*
D03*
Y15551D02*
D03*
Y16339D02*
D03*
Y17126D02*
D03*
Y17913D02*
D03*
Y18701D02*
D03*
Y19488D02*
D03*
Y20276D02*
D03*
Y21063D02*
D03*
Y21850D02*
D03*
X2953D02*
D03*
Y21063D02*
D03*
Y20276D02*
D03*
Y19488D02*
D03*
Y18701D02*
D03*
Y17913D02*
D03*
Y17126D02*
D03*
Y16339D02*
D03*
Y15551D02*
D03*
Y14764D02*
D03*
Y13976D02*
D03*
Y13189D02*
D03*
Y12402D02*
D03*
Y11614D02*
D03*
Y10827D02*
D03*
Y10039D02*
D03*
Y9252D02*
D03*
Y8465D02*
D03*
Y7677D02*
D03*
Y6890D02*
D03*
D28*
X17750Y6200D02*
D03*
X8812Y16044D02*
D03*
X7812D02*
D03*
X11812D02*
D03*
X9812D02*
D03*
X10812D02*
D03*
X7812Y20044D02*
D03*
X8812D02*
D03*
X9812D02*
D03*
X10812D02*
D03*
X14812Y16044D02*
D03*
X12812D02*
D03*
X13812D02*
D03*
X15812D02*
D03*
X16812D02*
D03*
X17812D02*
D03*
X13812Y20044D02*
D03*
X11812D02*
D03*
X12812D02*
D03*
X16812D02*
D03*
X17812D02*
D03*
X14812D02*
D03*
X15812D02*
D03*
X35433Y15650D02*
D03*
X33433Y14650D02*
D03*
X30433Y15650D02*
D03*
X36481Y3174D02*
D03*
Y4174D02*
D03*
X35485Y3200D02*
D03*
Y4200D02*
D03*
X34485Y3200D02*
D03*
Y4200D02*
D03*
X33485Y3200D02*
D03*
Y4200D02*
D03*
X32485Y3200D02*
D03*
Y4200D02*
D03*
X31485Y3200D02*
D03*
Y4200D02*
D03*
X30485Y3200D02*
D03*
Y4200D02*
D03*
X29485Y3200D02*
D03*
Y4200D02*
D03*
X28485Y3200D02*
D03*
Y4200D02*
D03*
X27485Y3200D02*
D03*
Y4200D02*
D03*
X26485Y3200D02*
D03*
Y4200D02*
D03*
X25485Y3200D02*
D03*
Y4200D02*
D03*
X24485Y3200D02*
D03*
Y4200D02*
D03*
X36485Y12200D02*
D03*
Y13200D02*
D03*
X35485Y12200D02*
D03*
Y13200D02*
D03*
X34485Y12200D02*
D03*
Y13200D02*
D03*
X33485Y12200D02*
D03*
Y13200D02*
D03*
X32485Y12200D02*
D03*
Y13200D02*
D03*
X31485Y12200D02*
D03*
Y13200D02*
D03*
X30485Y12200D02*
D03*
Y13200D02*
D03*
X29485Y12200D02*
D03*
Y13200D02*
D03*
X28485Y12200D02*
D03*
Y13200D02*
D03*
X27485Y12200D02*
D03*
Y13200D02*
D03*
X26485Y12200D02*
D03*
Y13200D02*
D03*
X25485Y12200D02*
D03*
Y13200D02*
D03*
X24485Y12200D02*
D03*
Y13200D02*
D03*
D29*
X35008Y18929D02*
D03*
Y16929D02*
D03*
X37008Y18929D02*
D03*
Y16929D02*
D03*
X35039Y22428D02*
D03*
Y20768D02*
D03*
X32905D02*
D03*
Y22428D02*
D03*
D30*
X36008Y17929D02*
D03*
D31*
X1181Y24803D02*
D03*
Y1181D02*
D03*
X5512Y13976D02*
D03*
X20079D02*
D03*
X36417Y24803D02*
D03*
Y1181D02*
D03*
D32*
X30513Y18693D02*
D03*
X7737Y12204D02*
D03*
X24265Y24366D02*
D03*
X12250Y13300D02*
D03*
X17985Y14425D02*
D03*
X12035Y3130D02*
D03*
X16002Y11350D02*
D03*
X16150Y7250D02*
D03*
X5905Y12100D02*
D03*
X10118Y11811D02*
D03*
X20710Y17250D02*
D03*
X23819Y20571D02*
D03*
Y17815D02*
D03*
X29119Y23738D02*
D03*
X31335Y24640D02*
D03*
X27645Y18380D02*
D03*
X28012Y20686D02*
D03*
X15135Y5220D02*
D03*
X11175Y10980D02*
D03*
X12165Y6030D02*
D03*
X16165Y4000D02*
D03*
X16435Y3110D02*
D03*
X8485Y4550D02*
D03*
X8475Y2780D02*
D03*
X8495Y3530D02*
D03*
X8635Y7560D02*
D03*
Y8560D02*
D03*
X12105Y4010D02*
D03*
X10895Y8420D02*
D03*
X12675Y7590D02*
D03*
X19835Y19510D02*
D03*
X19815Y18180D02*
D03*
X11812Y16834D02*
D03*
X10297Y16802D02*
D03*
X17065Y16850D02*
D03*
X14595Y16860D02*
D03*
X14145Y12826D02*
D03*
D63*
X12578Y21785D02*
D03*
D64*
X15178Y22685D02*
D03*
Y20885D02*
D03*
M02*
