G04*
G04 #@! TF.GenerationSoftware,Altium Limited,Altium Designer,19.1.6 (110)*
G04*
G04 Layer_Color=8388736*
%FSLAX24Y24*%
%MOIN*%
G70*
G01*
G75*
%ADD14R,0.0650X0.0551*%
%ADD15R,0.1142X0.1457*%
%ADD16R,0.0551X0.0433*%
%ADD17R,0.0551X0.0650*%
%ADD18R,0.1417X0.0748*%
%ADD19R,0.0551X0.0551*%
%ADD20C,0.1417*%
%ADD21C,0.0748*%
%ADD22R,0.0748X0.0748*%
%ADD23R,0.0748X0.0748*%
%ADD24R,0.0748X0.1811*%
%ADD25R,0.1811X0.0748*%
%ADD26O,0.0650X0.0748*%
%ADD27O,0.0748X0.0650*%
%ADD28C,0.1339*%
%ADD29O,0.1161X0.1142*%
%ADD30C,0.0657*%
D14*
X26226Y16700D02*
D03*
X25360D02*
D03*
X27005Y19320D02*
D03*
X27871D02*
D03*
D15*
X25000Y22830D02*
D03*
Y25310D02*
D03*
X26615Y25280D02*
D03*
Y22800D02*
D03*
D16*
X26902Y20464D02*
D03*
Y20090D02*
D03*
Y20838D02*
D03*
X27925Y20090D02*
D03*
Y20838D02*
D03*
D17*
X23365Y26446D02*
D03*
Y25580D02*
D03*
X30365Y26736D02*
D03*
Y25870D02*
D03*
X26135Y19970D02*
D03*
Y20836D02*
D03*
D18*
X28715Y26980D02*
D03*
D19*
X29615Y24380D02*
D03*
X28715D02*
D03*
X27815D02*
D03*
D20*
X12800Y24200D02*
D03*
X1300Y29300D02*
D03*
Y1300D02*
D03*
X5800Y15800D02*
D03*
X19800D02*
D03*
X36300Y29300D02*
D03*
X36217Y1261D02*
D03*
D21*
X30233Y17730D02*
D03*
X32233Y16730D02*
D03*
X27233D02*
D03*
X26200Y27243D02*
D03*
X24410Y19690D02*
D03*
X4700Y1080D02*
D03*
X8470Y29770D02*
D03*
X8612Y18124D02*
D03*
X7612D02*
D03*
X11612D02*
D03*
X9612D02*
D03*
X10612D02*
D03*
X7612Y22124D02*
D03*
X8612D02*
D03*
X9612D02*
D03*
X10612D02*
D03*
X14612Y18124D02*
D03*
X12612D02*
D03*
X13612D02*
D03*
X15612D02*
D03*
X16612D02*
D03*
X17612D02*
D03*
X13612Y22124D02*
D03*
X11612D02*
D03*
X12612D02*
D03*
X16612D02*
D03*
X17612D02*
D03*
X14612D02*
D03*
X15612D02*
D03*
X36281Y5254D02*
D03*
Y6254D02*
D03*
X35285Y5280D02*
D03*
Y6280D02*
D03*
X34285Y5280D02*
D03*
Y6280D02*
D03*
X33285Y5280D02*
D03*
Y6280D02*
D03*
X32285Y5280D02*
D03*
Y6280D02*
D03*
X31285Y5280D02*
D03*
Y6280D02*
D03*
X30285Y5280D02*
D03*
Y6280D02*
D03*
X29285Y5280D02*
D03*
Y6280D02*
D03*
X28285Y5280D02*
D03*
Y6280D02*
D03*
X27285Y5280D02*
D03*
Y6280D02*
D03*
X26285Y5280D02*
D03*
Y6280D02*
D03*
X25285Y5280D02*
D03*
Y6280D02*
D03*
X24285Y5280D02*
D03*
Y6280D02*
D03*
X36285Y14280D02*
D03*
Y15280D02*
D03*
X35285Y14280D02*
D03*
Y15280D02*
D03*
X34285Y14280D02*
D03*
Y15280D02*
D03*
X33285Y14280D02*
D03*
Y15280D02*
D03*
X32285Y14280D02*
D03*
Y15280D02*
D03*
X31285Y14280D02*
D03*
Y15280D02*
D03*
X30285Y14280D02*
D03*
Y15280D02*
D03*
X29285Y14280D02*
D03*
Y15280D02*
D03*
X28285Y14280D02*
D03*
Y15280D02*
D03*
X27285Y14280D02*
D03*
Y15280D02*
D03*
X26285Y14280D02*
D03*
Y15280D02*
D03*
X25285Y14280D02*
D03*
Y15280D02*
D03*
X24285Y14280D02*
D03*
Y15280D02*
D03*
D22*
X25200Y27243D02*
D03*
X5700Y1080D02*
D03*
X9470Y29770D02*
D03*
D23*
X24410Y20690D02*
D03*
D24*
X37000Y26180D02*
D03*
X34638D02*
D03*
D25*
X35622Y24290D02*
D03*
D26*
X10627Y27080D02*
D03*
X11414D02*
D03*
X12202D02*
D03*
X12989D02*
D03*
X13776D02*
D03*
X14564D02*
D03*
X15351D02*
D03*
X16139D02*
D03*
X16926D02*
D03*
X17713D02*
D03*
X18501D02*
D03*
X19288D02*
D03*
X20076D02*
D03*
X20863D02*
D03*
X21650D02*
D03*
X22438D02*
D03*
Y26293D02*
D03*
X21650D02*
D03*
X20863D02*
D03*
X20076D02*
D03*
X19288D02*
D03*
X18501D02*
D03*
X17713D02*
D03*
X16926D02*
D03*
X16139D02*
D03*
X15351D02*
D03*
X14564D02*
D03*
X13776D02*
D03*
X12989D02*
D03*
X12202D02*
D03*
X11414D02*
D03*
X10627D02*
D03*
X6296Y3458D02*
D03*
X7083D02*
D03*
X7871D02*
D03*
X8658D02*
D03*
X9446D02*
D03*
X10233D02*
D03*
X11020D02*
D03*
X11808D02*
D03*
X12595D02*
D03*
X13383D02*
D03*
X14170D02*
D03*
X14957D02*
D03*
X15745D02*
D03*
X16532D02*
D03*
X17320D02*
D03*
X18107D02*
D03*
Y2671D02*
D03*
X17320D02*
D03*
X16532D02*
D03*
X15745D02*
D03*
X14957D02*
D03*
X14170D02*
D03*
X13383D02*
D03*
X12595D02*
D03*
X11808D02*
D03*
X11020D02*
D03*
X10233D02*
D03*
X9446D02*
D03*
X8658D02*
D03*
X7871D02*
D03*
X7083D02*
D03*
X6296D02*
D03*
D27*
X21650Y3458D02*
D03*
X22438D02*
D03*
X21650Y4245D02*
D03*
X22438D02*
D03*
X21650Y5033D02*
D03*
X22438D02*
D03*
X21650Y5820D02*
D03*
X22438D02*
D03*
X21650Y6608D02*
D03*
X22438D02*
D03*
X21650Y7395D02*
D03*
X22438D02*
D03*
X21650Y8182D02*
D03*
X22438D02*
D03*
Y8970D02*
D03*
Y9757D02*
D03*
Y10545D02*
D03*
Y11332D02*
D03*
Y12119D02*
D03*
Y12907D02*
D03*
Y13694D02*
D03*
Y14482D02*
D03*
Y15269D02*
D03*
Y16056D02*
D03*
Y16844D02*
D03*
Y17631D02*
D03*
Y18419D02*
D03*
Y19206D02*
D03*
Y19993D02*
D03*
Y20781D02*
D03*
Y21568D02*
D03*
Y22356D02*
D03*
Y23143D02*
D03*
Y23930D02*
D03*
X21650D02*
D03*
Y23143D02*
D03*
Y22356D02*
D03*
Y21568D02*
D03*
Y20781D02*
D03*
Y19993D02*
D03*
Y19206D02*
D03*
Y18419D02*
D03*
Y17631D02*
D03*
Y16844D02*
D03*
Y16056D02*
D03*
Y15269D02*
D03*
Y14482D02*
D03*
Y13694D02*
D03*
Y12907D02*
D03*
Y12119D02*
D03*
Y11332D02*
D03*
Y10545D02*
D03*
Y9757D02*
D03*
Y8970D02*
D03*
X2753Y3458D02*
D03*
X3540D02*
D03*
X2753Y4245D02*
D03*
X3540D02*
D03*
X2753Y5033D02*
D03*
X3540D02*
D03*
X2753Y5820D02*
D03*
X3540D02*
D03*
X2753Y6608D02*
D03*
X3540D02*
D03*
X2753Y7395D02*
D03*
X3540D02*
D03*
X2753Y8182D02*
D03*
X3540D02*
D03*
Y8970D02*
D03*
Y9757D02*
D03*
Y10545D02*
D03*
Y11332D02*
D03*
Y12119D02*
D03*
Y12907D02*
D03*
Y13694D02*
D03*
Y14482D02*
D03*
Y15269D02*
D03*
Y16056D02*
D03*
Y16844D02*
D03*
Y17631D02*
D03*
Y18419D02*
D03*
Y19206D02*
D03*
Y19993D02*
D03*
Y20781D02*
D03*
Y21568D02*
D03*
Y22356D02*
D03*
Y23143D02*
D03*
Y23930D02*
D03*
X2753D02*
D03*
Y23143D02*
D03*
Y22356D02*
D03*
Y21568D02*
D03*
Y20781D02*
D03*
Y19993D02*
D03*
Y19206D02*
D03*
Y18419D02*
D03*
Y17631D02*
D03*
Y16844D02*
D03*
Y16056D02*
D03*
Y15269D02*
D03*
Y14482D02*
D03*
Y13694D02*
D03*
Y12907D02*
D03*
Y12119D02*
D03*
Y11332D02*
D03*
Y10545D02*
D03*
Y9757D02*
D03*
Y8970D02*
D03*
D28*
X34840Y21700D02*
D03*
Y19700D02*
D03*
X36840Y21700D02*
D03*
Y19700D02*
D03*
D29*
X35840Y20700D02*
D03*
D30*
X6550Y26280D02*
D03*
X6530Y27680D02*
D03*
X32010Y19450D02*
D03*
X5700Y7080D02*
D03*
X17650Y14270D02*
D03*
X19737Y13580D02*
D03*
X14600Y12180D02*
D03*
X18185Y16265D02*
D03*
X28600Y18680D02*
D03*
X24200Y23980D02*
D03*
X4700Y12280D02*
D03*
X16300Y21080D02*
D03*
X15800Y20480D02*
D03*
X11200Y20280D02*
D03*
X13000Y20780D02*
D03*
X8900Y14280D02*
D03*
X29020Y22670D02*
D03*
X18670Y25160D02*
D03*
X23370Y18560D02*
D03*
X23619Y22221D02*
D03*
X9997Y14357D02*
D03*
X9255Y9245D02*
D03*
X12730Y5360D02*
D03*
X12737Y10403D02*
D03*
X13307Y6823D02*
D03*
X16937Y5593D02*
D03*
X16777Y10373D02*
D03*
Y11373D02*
D03*
X16927Y7363D02*
D03*
X16917Y6343D02*
D03*
X14517Y11233D02*
D03*
X16860Y19180D02*
D03*
X14400Y19140D02*
D03*
X11620Y19130D02*
D03*
X10090Y19120D02*
D03*
X24065Y26446D02*
D03*
X13162Y16113D02*
D03*
X13377Y5943D02*
D03*
X15294Y14624D02*
D03*
X28919Y25818D02*
D03*
X31135Y26720D02*
D03*
X10277Y8033D02*
D03*
X13247Y8843D02*
D03*
X9247Y6813D02*
D03*
X8977Y5923D02*
D03*
X19635Y21590D02*
D03*
X19615Y20260D02*
D03*
M02*
