M48
;Layer_Color=9474304
;FILE_FORMAT=2:4
INCH,LZ
;TYPE=PLATED
T1F00S00C0.0280
T2F00S00C0.0283
T3F00S00C0.0295
T4F00S00C0.0300
T5F00S00C0.0354
T7F00S00C0.0669
T8F00S00C0.0787
T9F00S00C0.1260
%
T01
X01273Y00536
X009997Y014357
X0089Y01428
X018185Y016265
X019737Y01358
X02337Y01856
X0047Y01228
X0057Y00708
X00655Y02628
X00653Y02768
X0112Y02028
X013Y02078
X0158Y02048
X0163Y02108
X01867Y02516
X0242Y02398
X023619Y022221
X02902Y02267
X0286Y01868
X03201Y01945
T02
X008977Y005923
X009247Y006813
X010277Y008033
X009255Y009245
X013247Y008843
X012737Y010403
X014517Y011233
X0146Y01218
X016777Y011373
Y010373
X016927Y007363
X016917Y006343
X016937Y005593
X013377Y005943
X013307Y006823
X013162Y016113
X015294Y014624
X01765Y01427
X01686Y01918
X0144Y01914
X01162Y01913
X01009Y01912
X019615Y02026
X019635Y02159
X024065Y026446
X028919Y025818
X031135Y02672
T03
X006296Y002671
X007083
X007871
X008658
X009446
X010233
X01102
X011808
X012595
X013383
X01417
X014957
X015745
X016532
X01732
X018107
Y003458
X01732
X016532
X015745
X014957
X01417
X013383
X012595
X011808
X01102
X010233
X009446
X02165Y00897
X022438
Y009757
X02165
Y010545
X022438
Y011332
X02165
Y012119
X022438
Y012907
X02165
Y013694
X022438
Y014482
X02165
Y015269
X022438
Y016056
X02165
Y016844
X022438
Y017631
X02165
Y018419
X022438
X00354
X002753
Y017631
X00354
Y016844
X002753
Y016056
X00354
Y015269
X002753
Y014482
X00354
Y013694
X002753
Y012907
X00354
Y012119
X002753
Y011332
X00354
Y010545
X002753
Y009757
X00354
Y00897
X002753
X006296Y003458
X007083
X007871
X008658
X00354Y019206
X002753
Y019993
X00354
Y020781
X002753
Y021568
X00354
Y022356
X002753
Y023143
X00354
Y02393
X002753
X010627Y026293
Y02708
X011414
X012202
X012989
X013776
Y026293
X012989
X012202
X011414
X014564
Y02708
X015351
X016139
X016926
X017713
X018501
X019288
X020076
X020863
X02165
Y026293
X020863
X020076
X019288
X018501
X017713
X016926
X016139
X015351
X022438
Y02708
X022438Y02393
X02165
Y023143
X022438
Y022356
X02165
Y021568
X022438
Y020781
X02165
Y019993
X022438
Y019206
X02165
T04
X02165Y003458
X022438
Y004245
Y005033
X02165
Y004245
Y00582
Y006608
X022438
Y00582
Y007395
X02165
Y008182
X022438
X00354
Y007395
Y006608
Y00582
Y005033
Y004245
Y003458
X002753
Y004245
Y005033
Y00582
Y006608
Y007395
Y008182
T05
X0047Y00108
X0057
X025285Y00528
X026285
X027285
X028285
X029285
X030285
X031285
X032285
X033285
X034285
X035285
Y00628
X034285
X033285
X032285
X031285
X030285
X029285
X028285
X027285
X026285
X025285
Y01428
X026285
X027285
X028285
X029285
X030285
X031285
X032285
X033285
X034285
X035285
X036285
Y01528
X035285
X034285
X033285
X032285
X031285
X030285
X029285
X028285
X027285
X026285
X025285
X027233Y01673
X030233Y01773
X032233Y01673
X036281Y006254
Y005254
X024285Y00528
Y00628
Y01428
Y01528
X017612Y018124
X016612
X015612
X014612
X013612
X012612
X011612
X010612
X009612
X008612
X007612
Y022124
X008612
X00847Y02977
X00947
X009612Y022124
X010612
X011612
X012612
X013612
X014612
X015612
X016612
X017612
X02441Y02069
Y01969
X0252Y027243
X0262
T07
X03584Y0207
T08
X03484Y0197
Y0217
X03684
Y0197
T09
X0013Y0013
X036217Y001261
X0198Y0158
X0058
X0013Y0293
X0128Y0242
X0363Y0293
M30
