G04*
G04 #@! TF.GenerationSoftware,Altium Limited,Altium Designer,19.1.6 (110)*
G04*
G04 Layer_Color=32896*
%FSLAX23Y23*%
%MOIN*%
G70*
G01*
G75*
%ADD10C,0.004*%
%ADD11C,0.008*%
%ADD12C,0.012*%
%ADD13C,0.006*%
%ADD39C,0.010*%
%ADD82C,0.008*%
D10*
X2573Y1623D02*
Y1823D01*
X3373Y1623D02*
Y1823D01*
X2573D02*
X3373D01*
X2573Y1623D02*
X3373D01*
D11*
X1759Y1211D02*
G03*
X1784Y1211I13J0D01*
G01*
X2452Y2285D02*
X2846D01*
Y2147D02*
Y2285D01*
X2452Y2147D02*
X2846D01*
X2437Y2270D02*
X2452Y2285D01*
X2432Y2265D02*
X2442Y2275D01*
X2432Y2167D02*
Y2265D01*
X2437Y2162D02*
X2452Y2147D01*
X2432Y2167D02*
X2442Y2157D01*
X2563Y2096D02*
X2957D01*
Y1958D02*
Y2096D01*
X2563Y1958D02*
X2957D01*
X2548Y2081D02*
X2563Y2096D01*
X2543Y2076D02*
X2553Y2086D01*
X2543Y1978D02*
Y2076D01*
X2548Y1973D02*
X2563Y1958D01*
X2543Y1978D02*
X2553Y1968D01*
X1756Y1675D02*
X1766Y1665D01*
X1756Y1557D02*
X1766Y1567D01*
X1352Y1547D02*
Y1685D01*
Y1547D02*
X1746D01*
X1761Y1562D01*
X1766Y1567D02*
Y1665D01*
X1746Y1685D02*
X1761Y1670D01*
X1352Y1685D02*
X1746D01*
X706Y958D02*
X715Y968D01*
X814D02*
X824Y958D01*
X696Y555D02*
X834D01*
Y948D01*
X819Y963D02*
X834Y948D01*
X715Y968D02*
X814D01*
X696Y948D02*
X711Y963D01*
X696Y555D02*
Y948D01*
X1078Y609D02*
Y1003D01*
X1093Y1018D01*
X1098Y1023D02*
X1196D01*
X1201Y1018D02*
X1216Y1003D01*
Y609D02*
Y1003D01*
X1078Y609D02*
X1216D01*
X1196Y1023D02*
X1206Y1013D01*
X1088D02*
X1098Y1023D01*
X1266Y1096D02*
Y1490D01*
X1404D01*
X1266Y1096D02*
X1281Y1081D01*
X1276Y1086D02*
X1285Y1077D01*
X1404Y1096D02*
Y1490D01*
X1285Y1077D02*
X1384D01*
X1389Y1081D02*
X1404Y1096D01*
X1384Y1077D02*
X1394Y1086D01*
X1899Y511D02*
Y1211D01*
X1644Y511D02*
X1899D01*
X1644D02*
Y1211D01*
X1759D01*
X1784D02*
X1899D01*
X2470Y2674D02*
X2670D01*
X2470D02*
Y2774D01*
X2670D01*
Y2674D02*
Y2774D01*
X2491Y1919D02*
Y2119D01*
X2391Y1919D02*
X2491D01*
X2391D02*
Y2119D01*
X2491D01*
X420Y58D02*
X620D01*
X420D02*
Y158D01*
X620D01*
Y58D02*
Y158D01*
X797Y2927D02*
X997D01*
X797D02*
Y3027D01*
X997D01*
Y2927D02*
Y3027D01*
X1024Y2590D02*
X1024Y2590D01*
X1024Y2590D02*
Y2751D01*
X1024Y2590D02*
X2283D01*
X1023Y2751D02*
X2283D01*
Y2590D02*
Y2751D01*
Y2673D02*
Y2728D01*
X2145Y2432D02*
X2200D01*
X2125D02*
X2283D01*
X2125Y307D02*
X2126Y306D01*
X2125Y307D02*
Y2432D01*
X2283Y306D02*
Y2432D01*
X2283Y306D02*
X2283Y306D01*
X2126Y306D02*
X2283D01*
X549Y361D02*
Y755D01*
X534Y346D02*
X549Y361D01*
X431Y341D02*
X529D01*
X411Y361D02*
X426Y346D01*
X411Y361D02*
Y755D01*
X549D01*
X421Y351D02*
X431Y341D01*
X529D02*
X539Y351D01*
X695Y541D02*
X1089D01*
X1104Y526D01*
X1109Y423D02*
Y521D01*
X1089Y403D02*
X1104Y418D01*
X695Y403D02*
X1089D01*
X695D02*
Y541D01*
X1099Y413D02*
X1109Y423D01*
X1099Y531D02*
X1109Y521D01*
X452Y2692D02*
X846D01*
X861Y2677D01*
X866Y2574D02*
Y2672D01*
X846Y2554D02*
X861Y2569D01*
X452Y2554D02*
X846D01*
X452D02*
Y2692D01*
X856Y2564D02*
X866Y2574D01*
X856Y2682D02*
X866Y2672D01*
X449Y2704D02*
Y2842D01*
X843D01*
X449Y2704D02*
X843D01*
Y2842D02*
X858Y2827D01*
X853Y2832D02*
X863Y2822D01*
X843Y2704D02*
X858Y2719D01*
X863Y2724D02*
Y2822D01*
X853Y2714D02*
X863Y2724D01*
X1583Y2341D02*
X1977D01*
Y2479D01*
X1583D02*
X1977D01*
X1568Y2356D02*
X1583Y2341D01*
X1564Y2361D02*
X1574Y2351D01*
X1564Y2361D02*
Y2459D01*
X1568Y2464D02*
X1583Y2479D01*
X1564Y2459D02*
X1574Y2469D01*
X590Y228D02*
X591Y228D01*
X590Y228D02*
Y389D01*
X591Y228D02*
X1850D01*
X590Y389D02*
X1850D01*
Y228D02*
Y389D01*
Y310D02*
Y365D01*
X256Y2432D02*
X311D01*
X235D02*
X393D01*
X235Y307D02*
X236Y306D01*
X235Y307D02*
Y2432D01*
X393Y306D02*
Y2432D01*
X393Y306D02*
X393Y306D01*
X236Y306D02*
X393D01*
D12*
X3446Y2070D02*
Y2208D01*
X3722D01*
X3446Y1932D02*
Y2070D01*
Y1932D02*
X3722D01*
Y2208D01*
X4037D01*
Y1932D02*
Y2208D01*
X3722Y1932D02*
X4037D01*
X2350Y1603D02*
X3757Y1603D01*
X2350Y453D02*
Y1603D01*
Y453D02*
X3757Y453D01*
Y1178D02*
X3835D01*
Y878D02*
Y1178D01*
X3757Y878D02*
X3835D01*
X3757Y1178D02*
Y1603D01*
Y453D02*
Y878D01*
D13*
X1051Y1288D02*
G03*
X1051Y1313I0J13D01*
G01*
X2742Y2317D02*
Y2537D01*
X2532Y2317D02*
X2742D01*
X2532D02*
Y2537D01*
X2742D01*
X1051Y1313D02*
Y1368D01*
Y1233D02*
Y1288D01*
Y1233D02*
X1251D01*
Y1368D01*
X1051D02*
X1251D01*
X637Y896D02*
Y1106D01*
X417Y896D02*
X637D01*
X417D02*
Y1106D01*
X637D01*
X2690Y2837D02*
Y2811D01*
X2677Y2798D01*
X2664Y2811D01*
Y2837D01*
X2624D02*
X2651D01*
Y2818D01*
X2638Y2824D01*
X2631D01*
X2624Y2818D01*
Y2805D01*
X2631Y2798D01*
X2644D01*
X2651Y2805D01*
X2611Y2791D02*
X2585D01*
X2572Y2837D02*
Y2811D01*
X2559Y2798D01*
X2546Y2811D01*
Y2837D01*
X2533D02*
Y2798D01*
X2513D01*
X2506Y2805D01*
Y2831D01*
X2513Y2837D01*
X2533D01*
X2493D02*
Y2798D01*
X2474D01*
X2467Y2805D01*
Y2831D01*
X2474Y2837D01*
X2493D01*
X2321Y2188D02*
X2347D01*
X2360Y2175D01*
X2347Y2162D01*
X2321D01*
X2327Y2149D02*
X2321Y2142D01*
Y2129D01*
X2327Y2122D01*
X2334D01*
X2340Y2129D01*
Y2136D01*
Y2129D01*
X2347Y2122D01*
X2353D01*
X2360Y2129D01*
Y2142D01*
X2353Y2149D01*
X2321Y2109D02*
X2347D01*
X2360Y2096D01*
X2347Y2083D01*
X2321D01*
X2327Y2070D02*
X2321Y2063D01*
Y2050D01*
X2327Y2044D01*
X2334D01*
X2340Y2050D01*
Y2057D01*
Y2050D01*
X2347Y2044D01*
X2353D01*
X2360Y2050D01*
Y2063D01*
X2353Y2070D01*
X2367Y2031D02*
Y2004D01*
X2321Y1991D02*
X2347D01*
X2360Y1978D01*
X2347Y1965D01*
X2321D01*
Y1952D02*
X2360D01*
Y1932D01*
X2353Y1926D01*
X2327D01*
X2321Y1932D01*
Y1952D01*
Y1912D02*
X2360D01*
Y1893D01*
X2353Y1886D01*
X2327D01*
X2321Y1893D01*
Y1912D01*
X880Y129D02*
Y103D01*
X867Y90D01*
X854Y103D01*
Y129D01*
X814D02*
X841D01*
Y110D01*
X828Y116D01*
X821D01*
X814Y110D01*
Y97D01*
X821Y90D01*
X834D01*
X841Y97D01*
X801Y83D02*
X775D01*
X762Y90D02*
Y116D01*
X749Y129D01*
X736Y116D01*
Y90D01*
Y110D01*
X762D01*
X723Y129D02*
Y90D01*
X703D01*
X696Y97D01*
Y123D01*
X703Y129D01*
X723D01*
X657Y123D02*
X664Y129D01*
X677D01*
X683Y123D01*
Y97D01*
X677Y90D01*
X664D01*
X657Y97D01*
X1007Y2906D02*
Y2880D01*
X994Y2867D01*
X981Y2880D01*
Y2906D01*
X968Y2874D02*
X961Y2867D01*
X948D01*
X941Y2874D01*
Y2900D01*
X948Y2906D01*
X961D01*
X968Y2900D01*
Y2893D01*
X961Y2887D01*
X941D01*
X928Y2860D02*
X902D01*
X863Y2900D02*
X869Y2906D01*
X882D01*
X889Y2900D01*
Y2874D01*
X882Y2867D01*
X869D01*
X863Y2874D01*
X823Y2900D02*
X830Y2906D01*
X843D01*
X850Y2900D01*
Y2874D01*
X843Y2867D01*
X830D01*
X823Y2874D01*
X810Y2906D02*
Y2867D01*
X791D01*
X784Y2874D01*
Y2900D01*
X791Y2906D01*
X810D01*
X3309Y2057D02*
Y2097D01*
X3289D01*
X3282Y2090D01*
Y2077D01*
X3289Y2070D01*
X3309D01*
X3295D02*
X3282Y2057D01*
X3269Y2064D02*
X3263Y2057D01*
X3250D01*
X3243Y2064D01*
Y2090D01*
X3250Y2097D01*
X3263D01*
X3269Y2090D01*
Y2084D01*
X3263Y2077D01*
X3243D01*
X2974Y1931D02*
X2980Y1937D01*
X2993D01*
X3000Y1931D01*
Y1905D01*
X2993Y1898D01*
X2980D01*
X2974Y1905D01*
X2934Y1898D02*
X2961D01*
X2934Y1924D01*
Y1931D01*
X2941Y1937D01*
X2954D01*
X2961Y1931D01*
X2902Y1898D02*
Y1937D01*
X2921Y1918D01*
X2895D01*
X2981Y2052D02*
X2975Y2058D01*
Y2071D01*
X2981Y2078D01*
X3007D01*
X3014Y2071D01*
Y2058D01*
X3007Y2052D01*
X3014Y2012D02*
Y2039D01*
X2988Y2012D01*
X2981D01*
X2975Y2019D01*
Y2032D01*
X2981Y2039D01*
Y1999D02*
X2975Y1993D01*
Y1980D01*
X2981Y1973D01*
X2988D01*
X2994Y1980D01*
Y1986D01*
Y1980D01*
X3001Y1973D01*
X3007D01*
X3014Y1980D01*
Y1993D01*
X3007Y1999D01*
X3240Y1957D02*
Y1918D01*
X3220D01*
X3214Y1925D01*
Y1951D01*
X3220Y1957D01*
X3240D01*
X3174D02*
X3188Y1951D01*
X3201Y1938D01*
Y1925D01*
X3194Y1918D01*
X3181D01*
X3174Y1925D01*
Y1931D01*
X3181Y1938D01*
X3201D01*
X3104Y2501D02*
X3110Y2507D01*
X3123D01*
X3130Y2501D01*
Y2494D01*
X3123Y2488D01*
X3110D01*
X3104Y2481D01*
Y2475D01*
X3110Y2468D01*
X3123D01*
X3130Y2475D01*
X3091Y2507D02*
Y2468D01*
X3071D01*
X3064Y2475D01*
Y2481D01*
X3071Y2488D01*
X3091D01*
X3071D01*
X3064Y2494D01*
Y2501D01*
X3071Y2507D01*
X3091D01*
X3051Y2468D02*
X3038D01*
X3045D01*
Y2507D01*
X3051Y2501D01*
X3120Y2028D02*
Y2067D01*
X3100D01*
X3094Y2061D01*
Y2048D01*
X3100Y2041D01*
X3120D01*
X3107D02*
X3094Y2028D01*
X3081Y2067D02*
X3054D01*
Y2061D01*
X3081Y2035D01*
Y2028D01*
X2660Y2592D02*
Y2553D01*
X2640D01*
X2634Y2560D01*
Y2586D01*
X2640Y2592D01*
X2660D01*
X2594D02*
X2621D01*
Y2573D01*
X2608Y2579D01*
X2601D01*
X2594Y2573D01*
Y2560D01*
X2601Y2553D01*
X2614D01*
X2621Y2560D01*
X2386Y2302D02*
X2392Y2308D01*
X2405D01*
X2412Y2302D01*
Y2276D01*
X2405Y2269D01*
X2392D01*
X2386Y2276D01*
X2346Y2269D02*
X2373D01*
X2346Y2295D01*
Y2302D01*
X2353Y2308D01*
X2366D01*
X2373Y2302D01*
X2307Y2269D02*
X2333D01*
X2307Y2295D01*
Y2302D01*
X2314Y2308D01*
X2327D01*
X2333Y2302D01*
X1090Y2157D02*
Y2118D01*
X1070D01*
X1064Y2125D01*
Y2151D01*
X1070Y2157D01*
X1090D01*
X1051D02*
Y2118D01*
X1031D01*
X1024Y2125D01*
Y2151D01*
X1031Y2157D01*
X1051D01*
X1011D02*
X985D01*
Y2151D01*
X1011Y2125D01*
Y2118D01*
X1240Y1507D02*
Y1468D01*
X1220D01*
X1214Y1475D01*
Y1501D01*
X1220Y1507D01*
X1240D01*
X1201Y1475D02*
X1194Y1468D01*
X1181D01*
X1174Y1475D01*
Y1501D01*
X1181Y1507D01*
X1194D01*
X1201Y1501D01*
Y1494D01*
X1194Y1488D01*
X1174D01*
X1534Y1351D02*
X1540Y1357D01*
X1553D01*
X1560Y1351D01*
Y1325D01*
X1553Y1318D01*
X1540D01*
X1534Y1325D01*
X1494Y1318D02*
X1521D01*
X1494Y1344D01*
Y1351D01*
X1501Y1357D01*
X1514D01*
X1521Y1351D01*
X1481D02*
X1475Y1357D01*
X1462D01*
X1455Y1351D01*
Y1325D01*
X1462Y1318D01*
X1475D01*
X1481Y1325D01*
Y1351D01*
X620Y1217D02*
Y1178D01*
X600D01*
X594Y1185D01*
Y1211D01*
X600Y1217D01*
X620D01*
X554Y1178D02*
X581D01*
X554Y1204D01*
Y1211D01*
X561Y1217D01*
X574D01*
X581Y1211D01*
X1104Y1611D02*
X1110Y1617D01*
X1123D01*
X1130Y1611D01*
Y1585D01*
X1123Y1578D01*
X1110D01*
X1104Y1585D01*
X1091Y1578D02*
X1078D01*
X1084D01*
Y1617D01*
X1091Y1611D01*
X1058D02*
X1051Y1617D01*
X1038D01*
X1032Y1611D01*
Y1604D01*
X1038Y1598D01*
X1032Y1591D01*
Y1585D01*
X1038Y1578D01*
X1051D01*
X1058Y1585D01*
Y1591D01*
X1051Y1598D01*
X1058Y1604D01*
Y1611D01*
X1051Y1598D02*
X1038D01*
X504Y813D02*
X510Y819D01*
X523D01*
X530Y813D01*
Y787D01*
X523Y780D01*
X510D01*
X504Y787D01*
X491Y780D02*
X478D01*
X484D01*
Y819D01*
X491Y813D01*
X458Y787D02*
X451Y780D01*
X438D01*
X432Y787D01*
Y813D01*
X438Y819D01*
X451D01*
X458Y813D01*
Y806D01*
X451Y800D01*
X432D01*
X1290Y938D02*
Y977D01*
X1270D01*
X1264Y971D01*
Y958D01*
X1270Y951D01*
X1290D01*
X1277D02*
X1264Y938D01*
X1251D02*
X1238D01*
X1244D01*
Y977D01*
X1251Y971D01*
X3460Y1698D02*
Y1737D01*
X3440D01*
X3434Y1731D01*
Y1718D01*
X3440Y1711D01*
X3460D01*
X3447D02*
X3434Y1698D01*
X3394Y1737D02*
X3408Y1731D01*
X3421Y1718D01*
Y1705D01*
X3414Y1698D01*
X3401D01*
X3394Y1705D01*
Y1711D01*
X3401Y1718D01*
X3421D01*
X1310Y1008D02*
Y1047D01*
X1290D01*
X1284Y1041D01*
Y1028D01*
X1290Y1021D01*
X1310D01*
X1297D02*
X1284Y1008D01*
X1244D02*
X1271D01*
X1244Y1034D01*
Y1041D01*
X1251Y1047D01*
X1264D01*
X1271Y1041D01*
X1820Y2498D02*
Y2537D01*
X1800D01*
X1794Y2531D01*
Y2518D01*
X1800Y2511D01*
X1820D01*
X1807D02*
X1794Y2498D01*
X1781Y2531D02*
X1774Y2537D01*
X1761D01*
X1754Y2531D01*
Y2524D01*
X1761Y2518D01*
X1754Y2511D01*
Y2505D01*
X1761Y2498D01*
X1774D01*
X1781Y2505D01*
Y2511D01*
X1774Y2518D01*
X1781Y2524D01*
Y2531D01*
X1774Y2518D02*
X1761D01*
X906Y2385D02*
X946D01*
Y2405D01*
X939Y2411D01*
X926D01*
X920Y2405D01*
Y2385D01*
Y2398D02*
X906Y2411D01*
Y2424D02*
Y2438D01*
Y2431D01*
X946D01*
X939Y2424D01*
X906Y2484D02*
Y2457D01*
X933Y2484D01*
X939D01*
X946Y2477D01*
Y2464D01*
X939Y2457D01*
X1010Y1217D02*
Y1178D01*
X990D01*
X984Y1185D01*
Y1211D01*
X990Y1217D01*
X1010D01*
X971D02*
Y1178D01*
X951D01*
X944Y1185D01*
Y1211D01*
X951Y1217D01*
X971D01*
X905D02*
X931D01*
Y1198D01*
X918Y1204D01*
X912D01*
X905Y1198D01*
Y1185D01*
X912Y1178D01*
X925D01*
X931Y1185D01*
X1910Y1465D02*
Y1426D01*
X1890D01*
X1884Y1433D01*
Y1459D01*
X1890Y1465D01*
X1910D01*
X1871D02*
Y1426D01*
X1851D01*
X1844Y1433D01*
Y1459D01*
X1851Y1465D01*
X1871D01*
X1812Y1426D02*
Y1465D01*
X1831Y1446D01*
X1805D01*
X1242Y2155D02*
Y2115D01*
X1222D01*
X1216Y2122D01*
Y2148D01*
X1222Y2155D01*
X1242D01*
X1203D02*
Y2115D01*
X1183D01*
X1177Y2122D01*
Y2148D01*
X1183Y2155D01*
X1203D01*
X1163Y2115D02*
X1150D01*
X1157D01*
Y2155D01*
X1163Y2148D01*
X1530Y2157D02*
Y2118D01*
X1510D01*
X1504Y2125D01*
Y2151D01*
X1510Y2157D01*
X1530D01*
X1491D02*
Y2118D01*
X1471D01*
X1464Y2125D01*
Y2151D01*
X1471Y2157D01*
X1491D01*
X1425Y2118D02*
X1451D01*
X1425Y2144D01*
Y2151D01*
X1432Y2157D01*
X1445D01*
X1451Y2151D01*
X1770Y2157D02*
Y2118D01*
X1750D01*
X1744Y2125D01*
Y2151D01*
X1750Y2157D01*
X1770D01*
X1731D02*
Y2118D01*
X1711D01*
X1704Y2125D01*
Y2151D01*
X1711Y2157D01*
X1731D01*
X1691Y2151D02*
X1685Y2157D01*
X1672D01*
X1665Y2151D01*
Y2144D01*
X1672Y2138D01*
X1678D01*
X1672D01*
X1665Y2131D01*
Y2125D01*
X1672Y2118D01*
X1685D01*
X1691Y2125D01*
X580Y2289D02*
Y2250D01*
X560D01*
X554Y2257D01*
Y2283D01*
X560Y2289D01*
X580D01*
X521Y2250D02*
Y2289D01*
X541Y2270D01*
X514D01*
X1790Y1269D02*
Y1230D01*
X1770D01*
X1764Y1237D01*
Y1263D01*
X1770Y1269D01*
X1790D01*
X1751Y1263D02*
X1744Y1269D01*
X1731D01*
X1724Y1263D01*
Y1256D01*
X1731Y1250D01*
X1724Y1243D01*
Y1237D01*
X1731Y1230D01*
X1744D01*
X1751Y1237D01*
Y1243D01*
X1744Y1250D01*
X1751Y1256D01*
Y1263D01*
X1744Y1250D02*
X1731D01*
X400Y2786D02*
X406Y2792D01*
X419D01*
X426Y2786D01*
Y2760D01*
X419Y2753D01*
X406D01*
X400Y2760D01*
X387Y2753D02*
X374D01*
X380D01*
Y2792D01*
X387Y2786D01*
X354Y2792D02*
X328D01*
Y2786D01*
X354Y2760D01*
Y2753D01*
X2061Y2431D02*
X2067Y2437D01*
X2080D01*
X2087Y2431D01*
Y2405D01*
X2080Y2398D01*
X2067D01*
X2061Y2405D01*
X2021Y2398D02*
X2048D01*
X2021Y2424D01*
Y2431D01*
X2028Y2437D01*
X2041D01*
X2048Y2431D01*
X2008Y2398D02*
X1995D01*
X2002D01*
Y2437D01*
X2008Y2431D01*
X774Y1018D02*
X780Y1024D01*
X793D01*
X800Y1018D01*
Y992D01*
X793Y985D01*
X780D01*
X774Y992D01*
X761Y1018D02*
X754Y1024D01*
X741D01*
X734Y1018D01*
Y1011D01*
X741Y1005D01*
X734Y998D01*
Y992D01*
X741Y985D01*
X754D01*
X761Y992D01*
Y998D01*
X754Y1005D01*
X761Y1011D01*
Y1018D01*
X754Y1005D02*
X741D01*
X1137Y492D02*
X1131Y498D01*
Y511D01*
X1137Y518D01*
X1163D01*
X1170Y511D01*
Y498D01*
X1163Y492D01*
X1170Y479D02*
Y466D01*
Y472D01*
X1131D01*
X1137Y479D01*
X1131Y420D02*
Y446D01*
X1150D01*
X1144Y433D01*
Y426D01*
X1150Y420D01*
X1163D01*
X1170Y426D01*
Y439D01*
X1163Y446D01*
X1491Y490D02*
X1498Y483D01*
Y470D01*
X1491Y463D01*
X1465D01*
X1459Y470D01*
Y483D01*
X1465Y490D01*
X1459Y503D02*
Y516D01*
Y509D01*
X1498D01*
X1491Y503D01*
X1459Y555D02*
X1498D01*
X1478Y535D01*
Y562D01*
X1556Y1737D02*
X1562Y1743D01*
X1575D01*
X1582Y1737D01*
Y1711D01*
X1575Y1704D01*
X1562D01*
X1556Y1711D01*
X1543Y1704D02*
X1530D01*
X1536D01*
Y1743D01*
X1543Y1737D01*
X933Y924D02*
X939Y918D01*
Y905D01*
X933Y898D01*
X907D01*
X900Y905D01*
Y918D01*
X907Y924D01*
X900Y937D02*
Y950D01*
Y944D01*
X939D01*
X933Y937D01*
X900Y970D02*
Y983D01*
Y977D01*
X939D01*
X933Y970D01*
X1434Y841D02*
X1440Y847D01*
X1453D01*
X1460Y841D01*
Y815D01*
X1453Y808D01*
X1440D01*
X1434Y815D01*
X1401Y808D02*
Y847D01*
X1421Y828D01*
X1394D01*
X1156Y1073D02*
X1162Y1079D01*
X1175D01*
X1182Y1073D01*
Y1047D01*
X1175Y1040D01*
X1162D01*
X1156Y1047D01*
X1116Y1079D02*
X1143D01*
Y1060D01*
X1130Y1066D01*
X1123D01*
X1116Y1060D01*
Y1047D01*
X1123Y1040D01*
X1136D01*
X1143Y1047D01*
X1024Y1061D02*
X1030Y1067D01*
X1043D01*
X1050Y1061D01*
Y1035D01*
X1043Y1028D01*
X1030D01*
X1024Y1035D01*
X984Y1067D02*
X998Y1061D01*
X1011Y1048D01*
Y1035D01*
X1004Y1028D01*
X991D01*
X984Y1035D01*
Y1041D01*
X991Y1048D01*
X1011D01*
X1034Y593D02*
X1040Y599D01*
X1053D01*
X1060Y593D01*
Y567D01*
X1053Y560D01*
X1040D01*
X1034Y567D01*
X994Y560D02*
X1021D01*
X994Y586D01*
Y593D01*
X1001Y599D01*
X1014D01*
X1021Y593D01*
X1283Y654D02*
X1289Y648D01*
Y635D01*
X1283Y628D01*
X1257D01*
X1250Y635D01*
Y648D01*
X1257Y654D01*
X1289Y667D02*
Y694D01*
X1283D01*
X1257Y667D01*
X1250D01*
X400Y2636D02*
X406Y2642D01*
X419D01*
X426Y2636D01*
Y2610D01*
X419Y2603D01*
X406D01*
X400Y2610D01*
X387Y2603D02*
X374D01*
X380D01*
Y2642D01*
X387Y2636D01*
X328Y2603D02*
X354D01*
X328Y2629D01*
Y2636D01*
X334Y2642D01*
X347D01*
X354Y2636D01*
X634Y2903D02*
X640Y2909D01*
X653D01*
X660Y2903D01*
Y2877D01*
X653Y2870D01*
X640D01*
X634Y2877D01*
X621D02*
X614Y2870D01*
X601D01*
X594Y2877D01*
Y2903D01*
X601Y2909D01*
X614D01*
X621Y2903D01*
Y2896D01*
X614Y2890D01*
X594D01*
X1641Y1524D02*
X1647Y1530D01*
X1660D01*
X1667Y1524D01*
Y1498D01*
X1660Y1491D01*
X1647D01*
X1641Y1498D01*
X1628Y1524D02*
X1621Y1530D01*
X1608D01*
X1601Y1524D01*
Y1517D01*
X1608Y1511D01*
X1615D01*
X1608D01*
X1601Y1504D01*
Y1498D01*
X1608Y1491D01*
X1621D01*
X1628Y1498D01*
D39*
X3059Y1960D02*
G03*
X3059Y1960I-4J0D01*
G01*
X3995Y2382D02*
Y2795D01*
X3405Y2382D02*
X3995D01*
X3405D02*
Y2795D01*
X3995D01*
X2204Y2591D02*
Y2749D01*
X2124Y2354D02*
X2282D01*
X1771Y229D02*
Y387D01*
X234Y2354D02*
X392D01*
D82*
X1030Y1369D02*
G03*
X1030Y1369I-4J0D01*
G01*
M02*
