G04*
G04 #@! TF.GenerationSoftware,Altium Limited,Altium Designer,19.1.6 (110)*
G04*
G04 Layer_Color=65535*
%FSLAX24Y24*%
%MOIN*%
G70*
G01*
G75*
%ADD10C,0.0039*%
%ADD11C,0.0059*%
%ADD12C,0.0083*%
%ADD13C,0.0079*%
%ADD14C,0.0118*%
D10*
X2362Y24803D02*
G03*
X2362Y24803I-1181J0D01*
G01*
Y1181D02*
G03*
X2362Y1181I-1181J0D01*
G01*
X6693Y13976D02*
G03*
X6693Y13976I-1181J0D01*
G01*
X21260D02*
G03*
X21260Y13976I-1181J0D01*
G01*
X37598Y24803D02*
G03*
X37598Y24803I-1181J0D01*
G01*
Y1181D02*
G03*
X37598Y1181I-1181J0D01*
G01*
D11*
X14905Y10316D02*
G03*
X14905Y10066I0J-125D01*
G01*
X30015Y22500D02*
Y24600D01*
X27815D02*
X30015D01*
X27815Y22500D02*
Y24600D01*
Y22500D02*
X30015D01*
X12905Y10866D02*
X14905D01*
X12905Y9516D02*
Y10866D01*
Y9516D02*
X14905D01*
Y10066D01*
Y10316D02*
Y10866D01*
X13025Y12254D02*
Y11860D01*
X13222D01*
X13288Y11926D01*
Y12188D01*
X13222Y12254D01*
X13025D01*
X13419Y11926D02*
X13485Y11860D01*
X13616D01*
X13681Y11926D01*
Y12188D01*
X13616Y12254D01*
X13485D01*
X13419Y12188D01*
Y12122D01*
X13485Y12057D01*
X13681D01*
X26548Y24528D02*
X26482Y24594D01*
X26351D01*
X26285Y24528D01*
Y24266D01*
X26351Y24200D01*
X26482D01*
X26548Y24266D01*
X26679Y24200D02*
X26810D01*
X26745D01*
Y24594D01*
X26679Y24528D01*
X27269Y24594D02*
X27138Y24528D01*
X27007Y24397D01*
Y24266D01*
X27073Y24200D01*
X27204D01*
X27269Y24266D01*
Y24331D01*
X27204Y24397D01*
X27007D01*
X27335Y16440D02*
Y16834D01*
X27532D01*
X27598Y16768D01*
Y16637D01*
X27532Y16571D01*
X27335D01*
X27467D02*
X27598Y16440D01*
X27926D02*
Y16834D01*
X27729Y16637D01*
X27991D01*
X11738Y12508D02*
X11672Y12574D01*
X11541D01*
X11475Y12508D01*
Y12246D01*
X11541Y12180D01*
X11672D01*
X11738Y12246D01*
X12131Y12180D02*
X11869D01*
X12131Y12442D01*
Y12508D01*
X12066Y12574D01*
X11935D01*
X11869Y12508D01*
X12263D02*
X12328Y12574D01*
X12459D01*
X12525Y12508D01*
Y12246D01*
X12459Y12180D01*
X12328D01*
X12263Y12246D01*
Y12508D01*
X28525Y21874D02*
Y21480D01*
X28722D01*
X28788Y21546D01*
Y21808D01*
X28722Y21874D01*
X28525D01*
X28919Y21808D02*
X28985Y21874D01*
X29116D01*
X29181Y21808D01*
Y21742D01*
X29116Y21677D01*
X29050D01*
X29116D01*
X29181Y21611D01*
Y21546D01*
X29116Y21480D01*
X28985D01*
X28919Y21546D01*
X12500Y6600D02*
Y6994D01*
X12697D01*
X12762Y6928D01*
Y6797D01*
X12697Y6731D01*
X12500D01*
X12631D02*
X12762Y6600D01*
X12894D02*
X13025D01*
X12959D01*
Y6994D01*
X12894Y6928D01*
X26515Y16860D02*
X26122D01*
Y17057D01*
X26187Y17122D01*
X26319D01*
X26384Y17057D01*
Y16860D01*
Y16991D02*
X26515Y17122D01*
X26122Y17516D02*
Y17254D01*
X26319D01*
X26253Y17385D01*
Y17450D01*
X26319Y17516D01*
X26450D01*
X26515Y17450D01*
Y17319D01*
X26450Y17254D01*
X12250Y7270D02*
Y7664D01*
X12447D01*
X12512Y7598D01*
Y7467D01*
X12447Y7401D01*
X12250D01*
X12381D02*
X12512Y7270D01*
X12906D02*
X12644D01*
X12906Y7532D01*
Y7598D01*
X12840Y7664D01*
X12709D01*
X12644Y7598D01*
X28590Y19490D02*
Y19884D01*
X28787D01*
X28852Y19818D01*
Y19687D01*
X28787Y19621D01*
X28590D01*
X28721D02*
X28852Y19490D01*
X28984Y19818D02*
X29049Y19884D01*
X29180D01*
X29246Y19818D01*
Y19752D01*
X29180Y19687D01*
X29115D01*
X29180D01*
X29246Y19621D01*
Y19556D01*
X29180Y19490D01*
X29049D01*
X28984Y19556D01*
X15275Y9394D02*
Y9000D01*
X15472D01*
X15538Y9066D01*
Y9328D01*
X15472Y9394D01*
X15275D01*
X15669D02*
Y9000D01*
X15866D01*
X15931Y9066D01*
Y9328D01*
X15866Y9394D01*
X15669D01*
X16325D02*
X16063D01*
Y9197D01*
X16194Y9262D01*
X16259D01*
X16325Y9197D01*
Y9066D01*
X16259Y9000D01*
X16128D01*
X16063Y9066D01*
X6339Y12874D02*
Y12480D01*
X6535D01*
X6601Y12546D01*
Y12808D01*
X6535Y12874D01*
X6339D01*
X6732D02*
Y12480D01*
X6929D01*
X6995Y12546D01*
Y12808D01*
X6929Y12874D01*
X6732D01*
X7323Y12480D02*
Y12874D01*
X7126Y12677D01*
X7388D01*
X27175Y19524D02*
Y19130D01*
X27372D01*
X27438Y19196D01*
Y19458D01*
X27372Y19524D01*
X27175D01*
X27569D02*
Y19130D01*
X27766D01*
X27831Y19196D01*
Y19458D01*
X27766Y19524D01*
X27569D01*
X28225D02*
X28094Y19458D01*
X27963Y19327D01*
Y19196D01*
X28028Y19130D01*
X28159D01*
X28225Y19196D01*
Y19261D01*
X28159Y19327D01*
X27963D01*
X6395Y9937D02*
Y9544D01*
X6592D01*
X6657Y9609D01*
Y9872D01*
X6592Y9937D01*
X6395D01*
X6789Y9872D02*
X6854Y9937D01*
X6985D01*
X7051Y9872D01*
Y9806D01*
X6985Y9740D01*
X7051Y9675D01*
Y9609D01*
X6985Y9544D01*
X6854D01*
X6789Y9609D01*
Y9675D01*
X6854Y9740D01*
X6789Y9806D01*
Y9872D01*
X6854Y9740D02*
X6985D01*
X30446Y22605D02*
X30381Y22539D01*
Y22408D01*
X30446Y22343D01*
X30709D01*
X30774Y22408D01*
Y22539D01*
X30709Y22605D01*
X30774Y22998D02*
Y22736D01*
X30512Y22998D01*
X30446D01*
X30381Y22933D01*
Y22802D01*
X30446Y22736D01*
X30381Y23392D02*
Y23130D01*
X30578D01*
X30512Y23261D01*
Y23326D01*
X30578Y23392D01*
X30709D01*
X30774Y23326D01*
Y23195D01*
X30709Y23130D01*
X17637Y5102D02*
X17572Y5036D01*
Y4905D01*
X17637Y4840D01*
X17900D01*
X17965Y4905D01*
Y5036D01*
X17900Y5102D01*
X17637Y5233D02*
X17572Y5299D01*
Y5430D01*
X17637Y5496D01*
X17703D01*
X17769Y5430D01*
X17834Y5496D01*
X17900D01*
X17965Y5430D01*
Y5299D01*
X17900Y5233D01*
X17834D01*
X17769Y5299D01*
X17703Y5233D01*
X17637D01*
X17769Y5299D02*
Y5430D01*
X10497Y2082D02*
X10432Y2017D01*
Y1886D01*
X10497Y1820D01*
X10760D01*
X10825Y1886D01*
Y2017D01*
X10760Y2082D01*
X10825Y2214D02*
Y2345D01*
Y2279D01*
X10432D01*
X10497Y2214D01*
X10825Y2738D02*
X10432D01*
X10629Y2542D01*
Y2804D01*
X7262Y13422D02*
X7196Y13357D01*
Y13226D01*
X7262Y13160D01*
X7524D01*
X7590Y13226D01*
Y13357D01*
X7524Y13422D01*
X7590Y13554D02*
Y13685D01*
Y13619D01*
X7196D01*
X7262Y13554D01*
X16037Y6362D02*
X15972Y6297D01*
Y6166D01*
X16037Y6100D01*
X16300D01*
X16365Y6166D01*
Y6297D01*
X16300Y6362D01*
X16365Y6494D02*
Y6625D01*
Y6559D01*
X15972D01*
X16037Y6494D01*
X16365Y6822D02*
Y6953D01*
Y6887D01*
X15972D01*
X16037Y6822D01*
X12772Y6188D02*
X12707Y6254D01*
X12576D01*
X12510Y6188D01*
Y5926D01*
X12576Y5860D01*
X12707D01*
X12772Y5926D01*
X13100Y5860D02*
Y6254D01*
X12904Y6057D01*
X13166D01*
X13862Y7868D02*
X13797Y7934D01*
X13666D01*
X13600Y7868D01*
Y7606D01*
X13666Y7540D01*
X13797D01*
X13862Y7606D01*
X14256Y7934D02*
X13994D01*
Y7737D01*
X14125Y7802D01*
X14190D01*
X14256Y7737D01*
Y7606D01*
X14190Y7540D01*
X14059D01*
X13994Y7606D01*
X15166Y7796D02*
X15101Y7861D01*
X14970D01*
X14904Y7796D01*
Y7533D01*
X14970Y7468D01*
X15101D01*
X15166Y7533D01*
X15560Y7861D02*
X15429Y7796D01*
X15298Y7664D01*
Y7533D01*
X15363Y7468D01*
X15494D01*
X15560Y7533D01*
Y7599D01*
X15494Y7664D01*
X15298D01*
X15047Y2692D02*
X14982Y2627D01*
Y2496D01*
X15047Y2430D01*
X15310D01*
X15375Y2496D01*
Y2627D01*
X15310Y2692D01*
X15375Y3086D02*
Y2824D01*
X15113Y3086D01*
X15047D01*
X14982Y3020D01*
Y2889D01*
X15047Y2824D01*
X12647Y3822D02*
X12582Y3757D01*
Y3626D01*
X12647Y3560D01*
X12910D01*
X12975Y3626D01*
Y3757D01*
X12910Y3822D01*
X12582Y3954D02*
Y4216D01*
X12647D01*
X12910Y3954D01*
X12975D01*
X23437Y25072D02*
X23372Y25007D01*
Y24876D01*
X23437Y24810D01*
X23700D01*
X23765Y24876D01*
Y25007D01*
X23700Y25072D01*
X23765Y25204D02*
Y25335D01*
Y25269D01*
X23372D01*
X23437Y25204D01*
Y25532D02*
X23372Y25597D01*
Y25728D01*
X23437Y25794D01*
X23503D01*
X23569Y25728D01*
Y25663D01*
Y25728D01*
X23634Y25794D01*
X23700D01*
X23765Y25728D01*
Y25597D01*
X23700Y25532D01*
X24962Y24528D02*
X24897Y24594D01*
X24766D01*
X24700Y24528D01*
Y24266D01*
X24766Y24200D01*
X24897D01*
X24962Y24266D01*
X25094Y24200D02*
X25225D01*
X25159D01*
Y24594D01*
X25094Y24528D01*
X25422D02*
X25487Y24594D01*
X25618D01*
X25684Y24528D01*
Y24266D01*
X25618Y24200D01*
X25487D01*
X25422Y24266D01*
Y24528D01*
X7861Y11942D02*
X7795Y12008D01*
X7664D01*
X7598Y11942D01*
Y11680D01*
X7664Y11614D01*
X7795D01*
X7861Y11680D01*
X7992Y11942D02*
X8058Y12008D01*
X8189D01*
X8254Y11942D01*
Y11877D01*
X8189Y11811D01*
X8123D01*
X8189D01*
X8254Y11745D01*
Y11680D01*
X8189Y11614D01*
X8058D01*
X7992Y11680D01*
D12*
X15195Y10872D02*
G03*
X15195Y10872I-39J0D01*
G01*
D13*
X7574Y9294D02*
G03*
X7824Y9294I125J0D01*
G01*
X18454Y2732D02*
Y6669D01*
X18303Y6820D02*
X18454Y6669D01*
X17273Y6866D02*
X18257D01*
X17076Y6669D02*
X17227Y6820D01*
X17076Y2732D02*
Y6669D01*
Y2732D02*
X18454D01*
X17175Y6768D02*
X17273Y6866D01*
X18257D02*
X18356Y6768D01*
X25889Y19963D02*
Y23900D01*
X25738Y24051D02*
X25889Y23900D01*
X24708Y24096D02*
X25692D01*
X24511Y23900D02*
X24662Y24051D01*
X24511Y19963D02*
Y23900D01*
Y19963D02*
X25889D01*
X24609Y23998D02*
X24708Y24096D01*
X25692D02*
X25791Y23998D01*
X7953Y14039D02*
X11890D01*
X7802Y13888D02*
X7953Y14039D01*
X7756Y12858D02*
Y13842D01*
X7802Y12812D02*
X7953Y12661D01*
X11890D01*
Y14039D01*
X7756Y12858D02*
X7854Y12759D01*
X7756Y13842D02*
X7854Y13941D01*
X27307Y24066D02*
X27406Y23968D01*
X27353Y24020D02*
X27504Y23869D01*
X26323Y24066D02*
X27307D01*
X27504Y19932D02*
Y23869D01*
X26225Y23968D02*
X26323Y24066D01*
X26126Y23869D02*
X26277Y24020D01*
X26126Y19932D02*
X27504D01*
X26126D02*
Y23869D01*
X11475Y8052D02*
X11573Y7954D01*
X11376Y8150D02*
X11527Y7999D01*
X11573Y7954D02*
X12557D01*
X11376Y8150D02*
Y12087D01*
X12557Y7954D02*
X12656Y8052D01*
X12603Y7999D02*
X12754Y8150D01*
X11376Y12087D02*
X12754D01*
Y8150D02*
Y12087D01*
X14436Y7414D02*
X14535Y7315D01*
X13353D02*
X13452Y7414D01*
X13255Y3280D02*
X14633D01*
X13255D02*
Y7217D01*
X13406Y7368D01*
X13452Y7414D02*
X14436D01*
X14482Y7368D02*
X14633Y7217D01*
Y3280D02*
Y7217D01*
X6423Y9294D02*
X7574D01*
X7824D02*
X8974D01*
Y2294D02*
Y9294D01*
X6423Y2294D02*
X8974D01*
X6423D02*
Y9294D01*
D14*
X4612Y16044D02*
Y18044D01*
Y16044D02*
X20912D01*
X4612Y18044D02*
Y20044D01*
X20912D01*
Y16044D02*
Y20044D01*
M02*
